<?xml version="1.0" encoding="UTF-8"?>
<svg width="128px" height="98px" viewBox="0 0 128 98" version="1.1" xmlns="http://www.w3.org/2000/svg" xmlns:xlink="http://www.w3.org/1999/xlink">
    <!-- Generator: sketchtool 64 (101010) - https://sketch.com -->
    <title>E165F549-ABF5-4097-9302-73D287361A7B</title>
    <desc>Created with sketchtool.</desc>
    <g id="Features-Page" stroke="none" stroke-width="1" fill="none" fill-rule="evenodd">
        <g id="UI/Web/Features-Page" transform="translate(-576.000000, -2197.000000)">
            <g id="Diploma" transform="translate(576.000000, 2197.000000)">
                <path d="M123.468085,90.8244681 L4.31914894,90.8244681 C1.96914894,90.8244681 0.0638297872,88.9191489 0.0638297872,86.5691489 L0.0638297872,4.65425532 C0.0638297872,2.30425532 1.96914894,0.39893617 4.31914894,0.39893617 L123.468085,0.39893617 C125.818085,0.39893617 127.723404,2.30425532 127.723404,4.65425532 L127.723404,86.5691489 C127.723404,88.9191489 125.818085,90.8244681 123.468085,90.8244681 Z" id="Path" fill="#76D5D4"></path>
                <path d="M6.55319149,82.0755319 L6.55319149,9.14840426 C6.55319149,7.97340426 7.50585106,7.02074468 8.68085106,7.02074468 L119.106383,7.02074468 C120.281383,7.02074468 121.234043,7.97340426 121.234043,9.14840426 L121.234043,82.0755319 C121.234043,83.2505319 120.281383,84.2031915 119.106383,84.2031915 L8.68085106,84.2031915 C7.50585106,84.2031915 6.55319149,83.2505319 6.55319149,82.0755319 Z" id="Path" fill="#FFFFFF" fill-rule="nonzero"></path>
                <path d="M98.7340426,24.2462766 L29.0531915,24.2462766 C26.9968085,24.2462766 25.3297872,22.5792553 25.3297872,20.5228723 L25.3297872,20.5228723 C25.3297872,18.4664894 26.9968085,16.7994681 29.0531915,16.7994681 L98.7340426,16.7994681 C100.790426,16.7994681 102.457447,18.4664894 102.457447,20.5228723 L102.457447,20.5228723 C102.457447,22.5792553 100.790426,24.2462766 98.7340426,24.2462766 Z" id="Path" fill="#1E496C"></path>
                <path d="M85.1702128,49.512234 L42.6170213,49.512234 C41.1484043,49.512234 39.9574468,48.3212766 39.9574468,46.8526596 L39.9574468,34.618617 C39.9574468,33.15 41.1484043,31.9590426 42.6170213,31.9590426 L85.1702128,31.9590426 C86.6388298,31.9590426 87.8297872,33.15 87.8297872,34.618617 L87.8297872,46.8526596 C87.8297872,48.3218085 86.6388298,49.512234 85.1702128,49.512234 Z" id="Path" fill="#D3EAE4"></path>
                <path d="M109.106383,61.7462766 L18.6808511,61.7462766 C17.5058511,61.7462766 16.5531915,60.793617 16.5531915,59.618617 L16.5531915,59.618617 C16.5531915,58.443617 17.5058511,57.4909574 18.6808511,57.4909574 L109.106383,57.4909574 C110.281383,57.4909574 111.234043,58.443617 111.234043,59.618617 L111.234043,59.618617 C111.234043,60.7941489 110.281383,61.7462766 109.106383,61.7462766 Z" id="Path" fill="#1E496C"></path>
                <path d="M96.3404255,72.3845745 L31.4468085,72.3845745 C30.2718085,72.3845745 29.3191489,71.4319149 29.3191489,70.2569149 L29.3191489,70.2569149 C29.3191489,69.0819149 30.2718085,68.1292553 31.4468085,68.1292553 L96.3404255,68.1292553 C97.5154255,68.1292553 98.4680851,69.0819149 98.4680851,70.2569149 L98.4680851,70.2569149 C98.4680851,71.4324468 97.5154255,72.3845745 96.3404255,72.3845745 Z" id="Path" fill="#1E496C"></path>
                <path d="M102.457447,81.7819149 C100.731915,81.7819149 99.462766,79.0287234 97.9053191,78.5228723 C96.2914894,77.9989362 93.65,79.462234 92.3069149,78.4845745 C90.9505319,77.4973404 91.5308511,74.5260638 90.543617,73.1696809 C89.5659574,71.8265957 86.5558511,71.4659574 86.0319149,69.8521277 C85.5265957,68.2952128 87.7335106,66.2409574 87.7335106,64.5154255 C87.7335106,62.7898936 85.5265957,60.7356383 86.0324468,59.1781915 C86.556383,57.5643617 89.5664894,57.2037234 90.5441489,55.8606383 C91.531383,54.5042553 90.9510638,51.5329787 92.3074468,50.5457447 C93.6505319,49.5680851 96.2920213,51.031383 97.9058511,50.5074468 C99.462766,50.0021277 100.731915,47.2484043 102.457447,47.2484043 C104.182979,47.2484043 105.452128,50.0015957 107.009574,50.5074468 C108.623404,51.031383 111.264894,49.5680851 112.607979,50.5457447 C113.964362,51.5329787 113.384043,54.5042553 114.371277,55.8606383 C115.348936,57.2037234 118.359043,57.5643617 118.882979,59.1781915 C119.388298,60.7351064 117.181383,62.7893617 117.181383,64.5148936 C117.181383,66.2404255 119.388298,68.2952128 118.882447,69.8521277 C118.358511,71.4659574 115.348404,71.8265957 114.370745,73.1696809 C113.383511,74.5260638 113.96383,77.4973404 112.607447,78.4845745 C111.264362,79.462234 108.622872,77.9989362 107.009043,78.5228723 C105.452128,79.0287234 104.182979,81.7819149 102.457447,81.7819149 Z" id="Path" fill="#D3EAE4"></path>
                <path d="M107.009043,78.5228723 C105.452128,79.0281915 104.182979,81.7819149 102.457447,81.7819149 C100.731915,81.7819149 99.462766,79.0287234 97.9053191,78.5228723 C96.9595745,78.2159574 95.662234,78.5893617 94.4787234,78.756383 L94.4787234,96.5351064 C94.4787234,97.4781915 95.6143617,97.9547872 96.287766,97.2946809 L101.712766,91.9718085 C102.126596,91.5659574 102.789362,91.5659574 103.20266,91.9718085 L108.62766,97.2946809 C109.300532,97.9553191 110.436702,97.4781915 110.436702,96.5351064 L110.436702,78.756383 C109.25266,78.5898936 107.954787,78.2159574 107.009043,78.5228723 Z" id="Path" fill="#1E496C"></path>
                <path d="M102.457447,82.8457447 C101.037766,82.8457447 100.004255,81.7638298 99.0920213,80.8090426 C98.5590426,80.2515957 98.0079787,79.6744681 97.5765957,79.5345745 C97.1042553,79.3808511 96.2909574,79.5255319 95.5037234,79.6659574 C94.2297872,79.8920213 92.7861702,80.1489362 91.6803191,79.3446809 C90.5643617,78.5324468 90.3638298,77.0718085 90.1867021,75.7829787 C90.0787234,74.9978723 89.9670213,74.1867021 89.6829787,73.7957447 C89.4058511,73.4148936 88.6755319,73.0632979 87.9696809,72.7228723 C86.7893617,72.1542553 85.4510638,71.5095745 85.0196809,70.1808511 C84.6037234,68.9 85.287766,67.618617 85.8914894,66.4882979 C86.2739362,65.7723404 86.6691489,65.0319149 86.6691489,64.5154255 C86.6691489,63.9989362 86.2739362,63.2585106 85.8914894,62.5425532 C85.287766,61.412234 84.6037234,60.1308511 85.0196809,58.85 C85.4515957,57.5212766 86.7893617,56.8765957 87.9696809,56.3079787 C88.6760638,55.9675532 89.4058511,55.6159574 89.6829787,55.2351064 C89.9675532,54.8446809 90.0792553,54.0329787 90.1867021,53.2478723 C90.3638298,51.9590426 90.5648936,50.4984043 91.6808511,49.6861702 C92.7861702,48.881383 94.2297872,49.1382979 95.5037234,49.3648936 C96.2904255,49.5053191 97.1042553,49.65 97.5765957,49.4962766 C98.0079787,49.356383 98.5590426,48.7792553 99.0920213,48.2218085 C100.003723,47.2675532 101.037234,46.1851064 102.456915,46.1851064 C103.876064,46.1851064 104.910106,47.2670213 105.82234,48.2218085 C106.354787,48.7792553 106.906383,49.356383 107.337766,49.4962766 C107.809574,49.6494681 108.623404,49.5047872 109.410638,49.3648936 C110.684574,49.1382979 112.128191,48.8819149 113.233511,49.6861702 C114.349468,50.4984043 114.55,51.9590426 114.727128,53.2478723 C114.835106,54.0329787 114.946809,54.8441489 115.230851,55.2351064 C115.507979,55.6159574 116.238298,55.9675532 116.944681,56.3079787 C118.125,56.8765957 119.462766,57.5212766 119.894149,58.85 C120.310106,60.131383 119.626064,61.412234 119.02234,62.5425532 C118.639894,63.2585106 118.244681,63.9989362 118.244681,64.5148936 C118.244681,65.031383 118.639894,65.7718085 119.02234,66.4882979 C119.626064,67.618617 120.310106,68.8994681 119.894149,70.1808511 C119.462234,71.5095745 118.124468,72.1542553 116.944149,72.7228723 C116.237766,73.0632979 115.507979,73.4148936 115.230851,73.7957447 C114.946277,74.1861702 114.834574,74.9978723 114.727128,75.7829787 C114.55,77.0718085 114.348936,78.5324468 113.232979,79.3446809 C112.127128,80.1489362 110.684043,79.8920213 109.410106,79.6659574 C108.623404,79.5260638 107.810106,79.3808511 107.337234,79.5345745 C106.905851,79.6744681 106.354787,80.2515957 105.821809,80.8090426 C104.910638,81.7638298 103.877128,82.8457447 102.457447,82.8457447 Z M97.0590426,77.3414894 C97.4606383,77.3414894 97.8553191,77.387766 98.2340426,77.5111702 C99.1760638,77.8170213 99.9154255,78.5909574 100.630319,79.3398936 C101.247872,79.9861702 101.947872,80.718617 102.457447,80.718617 C102.967021,80.718617 103.666489,79.9861702 104.284043,79.3398936 C104.998936,78.5914894 105.738298,77.8170213 106.680319,77.5111702 C107.659043,77.193617 108.73883,77.3856383 109.782979,77.5718085 C110.638298,77.7239362 111.608511,77.8968085 111.980851,77.625 C112.364362,77.3462766 112.499468,76.3617021 112.619149,75.4941489 C112.762766,74.4489362 112.911702,73.3675532 113.510638,72.5446809 C114.10266,71.731383 115.078191,71.2611702 116.021277,70.8069149 C116.818085,70.4234043 117.720213,69.9882979 117.871277,69.5244681 C118.007979,69.1037234 117.530319,68.2095745 117.146809,67.4909574 C116.640957,66.5441489 116.118085,65.5643617 116.118085,64.5154255 C116.118085,63.4664894 116.640957,62.487234 117.146809,61.5404255 C117.530319,60.8218085 118.007979,59.9276596 117.871277,59.5069149 C117.720745,59.0430851 116.818085,58.6085106 116.021809,58.225 C115.078723,57.7707447 114.103723,57.3005319 113.51117,56.487234 C112.912234,55.6638298 112.763298,54.5824468 112.619681,53.537234 C112.500532,52.6691489 112.364894,51.6851064 111.981915,51.406383 C111.607979,51.1345745 110.63883,51.3069149 109.783511,51.4595745 C108.73883,51.6452128 107.657979,51.8367021 106.680851,51.5196809 C105.73883,51.2138298 104.999468,50.4398936 104.284043,49.6909574 C103.666489,49.0446809 102.967021,48.312234 102.457447,48.312234 C101.947872,48.312234 101.248404,49.0446809 100.630851,49.6909574 C99.9159574,50.4393617 99.1765957,51.2138298 98.2345745,51.5196809 C97.256383,51.837766 96.1760638,51.6457447 95.1319149,51.4590426 C94.2765957,51.3069149 93.306383,51.1345745 92.9340426,51.4058511 C92.5505319,51.6845745 92.4154255,52.668617 92.2957447,53.5367021 C92.1521277,54.5819149 92.0031915,55.6632979 91.4042553,56.4861702 C90.812234,57.2994681 89.8367021,57.7696809 88.893617,58.2239362 C88.0968085,58.6074468 87.1946809,59.0425532 87.043617,59.506383 C86.9069149,59.9271277 87.3845745,60.8212766 87.7680851,61.5398936 C88.2739362,62.4867021 88.7968085,63.4659574 88.7968085,64.5148936 C88.7968085,65.5638298 88.2739362,66.5430851 87.7680851,67.4898936 C87.3845745,68.2085106 86.9069149,69.1026596 87.043617,69.5228723 C87.1941489,69.9867021 88.0968085,70.4212766 88.8930851,70.8053191 C89.8361702,71.2595745 90.8111702,71.7292553 91.4037234,72.5425532 C92.0026596,73.3659574 92.1515957,74.4473404 92.2952128,75.4925532 C92.4143617,76.3606383 92.55,77.3446809 92.9329787,77.6234043 C93.306383,77.8957447 94.2760638,77.7228723 95.131383,77.5702128 C95.7712766,77.4574468 96.4239362,77.3414894 97.0590426,77.3414894 Z" id="Shape" fill="#1E496C"></path>
                <circle id="Oval" fill="#F5C54C" cx="102.457447" cy="64.5494681" r="10.2393617"></circle>
            </g>
        </g>
    </g>
</svg>