<?xml version="1.0" encoding="UTF-8"?>
<svg width="80px" height="101px" viewBox="0 0 80 101" version="1.1" xmlns="http://www.w3.org/2000/svg" xmlns:xlink="http://www.w3.org/1999/xlink">
    <!-- Generator: sketchtool 64 (101010) - https://sketch.com -->
    <title>6B4FBA9B-8DB1-47D1-86B0-3999EA6084B6</title>
    <desc>Created with sketchtool.</desc>
    <g id="Features-Page" stroke="none" stroke-width="1" fill="none" fill-rule="evenodd">
        <g id="UI/Web/Features-Page" transform="translate(-425.000000, -3050.000000)">
            <g id="Elective-Unit" transform="translate(425.000000, 3051.000000)">
                <path d="M67.5,78.0554167 L12.5,78.0554167 C10.42875,78.0554167 8.75,76.3766667 8.75,74.3054167 L8.75,3.75 C8.75,1.67875 10.42875,0 12.5,0 L67.5,0 C69.57125,0 71.25,1.67875 71.25,3.75 L71.25,74.3054167 C71.25,76.3766667 69.57125,78.0554167 67.5,78.0554167 Z" id="Path" stroke="#76D5D4" stroke-width="2" fill="#FFFFFF"></path>
                <path d="M63.8195833,13.28125 L55.3475,13.28125 C54.1970833,13.28125 53.2641667,12.3483333 53.2641667,11.1979167 L53.2641667,11.1979167 C53.2641667,10.0475 54.1970833,9.11458333 55.3475,9.11458333 L63.8195833,9.11458333 C64.97,9.11458333 65.9029167,10.0475 65.9029167,11.1979167 L65.9029167,11.1979167 C65.9029167,12.3483333 64.97,13.28125 63.8195833,13.28125 Z" id="Path" fill="#003057"></path>
                <path d="M20.3470833,14.9479167 L15.3470833,14.9479167 C14.6566667,14.9479167 14.0970833,14.3883333 14.0970833,13.6979167 L14.0970833,8.69791667 C14.0970833,8.0075 14.6566667,7.44791667 15.3470833,7.44791667 L20.3470833,7.44791667 C21.0375,7.44791667 21.5970833,8.0075 21.5970833,8.69791667 L21.5970833,13.6979167 C21.5970833,14.3883333 21.0375,14.9479167 20.3470833,14.9479167 Z" id="Path" fill="#003057"></path>
                <path d="M63.8195833,27.4479167 L55.3475,27.4479167 C54.1970833,27.4479167 53.2641667,26.515 53.2641667,25.3645833 L53.2641667,25.3645833 C53.2641667,24.2141667 54.1970833,23.28125 55.3475,23.28125 L63.8195833,23.28125 C64.97,23.28125 65.9029167,24.2141667 65.9029167,25.3645833 L65.9029167,25.3645833 C65.9029167,26.515 64.97,27.4479167 63.8195833,27.4479167 Z" id="Path" fill="#003057"></path>
                <path d="M20.3470833,29.1145833 L15.3470833,29.1145833 C14.6566667,29.1145833 14.0970833,28.555 14.0970833,27.8645833 L14.0970833,22.8645833 C14.0970833,22.1741667 14.6566667,21.6145833 15.3470833,21.6145833 L20.3470833,21.6145833 C21.0375,21.6145833 21.5970833,22.1741667 21.5970833,22.8645833 L21.5970833,27.8645833 C21.5970833,28.555 21.0375,29.1145833 20.3470833,29.1145833 Z" id="Path" fill="#003057"></path>
                <path d="M63.8195833,41.6145833 L55.3475,41.6145833 C54.1970833,41.6145833 53.2641667,40.6816667 53.2641667,39.53125 L53.2641667,39.53125 C53.2641667,38.3808333 54.1970833,37.4479167 55.3475,37.4479167 L63.8195833,37.4479167 C64.97,37.4479167 65.9029167,38.3808333 65.9029167,39.53125 L65.9029167,39.53125 C65.9029167,40.6816667 64.97,41.6145833 63.8195833,41.6145833 Z" id="Path" fill="#003057"></path>
                <path d="M17.7725,27.9154167 C17.7708333,27.9154167 17.7695833,27.9154167 17.7683333,27.9154167 C17.345,27.9141667 16.9458333,27.7075 16.70125,27.3620833 L14.9008333,24.82625 C14.6208333,24.4316667 14.7133333,23.885 15.1079167,23.605 C15.5025,23.3245833 16.0491667,23.4179167 16.3291667,23.8120833 L17.7745833,25.8483333 L21.5558333,20.5916667 C21.8383333,20.19875 22.3858333,20.1095833 22.7783333,20.3920833 C23.1708333,20.6745833 23.2604167,21.2216667 22.9779167,21.6145833 L18.83875,27.36875 C18.5925,27.7108333 18.1941667,27.9154167 17.7725,27.9154167 Z" id="Path" fill="#EE936F"></path>
                <path d="M48.6804167,14.9479167 L43.6804167,14.9479167 C42.99,14.9479167 42.4304167,14.3883333 42.4304167,13.6979167 L42.4304167,8.69791667 C42.4304167,8.0075 42.99,7.44791667 43.6804167,7.44791667 L48.6804167,7.44791667 C49.3708333,7.44791667 49.9304167,8.0075 49.9304167,8.69791667 L49.9304167,13.6979167 C49.9304167,14.3883333 49.3708333,14.9479167 48.6804167,14.9479167 Z" id="Path" fill="#003057"></path>
                <path d="M48.6804167,29.1145833 L43.6804167,29.1145833 C42.99,29.1145833 42.4304167,28.555 42.4304167,27.8645833 L42.4304167,22.8645833 C42.4304167,22.1741667 42.99,21.6145833 43.6804167,21.6145833 L48.6804167,21.6145833 C49.3708333,21.6145833 49.9304167,22.1741667 49.9304167,22.8645833 L49.9304167,27.8645833 C49.9304167,28.555 49.3708333,29.1145833 48.6804167,29.1145833 Z" id="Path" fill="#003057"></path>
                <path d="M46.1058333,13.28125 C46.1041667,13.28125 46.1029167,13.28125 46.1016667,13.28125 C45.6783333,13.28 45.2791667,13.0733333 45.0345833,12.7279167 L43.2341667,10.1920833 C42.9541667,9.7975 43.0466667,9.25083333 43.44125,8.97083333 C43.8358333,8.69041667 44.3825,8.78375 44.6625,9.17791667 L46.1079167,11.2141667 L49.8891667,5.9575 C50.1716667,5.56458333 50.7191667,5.47541667 51.1116667,5.75791667 C51.5041667,6.04041667 51.59375,6.5875 51.31125,6.98041667 L47.1720833,12.7345833 C46.9258333,13.0770833 46.5275,13.28125 46.1058333,13.28125 Z" id="Path" fill="#EE936F"></path>
                <path d="M48.6804167,43.28125 L43.6804167,43.28125 C42.99,43.28125 42.4304167,42.7216667 42.4304167,42.03125 L42.4304167,37.03125 C42.4304167,36.3408333 42.99,35.78125 43.6804167,35.78125 L48.6804167,35.78125 C49.3708333,35.78125 49.9304167,36.3408333 49.9304167,37.03125 L49.9304167,42.03125 C49.9304167,42.7216667 49.3708333,43.28125 48.6804167,43.28125 Z" id="Path" fill="#003057"></path>
                <path d="M34.6529167,13.28125 L26.1804167,13.28125 C25.03,13.28125 24.0970833,12.3483333 24.0970833,11.1979167 L24.0970833,11.1979167 C24.0970833,10.0475 25.03,9.11458333 26.1804167,9.11458333 L34.6525,9.11458333 C35.8029167,9.11458333 36.7358335,10.0475 36.7358335,11.1979167 L36.7358335,11.1979167 C36.73625,12.3483333 35.8033333,13.28125 34.6529167,13.28125 Z" id="Path" fill="#003057"></path>
                <path d="M34.6529167,27.4479167 L26.1804167,27.4479167 C25.03,27.4479167 24.0970833,26.515 24.0970833,25.3645833 L24.0970833,25.3645833 C24.0970833,24.2141667 25.03,23.28125 26.1804167,23.28125 L34.6525,23.28125 C35.8029167,23.28125 36.7358335,24.2141667 36.7358335,25.3645833 L36.7358335,25.3645833 C36.73625,26.515 35.8033333,27.4479167 34.6529167,27.4479167 Z" id="Path" fill="#003057"></path>
                <path d="M34.6529167,41.6145833 L26.1804167,41.6145833 C25.03,41.6145833 24.0970833,40.6816667 24.0970833,39.53125 L24.0970833,39.53125 C24.0970833,38.3808333 25.03,37.4479167 26.1804167,37.4479167 L34.6525,37.4479167 C35.8029167,37.4479167 36.7358335,38.3808333 36.7358335,39.53125 L36.7358335,39.53125 C36.73625,40.6816667 35.8033333,41.6145833 34.6529167,41.6145833 Z" id="Path" fill="#003057"></path>
                <path d="M46.1058333,42.0833333 C46.1041667,42.0833333 46.1029167,42.0833333 46.1016667,42.0833333 C45.6783333,42.0820833 45.2791667,41.8754167 45.0345833,41.53 L43.2341667,38.9941667 C42.9541667,38.5995833 43.0466667,38.0529167 43.44125,37.7729167 C43.8358333,37.4925 44.3825,37.5858333 44.6625,37.98 L46.1079167,40.01625 L49.8891667,34.7595833 C50.1716667,34.3666667 50.7191667,34.2775 51.1116667,34.56 C51.5041667,34.8425 51.59375,35.3895833 51.31125,35.7825 L47.1720833,41.5366667 C46.9258333,41.8791667 46.5275,42.0833333 46.1058333,42.0833333 Z" id="Path" fill="#EE936F"></path>
                <path d="M20.8333333,43.28125 L15.8333333,43.28125 C15.1429167,43.28125 14.5833333,42.7216667 14.5833333,42.03125 L14.5833333,37.03125 C14.5833333,36.3408333 15.1429167,35.78125 15.8333333,35.78125 L20.8333333,35.78125 C21.52375,35.78125 22.0833333,36.3408333 22.0833333,37.03125 L22.0833333,42.03125 C22.0833333,42.7216667 21.52375,43.28125 20.8333333,43.28125 Z" id="Path" fill="#A4C9FF" fill-rule="nonzero"></path>
                <path d="M29.06375,41.79125 L24.50125,33.8670833 C23.9704167,32.9454167 22.9879167,32.3770833 21.9241667,32.3770833 L3.23916667,32.3770833 C1.59666667,32.3770833 0.265416667,33.70875 0.265416667,35.3508333 L0.265416667,43.28125 L0.265416667,89.5420833 C0.265416667,91.1845833 1.59708333,92.5158333 3.23916667,92.5158333 L76.7604167,92.5158333 C78.4029167,92.5158333 79.7341667,91.1845833 79.7341667,89.5420833 L79.7341667,46.255 C79.7341667,44.6125 78.4029167,43.28125 76.7604167,43.28125 L31.64125,43.28125 C30.5775,43.28125 29.5945833,42.7129167 29.06375,41.79125 Z" id="Path" fill="#76D5D4"></path>
                <path d="M70.5770833,80.11875 C70.5770833,75.0225 70.5770833,70.6820833 70.5770833,66.3604167 L68.5441667,67.14125 C68.5441667,72.1533333 68.5441667,77.1620833 68.5441667,80.1183333 C67.8208333,80.48875 67.3245833,81.24 67.3245833,82.10875 L67.3245833,87.4620833 L71.7970833,87.4620833 L71.7970833,82.10875 C71.7970833,81.24 71.3004167,80.48875 70.5770833,80.11875 Z" id="Path" fill="#F5C54C"></path>
                <path d="M38.1758333,52.63 L9.01875,63.8308333 C7.93125,64.24875 7.93125,65.7875 9.01875,66.205 L38.1758333,77.4058333 C39.35,77.8570833 40.65,77.8570833 41.8241667,77.4058333 L70.98125,66.205 C72.06875,65.7870833 72.06875,64.2483333 70.98125,63.8308333 L41.8241667,52.63 C40.65,52.17875 39.35,52.17875 38.1758333,52.63 Z" id="Path" fill="#003057"></path>
                <path d="M58.6454167,79.9829167 L21.4758333,79.9829167 C21.00875,79.9829167 20.63,79.6041667 20.63,79.1370833 L20.63,67.4783333 C20.63,67.01125 21.00875,66.6325 21.4758333,66.6325 L58.6454167,66.6325 C59.1125,66.6325 59.49125,67.01125 59.49125,67.4783333 L59.49125,79.1370833 C59.49125,79.6041667 59.1125,79.9829167 58.6454167,79.9829167 Z" id="Path" fill="#003057"></path>
                <circle id="Oval" fill="#003057" cx="40" cy="85.4166667" r="14.5833333"></circle>
                <path d="M40,96.2341667 C34.0354167,96.2341667 29.1825,91.3816667 29.1825,85.4166667 C29.1825,79.4520833 34.0354167,74.5991667 40,74.5991667 C45.9645833,74.5991667 50.8170833,79.4516667 50.8170833,85.4166667 C50.8170833,91.38125 45.9645833,96.2341667 40,96.2341667 Z" id="Path" fill="#F5C54C"></path>
                <path d="M40.7532229,79.6391708 L42.0339985,82.2590146 C42.1561992,82.5091962 42.3928271,82.6824713 42.6661463,82.722651 L45.5302452,83.1426547 C46.2189847,83.2437318 46.4938586,84.0978649 45.9954164,84.5881832 L43.9229792,86.6276182 C43.7252192,86.8222388 43.6347347,87.1028691 43.6813762,87.3778491 L44.17049,90.2572916 C44.2880266,90.9497641 43.5681928,91.4777508 42.9522141,91.1506627 L40.390663,89.791144 C40.1459506,89.6611876 39.8539748,89.6611876 39.6092624,89.791144 L37.0477114,91.1506627 C36.4317326,91.4774369 35.7118988,90.9494502 35.8294354,90.2572916 L36.3185493,87.3778491 C36.3651908,87.1028691 36.2750172,86.8222388 36.0769463,86.6276182 L34.004509,84.5881832 C33.5060669,84.0978649 33.7812517,83.2434179 34.4696803,83.1426547 L37.3337792,82.722651 C37.6070984,82.6824713 37.8437263,82.5091962 37.965927,82.2590146 L39.2467025,79.6391708 C39.5554692,79.0091653 40.445389,79.0091653 40.7532229,79.6391708 Z" id="Path" fill="#003057"></path>
            </g>
        </g>
    </g>
</svg>