<?xml version="1.0" encoding="UTF-8"?>
<svg width="93px" height="102px" viewBox="0 0 93 102" version="1.1" xmlns="http://www.w3.org/2000/svg" xmlns:xlink="http://www.w3.org/1999/xlink">
    <!-- Generator: sketchtool 64 (101010) - https://sketch.com -->
    <title>46126C64-CEB7-4CD3-A47D-9BA9E017C22D</title>
    <desc>Created with sketchtool.</desc>
    <g id="Features-Page" stroke="none" stroke-width="1" fill="none" fill-rule="evenodd">
        <g id="UI/Web/Features-Page" transform="translate(-755.000000, -2600.000000)">
            <g id="Examination" transform="translate(756.000000, 2601.000000)">
                <path d="M73.9254098,99.1803279 L3.58278689,99.1803279 C1.60737705,99.1803279 0.00614754098,97.5790984 0.00614754098,95.6036885 L0.00614754098,4.39631148 C0.00614754098,2.42090164 1.60737705,0.819672131 3.58278689,0.819672131 L73.9254098,0.819672131 C75.9008197,0.819672131 77.5020493,2.42090164 77.5020493,4.39631148 L77.5020493,95.6032787 C77.5020493,97.5790984 75.9008197,99.1803279 73.9254098,99.1803279 Z" id="Path" stroke="#76D5D4" stroke-width="2" fill="#FFFFFF"></path>
                <path d="M67.1561475,15.0790984 L10.3520492,15.0790984 C9.04098361,15.0790984 7.97786885,14.0163934 7.97786885,12.704918 L7.97786885,12.704918 C7.97786885,11.3938525 9.04057377,10.3307377 10.3520492,10.3307377 L67.1561475,10.3307377 C68.4672131,10.3307377 69.5303279,11.3934426 69.5303279,12.704918 L69.5303279,12.704918 C69.5303279,14.0159836 68.4672131,15.0790984 67.1561475,15.0790984 Z" id="Path" fill="#003057" fill-rule="nonzero"></path>
                <path d="M16.5848361,27.0491803 L11.6668033,27.0491803 C10.9877049,27.0491803 10.4372951,26.4987705 10.4372951,25.8196721 L10.4372951,20.9016393 C10.4372951,20.222541 10.9877049,19.6721311 11.6668033,19.6721311 L16.5848361,19.6721311 C17.2639344,19.6721311 17.8143443,20.222541 17.8143443,20.9016393 L17.8143443,25.8196721 C17.8143443,26.4987705 17.2639344,27.0491803 16.5848361,27.0491803 Z" id="Path" fill="#003057" fill-rule="nonzero"></path>
                <path d="M67.1561475,36.3905738 L10.3520492,36.3905738 C9.04098361,36.3905738 7.97786885,35.3278689 7.97786885,34.0163934 L7.97786885,34.0163934 C7.97786885,32.7053279 9.04057377,31.6422131 10.3520492,31.6422131 L67.1561475,31.6422131 C68.4672131,31.6422131 69.5303279,32.704918 69.5303279,34.0163934 L69.5303279,34.0163934 C69.5303279,35.327459 68.4672131,36.3905738 67.1561475,36.3905738 Z" id="Path" fill="#003057" fill-rule="nonzero"></path>
                <path d="M67.1561475,47.0463115 L10.3520492,47.0463115 C9.04098361,47.0463115 7.97786885,45.9836066 7.97786885,44.6721311 L7.97786885,44.6721311 C7.97786885,43.3610656 9.04057377,42.2979508 10.3520492,42.2979508 L67.1561475,42.2979508 C68.4672131,42.2979508 69.5303279,43.3606557 69.5303279,44.6721311 L69.5303279,44.6721311 C69.5303279,45.9831967 68.4672131,47.0463115 67.1561475,47.0463115 Z" id="Path" fill="#003057" fill-rule="nonzero"></path>
                <path d="M67.1561475,68.3577869 L10.3520492,68.3577869 C9.04098361,68.3577869 7.97786885,67.295082 7.97786885,65.9836066 L7.97786885,65.9836066 C7.97786885,64.672541 9.04057377,63.6094262 10.3520492,63.6094262 L67.1561475,63.6094262 C68.4672131,63.6094262 69.5303279,64.6721311 69.5303279,65.9836066 L69.5303279,65.9836066 C69.5303279,67.2946721 68.4672131,68.3577869 67.1561475,68.3577869 Z" id="Path" fill="#003057" fill-rule="nonzero"></path>
                <path d="M67.1561475,79.0135246 L10.3520492,79.0135246 C9.04098361,79.0135246 7.97786885,77.9508197 7.97786885,76.6393443 L7.97786885,76.6393443 C7.97786885,75.3282787 9.04057377,74.2651639 10.3520492,74.2651639 L67.1561475,74.2651639 C68.4672131,74.2651639 69.5303279,75.3278689 69.5303279,76.6393443 L69.5303279,76.6393443 C69.5303279,77.9504098 68.4672131,79.0135246 67.1561475,79.0135246 Z" id="Path" fill="#003057" fill-rule="nonzero"></path>
                <path d="M41.175,27.0491803 L36.2569672,27.0491803 C35.5778689,27.0491803 35.027459,26.4987705 35.027459,25.8196721 L35.027459,20.9016393 C35.027459,20.222541 35.5778689,19.6721311 36.2569672,19.6721311 L41.175,19.6721311 C41.8540984,19.6721311 42.4045082,20.222541 42.4045082,20.9016393 L42.4045082,25.8196721 C42.4045082,26.4987705 41.8540984,27.0491803 41.175,27.0491803 Z" id="Path" fill="#003057" fill-rule="nonzero"></path>
                <path d="M65.7651639,27.0491803 L60.8471311,27.0491803 C60.1680328,27.0491803 59.617623,26.4987705 59.617623,25.8196721 L59.617623,20.9016393 C59.617623,20.222541 60.1680328,19.6721311 60.8471311,19.6721311 L65.7651639,19.6721311 C66.4442623,19.6721311 66.9946721,20.222541 66.9946721,20.9016393 L66.9946721,25.8196721 C66.9946721,26.4987705 66.4442623,27.0491803 65.7651639,27.0491803 Z" id="Path" fill="#003057" fill-rule="nonzero"></path>
                <path d="M16.5848361,59.0163934 L11.6668033,59.0163934 C10.9877049,59.0163934 10.4372951,58.4659836 10.4372951,57.7868852 L10.4372951,52.8688525 C10.4372951,52.1897541 10.9877049,51.6393443 11.6668033,51.6393443 L16.5848361,51.6393443 C17.2639344,51.6393443 17.8143443,52.1897541 17.8143443,52.8688525 L17.8143443,57.7868852 C17.8143443,58.4659836 17.2639344,59.0163934 16.5848361,59.0163934 Z" id="Path" fill="#003057" fill-rule="nonzero"></path>
                <path d="M41.175,59.0163934 L36.2569672,59.0163934 C35.5778689,59.0163934 35.027459,58.4659836 35.027459,57.7868852 L35.027459,52.8688525 C35.027459,52.1897541 35.5778689,51.6393443 36.2569672,51.6393443 L41.175,51.6393443 C41.8540984,51.6393443 42.4045082,52.1897541 42.4045082,52.8688525 L42.4045082,57.7868852 C42.4045082,58.4659836 41.8540984,59.0163934 41.175,59.0163934 Z" id="Path" fill="#003057" fill-rule="nonzero"></path>
                <path d="M65.7651639,59.0163934 L60.8471311,59.0163934 C60.1680328,59.0163934 59.617623,58.4659836 59.617623,57.7868852 L59.617623,52.8688525 C59.617623,52.1897541 60.1680328,51.6393443 60.8471311,51.6393443 L65.7651639,51.6393443 C66.4442623,51.6393443 66.9946721,52.1897541 66.9946721,52.8688525 L66.9946721,57.7868852 C66.9946721,58.4659836 66.4442623,59.0163934 65.7651639,59.0163934 Z" id="Path" fill="#003057" fill-rule="nonzero"></path>
                <path d="M16.5848361,90.9836066 L11.6668033,90.9836066 C10.9877049,90.9836066 10.4372951,90.4331967 10.4372951,89.7540984 L10.4372951,84.8360656 C10.4372951,84.1569672 10.9877049,83.6065574 11.6668033,83.6065574 L16.5848361,83.6065574 C17.2639344,83.6065574 17.8143443,84.1569672 17.8143443,84.8360656 L17.8143443,89.7540984 C17.8143443,90.4331967 17.2639344,90.9836066 16.5848361,90.9836066 Z" id="Path" fill="#003057" fill-rule="nonzero"></path>
                <path d="M41.175,90.9836066 L36.2569672,90.9836066 C35.5778689,90.9836066 35.027459,90.4331967 35.027459,89.7540984 L35.027459,84.8360656 C35.027459,84.1569672 35.5778689,83.6065574 36.2569672,83.6065574 L41.175,83.6065574 C41.8540984,83.6065574 42.4045082,84.1569672 42.4045082,84.8360656 L42.4045082,89.7540984 C42.4045082,90.4331967 41.8540984,90.9836066 41.175,90.9836066 Z" id="Path" fill="#003057" fill-rule="nonzero"></path>
                <circle id="Oval" fill="#76D5D4" cx="70.9446721" cy="73.0204918" r="20.4918033"></circle>
                <circle id="Oval" fill="#D3EAE4" cx="70.9446721" cy="73.0204918" r="15.0028689"></circle>
                <path d="M70.9766393,74.6557377 C70.3479508,74.6557377 69.8381148,74.1459016 69.8381148,73.5172131 L69.8381148,62.4918033 C69.8381148,61.8631148 70.3479508,61.3532787 70.9766393,61.3532787 C71.6053279,61.3532787 72.1151639,61.8631148 72.1151639,62.4918033 L72.1151639,73.517623 C72.1151639,74.1463115 71.6053279,74.6557377 70.9766393,74.6557377 Z" id="Path" fill="#1E496C"></path>
                <path d="M82.002459,72.3790984 L70.9766393,72.3790984 C70.3479508,72.3790984 69.8381148,72.8889344 69.8381148,73.517623 C69.8381148,74.1463115 70.3479508,74.6561475 70.9766393,74.6561475 L82.002459,74.6561475 C82.6311475,74.6561475 83.1409836,74.1463115 83.1409836,73.517623 C83.1409836,72.8889344 82.6311475,72.3790984 82.002459,72.3790984 Z" id="Path" fill="#1E496C"></path>
                <path d="M38.3127049,26.0504098 C38.3106557,26.0504098 38.3090164,26.0504098 38.307377,26.0504098 C37.7647541,26.0487705 37.2536885,25.7836066 36.9401639,25.3413934 L34.6331967,22.0922131 C34.2745902,21.5868852 34.3930328,20.8864754 34.8987705,20.527459 C35.4045082,20.1684426 36.104918,20.2881148 36.4635246,20.7930328 L38.3159836,23.4020492 L43.1610656,16.6663934 C43.5229508,16.1631148 44.2241803,16.0487705 44.727459,16.4106557 C45.2303279,16.772541 45.345082,17.4737705 44.9831967,17.9770492 L39.6795082,25.3504098 C39.3635246,25.7889344 38.8528689,26.0504098 38.3127049,26.0504098 Z" id="Path" fill="#EE936F"></path>
                <path d="M38.3127049,58.017623 C38.3106557,58.017623 38.3090164,58.017623 38.307377,58.017623 C37.7647541,58.0159836 37.2536885,57.7508197 36.9401639,57.3086066 L34.6331967,54.0594262 C34.2745902,53.5540984 34.3930328,52.8536885 34.8987705,52.4946721 C35.4045082,52.1356557 36.104918,52.2553279 36.4635246,52.7602459 L38.3159836,55.3692623 L43.1610656,48.6336066 C43.5229508,48.1303279 44.2241803,48.0159836 44.727459,48.3778689 C45.2303279,48.7397541 45.345082,49.4409836 44.9831967,49.9442623 L39.6795082,57.317623 C39.3635246,57.7561475 38.8528689,58.017623 38.3127049,58.017623 Z" id="Path" fill="#EE936F"></path>
                <path d="M73.0766393,13.2840164 L44.0868852,42.2737705 L42.4106557,51.404918 C42.3532787,51.717623 42.6836066,52.0479508 42.9963115,51.9905738 L52.127459,50.3143443 L81.1172131,21.3245902 L73.0766393,13.2840164 Z" id="Path" fill="#F9CFCF" fill-rule="nonzero"></path>
                <path d="M79.0512295,19.2581967 L51.2315574,47.0778689 C51.9540984,47.8004098 51.2758197,49.654918 52.1413934,50.3012295 L81.1180328,21.3245902 L79.0512295,19.2581967 Z" id="Path" fill="#76D5D4"></path>
                <path d="M75.1434426,15.3504098 L47.3237705,43.170082 C47.7040984,43.5504098 47.6209016,43.85 47.8307377,45.7459016 C47.9877049,47.1631148 50.447541,46.2942623 51.2315574,47.0778689 L79.0512295,19.2581967 L75.1434426,15.3504098 Z" id="Path" fill="#76D5D4"></path>
                <path d="M73.0766393,13.2840164 L44.1,42.2606557 C44.7459016,43.1262295 46.6008197,42.4479508 47.3233607,43.1704918 L75.1430328,15.3508197 L73.0766393,13.2840164 Z" id="Path" fill="#76D5D4"></path>
                <rect id="Rectangle" fill="#1E496C" transform="translate(78.630197, 15.772629) rotate(-135.000000) translate(-78.630197, -15.772629) " x="72.944596" y="13.6056419" width="11.3712024" height="4.33397483"></rect>
                <path d="M84.0213115,5.77377049 L88.6278689,10.3803279 C89.5762295,11.3286885 89.5762295,12.8663934 88.6278689,13.8147541 L84.1827869,18.2602459 L76.1418033,10.2192623 L80.5872951,5.77377049 C81.5352459,4.82540984 83.0729508,4.82540984 84.0213115,5.77377049 Z" id="Path" fill="#EDC0F2"></path>
                <path d="M43.3819672,46.1151639 L42.4110656,51.404918 C42.3536885,51.717623 42.6840164,52.0479508 42.9967213,51.9905738 L48.2864754,51.0196721 L43.3819672,46.1151639 Z" id="Path" fill="#1E496C"></path>
            </g>
        </g>
    </g>
</svg>