<?xml version="1.0" encoding="UTF-8"?>
<svg width="78px" height="100px" viewBox="0 0 78 100" version="1.1" xmlns="http://www.w3.org/2000/svg" xmlns:xlink="http://www.w3.org/1999/xlink">
    <!-- Generator: sketchtool 64 (101010) - https://sketch.com -->
    <title>8A450A24-7451-4CE3-9B47-6CCC19A2CA42</title>
    <desc>Created with sketchtool.</desc>
    <g id="Features-Page" stroke="none" stroke-width="1" fill="none" fill-rule="evenodd">
        <g id="UI/Web/Features-Page" transform="translate(-155.000000, -3167.000000)">
            <g id="GPA" transform="translate(155.000000, 3167.000000)">
                <path d="M73.9254098,99.1803279 L3.58278689,99.1803279 C1.60737705,99.1803279 0.00614754098,97.5790984 0.00614754098,95.6036885 L0.00614754098,4.39631148 C0.00614754098,2.42090164 1.60737705,0.819672131 3.58278689,0.819672131 L73.9254098,0.819672131 C75.9008197,0.819672131 77.5020492,2.42090164 77.5020492,4.39631148 L77.5020492,95.6032787 C77.5020492,97.5790984 75.9008197,99.1803279 73.9254098,99.1803279 Z" id="Path" fill="#D3EAE4"></path>
                <path d="M61.1,29.5463115 L66.9131148,29.5463115 C67.7155738,29.5463115 68.3663934,30.1971311 68.3663934,30.9995902 L68.3663934,36.8127049 C68.3663934,37.6151639 67.7155738,38.2659836 66.9131148,38.2659836 L61.1,38.2659836 C60.297541,38.2659836 59.6467213,37.6151639 59.6467213,36.8127049 L59.6467213,30.9995902 C59.6467213,30.1971311 60.2971311,29.5463115 61.1,29.5463115 Z" id="Path" fill="#003057"></path>
                <path d="M11.5348361,31.6614754 L51.3491803,31.6614754 C52.5889344,31.6614754 53.5942623,32.6663934 53.5942623,33.9065574 L53.5942623,33.9065574 C53.5942623,35.1463115 52.5893443,36.1516393 51.3491803,36.1516393 L11.5348361,36.1516393 C10.295082,36.1516393 9.2897541,35.1467213 9.2897541,33.9065574 L9.2897541,33.9065574 C9.2897541,32.6663934 10.295082,31.6614754 11.5348361,31.6614754 Z" id="Path" fill="#003057"></path>
                <path d="M61.1,41.0217213 L66.9131148,41.0217213 C67.7155738,41.0217213 68.3663934,41.672541 68.3663934,42.475 L68.3663934,48.2881148 C68.3663934,49.0905738 67.7155738,49.7413934 66.9131148,49.7413934 L61.1,49.7413934 C60.297541,49.7413934 59.6467213,49.0905738 59.6467213,48.2881148 L59.6467213,42.475 C59.6467213,41.672541 60.2971311,41.0217213 61.1,41.0217213 Z" id="Path" fill="#003057"></path>
                <path d="M11.5348361,43.1368852 L51.3491803,43.1368852 C52.5889344,43.1368852 53.5942623,44.1418033 53.5942623,45.3819672 L53.5942623,45.3819672 C53.5942623,46.6217213 52.5893443,47.6270492 51.3491803,47.6270492 L11.5348361,47.6270492 C10.295082,47.6270492 9.2897541,46.6221311 9.2897541,45.3819672 L9.2897541,45.3819672 C9.2897541,44.1418033 10.295082,43.1368852 11.5348361,43.1368852 Z" id="Path" fill="#003057"></path>
                <path d="M61.1,52.4971311 L66.9131148,52.4971311 C67.7155738,52.4971311 68.3663934,53.1479508 68.3663934,53.9504098 L68.3663934,59.7635246 C68.3663934,60.5659836 67.7155738,61.2168033 66.9131148,61.2168033 L61.1,61.2168033 C60.297541,61.2168033 59.6467213,60.5659836 59.6467213,59.7635246 L59.6467213,53.9504098 C59.6467213,53.1479508 60.2971311,52.4971311 61.1,52.4971311 Z" id="Path" fill="#003057"></path>
                <path d="M11.5348361,54.6122951 L51.3491803,54.6122951 C52.5889344,54.6122951 53.5942623,55.6172131 53.5942623,56.857377 L53.5942623,56.857377 C53.5942623,58.0971311 52.5893443,59.102459 51.3491803,59.102459 L11.5348361,59.102459 C10.295082,59.102459 9.2897541,58.097541 9.2897541,56.857377 L9.2897541,56.857377 C9.2897541,55.6172131 10.295082,54.6122951 11.5348361,54.6122951 Z" id="Path" fill="#003057"></path>
                <path d="M61.1,63.972541 L66.9131148,63.972541 C67.7155738,63.972541 68.3663934,64.6233607 68.3663934,65.4258197 L68.3663934,71.2389344 C68.3663934,72.0413934 67.7155738,72.6922131 66.9131148,72.6922131 L61.1,72.6922131 C60.297541,72.6922131 59.6467213,72.0413934 59.6467213,71.2389344 L59.6467213,65.4258197 C59.6467213,64.6233607 60.2971311,63.972541 61.1,63.972541 Z" id="Path" fill="#003057"></path>
                <path d="M11.5348361,66.0877049 L51.3491803,66.0877049 C52.5889344,66.0877049 53.5942623,67.092623 53.5942623,68.3327869 L53.5942623,68.3327869 C53.5942623,69.572541 52.5893443,70.5778689 51.3491803,70.5778689 L11.5348361,70.5778689 C10.295082,70.5778689 9.2897541,69.5729508 9.2897541,68.3327869 L9.2897541,68.3327869 C9.2897541,67.092623 10.295082,66.0877049 11.5348361,66.0877049 Z" id="Path" fill="#003057"></path>
                <path d="M65.1057377,35.3495902 L62.870082,35.3495902 C62.4278689,36.5368852 62.3983607,36.7565574 61.9885246,36.7565574 C61.7028689,36.7565574 61.4557377,36.5127049 61.4557377,36.2536885 C61.4557377,36.0737705 61.5471311,35.8606557 61.6172131,35.6872951 C63.1643443,31.7598361 63.1897541,31.3885246 63.5995902,31.157377 C63.8106557,31.0377049 64.1647541,31.0397541 64.3721311,31.157377 C64.7819672,31.3893443 64.7959016,31.7237705 66.3885246,35.6569672 C66.5401639,36.0217213 66.667623,36.3266393 66.3979508,36.5967213 C66.2913934,36.7032787 66.1635246,36.7561475 66.0131148,36.7561475 C65.5516393,36.7565574 65.4713115,36.3102459 65.1057377,35.3495902 Z M63.1622951,34.5131148 L64.8057377,34.5131148 L63.9766393,32.2434426 L63.1622951,34.5131148 Z" id="Shape" fill="#FFFFFF" fill-rule="nonzero"></path>
                <path d="M66.317623,57.870082 C66.317623,60.0168033 62.1389344,60.7069672 61.4913934,57.6377049 C60.7303279,54.0536885 64.6930328,53.0557377 66.0245902,54.9385246 C66.2545082,55.2631148 66.4385246,55.7233607 66.1672131,56.0168033 C65.9762295,56.2237705 65.6581967,56.1922131 65.520082,56.0618852 C65.182377,55.7422131 65.2868852,55.457377 64.7696721,55.1016393 C64.1590164,54.6815574 62.5430328,54.7364754 62.5430328,56.902459 C62.5430328,59.304918 64.8081967,59.2717213 65.3192623,57.8778689 C65.5864754,57.0590164 66.317623,57.3930328 66.317623,57.870082 Z" id="Path" fill="#76D5D4"></path>
                <path d="M62.3971311,48.1315574 C61.9290984,48.1315574 61.7217213,47.9385246 61.7217213,47.4487705 C61.7217213,41.8684426 61.1106557,42.6319672 64.1790984,42.6319672 C64.9696721,42.6319672 65.6721311,42.7864754 65.9532787,43.5569672 C66.1213115,44.0159836 66.1,44.8065574 65.2065574,45.2204918 C66.5057377,45.6340164 66.4352459,46.7987705 66.0545082,47.3942623 C65.4963115,48.2688525 64.5192623,48.1315574 62.3971311,48.1315574 Z M62.8364754,43.4688525 L62.8364754,44.8905738 C63.9,44.8905738 64.9409836,45.0483607 64.9409836,44.1590164 C64.9405738,43.3557377 64.1106557,43.4688525 62.8364754,43.4688525 Z M62.8364754,45.6893443 L62.8364754,47.2946721 C64.025,47.2946721 65.1618852,47.4602459 65.1618852,46.4807377 C65.1618852,45.5139344 63.9954918,45.6893443 62.8364754,45.6893443 Z" id="Shape" fill="#76D5D4"></path>
                <path d="M65.1057377,69.7692623 L62.870082,69.7692623 C62.4278689,70.9565574 62.3983607,71.1762295 61.9885246,71.1762295 C61.7028689,71.1762295 61.4557377,70.932377 61.4557377,70.6733607 C61.4557377,70.4934426 61.5471311,70.2803279 61.6172131,70.1069672 C63.1643443,66.1795082 63.1897541,65.8081967 63.5995902,65.5770492 C63.8106557,65.457377 64.1647541,65.4594262 64.3721311,65.5770492 C64.6983607,65.7618852 64.8151639,66.170082 64.9516393,66.5278689 C66.3266393,69.9237705 66.5569672,70.3831967 66.5569672,70.6655738 C66.5569672,70.9102459 66.3295082,71.1758197 66.0131148,71.1758197 C65.582377,71.1762295 65.5135246,70.8409836 65.1057377,69.7692623 Z M63.1622951,68.9327869 L64.8057377,68.9327869 L63.9766393,66.6631148 L63.1622951,68.9327869 Z" id="Shape" fill="#FFFFFF" fill-rule="nonzero"></path>
                <path d="M15.6885246,85.0188525 C13.947541,85.0188525 13.4397541,87.4995902 16.0229508,87.4995902 L17.9540984,87.4995902 L17.9540984,89.3819672 C14.6860656,91.0909836 10.6922131,90.6254098 10.6922131,85.4930328 C10.6922131,80.1745902 15.5569672,80.1889344 16.9077869,81.7536885 C17.697541,82.667623 17.8643443,83.5614754 18.9577869,83.5614754 C19.7881148,83.5614754 20.4721311,82.9192623 20.4721311,82.1028689 C20.4721311,77.3053279 7.48688525,75.6651639 7.48688525,85.5672131 C7.48688525,94.0938525 17.1032787,93.9618852 20.345082,90.9934426 C20.8008197,90.5762295 20.8897541,90.1004098 20.8897541,89.4491803 C20.8905738,84.5311475 21.2872951,85.0188525 15.6885246,85.0188525 Z" id="Path" fill="#76D5D4"></path>
                <path d="M33.5713115,81.0135246 C32.6930328,78.8446721 30.7045082,78.5545082 28.5983607,78.5545082 C24.7409836,78.5545082 23.1086066,78.1315574 23.1086066,80.4495902 C23.1086066,91.7848361 22.9569672,91.6721311 23.5422131,92.3217213 C24.3270492,93.192623 26.2770492,93.0204918 26.2770492,90.9258197 L26.2770492,87.2762295 C28.5831967,87.2762295 30.9532787,87.4893443 32.5471311,86.1557377 C33.4463115,85.4032787 33.902459,84.2893443 33.902459,82.8454918 C33.902459,82.1733607 33.7909836,81.5569672 33.5713115,81.0135246 Z M26.2770492,81.0352459 C27.9159836,81.0352459 29.5897541,80.9319672 30.222541,81.5737705 C30.8610656,82.2577869 30.7987705,83.4483607 30.3930328,83.9963115 C29.6913934,84.9454918 27.9721311,84.7860656 26.2770492,84.7860656 L26.2770492,81.0352459 L26.2770492,81.0352459 Z" id="Shape" fill="#76D5D4"></path>
                <path d="M45.7569672,89.8090164 C41.6848361,79.7512295 41.7860656,79.967623 41.7860656,79.967623 C41.3577869,78.9266393 40.7352459,78.3221311 39.6139344,78.3221311 C37.9381148,78.3221311 37.5983607,79.6286885 37.0454918,81.0434426 C32.9868852,91.3467213 32.6413934,91.45 33.6118852,92.3745902 C33.9159836,92.6647541 34.272541,92.8118852 34.672541,92.8118852 C35.8217213,92.8118852 35.9290984,92.197541 36.9979508,89.3290984 L42.2491803,89.3290984 C43.2217213,91.8844262 43.4405738,92.8118852 44.6381148,92.8118852 C45.5418033,92.8118852 46.1897541,92.0528689 46.1897541,91.3438525 C46.1897541,91.0098361 46.0479508,90.5069672 45.7569672,89.8090164 Z M37.8709016,86.8483607 L39.5963115,82.0364754 L41.3545082,86.8483607 L37.8709016,86.8483607 L37.8709016,86.8483607 Z" id="Shape" fill="#76D5D4"></path>
                <path d="M67.5614754,90.5430328 L54.0368852,90.5430328 C52.6786885,90.5430328 51.5778689,89.4422131 51.5778689,88.0840164 L51.5778689,83.5758197 C51.5778689,82.217623 52.6786885,81.1168033 54.0368852,81.1168033 L67.5614754,81.1168033 C68.9196721,81.1168033 70.0204918,82.217623 70.0204918,83.5758197 L70.0204918,88.0840164 C70.0204918,89.4422131 68.9196721,90.5430328 67.5614754,90.5430328 Z" id="Path" fill="#FFFFFF"></path>
                <path d="M57.9143443,26.3967213 C57.9143443,22.4868852 57.9143443,19.6528689 57.9143443,15.9463115 C57.9110656,15.947541 57.9077869,15.9495902 57.9045082,15.9508197 L57.0745902,16.2696721 C57.0745902,18.9704918 57.0745902,24.1360656 57.0745902,26.3967213 C56.7758197,26.5495902 56.5709016,26.8602459 56.5709016,27.2188525 L56.5709016,29.4303279 L58.4184426,29.4303279 L58.4184426,27.2188525 C58.4184426,26.8598361 58.2135246,26.5495902 57.9143443,26.3967213 Z" id="Path" fill="#F5C54C"></path>
                <path d="M37.2430328,7.40122951 L18.8795082,14.4553279 C18.1946721,14.7184426 18.1946721,15.6877049 18.8795082,15.9508197 L37.2430328,23.0053279 C37.9827869,23.2893443 38.8012295,23.2893443 39.5409836,23.0053279 L57.9045082,15.9508197 C58.5893443,15.6877049 58.5893443,14.7184426 57.9045082,14.4553279 L39.5409836,7.40122951 C38.8016393,7.11680328 37.9827869,7.11680328 37.2430328,7.40122951 Z" id="Path" fill="#003057"></path>
                <path d="M50.2758197,16.220082 L26.5848361,16.220082 C26.3680328,16.220082 26.192623,16.3959016 26.192623,16.6122951 L26.192623,22.4618852 C26.192623,23.7528689 31.6717213,24.7995902 38.4303279,24.7995902 C45.1889344,24.7995902 50.6680328,23.7528689 50.6680328,22.4618852 L50.6684426,22.4618852 L50.6684426,16.6122951 C50.6680328,16.3954918 50.492623,16.220082 50.2758197,16.220082 Z" id="Path" fill="#003057"></path>
            </g>
        </g>
    </g>
</svg>