<?xml version="1.0" encoding="UTF-8"?>
<svg width="73px" height="92px" viewBox="0 0 73 92" version="1.1" xmlns="http://www.w3.org/2000/svg" xmlns:xlink="http://www.w3.org/1999/xlink">
    <!-- Generator: sketchtool 64 (101010) - https://sketch.com -->
    <title>93EDBED0-2476-4E80-AFAC-018B1059E2E6</title>
    <desc>Created with sketchtool.</desc>
    <g id="Features-Page" stroke="none" stroke-width="1" fill="none" fill-rule="evenodd">
        <g id="UI/Web/Features-Page" transform="translate(-558.000000, -2453.000000)">
            <g id="Grade" transform="translate(559.000000, 2454.000000)">
                <path d="M67.4328689,89.2622951 L4.1245082,89.2622951 C2.34663934,89.2622951 0.905532787,87.8211885 0.905532787,86.0433197 L0.905532787,3.95668033 C0.905532787,2.17881148 2.34663934,0.737704918 4.1245082,0.737704918 L67.4328689,0.737704918 C69.2107377,0.737704918 70.6518443,2.17881148 70.6518443,3.95668033 L70.6518443,86.0429508 C70.6518443,87.8211885 69.2107377,89.2622951 67.4328689,89.2622951 Z" id="Path" stroke="#76D5D4" stroke-width="2" fill="#FFFFFF"></path>
                <path d="M61.3405328,34.1347131 L10.2168443,34.1347131 C9.03688525,34.1347131 8.08008197,33.1782787 8.08008197,31.9979508 L8.08008197,31.9979508 C8.08008197,30.8179918 9.03651639,29.8611885 10.2168443,29.8611885 L61.3405328,29.8611885 C62.5204918,29.8611885 63.4772951,30.817623 63.4772951,31.9979508 L63.4772951,31.9979508 C63.4772951,33.1779098 62.5204918,34.1347131 61.3405328,34.1347131 Z" id="Path" fill="#003057" fill-rule="nonzero"></path>
                <path d="M15.8263525,44.9077869 L11.400123,44.9077869 C10.7889344,44.9077869 10.2935656,44.412418 10.2935656,43.8012295 L10.2935656,39.375 C10.2935656,38.7638115 10.7889344,38.2684426 11.400123,38.2684426 L15.8263525,38.2684426 C16.437541,38.2684426 16.9329098,38.7638115 16.9329098,39.375 L16.9329098,43.8012295 C16.9329098,44.412418 16.4371721,44.9077869 15.8263525,44.9077869 Z" id="Path" fill="#003057" fill-rule="nonzero"></path>
                <path d="M61.3405328,54.5901639 L10.2168443,54.5901639 C9.03688525,54.5901639 8.08008197,53.6337295 8.08008197,52.4534016 L8.08008197,52.4534016 C8.08008197,51.2734426 9.03651639,50.3166393 10.2168443,50.3166393 L61.3405328,50.3166393 C62.5204918,50.3166393 63.4772951,51.2730738 63.4772951,52.4534016 L63.4772951,52.4534016 C63.4772951,53.6337295 62.5204918,54.5901639 61.3405328,54.5901639 Z" id="Path" fill="#003057" fill-rule="nonzero"></path>
                <path d="M61.3405328,73.7704918 L10.2168443,73.7704918 C9.03688525,73.7704918 8.08008197,72.8140574 8.08008197,71.6337295 L8.08008197,71.6337295 C8.08008197,70.4537705 9.03651639,69.4969672 10.2168443,69.4969672 L61.3405328,69.4969672 C62.5204918,69.4969672 63.4772951,70.4534016 63.4772951,71.6337295 L63.4772951,71.6337295 C63.4772951,72.8140574 62.5204918,73.7704918 61.3405328,73.7704918 Z" id="Path" fill="#003057" fill-rule="nonzero"></path>
                <path d="M61.3405328,83.3606557 L10.2168443,83.3606557 C9.03688525,83.3606557 8.08008197,82.4042213 8.08008197,81.2238934 L8.08008197,81.2238934 C8.08008197,80.0439344 9.03651639,79.0871311 10.2168443,79.0871311 L61.3405328,79.0871311 C62.5204918,79.0871311 63.4772951,80.0435656 63.4772951,81.2238934 L63.4772951,81.2238934 C63.4772951,82.4042213 62.5204918,83.3606557 61.3405328,83.3606557 Z" id="Path" fill="#003057" fill-rule="nonzero"></path>
                <path d="M37.9575,44.9077869 L33.5312705,44.9077869 C32.920082,44.9077869 32.4247131,44.412418 32.4247131,43.8012295 L32.4247131,39.375 C32.4247131,38.7638115 32.920082,38.2684426 33.5312705,38.2684426 L37.9575,38.2684426 C38.5686885,38.2684426 39.0640574,38.7638115 39.0640574,39.375 L39.0640574,43.8012295 C39.0640574,44.412418 38.5683197,44.9077869 37.9575,44.9077869 Z" id="Path" fill="#003057" fill-rule="nonzero"></path>
                <path d="M60.0886475,44.9693852 L55.662418,44.9693852 C55.0512295,44.9693852 54.5558607,44.4740164 54.5558607,43.8628279 L54.5558607,39.4365984 C54.5558607,38.8254098 55.0512295,38.330041 55.662418,38.330041 L60.0886475,38.330041 C60.6998361,38.330041 61.1952049,38.8254098 61.1952049,39.4365984 L61.1952049,43.8628279 C61.1952049,44.4740164 60.6994672,44.9693852 60.0886475,44.9693852 Z" id="Path" fill="#003057" fill-rule="nonzero"></path>
                <path d="M15.8263525,65.3632377 L11.400123,65.3632377 C10.7889344,65.3632377 10.2935656,64.8678689 10.2935656,64.2566803 L10.2935656,59.8304508 C10.2935656,59.2192623 10.7889344,58.7238934 11.400123,58.7238934 L15.8263525,58.7238934 C16.437541,58.7238934 16.9329098,59.2192623 16.9329098,59.8304508 L16.9329098,64.2566803 C16.9329098,64.8678689 16.4371721,65.3632377 15.8263525,65.3632377 Z" id="Path" fill="#003057" fill-rule="nonzero"></path>
                <path d="M37.9575,65.3632377 L33.5312705,65.3632377 C32.920082,65.3632377 32.4247131,64.8678689 32.4247131,64.2566803 L32.4247131,59.8304508 C32.4247131,59.2192623 32.920082,58.7238934 33.5312705,58.7238934 L37.9575,58.7238934 C38.5686885,58.7238934 39.0640574,59.2192623 39.0640574,59.8304508 L39.0640574,64.2566803 C39.0640574,64.8678689 38.5683197,65.3632377 37.9575,65.3632377 Z" id="Path" fill="#003057" fill-rule="nonzero"></path>
                <path d="M60.0886475,65.3632377 L55.662418,65.3632377 C55.0512295,65.3632377 54.5558607,64.8678689 54.5558607,64.2566803 L54.5558607,59.8304508 C54.5558607,59.2192623 55.0512295,58.7238934 55.662418,58.7238934 L60.0886475,58.7238934 C60.6998361,58.7238934 61.1952049,59.2192623 61.1952049,59.8304508 L61.1952049,64.2566803 C61.1952049,64.8678689 60.6994672,65.3632377 60.0886475,65.3632377 Z" id="Path" fill="#003057" fill-rule="nonzero"></path>
                <path d="M35.3814344,44.0088934 C35.3795902,44.0088934 35.3781148,44.0088934 35.3766393,44.0088934 C34.8882787,44.007418 34.4283197,43.7687705 34.1461475,43.3707787 L32.069877,40.4465164 C31.7471311,39.9917213 31.8537295,39.3613525 32.3088934,39.0382377 C32.7640574,38.715123 33.3944262,38.8228279 33.7171721,39.2772541 L35.3843852,41.6253689 L39.744959,35.5632787 C40.0706557,35.1103279 40.7017623,35.007418 41.1547131,35.3331148 C41.6072951,35.6588115 41.7105738,36.289918 41.384877,36.7428689 L36.6115574,43.3788934 C36.3271721,43.7735656 35.867582,44.0088934 35.3814344,44.0088934 Z" id="Path" fill="#EE936F"></path>
                <path d="M35.3814344,64.4647131 C35.3795902,64.4647131 35.3781148,64.4647131 35.3766393,64.4647131 C34.8882787,64.4632377 34.4283197,64.2245902 34.1461475,63.8265984 L32.069877,60.9023361 C31.7471311,60.447541 31.8537295,59.8171721 32.3088934,59.4940574 C32.7640574,59.1709426 33.3944262,59.2786475 33.7171721,59.7330738 L35.3843852,62.0811885 L39.744959,56.0190984 C40.0706557,55.5661475 40.7017623,55.4632377 41.1547131,55.7889344 C41.6072951,56.1146311 41.7105738,56.7457377 41.384877,57.1986885 L36.6115574,63.8347131 C36.3271721,64.2290164 35.867582,64.4647131 35.3814344,64.4647131 Z" id="Path" fill="#EE936F"></path>
                <path d="M52.7462705,17.6831557 L47.6188525,17.6831557 C47.0065574,19.3275 46.7206967,20.1714344 46.4141803,20.5782787 C45.8929918,21.269877 44.3751639,20.8305738 44.3751639,19.7564754 C44.3751639,19.387623 44.5031557,19.0560246 44.745123,18.457377 C48.6708197,8.49135246 48.5147951,8.50905738 49.2919672,8.06901639 C49.8113115,7.77467213 51.0130328,7.6795082 51.6404508,8.58946721 C51.9045492,8.97307377 52.0148361,9.2545082 52.3932787,10.250041 C55.9715164,19.0877459 56.0755328,19.199877 56.0755328,19.7395082 C56.0755328,20.2957377 55.5558197,20.9095082 54.8280738,20.9095082 C53.8561475,20.9095082 53.6982787,20.1854508 52.7462705,17.6831557 Z M48.2897951,15.7647541 L52.0579918,15.7647541 L50.1565574,10.559877 L48.2897951,15.7647541 Z" id="Shape" fill="#EE936F"></path>
                <path d="M56.6387705,14.1303689 L56.6387705,12.725041 L55.2220082,12.725041 C54.8247541,12.725041 54.5027459,12.4030328 54.5027459,12.0057787 L54.5027459,11.9832787 C54.5027459,11.5860246 54.8247541,11.2640164 55.2220082,11.2640164 L56.6387705,11.2640164 L56.6387705,9.8472541 C56.6387705,8.89045082 58.0776639,8.88897541 58.0776639,9.8472541 L58.0776639,11.2640164 L59.5054918,11.2640164 C59.9027459,11.2640164 60.2247541,11.5860246 60.2247541,11.9832787 L60.2247541,12.0057787 C60.2247541,12.4030328 59.9027459,12.725041 59.5054918,12.725041 L58.0776639,12.725041 L58.0776639,14.1303689 C58.0776639,15.0871721 56.6387705,15.0886475 56.6387705,14.1303689 Z" id="Path" fill="#EE936F"></path>
                <path d="M43.4511885,23.9145492 C41.1521311,21.6154918 39.8858607,18.5584426 39.8858607,15.307377 C39.8858607,11.3886885 41.724959,7.87204918 44.700123,5.60913934 C45.6702049,4.87180328 46.787459,6.33836066 45.8166393,7.07680328 C37.8907377,13.107541 42.2878279,25.634877 52.057623,25.634877 C61.2804098,25.634877 65.8110246,14.4553279 59.3605328,8.00409836 C57.7545492,6.39848361 55.7203279,5.38635246 53.4773361,5.07688525 C52.9727459,5.00717213 52.6204918,4.54168033 52.6898361,4.03745902 C52.7595492,3.5332377 53.2239344,3.1802459 53.7292623,3.24995902 C63.4289754,4.58852459 67.5752459,16.2390984 61.1240164,23.4291393 C56.4366393,28.6539344 48.3764754,28.8394672 43.4511885,23.9145492 Z" id="Path" fill="#EE936F"></path>
                <path d="M32.6832787,12.7331557 L9.97709016,12.7331557 C8.92954918,12.7331557 8.08045082,11.8840574 8.08045082,10.8365164 L8.08045082,10.8365164 C8.08045082,9.78897541 8.92954918,8.93987705 9.97709016,8.93987705 L32.6832787,8.93987705 C33.7308197,8.93987705 34.579918,9.78897541 34.579918,10.8365164 L34.579918,10.8365164 C34.579918,11.8840574 33.7308197,12.7331557 32.6832787,12.7331557 Z" id="Path" fill="#D3EAE4"></path>
                <path d="M32.6832787,19.2817623 L9.97709016,19.2817623 C8.92954918,19.2817623 8.08045082,18.4326639 8.08045082,17.385123 L8.08045082,17.385123 C8.08045082,16.337582 8.92954918,15.4884836 9.97709016,15.4884836 L32.6832787,15.4884836 C33.7308197,15.4884836 34.579918,16.337582 34.579918,17.385123 L34.579918,17.385123 C34.579918,18.4326639 33.7308197,19.2817623 32.6832787,19.2817623 Z" id="Path" fill="#D3EAE4"></path>
            </g>
        </g>
    </g>
</svg>