<?xml version="1.0" encoding="UTF-8"?>
<svg width="113px" height="100px" viewBox="0 0 113 100" version="1.1" xmlns="http://www.w3.org/2000/svg" xmlns:xlink="http://www.w3.org/1999/xlink">
    <!-- Generator: sketchtool 64 (101010) - https://sketch.com -->
    <title>6D459441-B1D7-46F7-BEA0-5D584DCEB682</title>
    <desc>Created with sketchtool.</desc>
    <g id="Features-Page" stroke="none" stroke-width="1" fill="none" fill-rule="evenodd">
        <g id="UI/Web/Features-Page" transform="translate(-808.000000, -864.000000)">
            <g id="Group-6" transform="translate(808.000000, 864.000000)">
                <path d="M94.5864979,25.660572 L91.8935771,13.6305673 L78.3652133,13.6305673 L64.8368495,13.6305673 L62.1439287,25.660572 C62.0764182,25.962963 62.0421941,26.2723863 62.0421941,26.5822785 L62.0421941,26.6104079 C62.0421941,29.0806376 64.045007,31.0834505 66.5152368,31.0834505 L78.3656821,31.0834505 L90.2161275,31.0834505 C92.6863572,31.0834505 94.6891702,29.0811064 94.6891702,26.6104079 L94.6891702,26.5822785 C94.6887014,26.2723863 94.6544773,25.962963 94.5864979,25.660572 Z" id="Path" fill="#252525"></path>
                <path d="M90.2156587,32.021097 L66.5147679,32.021097 C63.5316456,32.021097 61.1040788,29.5939991 61.1040788,26.6104079 C61.1040788,26.2034693 61.145804,25.8246601 61.2287857,25.4556962 L63.9217065,13.4256915 C64.0178153,12.9971871 64.3980309,12.6929208 64.8368495,12.6929208 L91.8935771,12.6929208 C92.3323957,12.6929208 92.7126113,12.9971871 92.8087201,13.4256915 L95.5016409,25.4556962 C95.5841538,25.8246601 95.6263479,26.2034693 95.6263479,26.5822785 C95.625879,29.5935302 93.1987811,32.021097 90.2156587,32.021097 Z M65.5874355,14.5682138 L63.0586029,25.8654477 C63.0060947,26.0998594 62.9793718,26.3413033 62.9793718,26.5822785 C62.9793718,28.559775 64.5654008,30.145804 66.5147679,30.145804 L90.2156587,30.145804 C92.1650258,30.145804 93.7510549,28.559775 93.7510549,26.6104079 C93.7510549,26.3413033 93.7243319,26.1003282 93.6718237,25.8659165 C93.6718237,25.8659165 93.6718237,25.8659165 93.6718237,25.8659165 L91.1429911,14.5686826 L65.5874355,14.5686826 L65.5874355,14.5682138 Z" id="Shape" fill="#252525"></path>
                <path d="M65.4871074,44.6441632 L91.2428504,44.6441632 L91.2428504,37.2320675 C91.2428504,34.1837787 88.7716831,31.7130802 85.7238631,31.7130802 L71.0060947,31.7130802 C67.9578059,31.7130802 65.4871074,34.1842475 65.4871074,37.2320675 L65.4871074,44.6441632 L65.4871074,44.6441632 Z" id="Path" fill="#1E496C"></path>
                <path d="M19.4983591,44.6441632 L45.2541022,44.6441632 L45.2541022,37.2320675 C45.2541022,34.1837787 42.7829348,31.7130802 39.7351149,31.7130802 L25.0173465,31.7130802 C21.9690577,31.7130802 19.4983591,34.1842475 19.4983591,37.2320675 L19.4983591,44.6441632 L19.4983591,44.6441632 Z" id="Path-Copy" fill="#1E496C"></path>
                <path d="M83.1584623,29.9123301 C83.1584623,30.137834 83.1584623,31.488045 83.1584623,31.713549 C83.1584623,34.358181 81.0145335,36.5021097 78.3699015,36.5021097 C75.726676,36.5021097 73.5813408,34.3595874 73.5813408,31.7130802 L73.5813408,29.9170183 C76.572902,31.4735115 80.1626817,31.4739803 83.1584623,29.9123301 Z" id="Path" fill="#EE936F"></path>
                <path d="M32.6394749,31.0834505 C30.9085795,31.0834505 29.278481,30.6591655 27.846226,29.9123301 L27.846226,31.7130802 L27.846226,31.713549 C27.846226,34.358181 29.9901547,36.5021097 32.6347867,36.5021097 C35.2794187,36.5021097 37.4233474,34.358181 37.4233474,31.713549 L37.4233474,31.7130802 L37.4233474,29.9170183 C35.9934365,30.6610408 34.3670886,31.0834505 32.6394749,31.0834505 Z" id="Path" fill="#A0616A" fill-rule="nonzero"></path>
                <path d="M111.579934,99.9653071 L0.937646507,99.9653071 C0.419596812,99.9653071 -1.25918966e-13,99.5457103 -1.25918966e-13,99.0276606 L-1.25918966e-13,92.464135 C-1.25918966e-13,91.9460853 0.419596812,91.5264885 0.937646507,91.5264885 L111.579934,91.5264885 C112.097984,91.5264885 112.517581,91.9460853 112.517581,92.464135 L112.517581,99.0276606 C112.517581,99.5452414 112.097984,99.9653071 111.579934,99.9653071 Z" id="Path" fill="#FFB81C" opacity="0.103631882"></path>
                <path d="M111.579934,53.0829817 L0.937646507,53.0829817 C0.419596812,53.0829817 -1.25918966e-13,52.6633849 -1.25918966e-13,52.1453352 L-1.25918966e-13,45.5818097 C-1.25918966e-13,45.06376 0.419596812,44.6441632 0.937646507,44.6441632 L111.579934,44.6441632 C112.097984,44.6441632 112.517581,45.06376 112.517581,45.5818097 L112.517581,52.1453352 C112.517581,52.6629161 112.097984,53.0829817 111.579934,53.0829817 Z" id="Path" fill="#FFB81C" opacity="0.103631882"></path>
                <path d="M92.0117206,91.5264885 L66.2559775,91.5264885 L66.2559775,84.1143929 C66.2559775,81.0661041 68.7271449,78.5954055 71.7749648,78.5954055 L86.4927332,78.5954055 C89.541022,78.5954055 92.0117206,81.0665729 92.0117206,84.1143929 L92.0117206,91.5264885 Z" id="Path" fill="#FFFFFF" fill-rule="nonzero"></path>
                <path d="M79.1340835,77.9657759 C77.403188,77.9657759 75.7730895,77.5414909 74.3408345,76.7946554 L74.3408345,78.5954055 L74.3408345,78.5958744 C74.3408345,81.2405063 76.4847632,83.3844351 79.1293952,83.3844351 C81.7740272,83.3844351 83.9179559,81.2405063 83.9179559,78.5958744 L83.9179559,78.5954055 L83.9179559,76.7993436 C82.488045,77.5433662 80.8612283,77.9657759 79.1340835,77.9657759 Z" id="Path" fill="#A0616A" fill-rule="nonzero"></path>
                <path d="M46.4045945,91.5264885 L20.6488514,91.5264885 L20.6488514,84.1143929 C20.6488514,81.0661041 23.1200188,78.5954055 26.1678387,78.5954055 L40.8856071,78.5954055 C43.9338959,78.5954055 46.4045945,81.0665729 46.4045945,84.1143929 L46.4045945,91.5264885 L46.4045945,91.5264885 Z" id="Path" fill="#FFFFFF" fill-rule="nonzero"></path>
                <path d="M33.5269573,77.9657759 C31.7960619,77.9657759 30.1659634,77.5414909 28.7337084,76.7946554 L28.7337084,78.5954055 L28.7337084,78.5958744 C28.7337084,81.2405063 30.8776371,83.3844351 33.5222691,83.3844351 C36.1669011,83.3844351 38.3108298,81.2405063 38.3108298,78.5958744 L38.3108298,78.5954055 L38.3108298,76.7993436 C36.8809189,77.5433662 35.2541022,77.9657759 33.5269573,77.9657759 Z" id="Path" fill="#FFB9B9" fill-rule="nonzero"></path>
                <path d="M42.9554618,16.9746835 L42.9554618,16.0089076 C42.9554618,10.3628692 38.3366151,5.78574777 32.6394749,5.78574777 L32.6394749,5.78574777 C26.9418659,5.78574777 22.323488,10.3628692 22.323488,16.0089076 L22.323488,16.9746835 C20.5321144,16.9381153 19.1111111,18.3652133 19.1111111,20.0904829 C19.1111111,21.9324895 20.7191749,23.3891233 22.5958744,23.1908111 C23.660572,27.713549 27.7519925,31.0834505 32.6394749,31.0834505 C37.5274262,31.0834505 41.6183779,27.713549 42.6830755,23.1908111 C44.5574308,23.3891233 46.1678388,21.9348336 46.1678388,20.0904829 C46.1683075,18.3642757 44.7458978,16.9381153 42.9554618,16.9746835 Z" id="Path" fill="#A0616A" fill-rule="nonzero"></path>
                <path d="M32.6394749,32.021097 C27.6357243,32.021097 23.3131739,28.8115331 21.8785748,24.1284576 C21.0056259,24.0473511 20.1734646,23.6887014 19.5157056,23.0970464 C18.6624473,22.3291139 18.1729958,21.233474 18.1729958,20.0904829 C18.1729958,18.9967182 18.604782,17.970933 19.3891233,17.2020628 C19.9474918,16.6549461 20.6357243,16.2878575 21.3853727,16.1275199 L21.3853727,16.0089076 C21.3853727,9.85466479 26.4341303,4.84810127 32.6390061,4.84810127 C38.8438819,4.84810127 43.8926395,9.85466479 43.8926395,16.0089076 L43.8926395,16.1275199 C44.6422879,16.2878575 45.3305204,16.6549461 45.8888889,17.2020628 C46.6732302,17.970933 47.1050164,18.9962494 47.1050164,20.0904829 C47.1050164,21.233474 46.6160338,22.3291139 45.7627754,23.0965776 C45.1045476,23.6887014 44.2723863,24.0468823 43.3994374,24.1284576 C41.9657759,28.8115331 37.6432255,32.021097 32.6394749,32.021097 Z M22.596812,22.2526957 C23.0271917,22.2526957 23.4083451,22.5485232 23.5086732,22.9756212 C24.5021097,27.1969058 28.2569151,30.1453352 32.6394749,30.1453352 C37.0220347,30.1453352 40.7768401,27.1969058 41.7702766,22.9756212 C41.8785748,22.5161744 42.310361,22.2076887 42.7815284,22.2578528 C43.4195968,22.3258322 44.0351617,22.1284576 44.5091421,21.7018284 C44.9742147,21.2831692 45.230661,20.7107361 45.230661,20.0900141 C45.230661,19.503985 44.9985935,18.9540553 44.5771214,18.541022 C44.1504923,18.1228317 43.5818097,17.9043601 42.9746835,17.9113924 C42.7060478,17.9137365 42.4791374,17.819503 42.2995781,17.6436943 C42.1195499,17.4674168 42.0182841,17.2259728 42.0182841,16.9742147 L42.0182841,16.0084388 C42.0182841,10.8884201 37.8110642,6.72292546 32.6399437,6.72292546 C27.4688233,6.72292546 23.2616034,10.8884201 23.2616034,16.0084388 L23.2616034,16.9742147 C23.2616034,17.2264416 23.1603376,17.4674168 22.9803094,17.6436943 C22.8002813,17.8199719 22.556962,17.9198312 22.3052039,17.9113924 C21.6962025,17.8963901 21.1293952,18.1223629 20.7032349,18.5405532 C20.2817628,18.9535865 20.0496953,19.5035162 20.0496953,20.0895452 C20.0496953,20.7107361 20.3056728,21.2831692 20.7712143,21.7018284 C21.2447257,22.1279887 21.8579466,22.3248945 22.4983591,22.257384 C22.5307079,22.254571 22.5639944,22.2526957 22.596812,22.2526957 Z" id="Shape" fill="#A0616A" fill-rule="nonzero"></path>
                <path d="M23.5621191,3.79981247 C22.0872011,5.62869198 20.1064229,6.8246601 17.9034224,7.03328645 C17.5096109,7.07032349 17.2128458,7.40834505 17.2128458,7.80403188 L17.2128458,8.54852321 C17.2128458,12.835443 20.6877637,16.310361 24.9746835,16.310361 L36.5105485,16.310361 C40.6483826,16.310361 44.0023441,12.9559306 44.0023441,8.8185654 L44.0023441,8.8185654 C44.0023441,4.46647914 40.4744491,0.938583996 36.1223629,0.938583996 L29.5799344,0.938583996 C27.2456634,0.938115331 25.0271917,1.98265354 23.5621191,3.79981247 Z" id="Path" fill="#252525"></path>
                <path d="M22.323488,16.9746835 L22.323488,16.0089076 C22.323488,15.9535865 22.3267698,15.899203 22.3277075,15.8438819 C21.0736053,15.3881857 19.9690577,14.6197843 19.1111111,13.6310361 L19.1111111,15.0614158 C19.1111111,16.1669011 19.3563057,17.2147211 19.7932489,18.1556493 C20.3783404,17.4233474 21.2878575,16.9535865 22.323488,16.9746835 Z" id="Path" fill="#252525"></path>
                <path d="M42.5658697,13.2273793 C42.8176278,14.1120488 42.9554618,15.0440694 42.9554618,16.0084388 L42.9554618,16.9742147 C43.8809189,16.9554618 44.705579,17.3291139 45.2887951,17.931083 C46.1701828,16.3586498 46.6479137,14.5297703 46.6479137,12.4294421 C46.6479137,10.3961556 45.5508673,8.61978434 43.9165495,7.65775902 C43.9723394,8.03656821 44.0023441,8.4233474 44.0023441,8.81762775 C44.0023441,10.466948 43.4688233,11.9906235 42.5658697,13.2273793 Z" id="Path" fill="#252525"></path>
                <path d="M36.5105485,17.2475387 L24.9746835,17.2475387 C20.1781528,17.2475387 16.2751992,13.3450539 16.2751992,8.54805438 L16.2751992,7.80356306 C16.2751992,6.91514299 16.9371777,6.18237225 17.8148148,6.09939053 C19.6910455,5.92217534 21.4730427,4.89639006 22.8316925,3.21097046 L22.8316925,3.21097046 C24.4772621,1.17018284 26.9367089,-1.75661954e-13 29.5799344,-1.75661954e-13 L36.1223629,-1.75661954e-13 C40.9845288,-1.75661954e-13 44.9404594,3.95593061 44.9404594,8.81762775 C44.9404594,13.4660103 41.1589311,17.2475387 36.5105485,17.2475387 Z M18.1504923,7.94983591 L18.1504923,8.54805438 C18.1504923,12.3108298 21.2119081,15.3722457 24.9746835,15.3722457 L36.5105485,15.3722457 C40.124707,15.3722457 43.0646976,12.432255 43.0646976,8.81809658 C43.0646976,4.98968589 39.9503047,1.87529301 36.121894,1.87529301 L29.5799344,1.87529301 C27.5072668,1.87529301 25.5794655,2.79137365 24.2916081,4.38818565 L24.2916081,4.38818565 C22.6502579,6.42428504 20.474918,7.68448195 18.1504923,7.94983591 Z" id="Shape" fill="#252525"></path>
                <path d="M19.7932489,19.092827 C19.7557431,19.092827 19.7182372,19.0904829 19.6807314,19.0862635 C19.358181,19.0473511 19.0792311,18.8443507 18.9423347,18.5499297 C18.4317862,17.4500703 18.1729958,16.2761369 18.1729958,15.060947 L18.1729958,13.6305673 C18.1729958,13.2390999 18.416315,12.8888889 18.7829348,12.7519925 C19.1490858,12.6141585 19.5625879,12.7201125 19.8190342,13.01594 C20.5799344,13.8931083 21.5578997,14.5658697 22.6479137,14.9620253 C23.02391,15.0989217 23.2714487,15.458978 23.2648851,15.8588842 L23.2606657,16.0084388 L23.2606657,16.9742147 C23.2606657,17.2264416 23.1593999,17.4674168 22.9793718,17.6436943 C22.7993436,17.819503 22.551805,17.915143 22.3042663,17.9113924 C21.6122832,17.9048289 20.9573371,18.1992499 20.525082,18.7402719 C20.3464604,18.9648383 20.0759494,19.092827 19.7932489,19.092827 Z M20.0839194,15.7393343 C20.1129864,16.0201594 20.1612752,16.2967651 20.2269105,16.5696203 C20.4524144,16.4411627 20.6901078,16.334271 20.9367089,16.2508204 C20.6427567,16.0970464 20.358181,15.9259259 20.0839194,15.7393343 Z" id="Shape" fill="#252525"></path>
                <path d="M45.2887951,18.8691983 C45.0365682,18.8691983 44.7932489,18.7674637 44.6150961,18.5841538 C44.1828411,18.1383029 43.5954055,17.9024848 42.9742147,17.9118612 C42.7196437,17.9217065 42.4791374,17.8209095 42.2991092,17.6441632 C42.1190811,17.4678856 42.0178153,17.2264416 42.0178153,16.9742147 L42.0178153,16.0084388 C42.0178153,15.1575246 41.8987342,14.3080169 41.6643226,13.4842944 C41.5850914,13.2067511 41.6385373,12.9081106 41.8087201,12.6746367 C42.6305673,11.5485232 43.0651664,10.2147211 43.0651664,8.81809658 C43.0651664,8.48054383 43.03985,8.13595874 42.9892171,7.79512424 C42.9367089,7.43788092 43.0937647,7.08204407 43.3928739,6.88045007 C43.6924519,6.67885607 44.0811064,6.66713549 44.3924051,6.85044538 C46.3624004,8.01031411 47.5860291,10.1481481 47.5860291,12.4299109 C47.5860291,14.633849 47.0881388,16.6394749 46.1068917,18.3900609 C45.9620253,18.6483826 45.7037037,18.8232536 45.4097515,18.8612283 C45.3694327,18.8668542 45.3291139,18.8691983 45.2887951,18.8691983 Z M43.8931083,16.1270511 C44.2597281,16.2053446 44.6108767,16.3333333 44.9395218,16.5077356 C45.4514768,15.2770745 45.7102672,13.9095171 45.7102672,12.4294421 C45.7102672,11.480075 45.4116268,10.5654008 44.8827942,9.80496953 C44.7332396,11.0904829 44.2916081,12.3145804 43.5818097,13.4045945 C43.7880919,14.2583216 43.8931083,15.1322082 43.8931083,16.00797 L43.8931083,16.1270511 Z" id="Shape" fill="#252525"></path>
                <path d="M68.0492264,16.9746835 L68.0492264,16.0089076 C68.0492264,10.3628692 72.6680731,5.78574777 78.3652133,5.78574777 L78.3652133,5.78574777 C84.0628223,5.78574777 88.6812002,10.3628692 88.6812002,16.0089076 L88.6812002,16.9746835 C90.4725738,16.9381153 91.8935771,18.3652133 91.8935771,20.0904829 C91.8935771,21.9324895 90.2855134,23.3891233 88.4088139,23.1908111 C87.3441163,27.7140178 83.2526957,31.0834505 78.3652133,31.0834505 C73.4772621,31.0834505 69.3863104,27.713549 68.3216128,23.1908111 C66.4472574,23.3891233 64.8368494,21.9348336 64.8368494,20.0904829 C64.8363807,18.3642757 66.2587904,16.9381153 68.0492264,16.9746835 Z" id="Path" fill="#EE936F"></path>
                <path d="M78.3652133,32.021097 C73.3619316,32.021097 69.0389123,28.8115331 67.6043132,24.1284576 C66.7313643,24.0473511 65.899203,23.6887014 65.2409752,23.0965776 C64.3881857,22.3291139 63.8987342,21.233474 63.8987342,20.0904829 C63.8987342,18.9967182 64.3305204,17.970933 65.1148617,17.2020628 C65.6732302,16.6549461 66.3614627,16.2873887 67.1111111,16.1275199 L67.1111111,16.0089076 C67.1111111,9.85466479 72.1598687,4.84810127 78.3647445,4.84810127 C84.5696203,4.84810127 89.6183779,9.85466479 89.6183779,16.0089076 L89.6183779,16.1275199 C90.3680263,16.2873887 91.05579,16.6549461 91.6146273,17.2020628 C92.3989686,17.970933 92.8307548,18.9967182 92.8307548,20.0904829 C92.8307548,21.233474 92.3413033,22.3291139 91.488045,23.0970464 C90.830286,23.6891702 89.9981247,24.0473511 89.1251758,24.1284576 C87.6910455,28.8115331 83.3684951,32.021097 78.3652133,32.021097 Z M68.3220816,22.2526957 C68.7524613,22.2526957 69.1336146,22.5480544 69.2339428,22.9756212 C70.2278481,27.1973746 73.9826535,30.145804 78.3652133,30.145804 C82.7477731,30.145804 86.5021097,27.1973746 87.496015,22.97609 C87.6043132,22.5166432 88.0356306,22.2081575 88.5072668,22.2583216 C89.1462729,22.326301 89.7609001,22.1289264 90.2344116,21.7027661 C90.6999531,21.2841069 90.9559306,20.7116737 90.9559306,20.0904829 C90.9559306,19.5044538 90.7238631,18.9545241 90.302391,18.5414909 C89.8757618,18.1233005 89.310361,17.9048289 88.7004219,17.9123301 C88.4369433,17.9146742 88.2048758,17.8204407 88.0253165,17.644632 C87.8452883,17.4683544 87.7440225,17.2269105 87.7440225,16.9751524 L87.7440225,16.0093765 C87.7440225,10.8893577 83.5368026,6.7238631 78.3656821,6.7238631 C73.1945617,6.7238631 68.9873418,10.8893577 68.9873418,16.0093765 L68.9873418,16.9751524 C68.9873418,17.2273793 68.8860759,17.4683544 68.7060478,17.644632 C68.5260197,17.8209095 68.2855134,17.9207689 68.0309423,17.9123301 C67.4247539,17.8973277 66.8556024,18.1233005 66.4289733,18.5419597 C66.0075012,18.954993 65.7754337,19.5049226 65.7754337,20.0909517 C65.7754337,20.7121425 66.0314112,21.2845757 66.4969526,21.7027661 C66.9704641,22.1289264 67.5850914,22.3258322 68.2240975,22.2587904 C68.2559775,22.254571 68.2892639,22.2526957 68.3220816,22.2526957 Z" id="Shape" fill="#EE936F"></path>
                <path d="M75.9667135,1.56305673 L78.3652133,1.56305673 C78.3652133,1.71308017 78.3652133,12.8312236 78.3652133,12.6929208 C78.3652133,14.3567745 77.0164088,15.705579 75.3525551,15.705579 L64.8368495,15.705579 L64.8368495,12.6929208 C64.8363807,6.54617909 69.819503,1.56305673 75.9667135,1.56305673 Z" id="Path" fill="#252525"></path>
                <path d="M80.7637131,1.56305673 L78.3652133,1.56305673 C78.3652133,1.71308017 78.3652133,12.8312236 78.3652133,12.6929208 C78.3652133,14.3567745 79.7140178,15.705579 81.3778715,15.705579 L91.8935771,15.705579 L91.8935771,12.6929208 C91.8935771,6.54617909 86.9104548,1.56305673 80.7637131,1.56305673 Z" id="Path" fill="#252525"></path>
                <path d="M91.8935771,16.6432255 L81.3778715,16.6432255 C80.1720581,16.6432255 79.0904829,16.0998594 78.3652133,15.2451946 C77.6399437,16.0998594 76.5583685,16.6432255 75.3525551,16.6432255 L64.8368495,16.6432255 C64.3192686,16.6432255 63.899203,16.2231599 63.899203,15.705579 L63.899203,12.6929208 C63.899203,6.03891233 69.3127051,0.62541022 75.9667135,0.62541022 L80.7637131,0.62541022 C87.4177215,0.62541022 92.8312236,6.03891233 92.8312236,12.6929208 L92.8312236,15.705579 C92.8312236,16.2236287 92.411158,16.6432255 91.8935771,16.6432255 Z M79.3028598,12.6929208 C79.3028598,13.8368495 80.2339428,14.7679325 81.3778715,14.7679325 L90.9559306,14.7679325 L90.9559306,12.6929208 C90.9559306,7.0726676 86.3839662,2.50070323 80.7637131,2.50070323 L75.9667135,2.50070323 C70.3464604,2.50070323 65.774496,7.0726676 65.774496,12.6929208 L65.774496,14.7679325 L75.3525551,14.7679325 C76.4964838,14.7679325 77.4275668,13.8368495 77.4275668,12.6929208 C77.4275668,12.1753399 77.8476324,11.7552743 78.3652133,11.7552743 C78.8827942,11.7552743 79.3028598,12.1753399 79.3028598,12.6929208 Z" id="Shape" fill="#252525"></path>
                <path d="M79.1293952,91.5264885 L60.8227848,91.5264885 C59.9212377,91.5264885 59.1903422,90.7955931 59.1903422,89.8940459 L59.1903422,89.8940459 C59.1903422,88.9924988 59.9212377,88.2616034 60.8227848,88.2616034 L79.1293952,88.2616034 L79.1293952,91.5264885 Z" id="Path" fill="#76D5D4"></path>
                <path d="M79.1293952,88.2611346 L79.1293952,85.3567745 L69.4383497,83.1514299 C68.7557431,82.9962494 68.0576653,82.9174871 67.3577121,82.9174871 L62.8105954,82.9174871 C62.0337553,82.9174871 61.4041256,83.5471167 61.4041256,84.3239569 L61.4041256,88.2611346 L79.1293952,88.2611346 Z" id="Path" fill="#D3EAE4"></path>
                <path d="M79.1293952,91.5264885 L97.4360056,91.5264885 C98.3375527,91.5264885 99.0684482,90.7955931 99.0684482,89.8940459 L99.0684482,89.8940459 C99.0684482,88.9924988 98.3375527,88.2616034 97.4360056,88.2616034 L79.1293952,88.2616034 L79.1293952,91.5264885 Z" id="Path" fill="#76D5D4"></path>
                <path d="M79.1293952,88.2611346 L79.1293952,85.3567745 L88.8204407,83.1514299 C89.5030474,82.9962494 90.2011252,82.9174871 90.9010783,82.9174871 L95.448195,82.9174871 C96.2250352,82.9174871 96.8546648,83.5471167 96.8546648,84.3239569 L96.8546648,88.2611346 L79.1293952,88.2611346 Z" id="Path" fill="#D3EAE4"></path>
                <path d="M33.5222691,91.5264885 L15.2156587,91.5264885 C14.3141116,91.5264885 13.5832161,90.7955931 13.5832161,89.8940459 L13.5832161,89.8940459 C13.5832161,88.9924988 14.3141116,88.2616034 15.2156587,88.2616034 L33.5222691,88.2616034 L33.5222691,91.5264885 Z" id="Path" fill="#76D5D4"></path>
                <path d="M33.5222691,88.2611346 L33.5222691,85.3567745 L23.8312236,83.1514299 C23.148617,82.9962494 22.4505391,82.9174871 21.750586,82.9174871 L17.2034693,82.9174871 C16.4266292,82.9174871 15.7969995,83.5471167 15.7969995,84.3239569 L15.7969995,88.2611346 L33.5222691,88.2611346 Z" id="Path" fill="#D3EAE4"></path>
                <path d="M33.5222691,91.5264885 L51.8288795,91.5264885 C52.7304266,91.5264885 53.4613221,90.7955931 53.4613221,89.8940459 L53.4613221,89.8940459 C53.4613221,88.9924988 52.7304266,88.2616034 51.8288795,88.2616034 L33.5222691,88.2616034 L33.5222691,91.5264885 Z" id="Path" fill="#76D5D4"></path>
                <path d="M33.5222691,88.2611346 L33.5222691,85.3567745 L43.2133146,83.1514299 C43.8959212,82.9962494 44.5939991,82.9174871 45.2939522,82.9174871 L49.8410689,82.9174871 C50.617909,82.9174871 51.2475387,83.5471167 51.2475387,84.3239569 L51.2475387,88.2611346 L33.5222691,88.2611346 Z" id="Path" fill="#D3EAE4"></path>
                <path d="M89.4500703,63.8570089 L89.4500703,62.891233 C89.4500703,57.2451946 84.8312236,52.6680731 79.1340835,52.6680731 L79.1340835,52.6680731 C73.4364744,52.6680731 68.8180966,57.2451946 68.8180966,62.891233 L68.8180966,63.8570089 C67.0267229,63.8209095 65.6057196,65.2475387 65.6057196,66.9728083 C65.6057196,68.8148148 67.2137834,70.2714487 69.0904829,70.0731364 C70.1551805,74.5963432 74.246601,77.9657759 79.1340835,77.9657759 C84.0220347,77.9657759 88.1129864,74.5958744 89.177684,70.0731364 C91.0520394,70.2714487 92.6624473,68.8171589 92.6624473,66.9728083 C92.6624473,65.246601 91.2405063,63.8204407 89.4500703,63.8570089 Z" id="Path" fill="#A0616A" fill-rule="nonzero"></path>
                <path d="M79.1340835,78.9034224 C74.1303329,78.9034224 69.8077825,75.6938584 68.3731833,71.0107829 C67.5002344,70.9296765 66.6680731,70.5710267 66.0103141,69.9793718 C65.1570558,69.2114393 64.6676043,68.1157993 64.6676043,66.9728083 C64.6676043,65.8790436 65.0993905,64.8532583 65.8837318,64.0843882 C66.4421003,63.5372714 67.1303329,63.1701828 67.8799812,63.0098453 L67.8799812,62.891233 C67.8799812,56.7369902 72.9287389,51.7304266 79.1336146,51.7304266 C85.3384904,51.7304266 90.387248,56.7369902 90.387248,62.891233 L90.387248,63.0098453 C91.1368964,63.1701828 91.8251289,63.5372714 92.3834974,64.0843882 C93.1678387,64.8532583 93.5996249,65.8785748 93.5996249,66.9728083 C93.5996249,68.1157993 93.1106423,69.2114393 92.257384,69.978903 C91.5991561,70.5710267 90.7669948,70.9292077 89.8940459,71.0107829 C88.4603844,75.6938584 84.1373652,78.9034224 79.1340835,78.9034224 Z M69.0914205,69.1350211 C69.5218003,69.1350211 69.9029536,69.4308486 70.0032818,69.8579466 C70.9967182,74.0792311 74.7515237,77.0276606 79.1340835,77.0276606 C83.5166432,77.0276606 87.2714487,74.0792311 88.2648851,69.8579466 C88.3731833,69.3984998 88.8030942,69.0909517 89.2761369,69.1401782 C89.9137365,69.2081575 90.5297703,69.0107829 91.0037506,68.5841538 C91.4688233,68.1654946 91.7252696,67.5930614 91.7252696,66.9723394 C91.7252696,66.3863104 91.4932021,65.8363807 91.07173,65.4233474 C90.6451008,65.0051571 90.0754805,64.7890295 89.4692921,64.7937178 C89.2020628,64.7955931 88.9737459,64.7018284 88.7941866,64.5260197 C88.6141585,64.3497421 88.5128926,64.1082982 88.5128926,63.8565401 L88.5128926,62.8907642 C88.5128926,57.7707454 84.3056728,53.6052508 79.1345523,53.6052508 C73.9634318,53.6052508 69.7562119,57.7707454 69.7562119,62.8907642 L69.7562119,63.8565401 C69.7562119,64.108767 69.6549461,64.3497421 69.474918,64.5260197 C69.2948898,64.7022972 69.0487576,64.8035631 68.7998125,64.7937178 C68.1898734,64.7815284 67.6240038,65.0046882 67.1978434,65.4228786 C66.7763713,65.8359119 66.5443038,66.3858415 66.5443038,66.9718706 C66.5443038,67.5930614 66.8002813,68.1654946 67.2658228,68.5841538 C67.7388654,69.0103141 68.3520863,69.2076887 68.9929677,69.1397093 C69.0253165,69.1368964 69.0586029,69.1350211 69.0914205,69.1350211 Z" id="Shape" fill="#A0616A" fill-rule="nonzero"></path>
                <path d="M68.8180966,63.8570089 L68.8180966,62.891233 C68.8180966,62.8359119 68.8213783,62.7815284 68.822316,62.7262072 C67.5682138,62.270511 66.4636662,61.5021097 65.6057196,60.5133615 L65.6057196,61.9437412 C65.6057196,63.0492264 65.8509142,64.0970464 66.2878575,65.0379747 C66.8729489,64.3056728 67.782466,63.8359119 68.8180966,63.8570089 Z" id="Path" fill="#252525"></path>
                <path d="M89.0604782,60.1097046 C89.3122363,60.9943741 89.4500703,61.9263947 89.4500703,62.8907642 L89.4500703,63.8565401 C90.3755274,63.8377872 91.2001875,64.2114393 91.7834037,64.8134083 C92.6647914,63.2409752 93.1425223,61.4120956 93.1425223,59.3117675 C93.1425223,57.278481 92.0454759,55.5021097 90.411158,54.5400844 C90.466948,54.9188936 90.4969526,55.3056728 90.4969526,55.6999531 C90.4969526,57.3492733 89.9634318,58.8729489 89.0604782,60.1097046 Z" id="Path" fill="#252525"></path>
                <path d="M66.2878575,65.9751524 C66.2503516,65.9751524 66.2128458,65.9728083 66.1753399,65.9685888 C65.8527895,65.9296765 65.5738397,65.726676 65.4369433,65.432255 C64.9263947,64.3323957 64.6676043,63.1584623 64.6676043,61.9432724 L64.6676043,60.5128926 C64.6676043,60.1214252 64.9109236,59.7712143 65.2775434,59.6343179 C65.6432255,59.4964838 66.0571964,59.6024379 66.3136428,59.8982654 C67.0745429,60.7754337 68.0525082,61.448195 69.1425223,61.8443507 C69.5185185,61.9812471 69.7660572,62.3413033 69.7594937,62.7412096 L69.7552743,62.8907642 L69.7552743,63.8565401 C69.7552743,64.108767 69.6540084,64.3497421 69.4739803,64.5260197 C69.2939522,64.7018284 69.0473511,64.7969995 68.7988748,64.7937178 C68.1054852,64.7866854 67.4519456,65.0815752 67.0196906,65.6225973 C66.8410689,65.8471636 66.5705579,65.9751524 66.2878575,65.9751524 Z M66.5785279,62.6216596 C66.6075949,62.9024848 66.6558837,63.1790905 66.721519,63.4519456 C66.947023,63.323488 67.1847164,63.2165963 67.4313174,63.1331458 C67.1373652,62.9793718 66.8527895,62.8082513 66.5785279,62.6216596 Z" id="Shape" fill="#252525"></path>
                <path d="M91.7834037,65.7515237 C91.5311767,65.7515237 91.2878575,65.649789 91.1097046,65.4664791 C90.6774496,65.0201594 90.0881388,64.7782466 89.4688233,64.7941866 C89.2203469,64.8049695 88.9737459,64.7032349 88.7937178,64.5264885 C88.6136896,64.350211 88.5124238,64.108767 88.5124238,63.8565401 L88.5124238,62.8907642 C88.5124238,62.03985 88.3933427,61.1903422 88.1589311,60.3666198 C88.0797,60.0890764 88.1331458,59.790436 88.3033286,59.556962 C89.1251758,58.4308486 89.559775,57.0970464 89.559775,55.7004219 C89.559775,55.3628692 89.5344585,55.0182841 89.4838256,54.6774496 C89.4313174,54.3202063 89.5883732,53.9643694 89.8874824,53.7627754 C90.1870605,53.5611814 90.5752461,53.5494609 90.8870136,53.7327707 C92.8570089,54.8926395 94.0806376,57.0304735 94.0806376,59.3122363 C94.0806376,61.5161744 93.5827473,63.5218003 92.6015002,65.2723863 C92.4566338,65.5307079 92.1983122,65.705579 91.9043601,65.7435537 C91.8640413,65.7491796 91.8232536,65.7515237 91.7834037,65.7515237 Z M90.3877168,63.0093765 C90.7543366,63.0876699 91.1054852,63.2156587 91.4341303,63.3900609 C91.9460853,62.1593999 92.2048758,60.7918425 92.2048758,59.3117675 C92.2048758,58.3624004 91.9062353,57.4477262 91.3774027,56.6872949 C91.2278481,57.9728083 90.7862166,59.1969058 90.0764182,60.2869198 C90.2827004,61.140647 90.3877168,62.0145335 90.3877168,62.8902954 L90.3877168,63.0093765 Z" id="Shape" fill="#252525"></path>
                <path d="M70.0562588,50.6821378 C68.5813408,52.5110173 66.6005626,53.7069855 64.3975621,53.9156118 C64.0037506,53.9526489 63.7069855,54.2906704 63.7069855,54.6863572 L63.7069855,55.4308486 C63.7069855,59.7177684 67.1819034,63.1926864 71.4688233,63.1926864 L83.0046882,63.1926864 C87.1425223,63.1926864 90.4964838,59.838256 90.4964838,55.7008908 L90.4964838,55.7008908 C90.4964838,51.3488045 86.9685888,47.8209094 82.6165026,47.8209094 L76.0740741,47.8209094 C73.7398031,47.8204407 71.5218003,48.8649789 70.0562588,50.6821378 Z" id="Path" fill="#252525"></path>
                <path d="M83.0051571,64.129864 L71.4692921,64.129864 C66.6727614,64.129864 62.7698078,60.2273793 62.7698078,55.4303797 L62.7698078,54.6858884 C62.7698078,53.7974684 63.4317862,53.0646976 64.3094233,52.9817159 C66.185654,52.8045007 67.9676512,51.7787154 69.326301,50.0932958 L69.326301,50.0932958 C70.9718706,48.0525082 73.4313174,46.8823254 76.0745429,46.8823254 L82.6169714,46.8823254 C87.4791374,46.8823254 91.435068,50.838256 91.435068,55.6999531 C91.4345992,60.3483357 87.6530708,64.129864 83.0051571,64.129864 Z M64.6451008,54.8321613 L64.6451008,55.4303797 C64.6451008,59.1931552 67.7065166,62.254571 71.4692921,62.254571 L83.0051571,62.254571 C86.6193155,62.254571 89.5593061,59.3145804 89.5593061,55.7004219 C89.5593061,51.8720113 86.4449133,48.7576184 82.6165026,48.7576184 L76.0740741,48.7576184 C74.0014065,48.7576184 72.0736053,49.673699 70.7857478,51.270511 L70.7857478,51.270511 C69.1443976,53.3066104 66.9690577,54.5668073 64.6451008,54.8321613 Z" id="Shape" fill="#252525"></path>
                <path d="M43.8429442,63.8570089 L43.8429442,62.891233 C43.8429442,57.2451946 39.2240975,52.6680731 33.5269573,52.6680731 L33.5269573,52.6680731 C27.8293483,52.6680731 23.2109705,57.2451946 23.2109705,62.891233 L23.2109705,63.8570089 C21.4195968,63.8209095 19.9985935,65.2475387 19.9985935,66.9728083 C19.9985935,68.8148148 21.6066573,70.2714487 23.4833568,70.0731364 C24.5480544,74.5963432 28.6394749,77.9657759 33.5269573,77.9657759 C38.4149086,77.9657759 42.5058603,74.5958744 43.5705579,70.0731364 C45.4449133,70.2714487 47.0553211,68.8171589 47.0553211,66.9728083 C47.0553211,65.246601 45.6329114,63.8204407 43.8429442,63.8570089 Z" id="Path" fill="#FFB9B9" fill-rule="nonzero"></path>
                <path d="M33.5269573,78.9034224 C28.5236756,78.9034224 24.2006564,75.6938584 22.7660572,71.0107829 C21.8931083,70.9296765 21.0614158,70.5714955 20.403188,69.9793718 C19.5499297,69.2114393 19.0604782,68.1157993 19.0604782,66.9728083 C19.0604782,65.8790436 19.4922644,64.8532583 20.2766057,64.0843882 C20.8349742,63.5368026 21.5232068,63.169714 22.2728551,63.0098453 L22.2728551,62.891233 C22.2728551,56.7369902 27.3211439,51.7304266 33.5264885,51.7304266 C39.7318331,51.7304266 44.7801219,56.7369902 44.7801219,62.891233 L44.7801219,63.0098453 C45.5297703,63.169714 46.217534,63.5372714 46.7763713,64.0843882 C47.5607126,64.8527895 47.9924988,65.8785748 47.9924988,66.9728083 C47.9924988,68.1157993 47.5035162,69.2114393 46.6502579,69.978903 C45.99203,70.5710267 45.1598687,70.9292077 44.2869198,71.0107829 C42.8527895,75.6938584 38.5302391,78.9034224 33.5269573,78.9034224 Z M23.4838256,69.1350211 C23.9142053,69.1350211 24.2953586,69.4303797 24.3956868,69.8579466 C25.3895921,74.0792311 29.1439287,77.0276606 33.5264885,77.0276606 C37.9090483,77.0276606 41.6638537,74.0792311 42.6572902,69.8579466 C42.7655884,69.3984998 43.1987811,69.0909517 43.668542,69.1401782 C44.3066104,69.2081575 44.9221753,69.0107829 45.3961556,68.5841538 C45.8612283,68.1654946 46.1176746,67.5930614 46.1176746,66.9723394 C46.1176746,66.3863104 45.8856071,65.8363807 45.464135,65.4233474 C45.0375059,65.0051571 44.4692921,64.7890295 43.862166,64.7937178 C43.612752,64.8045007 43.3666198,64.7022972 43.1870605,64.5260197 C43.0070323,64.3497421 42.9057665,64.1082982 42.9057665,63.8565401 L42.9057665,62.8907642 C42.9057665,57.7707454 38.6985466,53.6052508 33.5274262,53.6052508 C28.3563057,53.6052508 24.1490858,57.7707454 24.1490858,62.8907642 L24.1490858,63.8565401 C24.1490858,64.108767 24.04782,64.3497421 23.8677918,64.5260197 C23.6877637,64.7022972 23.4406939,64.8035631 23.1926864,64.7937178 C22.5738397,64.7866854 22.0168776,65.0046882 21.5902485,65.4228786 C21.1687764,65.8359119 20.9367089,66.3863104 20.9367089,66.9718706 C20.9367089,67.5930614 21.1926864,68.1654946 21.6582278,68.5841538 C22.1317393,69.0103141 22.7449602,69.2076887 23.3853727,69.1397093 C23.4181903,69.1368964 23.451008,69.1350211 23.4838256,69.1350211 Z" id="Shape" fill="#FFB9B9" fill-rule="nonzero"></path>
                <path d="M23.2109705,63.8570089 L23.2109705,62.891233 C23.2109705,62.8359119 23.2142522,62.7815284 23.2151899,62.7262072 C21.9610877,62.270511 20.8565401,61.5021097 19.9985935,60.5133615 L19.9985935,61.9437412 C19.9985935,63.0492264 20.2437881,64.0970464 20.6807314,65.0379747 C21.2658228,64.3056728 22.1753399,63.8359119 23.2109705,63.8570089 Z" id="Path" fill="#252525"></path>
                <path d="M43.4533521,60.1097046 C43.7051102,60.9943741 43.8429442,61.9263947 43.8429442,62.8907642 L43.8429442,63.8565401 C44.7684013,63.8377872 45.5930614,64.2114393 46.1762775,64.8134083 C47.0576653,63.2409752 47.5353962,61.4120956 47.5353962,59.3117675 C47.5353962,57.278481 46.4383497,55.5021097 44.8040319,54.5400844 C44.8598218,54.9188936 44.8898265,55.3056728 44.8898265,55.6999531 C44.8898265,57.3492733 44.3563057,58.8729489 43.4533521,60.1097046 Z" id="Path" fill="#252525"></path>
                <path d="M20.6807314,65.9751524 C20.6432255,65.9751524 20.6061885,65.9728083 20.5686826,65.9685888 C20.2461322,65.9296765 19.9671824,65.7271449 19.830286,65.432255 C19.3197375,64.3328645 19.0604782,63.1589311 19.0604782,61.9432724 L19.0604782,60.5128926 C19.0604782,60.1214252 19.3037975,59.7712143 19.6704173,59.6343179 C20.0365682,59.4964838 20.4500703,59.6024379 20.7065166,59.8982654 C21.4674168,60.7754337 22.4453821,61.448195 23.5353962,61.8443507 C23.9113924,61.9812471 24.1589311,62.3413033 24.1523676,62.7412096 L24.148617,62.8907642 L24.148617,63.8565401 C24.148617,64.108767 24.0473511,64.3497421 23.867323,64.5260197 C23.6872949,64.7018284 23.4416315,64.7969995 23.1922175,64.7937178 C22.4899203,64.7763713 21.8452883,65.0815752 21.4135021,65.6225973 C21.2339428,65.8471636 20.9634318,65.9751524 20.6807314,65.9751524 Z M20.970933,62.6216596 C21.0004688,62.9024848 21.0482888,63.1790905 21.1143929,63.4519456 C21.3398969,63.323488 21.5771214,63.2165963 21.8237225,63.1331458 C21.5302391,62.9793718 21.2451946,62.8082513 20.970933,62.6216596 Z" id="Shape" fill="#252525"></path>
                <path d="M46.1762775,65.7515237 C45.9240506,65.7515237 45.6802625,65.649789 45.5025785,65.4660103 C45.0703235,65.0201594 44.4814815,64.7796531 43.8616971,64.7941866 C43.6122832,64.8049695 43.3666198,64.7032349 43.1865917,64.5264885 C43.0065635,64.350211 42.9052977,64.108767 42.9052977,63.8565401 L42.9052977,62.8907642 C42.9052977,62.0403188 42.7862166,61.1912799 42.551805,60.366151 C42.4725738,60.0886076 42.5260197,59.7899672 42.6962025,59.5564932 C43.5180497,58.4303797 43.9526489,57.0970464 43.9526489,55.6999531 C43.9526489,55.3609939 43.9273324,55.0168776 43.8771683,54.6769808 C43.8246601,54.3197375 43.9817159,53.9639006 44.2808251,53.7623066 C44.5804032,53.5607126 44.9690577,53.548992 45.2803563,53.7323019 C47.2498828,54.8917018 48.4735115,57.0300047 48.4735115,59.3117675 C48.4735115,61.5157056 47.9756212,63.5213315 46.9943741,65.2719175 C46.8495077,65.5302391 46.5911861,65.7051102 46.2972339,65.7430849 C46.2569151,65.7491796 46.2161275,65.7515237 46.1762775,65.7515237 Z M44.7805907,63.0093765 C45.1472105,63.0876699 45.4983591,63.2156587 45.8270042,63.3900609 C46.3389592,62.1593999 46.5977496,60.7923113 46.5977496,59.3122363 C46.5977496,58.3624004 46.2991092,57.4477262 45.7702766,56.6877637 C45.6211908,57.9732771 45.1795593,59.1973746 44.4692921,60.2873887 C44.6755743,61.1420534 44.7805907,62.01594 44.7805907,62.8907642 L44.7805907,63.0093765 Z" id="Shape" fill="#252525"></path>
                <path d="M37.0098453,47.8199719 C30.5747773,47.8199719 31.9596812,47.8199719 25.5921238,47.8199719 C21.7702766,47.8199719 18.6235349,50.6835443 18.1640881,54.3811533 C18.0703235,54.6015002 18.1003282,55.0436006 18.1003282,55.3122363 L18.1003282,55.3122363 C18.1003282,59.9095171 21.7238631,63.1922175 25.862166,63.1922175 L25.9803094,63.1922175 C32.4153774,63.1922175 31.0309423,63.1922175 37.3980309,63.1922175 C41.2198781,63.1922175 44.3666198,60.3286451 44.8260666,56.6315049 C44.9235818,56.4022504 44.8898265,55.8368495 44.8898265,55.5822785 C44.8898265,51.456165 41.6211908,47.8199719 37.0098453,47.8199719 Z" id="Path" fill="#252525"></path>
                <path d="M37.3980309,64.129864 L25.8616971,64.129864 C20.9835912,64.129864 17.1622128,60.2564463 17.1622128,55.3122363 L17.1603376,55.1673699 C17.1547117,54.8640413 17.1481481,54.4964838 17.2461322,54.1673699 C17.8124707,50.0075012 21.3830286,46.8823254 25.5921238,46.8823254 L37.0098453,46.8823254 C41.9540553,46.8823254 45.827473,50.7037037 45.827473,55.5818097 L45.8293483,55.7285513 C45.8377872,56.1481481 45.8359119,56.5264885 45.7435537,56.8424754 C45.1790905,61.0042194 41.6080638,64.129864 37.3980309,64.129864 Z M19.0436006,54.705579 C19.0295359,54.7969995 19.0332652,55.0135959 19.0351617,55.1331458 L19.0375059,55.3117675 C19.0375059,59.2048758 22.0351617,62.2541022 25.8616971,62.2541022 L37.3980309,62.2541022 C40.6957337,62.2541022 43.4889827,59.7871542 43.8954524,56.5152368 C43.9043601,56.4458509 43.9203,56.3778715 43.94421,56.3122363 C43.9634318,56.1940928 43.9573371,55.8954524 43.954993,55.7651195 L43.9526489,55.5813408 C43.9526489,51.7548054 40.9034224,48.7571496 37.0103141,48.7571496 L25.5921238,48.7571496 C22.294421,48.7571496 19.5011721,51.2245663 19.0947023,54.496015 C19.0853258,54.5682138 19.0684482,54.6380684 19.0436006,54.705579 Z" id="Shape" fill="#252525"></path>
                <path d="M32.6394749,44.6441632 L14.3333333,44.6441632 C13.4317862,44.6441632 12.7008908,43.9132677 12.7008908,43.0117206 L12.7008908,43.0117206 C12.7008908,42.1101735 13.4317862,41.379278 14.3333333,41.379278 L32.6394749,41.379278 L32.6394749,44.6441632 Z" id="Path" fill="#76D5D4"></path>
                <path d="M32.6394749,41.3788092 L32.6394749,38.4744491 L22.9488983,36.2691045 C22.2662916,36.1139241 21.5682138,36.0351617 20.8682607,36.0351617 L16.3211439,36.0351617 C15.5443038,36.0351617 14.9146742,36.6647914 14.9146742,37.4416315 L14.9146742,41.3788092 L32.6394749,41.3788092 Z" id="Path" fill="#FFFFFF" fill-rule="nonzero"></path>
                <path d="M32.6394749,44.6441632 L50.9460853,44.6441632 C51.8476324,44.6441632 52.5785279,43.9132677 52.5785279,43.0117206 L52.5785279,43.0117206 C52.5785279,42.1101735 51.8476324,41.379278 50.9460853,41.379278 L32.6394749,41.379278 L32.6394749,44.6441632 Z" id="Path" fill="#76D5D4"></path>
                <path d="M32.6394749,41.3788092 L32.6394749,38.4744491 L42.3305204,36.2691045 C43.0131271,36.1139241 43.7112049,36.0351617 44.411158,36.0351617 L48.9582747,36.0351617 C49.7351149,36.0351617 50.3647445,36.6647914 50.3647445,37.4416315 L50.3647445,41.3788092 L32.6394749,41.3788092 L32.6394749,41.3788092 Z" id="Path" fill="#FFFFFF" fill-rule="nonzero"></path>
                <path d="M78.3699015,44.6441632 L60.0632911,44.6441632 C59.161744,44.6441632 58.4308486,43.9132677 58.4308486,43.0117206 L58.4308486,43.0117206 C58.4308486,42.1101735 59.161744,41.379278 60.0632911,41.379278 L78.3699015,41.379278 L78.3699015,44.6441632 Z" id="Path" fill="#76D5D4"></path>
                <path d="M78.3699015,41.3788092 L78.3699015,38.4744491 L68.6788561,36.2691045 C67.9962494,36.1139241 67.2981716,36.0351617 66.5982185,36.0351617 L62.0511017,36.0351617 C61.2742616,36.0351617 60.644632,36.6647914 60.644632,37.4416315 L60.644632,41.3788092 L78.3699015,41.3788092 L78.3699015,41.3788092 Z" id="Path" fill="#FFFFFF" fill-rule="nonzero"></path>
                <path d="M78.3699015,44.6441632 L96.676512,44.6441632 C97.5780591,44.6441632 98.3089545,43.9132677 98.3089545,43.0117206 L98.3089545,43.0117206 C98.3089545,42.1101735 97.5780591,41.379278 96.676512,41.379278 L78.3699015,41.379278 L78.3699015,44.6441632 Z" id="Path" fill="#76D5D4"></path>
                <path d="M78.3699015,41.3788092 L78.3699015,38.4744491 L88.060947,36.2691045 C88.7435537,36.1139241 89.4416315,36.0351617 90.1415846,36.0351617 L94.6887014,36.0351617 C95.4655415,36.0351617 96.0951711,36.6647914 96.0951711,37.4416315 L96.0951711,41.3788092 L78.3699015,41.3788092 L78.3699015,41.3788092 Z" id="Path" fill="#FFFFFF" fill-rule="nonzero"></path>
            </g>
        </g>
    </g>
</svg>