<?xml version="1.0" encoding="UTF-8"?>
<svg width="200px" height="174px" viewBox="0 0 200 174" version="1.1" xmlns="http://www.w3.org/2000/svg" xmlns:xlink="http://www.w3.org/1999/xlink">
    <!-- Generator: sketchtool 64 (101010) - https://sketch.com -->
    <title>4C5DF29B-977C-45A6-987B-6C2698AE784C</title>
    <desc>Created with sketchtool.</desc>
    <g id="Features-Page" stroke="none" stroke-width="1" fill="none" fill-rule="evenodd">
        <g id="UI/Web/Features-Page" transform="translate(-856.000000, -3017.000000)">
            <g id="Group-37" transform="translate(856.000000, 3017.000000)">
                <rect id="Rectangle-Copy-13" fill="#007FA3" opacity="0.245372954" x="0" y="16.8067227" width="159.663866" height="156.302521" rx="12.1285628"></rect>
                <rect id="Rectangle-Copy-15" fill="#FFFFFF" x="16.8067227" y="0" width="159.663866" height="156.302521" rx="12.1285628"></rect>
                <g id="Group-17-Copy" transform="translate(28.571429, 89.075630)">
                    <rect id="Rectangle" fill="#D3EAE4" x="2.26896e-13" y="24.2571255" width="6.93060729" height="25.9897774" rx="3.46530365"></rect>
                    <rect id="Rectangle" fill="#FFB81C" opacity="0.49983724" x="13.854977" y="-3.58256842e-14" width="6.93060729" height="50.2469029" rx="3.46530365"></rect>
                    <rect id="Rectangle" fill="#D3EAE4" x="27.7099541" y="20.7918219" width="6.93060729" height="29.455081" rx="3.46530365"></rect>
                    <rect id="Rectangle" fill="#D3EAE4" x="41.5649311" y="31.1877328" width="6.93060729" height="19.0591701" rx="3.46530365"></rect>
                    <rect id="Rectangle" fill="#FFB81C" opacity="0.49983724" x="55.4199082" y="15.5938664" width="6.93060729" height="34.6530365" rx="3.46530365"></rect>
                </g>
                <g id="Group-16-Copy-4" opacity="0.49983724" transform="translate(28.571429, 20.168067)">
                    <rect id="Rectangle" fill="#D9E6F1" x="0" y="0" width="29.455081" height="29.455081" rx="5.19795547"></rect>
                    <polygon id="Path" fill="#1E496C" fill-rule="nonzero" opacity="0.5" points="15.2714007 19.0591701 15.2714007 12.4799061 18.3035413 15.5120467 19.0591701 14.7275405 14.7275405 10.3959109 10.3959109 14.7275405 11.1563526 15.4831692 14.1884933 12.4799061 14.1884933 19.0591701"></polygon>
                </g>
                <g id="Group-16-Copy-5" opacity="0.49983724" transform="translate(63.865546, 20.168067)">
                    <rect id="Rectangle" fill="#D9E6F1" x="0" y="0" width="29.455081" height="29.455081" rx="5.19795547"></rect>
                    <polygon id="Path" fill="#1E496C" fill-rule="nonzero" opacity="0.5" points="15.2714007 19.0591701 15.2714007 12.4799061 18.3035413 15.5120467 19.0591701 14.7275405 14.7275405 10.3959109 10.3959109 14.7275405 11.1563526 15.4831692 14.1884933 12.4799061 14.1884933 19.0591701"></polygon>
                </g>
                <g id="Group-16-Copy-6" transform="translate(99.159664, 20.168067)" fill="#D4EAE4">
                    <rect id="Rectangle" x="0" y="0" width="29.455081" height="29.455081" rx="5.19795547"></rect>
                </g>
                <g id="Group-16-Copy-7" transform="translate(132.773109, 20.168067)" fill="#D4EAE4">
                    <rect id="Rectangle" x="0" y="0" width="29.455081" height="29.455081" rx="5.19795547"></rect>
                </g>
                <rect id="Rectangle-Copy-16" fill="#FFB81C" opacity="0.49983724" x="99.1596639" y="67.2268908" width="63.8655462" height="70.5882353" rx="5.19795547"></rect>
                <circle id="Oval-Copy-3" fill="#DFE3EF" fill-rule="nonzero" cx="26.0504202" cy="9.24369748" r="2.5210084"></circle>
                <circle id="Oval-Copy-4" fill="#DFE3EF" fill-rule="nonzero" cx="32.7731092" cy="9.24369748" r="2.5210084"></circle>
                <circle id="Oval-Copy-5" fill="#DFE3EF" fill-rule="nonzero" cx="41.1764706" cy="9.24369748" r="2.5210084"></circle>
                <g id="Group-1192-Copy" transform="translate(114.285714, 72.268908)">
                    <polyline id="Stroke-4621" stroke="#1E496C" stroke-width="3.93784505" stroke-linecap="round" stroke-linejoin="round" points="0 51.1919857 30.0708168 17.1144804 52.6239294 36.0464278 80.8153201 3.86211726"></polyline>
                    <polygon id="Stroke-4622" fill="#1E496C" points="55.1298308 0 85.1428328 0 85.1428328 26.5766677"></polygon>
                </g>
            </g>
        </g>
    </g>
</svg>