<?xml version="1.0" encoding="UTF-8"?>
<svg width="227px" height="200px" viewBox="0 0 227 200" version="1.1" xmlns="http://www.w3.org/2000/svg" xmlns:xlink="http://www.w3.org/1999/xlink">
    <!-- Generator: sketchtool 64 (101010) - https://sketch.com -->
    <title>90D430D4-E58E-4A16-986B-C6DA4DED4839</title>
    <desc>Created with sketchtool.</desc>
    <g id="Features-Page" stroke="none" stroke-width="1" fill="none" fill-rule="evenodd">
        <g id="UI/Web/Features-Page" transform="translate(-855.000000, -1524.000000)">
            <g id="Group-35" transform="translate(855.000000, 1524.000000)">
                <rect id="Rectangle-Copy-12" fill="#007FA3" opacity="0.245372954" x="0" y="19.4174757" width="184.466019" height="180.582524" rx="14.0126114"></rect>
                <rect id="Rectangle-Copy-14" fill="#FFFFFF" x="19.4174757" y="0" width="184.466019" height="180.582524" rx="14.0126114"></rect>
                <circle id="Oval-Copy-6" fill="#19A5A3" cx="60.1941748" cy="44.6601942" r="9.70873786"></circle>
                <circle id="Oval-Copy-7" fill="#19A5A3" cx="60.1941748" cy="89.3203883" r="9.70873786"></circle>
                <circle id="Oval-Copy-8" fill="#19A5A3" cx="60.1941748" cy="135.92233" r="9.70873786"></circle>
                <rect id="Rectangle-Copy-17" fill="#D3EAE4" x="85.4368932" y="40.776699" width="87.3786408" height="9.70873786" rx="4.85436893"></rect>
                <rect id="Rectangle-Copy-18" fill="#FFB81C" opacity="0.49983724" x="85.4368932" y="85.4368932" width="87.3786408" height="9.70873786" rx="4.85436893"></rect>
                <rect id="Rectangle-Copy-19" fill="#FFB81C" opacity="0.49983724" x="85.4368932" y="132.038835" width="87.3786408" height="9.70873786" rx="4.85436893"></rect>
                <g id="Group-3-Copy" transform="translate(117.864078, 41.776699)">
                    <path d="M31.8221182,99.3076682 L-7.38964445e-13,109.099089 L9.79142097,77.276971 L68.5399468,18.5284452 L83.6481094,3.42517831 C87.4569721,-0.383684446 93.6843159,-0.383684446 97.4931786,3.42517831 L105.678807,11.6059105 C109.487669,15.419669 109.487669,21.6470127 105.678807,25.4558755 L90.570644,40.5591424 L31.8221182,99.3076682 Z" id="Combined-Shape" fill="#1E496C"></path>
                    <line x1="79.5552954" y1="29.5437938" x2="26.9264077" y2="82.1726815" id="Stroke-134" stroke="#FFFFFF" stroke-width="4.00360324" stroke-linecap="round" stroke-linejoin="round"></line>
                    <polyline id="Stroke-135" stroke="#FFFFFF" stroke-width="4.00360324" stroke-linecap="round" stroke-linejoin="round" points="9.79142097 77.276971 14.6871315 82.1726815 26.9264077 82.1726815 26.9264077 94.4119577 31.8221182 99.3076682"></polyline>
                    <line x1="75.8835126" y1="11.1848794" x2="97.9142097" y2="33.2155766" id="Stroke-137" stroke="#FFFFFF" stroke-width="4.00360324" stroke-linecap="round" stroke-linejoin="round"></line>
                </g>
            </g>
        </g>
    </g>
</svg>