<?xml version="1.0" encoding="UTF-8"?>
<svg width="73px" height="80px" viewBox="0 0 73 80" version="1.1" xmlns="http://www.w3.org/2000/svg" xmlns:xlink="http://www.w3.org/1999/xlink">
    <!-- Generator: sketchtool 64 (101010) - https://sketch.com -->
    <title>409C02A2-A184-42EF-8E68-6C379031229D</title>
    <desc>Created with sketchtool.</desc>
    <g id="Features-Page" stroke="none" stroke-width="1" fill="none" fill-rule="evenodd">
        <g id="UI/Web/Features-Page" transform="translate(-762.000000, -1151.000000)">
            <g id="Group-14" transform="translate(762.000000, 1151.000000)">
                <path d="M59.7914754,79.3442623 L3.51737705,79.3442623 C1.93704918,79.3442623 0.656065574,78.0632787 0.656065574,76.4829508 L0.656065574,3.51704918 C0.656065574,1.93672131 1.93704918,0.655737705 3.51737705,0.655737705 L59.7914754,0.655737705 C61.3718033,0.655737705 62.6527869,1.93672131 62.6527869,3.51704918 L62.6527869,76.482623 C62.6527869,78.0632787 61.3718033,79.3442623 59.7914754,79.3442623 Z" id="Path" fill="#FFFFFF" fill-rule="nonzero"></path>
                <path d="M54.3760656,12.0632787 L8.93278689,12.0632787 C7.88393443,12.0632787 7.03344262,11.2131148 7.03344262,10.1639344 L7.03344262,10.1639344 C7.03344262,9.11508197 7.88360656,8.26459016 8.93278689,8.26459016 L54.3760656,8.26459016 C55.424918,8.26459016 56.2754098,9.1147541 56.2754098,10.1639344 L56.2754098,10.1639344 C56.2754098,11.2127869 55.424918,12.0632787 54.3760656,12.0632787 Z" id="Path" fill="#1E496C"></path>
                <path d="M54.3760656,30.4239344 L20.6927869,30.4239344 C19.6439344,30.4239344 18.7934426,29.5737705 18.7934426,28.5245902 L18.7934426,28.5245902 C18.7934426,27.4757377 19.6436066,26.6252459 20.6927869,26.6252459 L54.3760656,26.6252459 C55.424918,26.6252459 56.2754098,27.4754098 56.2754098,28.5245902 L56.2754098,28.5245902 C56.2754098,29.5734426 55.424918,30.4239344 54.3760656,30.4239344 Z" id="Path" fill="#1E496C"></path>
                <path d="M54.3760656,54.6862295 L8.93278689,54.6862295 C7.88393443,54.6862295 7.03344262,53.8360656 7.03344262,52.7868852 L7.03344262,52.7868852 C7.03344262,51.7380328 7.88360656,50.887541 8.93278689,50.887541 L54.3760656,50.887541 C55.424918,50.887541 56.2754098,51.7377049 56.2754098,52.7868852 L56.2754098,52.7868852 C56.2754098,53.8357377 55.424918,54.6862295 54.3760656,54.6862295 Z" id="Path" fill="#1E496C"></path>
                <path d="M12.4327869,21.6393443 L8.49836066,21.6393443 C7.95508197,21.6393443 7.5147541,21.1990164 7.5147541,20.6557377 L7.5147541,16.7213115 C7.5147541,16.1780328 7.95508197,15.7377049 8.49836066,15.7377049 L12.4327869,15.7377049 C12.9760656,15.7377049 13.4163934,16.1780328 13.4163934,16.7213115 L13.4163934,20.6557377 C13.4163934,21.1990164 12.9760656,21.6393443 12.4327869,21.6393443 Z" id="Path" fill="#1E496C"></path>
                <path d="M10.1429508,20.8403279 C10.1413115,20.8403279 10.14,20.8403279 10.1386885,20.8403279 C9.70459016,20.8390164 9.2957377,20.6268852 9.04491803,20.2731148 L7.19934426,17.6737705 C6.91245902,17.2695082 7.00721311,16.7091803 7.41180328,16.4219672 C7.81639344,16.1347541 8.37672131,16.2304918 8.66360656,16.6344262 L10.1455738,18.7216393 L14.0216393,13.3331148 C14.3111475,12.9304918 14.8721311,12.8390164 15.2747541,13.1285246 C15.6770492,13.4180328 15.7688525,13.9790164 15.4793443,14.3816393 L11.2360656,20.28 C10.9839344,20.6311475 10.5754098,20.8403279 10.1429508,20.8403279 Z" id="Path" fill="#EE936F"></path>
                <path d="M34.5747541,41.9714754 L9.00098361,41.9714754 C8.54819672,41.9714754 8.18131148,41.6045902 8.18131148,41.1518033 C8.18131148,40.6990164 8.54819672,40.3321311 9.00098361,40.3321311 L34.5747541,40.3321311 C35.027541,40.3321311 35.3944262,40.6990164 35.3944262,41.1518033 C35.3944262,41.6045902 35.027541,41.9714754 34.5747541,41.9714754 Z" id="Path" fill="#EE936F"></path>
                <path d="M54.3760656,20.5878689 L20.6927869,20.5878689 C19.6439344,20.5878689 18.7934426,19.7377049 18.7934426,18.6885246 L18.7934426,18.6885246 C18.7934426,17.6396721 19.6436066,16.7891803 20.6927869,16.7891803 L54.3760656,16.7891803 C55.424918,16.7891803 56.2754098,17.6393443 56.2754098,18.6885246 L56.2754098,18.6885246 C56.2754098,19.737377 55.424918,20.5878689 54.3760656,20.5878689 Z" id="Path" fill="#1E496C"></path>
                <path d="M12.4327869,31.1891803 L8.49836066,31.1891803 C7.95508197,31.1891803 7.5147541,30.7488525 7.5147541,30.2055738 L7.5147541,26.2711475 C7.5147541,25.7278689 7.95508197,25.287541 8.49836066,25.287541 L12.4327869,25.287541 C12.9760656,25.287541 13.4163934,25.7278689 13.4163934,26.2711475 L13.4163934,30.2055738 C13.4163934,30.7488525 12.9760656,31.1891803 12.4327869,31.1891803 Z" id="Path" fill="#1E496C"></path>
                <path d="M10.1429508,30.3901639 C10.1413115,30.3901639 10.14,30.3901639 10.1386885,30.3901639 C9.70459016,30.3888525 9.2957377,30.1767213 9.04491803,29.8229508 L7.19934426,27.2236066 C6.91245902,26.8193443 7.00721311,26.2590164 7.41180328,25.9718033 C7.81639344,25.6845902 8.37672131,25.7803279 8.66360656,26.1842623 L10.1455738,28.2714754 L14.0216393,22.8829508 C14.3111475,22.4803279 14.8721311,22.3888525 15.2747541,22.6783607 C15.6770492,22.9678689 15.7688525,23.5288525 15.4793443,23.9314754 L11.2360656,29.8298361 C10.9839344,30.1809836 10.5754098,30.3901639 10.1429508,30.3901639 Z" id="Path" fill="#EE936F"></path>
                <path d="M54.3760656,73.0468852 L20.6927869,73.0468852 C19.6439344,73.0468852 18.7934426,72.1967213 18.7934426,71.147541 L18.7934426,71.147541 C18.7934426,70.0986885 19.6436066,69.2481967 20.6927869,69.2481967 L54.3760656,69.2481967 C55.424918,69.2481967 56.2754098,70.0983607 56.2754098,71.147541 L56.2754098,71.147541 C56.2754098,72.1963934 55.424918,73.0468852 54.3760656,73.0468852 Z" id="Path" fill="#1E496C"></path>
                <path d="M12.4327869,64.2622951 L8.49836066,64.2622951 C7.95508197,64.2622951 7.5147541,63.8219672 7.5147541,63.2786885 L7.5147541,59.3442623 C7.5147541,58.8009836 7.95508197,58.3606557 8.49836066,58.3606557 L12.4327869,58.3606557 C12.9760656,58.3606557 13.4163934,58.8009836 13.4163934,59.3442623 L13.4163934,63.2786885 C13.4163934,63.8219672 12.9760656,64.2622951 12.4327869,64.2622951 Z" id="Path" fill="#1E496C"></path>
                <path d="M54.3760656,63.2108197 L20.6927869,63.2108197 C19.6439344,63.2108197 18.7934426,62.3606557 18.7934426,61.3114754 L18.7934426,61.3114754 C18.7934426,60.262623 19.6436066,59.4121311 20.6927869,59.4121311 L54.3760656,59.4121311 C55.424918,59.4121311 56.2754098,60.2622951 56.2754098,61.3114754 L56.2754098,61.3114754 C56.2754098,62.3603279 55.424918,63.2108197 54.3760656,63.2108197 Z" id="Path" fill="#1E496C"></path>
                <path d="M12.4327869,73.8121311 L8.49836066,73.8121311 C7.95508197,73.8121311 7.5147541,73.3718033 7.5147541,72.8285246 L7.5147541,68.8940984 C7.5147541,68.3508197 7.95508197,67.9104918 8.49836066,67.9104918 L12.4327869,67.9104918 C12.9760656,67.9104918 13.4163934,68.3508197 13.4163934,68.8940984 L13.4163934,72.8285246 C13.4163934,73.3718033 12.9760656,73.8121311 12.4327869,73.8121311 Z" id="Path" fill="#1E496C"></path>
                <path d="M53.984918,36.7255738 L9.00098361,36.7255738 C8.54819672,36.7255738 8.18131148,36.3586885 8.18131148,35.9059016 C8.18131148,35.4531148 8.54819672,35.0862295 9.00098361,35.0862295 L53.984918,35.0862295 C54.4377049,35.0862295 54.8045902,35.4531148 54.8045902,35.9059016 C54.8045902,36.3586885 54.437377,36.7255738 53.984918,36.7255738 Z" id="Path" fill="#EE936F"></path>
                <path d="M59.1127869,10.6272131 L35.9209836,33.8190164 L34.58,41.1239344 C34.5340984,41.3740984 34.7983607,41.6383607 35.0485246,41.592459 L42.3534426,40.2514754 L65.5452459,17.0596721 L59.1127869,10.6272131 Z" id="Path" fill="#F9CFCF" fill-rule="nonzero"></path>
                <path d="M63.8921311,15.4065574 L41.6363934,37.6622951 C42.2144262,38.2403279 41.6718033,39.7239344 42.3642623,40.2409836 L65.5455738,17.0596721 L63.8921311,15.4065574 Z" id="Path" fill="#76D5D4"></path>
                <path d="M60.7659016,12.2803279 L38.5101639,34.5360656 C38.8144262,34.8403279 38.7478689,35.08 38.9157377,36.5967213 C39.0413115,37.7304918 41.0091803,37.0354098 41.6363934,37.6622951 L63.8921311,15.4065574 L60.7659016,12.2803279 Z" id="Path" fill="#76D5D4"></path>
                <path d="M59.1127869,10.6272131 L35.9314754,33.8085246 C36.4481967,34.5009836 37.9321311,33.9583607 38.5101639,34.5363934 L60.7659016,12.2806557 L59.1127869,10.6272131 Z" id="Path" fill="#76D5D4"></path>
                <rect id="Rectangle" fill="#1E496C" transform="translate(63.555348, 12.618114) rotate(-135.000000) translate(-63.555348, -12.618114) " x="59.0068673" y="10.8845237" width="9.09696194" height="3.46717986"></rect>
                <path d="M67.8681967,4.61901639 L71.5534426,8.3042623 C72.3121311,9.06295082 72.3121311,10.2931148 71.5534426,11.0518033 L67.997377,14.6081967 L61.5645902,8.17540984 L65.1206557,4.61901639 C65.8793443,3.86032787 67.1095082,3.86032787 67.8681967,4.61901639 Z" id="Path" fill="#EDC0F2"></path>
                <path d="M35.3567213,36.8921311 L34.58,41.1239344 C34.5340984,41.3740984 34.7983607,41.6383607 35.0485246,41.592459 L39.2803279,40.8157377 L35.3567213,36.8921311 Z" id="Path" fill="#1E496C"></path>
            </g>
        </g>
    </g>
</svg>