<?xml version="1.0" encoding="UTF-8"?>
<svg width="204px" height="200px" viewBox="0 0 204 200" version="1.1" xmlns="http://www.w3.org/2000/svg" xmlns:xlink="http://www.w3.org/1999/xlink">
    <!-- Generator: sketchtool 64 (101010) - https://sketch.com -->
    <title>D3F5C878-2C42-46A5-A159-1FC753E63B98</title>
    <desc>Created with sketchtool.</desc>
    <g id="Features-Page" stroke="none" stroke-width="1" fill="none" fill-rule="evenodd">
        <g id="UI/Web/Features-Page" transform="translate(-155.000000, -799.000000)">
            <g id="Group-33" transform="translate(155.000000, 799.000000)">
                <rect id="Rectangle" fill="#007FA3" opacity="0.245372954" x="0" y="19.4174757" width="184.466019" height="180.582524" rx="14.0126114"></rect>
                <rect id="Rectangle" fill="#FFFFFF" x="19.4174757" y="0" width="184.466019" height="180.582524" rx="14.0126114"></rect>
                <rect id="Rectangle" fill="#D3EAE4" x="34.9514563" y="106.796117" width="40.776699" height="40.776699" rx="5.81148033"></rect>
                <rect id="Rectangle" fill="#D3EAE4" x="91.2621359" y="106.796117" width="40.776699" height="40.776699" rx="5.81148033"></rect>
                <rect id="Rectangle" fill="#FFB81C" opacity="0.49983724" x="36.8932039" y="54.368932" width="7.76699029" height="29.1262136" rx="3.88349515"></rect>
                <rect id="Rectangle" fill="#D3EAE4" x="60.1941748" y="25.2427184" width="7.76699029" height="58.2524272" rx="3.88349515"></rect>
                <rect id="Rectangle" fill="#FFB81C" opacity="0.49983724" x="83.4951456" y="50.4854369" width="7.76699029" height="34.9514563" rx="3.88349515"></rect>
                <rect id="Rectangle" fill="#D3EAE4" x="108.737864" y="62.1359223" width="7.76699029" height="21.3592233" rx="3.88349515"></rect>
                <rect id="Rectangle" fill="#FFB81C" opacity="0.49983724" x="132.038835" y="42.7184466" width="7.76699029" height="40.776699" rx="3.88349515"></rect>
                <rect id="Rectangle" fill="#D3EAE4" x="155.339806" y="25.2427184" width="7.76699029" height="58.2524272" rx="3.88349515"></rect>
                <rect id="Rectangle" fill="#FFB81C" opacity="0.49983724" x="180.582524" y="52.4271845" width="7.76699029" height="31.0679612" rx="3.88349515"></rect>
                <rect id="Rectangle" fill="#FFB81C" opacity="0.49983724" x="147.572816" y="106.796117" width="40.776699" height="40.776699" rx="5.81148033"></rect>
                <g id="Group-8" transform="translate(108.737864, 89.320388)" stroke="#1E496C" stroke-linejoin="round" stroke-width="6.00540486">
                    <path d="M60.0540486,30.0270243 C60.0540486,46.6094485 46.6094485,60.0540486 30.0270243,60.0540486 C13.4446001,60.0540486 0,46.6094485 0,30.0270243 C0,13.4446001 13.4446001,0 30.0270243,0 C46.6094485,0 60.0540486,13.4446001 60.0540486,30.0270243 L60.0540486,30.0270243 Z" id="Stroke-1417"></path>
                    <line x1="51.5462177" y1="51.5465658" x2="86.9334052" y2="86.9337534" id="Stroke-1418" stroke-linecap="round"></line>
                </g>
            </g>
        </g>
    </g>
</svg>