<?xml version="1.0" encoding="UTF-8"?>
<svg width="118px" height="107px" viewBox="0 0 118 107" version="1.1" xmlns="http://www.w3.org/2000/svg" xmlns:xlink="http://www.w3.org/1999/xlink">
    <!-- Generator: sketchtool 64 (101010) - https://sketch.com -->
    <title>9DE76D35-93AF-4455-BD83-41CAD380E606</title>
    <desc>Created with sketchtool.</desc>
    <g id="Features-Page" stroke="none" stroke-width="1" fill="none" fill-rule="evenodd">
        <g id="UI/Web/Features-Page" transform="translate(-350.000000, -1860.000000)">
            <g id="Group-10" transform="translate(350.000000, 1860.000000)">
                <circle id="Oval" fill="#D3EAE4" cx="57.5" cy="52.5" r="35.5"></circle>
                <g id="Group-21">
                    <path d="M38.1352438,36.5444947 L36.0296631,28.1598793 C39.6867773,21.1588738 38.5761689,12.3157366 32.6953243,6.43489191 C25.4439417,-0.816490699 13.6867773,-0.816490699 6.43489191,6.43489191 C-0.816490699,13.6862745 -0.816490699,25.4434389 6.43489191,32.6953243 C12.3157366,38.5761689 21.1588738,39.6867773 28.1598793,36.0296631 L36.5444947,38.1352438 C37.5057818,38.3760684 38.3765711,37.505279 38.1352438,36.5444947 Z" id="Path" fill="#D3EAE4"></path>
                    <path d="M36.8717949,39.1814982 C36.6817496,39.1814982 36.4896933,39.158371 36.2991453,39.1101056 L28.280543,37.0965309 C20.7320261,40.8562092 11.7134238,39.3956762 5.7239819,33.4062343 C-1.90799397,25.7742584 -1.90799397,13.3559578 5.7239819,5.7239819 C13.3559578,-1.90799397 25.7747612,-1.90799397 33.4067371,5.7239819 C39.396179,11.7134238 40.8567119,20.7320261 37.0970337,28.280543 L39.1106083,36.2991453 C39.1106083,36.2991453 39.1106083,36.2991453 39.1106083,36.2991453 C39.3107089,37.0965309 39.0829563,37.9200603 38.5017597,38.5012569 C38.0593263,38.9441931 37.4766214,39.1814982 36.8717949,39.1814982 Z M28.1598793,35.0241327 C28.2418301,35.0241327 28.3237808,35.034188 28.404726,35.0542986 L36.7893414,37.1598793 C36.9356461,37.1975867 37.0336853,37.1256913 37.0794369,37.0794369 C37.1251885,37.0336853 37.1960784,36.9351433 37.1598793,36.7893414 L35.0548014,28.4052288 C34.9944696,28.1659125 35.0241327,27.9130216 35.1387632,27.6948215 C38.7083962,20.860734 37.4409251,12.6028155 31.984917,7.14630468 C25.1367521,0.298139769 13.9944696,0.299145299 7.14630468,7.14630468 C0.298642534,13.9944696 0.298642534,25.1367521 7.14630468,31.984917 C12.6028155,37.4409251 20.8592257,38.7088989 27.6948215,35.1387632 C27.8396179,35.0628457 27.9989945,35.0241327 28.1598793,35.0241327 Z" id="Shape" fill="#76D5D4"></path>
                </g>
                <g id="Group-21-Copy" transform="translate(98.000000, 20.000000) scale(-1, 1) translate(-98.000000, -20.000000) translate(78.000000, 0.000000)">
                    <path d="M38.1352438,36.5444947 L36.0296631,28.1598793 C39.6867773,21.1588738 38.5761689,12.3157366 32.6953243,6.43489191 C25.4439417,-0.816490699 13.6867773,-0.816490699 6.43489191,6.43489191 C-0.816490699,13.6862745 -0.816490699,25.4434389 6.43489191,32.6953243 C12.3157366,38.5761689 21.1588738,39.6867773 28.1598793,36.0296631 L36.5444947,38.1352438 C37.5057818,38.3760684 38.3765711,37.505279 38.1352438,36.5444947 Z" id="Path" fill="#D3EAE4"></path>
                    <path d="M36.8717949,39.1814982 C36.6817496,39.1814982 36.4896933,39.158371 36.2991453,39.1101056 L28.280543,37.0965309 C20.7320261,40.8562092 11.7134238,39.3956762 5.7239819,33.4062343 C-1.90799397,25.7742584 -1.90799397,13.3559578 5.7239819,5.7239819 C13.3559578,-1.90799397 25.7747612,-1.90799397 33.4067371,5.7239819 C39.396179,11.7134238 40.8567119,20.7320261 37.0970337,28.280543 L39.1106083,36.2991453 C39.1106083,36.2991453 39.1106083,36.2991453 39.1106083,36.2991453 C39.3107089,37.0965309 39.0829563,37.9200603 38.5017597,38.5012569 C38.0593263,38.9441931 37.4766214,39.1814982 36.8717949,39.1814982 Z M28.1598793,35.0241327 C28.2418301,35.0241327 28.3237808,35.034188 28.404726,35.0542986 L36.7893414,37.1598793 C36.9356461,37.1975867 37.0336853,37.1256913 37.0794369,37.0794369 C37.1251885,37.0336853 37.1960784,36.9351433 37.1598793,36.7893414 L35.0548014,28.4052288 C34.9944696,28.1659125 35.0241327,27.9130216 35.1387632,27.6948215 C38.7083962,20.860734 37.4409251,12.6028155 31.984917,7.14630468 C25.1367521,0.298139769 13.9944696,0.299145299 7.14630468,7.14630468 C0.298642534,13.9944696 0.298642534,25.1367521 7.14630468,31.984917 C12.6028155,37.4409251 20.8592257,38.7088989 27.6948215,35.1387632 C27.8396179,35.0628457 27.9989945,35.0241327 28.1598793,35.0241327 Z" id="Shape" fill="#76D5D4"></path>
                </g>
                <g id="Group-21-Copy-2" transform="translate(20.000000, 87.000000) scale(1, -1) translate(-20.000000, -87.000000) translate(0.000000, 67.000000)">
                    <path d="M38.1352438,36.5444947 L36.0296631,28.1598793 C39.6867773,21.1588738 38.5761689,12.3157366 32.6953243,6.43489191 C25.4439417,-0.816490699 13.6867773,-0.816490699 6.43489191,6.43489191 C-0.816490699,13.6862745 -0.816490699,25.4434389 6.43489191,32.6953243 C12.3157366,38.5761689 21.1588738,39.6867773 28.1598793,36.0296631 L36.5444947,38.1352438 C37.5057818,38.3760684 38.3765711,37.505279 38.1352438,36.5444947 Z" id="Path" fill="#D3EAE4"></path>
                    <path d="M36.8717949,39.1814982 C36.6817496,39.1814982 36.4896933,39.158371 36.2991453,39.1101056 L28.280543,37.0965309 C20.7320261,40.8562092 11.7134238,39.3956762 5.7239819,33.4062343 C-1.90799397,25.7742584 -1.90799397,13.3559578 5.7239819,5.7239819 C13.3559578,-1.90799397 25.7747612,-1.90799397 33.4067371,5.7239819 C39.396179,11.7134238 40.8567119,20.7320261 37.0970337,28.280543 L39.1106083,36.2991453 C39.1106083,36.2991453 39.1106083,36.2991453 39.1106083,36.2991453 C39.3107089,37.0965309 39.0829563,37.9200603 38.5017597,38.5012569 C38.0593263,38.9441931 37.4766214,39.1814982 36.8717949,39.1814982 Z M28.1598793,35.0241327 C28.2418301,35.0241327 28.3237808,35.034188 28.404726,35.0542986 L36.7893414,37.1598793 C36.9356461,37.1975867 37.0336853,37.1256913 37.0794369,37.0794369 C37.1251885,37.0336853 37.1960784,36.9351433 37.1598793,36.7893414 L35.0548014,28.4052288 C34.9944696,28.1659125 35.0241327,27.9130216 35.1387632,27.6948215 C38.7083962,20.860734 37.4409251,12.6028155 31.984917,7.14630468 C25.1367521,0.298139769 13.9944696,0.299145299 7.14630468,7.14630468 C0.298642534,13.9944696 0.298642534,25.1367521 7.14630468,31.984917 C12.6028155,37.4409251 20.8592257,38.7088989 27.6948215,35.1387632 C27.8396179,35.0628457 27.9989945,35.0241327 28.1598793,35.0241327 Z" id="Shape" fill="#76D5D4"></path>
                </g>
                <g id="Group-21-Copy-3" transform="translate(98.000000, 87.000000) scale(-1, -1) translate(-98.000000, -87.000000) translate(78.000000, 67.000000)">
                    <path d="M38.1352438,36.5444947 L36.0296631,28.1598793 C39.6867773,21.1588738 38.5761689,12.3157366 32.6953243,6.43489191 C25.4439417,-0.816490699 13.6867773,-0.816490699 6.43489191,6.43489191 C-0.816490699,13.6862745 -0.816490699,25.4434389 6.43489191,32.6953243 C12.3157366,38.5761689 21.1588738,39.6867773 28.1598793,36.0296631 L36.5444947,38.1352438 C37.5057818,38.3760684 38.3765711,37.505279 38.1352438,36.5444947 Z" id="Path" fill="#D3EAE4"></path>
                    <path d="M36.8717949,39.1814982 C36.6817496,39.1814982 36.4896933,39.158371 36.2991453,39.1101056 L28.280543,37.0965309 C20.7320261,40.8562092 11.7134238,39.3956762 5.7239819,33.4062343 C-1.90799397,25.7742584 -1.90799397,13.3559578 5.7239819,5.7239819 C13.3559578,-1.90799397 25.7747612,-1.90799397 33.4067371,5.7239819 C39.396179,11.7134238 40.8567119,20.7320261 37.0970337,28.280543 L39.1106083,36.2991453 C39.1106083,36.2991453 39.1106083,36.2991453 39.1106083,36.2991453 C39.3107089,37.0965309 39.0829563,37.9200603 38.5017597,38.5012569 C38.0593263,38.9441931 37.4766214,39.1814982 36.8717949,39.1814982 Z M28.1598793,35.0241327 C28.2418301,35.0241327 28.3237808,35.034188 28.404726,35.0542986 L36.7893414,37.1598793 C36.9356461,37.1975867 37.0336853,37.1256913 37.0794369,37.0794369 C37.1251885,37.0336853 37.1960784,36.9351433 37.1598793,36.7893414 L35.0548014,28.4052288 C34.9944696,28.1659125 35.0241327,27.9130216 35.1387632,27.6948215 C38.7083962,20.860734 37.4409251,12.6028155 31.984917,7.14630468 C25.1367521,0.298139769 13.9944696,0.299145299 7.14630468,7.14630468 C0.298642534,13.9944696 0.298642534,25.1367521 7.14630468,31.984917 C12.6028155,37.4409251 20.8592257,38.7088989 27.6948215,35.1387632 C27.8396179,35.0628457 27.9989945,35.0241327 28.1598793,35.0241327 Z" id="Shape" fill="#76D5D4"></path>
                </g>
                <g id="Group-20" transform="translate(9.000000, 7.000000)">
                    <g id="Group-12" transform="translate(1.229880, 0.000000)">
                        <path d="M2.54649164,24.8023129 L16.8552378,24.8023129 L16.8552378,20.684482 C16.8552378,18.9909882 15.482367,17.6183779 13.7891337,17.6183779 L5.61259572,17.6183779 C3.91910194,17.6183779 2.54649164,18.9912486 2.54649164,20.684482 L2.54649164,24.8023129 L2.54649164,24.8023129 Z" id="Path-Copy" fill="#1E496C"></path>
                        <path d="M9.84711153,17.2685836 C8.88550294,17.2685836 7.97989269,17.0328697 7.18419545,16.6179611 L7.18419545,17.6183779 L7.18419545,17.6186383 C7.18419545,19.0878783 8.37526697,20.2789498 9.84450695,20.2789498 C11.3137469,20.2789498 12.5048185,19.0878783 12.5048185,17.6186383 L12.5048185,17.6183779 L12.5048185,16.6205657 C11.7104235,17.0339115 10.8068969,17.2685836 9.84711153,17.2685836 Z" id="Path" fill="#A0616A" fill-rule="nonzero"></path>
                        <path d="M15.5782153,9.43037975 L15.5782153,8.89383758 C15.5782153,5.75714955 13.0121894,3.21430432 9.84711153,3.21430432 L9.84711153,3.21430432 C6.68177319,3.21430432 4.11600771,5.75714955 4.11600771,8.89383758 L4.11600771,9.43037975 C3.12080013,9.41006407 2.33135386,10.2028963 2.33135386,11.1613794 C2.33135386,12.1847164 3.22472261,12.9939574 4.26733344,12.8837839 C4.85883211,15.3964161 7.13184352,17.2685836 9.84711153,17.2685836 C12.56264,17.2685836 14.8353909,15.3964161 15.4268896,12.8837839 C16.4681982,12.9939574 17.3628693,12.1860186 17.3628693,11.1613794 C17.3631297,10.2023754 16.572902,9.41006407 15.5782153,9.43037975 Z" id="Path" fill="#A0616A" fill-rule="nonzero"></path>
                        <path d="M9.84711153,17.7894984 C7.06725009,17.7894984 4.6658332,16.0064073 3.86883367,13.4046987 C3.38386206,13.3596395 2.92155024,13.1603896 2.55612856,12.8316925 C2.08209616,12.4050633 1.81017867,11.7963744 1.81017867,11.1613794 C1.81017867,10.5537324 2.05005991,9.98385164 2.48580507,9.55670157 C2.79600979,9.25274783 3.1783612,9.04880971 3.59483253,8.95973329 L3.59483253,8.89383758 C3.59483253,5.47481377 6.39969787,2.69338959 9.84685107,2.69338959 C13.2940043,2.69338959 16.0988696,5.47481377 16.0988696,8.89383758 L16.0988696,8.95973329 C16.5153409,9.04880971 16.8976923,9.25274783 17.2078971,9.55670157 C17.6436422,9.98385164 17.8835235,10.5534719 17.8835235,11.1613794 C17.8835235,11.7963744 17.6118664,12.4050633 17.137834,12.831432 C16.7721519,13.1603896 16.3098401,13.3593791 15.8248685,13.4046987 C15.0283899,16.0064073 12.626973,17.7894984 9.84711153,17.7894984 Z M4.26785435,12.3626087 C4.50695421,12.3626087 4.71870605,12.5269573 4.77444392,12.764234 C5.32635308,15.1093921 7.4123561,16.7474084 9.84711153,16.7474084 C12.281867,16.7474084 14.36787,15.1093921 14.9197791,12.764234 C14.9799448,12.5089858 15.219826,12.3376048 15.4815857,12.3654738 C15.8360681,12.4032401 16.1780487,12.2935875 16.441371,12.0565713 C16.6997448,11.8239829 16.8422149,11.5059645 16.8422149,11.1611189 C16.8422149,10.8355472 16.7132885,10.5300307 16.4791374,10.3005678 C16.2421212,10.0682398 15.9261864,9.9468667 15.5888941,9.95077356 C15.439652,9.95207585 15.3135907,9.89972392 15.2138355,9.8020524 C15.1138199,9.70412044 15.0575611,9.56998489 15.0575611,9.43011929 L15.0575611,8.89357712 C15.0575611,6.04912226 12.7202167,3.73495859 9.84737199,3.73495859 C6.97452727,3.73495859 4.63718289,6.04912226 4.63718289,8.89357712 L4.63718289,9.43011929 C4.63718289,9.57024535 4.5809241,9.70412044 4.48090848,9.8020524 C4.38089285,9.89998437 4.24571548,9.95546179 4.10584987,9.95077356 C3.76751576,9.94243892 3.45262281,10.0679794 3.21586706,10.3003073 C2.98171589,10.5297703 2.8527895,10.8352868 2.8527895,11.1608585 C2.8527895,11.5059645 2.99499922,11.8239829 3.25363338,12.0565713 C3.51669532,12.2933271 3.85737355,12.4027192 4.21315831,12.3652133 C4.23112986,12.3636506 4.24962234,12.3626087 4.26785435,12.3626087 Z" id="Shape" fill="#A0616A" fill-rule="nonzero"></path>
                        <path d="M4.80413606,2.11100693 C3.9847372,3.1270511 2.88430484,3.79147784 1.66041569,3.90738136 C1.4416315,3.92795749 1.27676199,4.11574725 1.27676199,4.33557327 L1.27676199,4.74917956 C1.27676199,7.13080169 3.20727197,9.06131166 5.5888941,9.06131166 L11.997708,9.06131166 C14.2965047,9.06131166 16.1598166,7.19773923 16.1598166,4.899203 L16.1598166,4.899203 C16.1598166,2.4813773 14.199875,0.521435553 11.7820493,0.521435553 L8.14736678,0.521435553 C6.85054957,0.521175184 5.61806532,1.10147419 4.80413606,2.11100693 Z" id="Path" fill="#252525"></path>
                        <path d="M4.11600771,9.43037975 L4.11600771,8.89383758 C4.11600771,8.86310361 4.11783091,8.83289056 4.11835183,8.80215659 C3.42162838,8.54899203 2.80799083,8.12210241 2.33135386,7.57279783 L2.33135386,8.36745325 C2.33135386,8.98161171 2.46757306,9.56373392 2.71031932,10.0864718 C3.03537011,9.67963744 3.54065739,9.41865917 4.11600771,9.43037975 Z" id="Path" fill="#252525"></path>
                        <path d="M15.3617753,7.34854404 C15.5016409,7.84002709 15.5782153,8.35781633 15.5782153,8.89357712 L15.5782153,9.43011929 C16.0923582,9.41970099 16.5505027,9.62728551 16.8745116,9.96171277 C17.3641715,9.08813877 17.6295775,8.0720946 17.6295775,6.90524561 C17.6295775,5.77564203 17.0201073,4.78876908 16.1121529,4.25431057 C16.1431474,4.46476012 16.1598166,4.67963744 16.1598166,4.89868209 C16.1598166,5.81497109 15.8634162,6.66145752 15.3617753,7.34854404 Z" id="Path" fill="#252525"></path>
                        <path d="M11.997708,9.58196593 L5.5888941,9.58196593 C2.92415482,9.58196593 0.755847268,7.41391884 0.755847268,4.7489191 L0.755847268,4.33531281 C0.755847268,3.84174611 1.12361306,3.43465125 1.61118925,3.38855029 C2.65353962,3.29009741 3.64353805,2.7202167 4.39834349,1.78387248 L4.39834349,1.78387248 C5.31254884,0.650101578 6.67890816,-2.86190824e-14 8.14736678,-2.86190824e-14 L11.7820493,-2.86190824e-14 C14.4832526,-2.86190824e-14 16.6809918,2.19773923 16.6809918,4.89868209 C16.6809918,7.48111684 14.5801427,9.58196593 11.997708,9.58196593 Z M1.79767672,4.41657551 L1.79767672,4.7489191 C1.79767672,6.8393499 3.4984633,8.54013648 5.5888941,8.54013648 L11.997708,8.54013648 C14.0055738,8.54013648 15.6389019,6.90680836 15.6389019,4.89894254 C15.6389019,2.77204772 13.9086836,1.04182945 11.7817888,1.04182945 L8.14736678,1.04182945 C6.99588477,1.04182945 5.9248841,1.55076314 5.20940772,2.43788092 L5.20940772,2.43788092 C4.29754649,3.56904725 3.08902433,4.26915664 1.79767672,4.41657551 Z" id="Shape" fill="#252525"></path>
                        <path d="M2.71031932,10.6071261 C2.68948273,10.6071261 2.66864614,10.6058238 2.64780955,10.6034797 C2.46861489,10.5818617 2.31364276,10.4690837 2.23758921,10.3055165 C1.95395114,9.69448351 1.81017867,9.04229828 1.81017867,8.36719279 L1.81017867,7.57253738 C1.81017867,7.35505548 1.94535605,7.16049383 2.1490337,7.08444028 C2.3524509,7.00786581 2.5821743,7.06672918 2.72464448,7.23107777 C3.14736678,7.7183935 3.69068084,8.09214982 4.2962442,8.31223629 C4.50513101,8.38828984 4.6426525,8.58832109 4.63900609,8.81049122 L4.63666198,8.89357712 L4.63666198,9.43011929 C4.63666198,9.57024535 4.58040319,9.70412044 4.48038756,9.8020524 C4.38037193,9.89972392 4.24285045,9.95285722 4.10532896,9.95077356 C3.72089389,9.94712716 3.35703495,10.1106944 3.11689326,10.4112622 C3.01765901,10.5360213 2.86737511,10.6071261 2.71031932,10.6071261 Z M2.87180289,8.74407459 C2.88795124,8.90008856 2.91477835,9.0537584 2.95124238,9.20534459 C3.07652237,9.13397927 3.20857426,9.07459499 3.34557483,9.02823358 C3.18226806,8.94280356 3.02417044,8.84773663 2.87180289,8.74407459 Z" id="Shape" fill="#252525"></path>
                        <path d="M16.8745116,10.482888 C16.7343856,10.482888 16.5992082,10.4263687 16.5002344,10.3245299 C16.2600927,10.0768349 15.9337396,9.94582487 15.5886336,9.95103402 C15.4472053,9.95650362 15.3135907,9.90050529 15.213575,9.80231286 C15.1135594,9.70438089 15.0573006,9.57024535 15.0573006,9.43011929 L15.0573006,8.89357712 C15.0573006,8.42084701 14.9911444,7.94889827 14.8609158,7.49127468 C14.8168985,7.33708392 14.8465906,7.17117258 14.9411366,7.04146481 C15.3977184,6.41584623 15.6391624,5.67484503 15.6391624,4.89894254 C15.6391624,4.71141324 15.6250977,4.51997708 15.5969683,4.33062458 C15.5677971,4.13215607 15.6550503,3.93446893 15.8212221,3.82247226 C15.9876543,3.7104756 16.2035735,3.70396416 16.3765172,3.80580299 C17.470959,4.45017451 18.1507527,5.63786008 18.1507527,6.90550607 C18.1507527,8.12991613 17.874147,9.24415273 17.3290097,10.2167005 C17.2485284,10.3602125 17.1050164,10.4573631 16.9417096,10.4784602 C16.9193103,10.4815857 16.896911,10.482888 16.8745116,10.482888 Z M16.0991301,8.95947283 C16.3028077,9.00296921 16.4978903,9.07407407 16.6804709,9.17096421 C16.9648903,8.48726363 17.1086628,7.72750951 17.1086628,6.90524561 C17.1086628,6.37781945 16.9427515,5.86966714 16.6489556,5.44720529 C16.5658697,6.16137938 16.3205188,6.84143356 15.9261864,7.44699693 C16.0407876,7.92128978 16.0991301,8.40678231 16.0991301,8.89331666 L16.0991301,8.95947283 Z" id="Shape" fill="#252525"></path>
                        <path d="M9.84711153,22.9882273 L9.84711153,21.374694 L4.46345783,20.1495025 C4.08423191,20.0632911 3.6964109,20.0195343 3.30754805,20.0195343 L0.781372089,20.0195343 C0.349794239,20.0195343 -3.55271368e-14,20.3693285 -3.55271368e-14,20.8009064 L-3.55271368e-14,22.9882273 L9.84711153,22.9882273 Z" id="Path" fill="#FFFFFF" fill-rule="nonzero"></path>
                        <path d="M9.84711153,22.9882273 L9.84711153,21.374694 L15.2310257,20.1495025 C15.6102516,20.0632911 15.9980726,20.0195343 16.3869355,20.0195343 L18.9131114,20.0195343 C19.3446893,20.0195343 19.6944835,20.3693285 19.6944835,20.8009064 L19.6944835,22.9882273 L9.84711153,22.9882273 L9.84711153,22.9882273 Z" id="Path" fill="#FFFFFF" fill-rule="nonzero"></path>
                    </g>
                    <path d="M11.0769912,24.8023129 L0.906912538,24.8023129 C0.406053029,24.8023129 3.94745964e-14,24.3962598 3.94745964e-14,23.8954003 L3.94745964e-14,23.8954003 C3.94745964e-14,23.3945408 0.406053029,22.9884878 0.906912538,22.9884878 L11.0769912,22.9884878 L11.0769912,24.8023129 Z" id="Path" fill="#76D5D4"></path>
                    <path d="M11.0769912,24.8023129 L21.2473303,24.8023129 C21.7481898,24.8023129 22.1542429,24.3962598 22.1542429,23.8954003 L22.1542429,23.8954003 C22.1542429,23.3945408 21.7481898,22.9884878 21.2473303,22.9884878 L11.0769912,22.9884878 L11.0769912,24.8023129 Z" id="Path" fill="#76D5D4"></path>
                </g>
                <g id="Group-22" transform="translate(87.000000, 7.000000)">
                    <path d="M20.0864718,13.9084232 L18.5904048,7.22508725 L11.0746471,7.22508725 L3.55888941,7.22508725 L2.06282232,13.9084232 C2.02531646,14.0764182 2.00630307,14.2483201 2.00630307,14.4204824 L2.00630307,14.4361098 C2.00630307,15.8084597 3.11897692,16.9211335 4.49132677,16.9211335 L11.0749075,16.9211335 L17.6584883,16.9211335 C19.0308382,16.9211335 20.143512,15.8087201 20.143512,14.4361098 L20.143512,14.4204824 C20.1432515,14.2483201 20.1242382,14.0764182 20.0864718,13.9084232 Z" id="Path" fill="#252525"></path>
                    <path d="M17.6582278,17.4420482 L4.49106631,17.4420482 C2.83377611,17.4420482 1.48512788,16.0936605 1.48512788,14.4361098 C1.48512788,14.2100328 1.50830859,13.9995833 1.55440954,13.7946033 L3.05047664,7.11126739 C3.1038704,6.87320936 3.31510132,6.70417253 3.55888941,6.70417253 L18.5904048,6.70417253 C18.8341928,6.70417253 19.0454238,6.87320936 19.0988175,7.11126739 L20.5948846,13.7946033 C20.6407251,13.9995833 20.6641663,14.2100328 20.6641663,14.4204824 C20.6639058,16.0934 19.315518,17.4420482 17.6582278,17.4420482 Z M3.97588165,7.74600198 L2.57097463,14.0222431 C2.54180341,14.1524717 2.52695734,14.2866073 2.52695734,14.4204824 C2.52695734,15.5190915 3.4080846,16.4002188 4.49106631,16.4002188 L17.6582278,16.4002188 C18.7412096,16.4002188 19.6223368,15.5190915 19.6223368,14.4361098 C19.6223368,14.2866073 19.6074908,14.1527322 19.5783195,14.0225035 C19.5783195,14.0225035 19.5783195,14.0225035 19.5783195,14.0225035 L18.1734125,7.74626244 L3.97588165,7.74626244 L3.97588165,7.74600198 Z" id="Shape" fill="#252525"></path>
                    <path d="M3.92014377,24.4548627 L18.2288899,24.4548627 L18.2288899,20.3370318 C18.2288899,18.6435381 16.8560192,17.2709277 15.1627859,17.2709277 L6.98624785,17.2709277 C5.29275408,17.2709277 3.92014377,18.6437985 3.92014377,20.3370318 L3.92014377,24.4548627 L3.92014377,24.4548627 Z" id="Path" fill="#1E496C"></path>
                    <path d="M13.7375632,16.270511 C13.7375632,16.395791 13.7375632,17.1459082 13.7375632,17.2711882 C13.7375632,18.7404282 12.5464916,19.9314997 11.0772517,19.9314997 C9.60879304,19.9314997 8.41694015,18.7412096 8.41694015,17.2709277 L8.41694015,16.2731156 C10.0789186,17.137834 12.0732406,17.1380945 13.7375632,16.270511 Z" id="Path" fill="#EE936F"></path>
                    <path d="M5.34354326,9.08292962 L5.34354326,8.54638746 C5.34354326,5.40969943 7.9095692,2.8668542 11.0746471,2.8668542 L11.0746471,2.8668542 C14.2399854,2.8668542 16.8057509,5.40969943 16.8057509,8.54638746 L16.8057509,9.08292962 C17.8009585,9.06261395 18.5904048,9.85544616 18.5904048,10.8139293 C18.5904048,11.8372662 17.697036,12.6465073 16.6544252,12.5363338 C16.0629265,15.0492264 13.7899151,16.9211335 11.0746471,16.9211335 C8.35911861,16.9211335 6.08636766,15.048966 5.49486899,12.5363338 C4.45356045,12.6465073 3.55888935,11.8385685 3.55888935,10.8139293 C3.55862895,9.85492525 4.34885659,9.06261395 5.34354326,9.08292962 Z" id="Path" fill="#EE936F"></path>
                    <path d="M11.0746471,17.4420482 C8.2950461,17.4420482 5.89336876,15.6589571 5.09636922,13.0572485 C4.61139761,13.0121894 4.14908579,12.8129395 3.78340366,12.4839819 C3.30963171,12.0576132 3.03771423,11.4489243 3.03771423,10.8139293 C3.03771423,10.2062822 3.27759546,9.63640152 3.71334063,9.20925145 C4.02354535,8.9052977 4.40589675,8.70109913 4.82236808,8.61228317 L4.82236808,8.54638746 C4.82236808,5.12736365 7.62723342,2.34593947 11.0743866,2.34593947 C14.5215398,2.34593947 17.3264052,5.12736365 17.3264052,8.54638746 L17.3264052,8.61228317 C17.7428765,8.70109913 18.1249674,8.9052977 18.4354326,9.20925145 C18.8711778,9.63640152 19.111059,10.2062822 19.111059,10.8139293 C19.111059,11.4489243 18.8391415,12.0576132 18.3651091,12.4842423 C17.9996875,12.8132 17.5373756,13.0121894 17.052404,13.0572485 C16.2556649,15.6589571 13.8542481,17.4420482 11.0746471,17.4420482 Z M5.49512945,12.0151586 C5.73422931,12.0151586 5.94598114,12.1792468 6.00171902,12.4167839 C6.55388863,14.7622024 8.63989165,16.4002188 11.0746471,16.4002188 C13.5094025,16.4002188 15.5951451,14.7622024 16.1473147,12.4170443 C16.2074803,12.1617961 16.4471011,11.9904152 16.7091212,12.0182841 C17.0641246,12.0560504 17.4055842,11.9463979 17.6686461,11.7096421 C17.9272803,11.4770537 18.06949,11.1590353 18.06949,10.8139293 C18.06949,10.4883576 17.9405636,10.1828411 17.7064125,9.95337813 C17.4693963,9.72105016 17.1552847,9.59967703 16.8164297,9.60384435 C16.6700526,9.60514664 16.5411262,9.55279471 16.441371,9.4551232 C16.3413554,9.35719123 16.2850966,9.22305569 16.2850966,9.08319008 L16.2850966,8.54664791 C16.2850966,5.70219305 13.9477523,3.38802938 11.0749075,3.38802938 C8.20206282,3.38802938 5.86471845,5.70219305 5.86471845,8.54664791 L5.86471845,9.08319008 C5.86471845,9.22331614 5.80845966,9.35719123 5.70844403,9.4551232 C5.6084284,9.55305516 5.47481377,9.60853258 5.33338542,9.60384435 C4.99661405,9.59550972 4.68041882,9.72105016 4.44340261,9.95363859 C4.20925145,10.1831015 4.08032505,10.488618 4.08032505,10.8141897 C4.08032505,11.1592957 4.22253477,11.4773142 4.48116893,11.7096421 C4.74423087,11.9463979 5.08569047,12.05579 5.44069386,12.0185446 C5.45840496,12.0162004 5.47689743,12.0151586 5.49512945,12.0151586 Z" id="Shape" fill="#EE936F"></path>
                    <path d="M9.74214721,0.520914726 L11.0746471,0.520914726 C11.0746471,0.604261082 11.0746471,6.78100745 11.0746471,6.70417253 C11.0746471,7.62853571 10.3253112,8.37787154 9.40094806,8.37787154 L3.55888941,8.37787154 L3.55888941,6.70417253 C3.55862895,3.28931604 6.32703027,0.520914726 9.74214721,0.520914726 Z" id="Path" fill="#252525"></path>
                    <path d="M12.407147,0.520914726 L11.0746471,0.520914726 C11.0746471,0.604261082 11.0746471,6.78100745 11.0746471,6.70417253 C11.0746471,7.62853571 11.8239829,8.37787154 12.7483461,8.37787154 L18.5904048,8.37787154 L18.5904048,6.70417253 C18.5904048,3.28931604 15.8220034,0.520914726 12.407147,0.520914726 Z" id="Path" fill="#252525"></path>
                    <path d="M18.5904048,8.89878627 L12.7483461,8.89878627 C12.0784498,8.89878627 11.4775746,8.59691618 11.0746471,8.12210241 C10.6717195,8.59691618 10.0708444,8.89878627 9.40094806,8.89878627 L3.55888941,8.89878627 C3.27134448,8.89878627 3.03797468,8.66541647 3.03797468,8.37787154 L3.03797468,6.70417253 C3.03797468,3.00750117 6.04547586,-4.63826508e-14 9.74214721,-4.63826508e-14 L12.407147,-4.63826508e-14 C16.1038183,-4.63826508e-14 19.1113195,3.00750117 19.1113195,6.70417253 L19.1113195,8.37787154 C19.1113195,8.66567693 18.8779497,8.89878627 18.5904048,8.89878627 Z M11.5955618,6.70417253 C11.5955618,7.33968849 12.1128301,7.85695682 12.7483461,7.85695682 L18.06949,7.85695682 L18.06949,6.70417253 C18.06949,3.58180966 15.5295098,1.04182945 12.407147,1.04182945 L9.74214721,1.04182945 C6.61978434,1.04182945 4.07980414,3.58180966 4.07980414,6.70417253 L4.07980414,7.85695682 L9.40094806,7.85695682 C10.036464,7.85695682 10.5537324,7.33968849 10.5537324,6.70417253 C10.5537324,6.4166276 10.7871022,6.1832578 11.0746471,6.1832578 C11.362192,6.1832578 11.5955618,6.4166276 11.5955618,6.70417253 Z" id="Shape" fill="#252525"></path>
                    <path d="M11.0772517,24.4548627 L0.906912538,24.4548627 C0.406053029,24.4548627 -1.47042872e-13,24.0488097 -1.47042872e-13,23.5479502 L-1.47042872e-13,23.5479502 C-1.47042872e-13,23.0470907 0.406053029,22.6410377 0.906912538,22.6410377 L11.0772517,22.6410377 L11.0772517,24.4548627 Z" id="Path" fill="#76D5D4"></path>
                    <path d="M11.0772517,22.6407772 L11.0772517,21.0272438 L5.6933375,19.8020524 C5.31411158,19.715841 4.92629057,19.6720842 4.53742772,19.6720842 L2.01125176,19.6720842 C1.57967391,19.6720842 1.22987967,20.0218784 1.22987967,20.4534563 L1.22987967,22.6407772 L11.0772517,22.6407772 L11.0772517,22.6407772 Z" id="Path" fill="#FFFFFF" fill-rule="nonzero"></path>
                    <path d="M11.0772517,24.4548627 L21.2475908,24.4548627 C21.7484503,24.4548627 22.1545033,24.0488097 22.1545033,23.5479502 L22.1545033,23.5479502 C22.1545033,23.0470907 21.7484503,22.6410377 21.2475908,22.6410377 L11.0772517,22.6410377 L11.0772517,24.4548627 Z" id="Path" fill="#76D5D4"></path>
                    <path d="M11.0772517,22.6407772 L11.0772517,21.0272438 L16.4611658,19.8020524 C16.8403917,19.715841 17.2282127,19.6720842 17.6170756,19.6720842 L20.1432515,19.6720842 C20.5748294,19.6720842 20.9246236,20.0218784 20.9246236,20.4534563 L20.9246236,22.6407772 L11.0772517,22.6407772 L11.0772517,22.6407772 Z" id="Path" fill="#FFFFFF" fill-rule="nonzero"></path>
                </g>
                <g id="Group-23" transform="translate(9.000000, 74.000000)">
                    <path d="M18.2340991,24.8023129 L3.92535292,24.8023129 L3.92535292,20.684482 C3.92535292,18.9909882 5.29822368,17.6183779 6.991457,17.6183779 L15.167995,17.6183779 C16.8614888,17.6183779 18.2340991,18.9912486 18.2340991,20.684482 L18.2340991,24.8023129 L18.2340991,24.8023129 Z" id="Path" fill="#1E496C"></path>
                    <path d="M11.0798562,17.2685836 C10.1182476,17.2685836 9.21263739,17.0328697 8.41694015,16.6179611 L8.41694015,17.6183779 L8.41694015,17.6186383 C8.41694015,19.0878783 9.60801167,20.2789498 11.0772517,20.2789498 C12.5464916,20.2789498 13.7375632,19.0878783 13.7375632,17.6186383 L13.7375632,17.6183779 L13.7375632,16.6205657 C12.9431682,17.0339115 12.0393812,17.2685836 11.0798562,17.2685836 Z" id="Path" fill="#FFB9B9" fill-rule="nonzero"></path>
                    <path d="M11.0772517,24.8023129 L0.906912538,24.8023129 C0.406053029,24.8023129 -2.07241631e-14,24.3962598 -2.07241631e-14,23.8954003 L-2.07241631e-14,23.8954003 C-2.07241631e-14,23.3945408 0.406053029,22.9884878 0.906912538,22.9884878 L11.0772517,22.9884878 L11.0772517,24.8023129 Z" id="Path" fill="#76D5D4"></path>
                    <path d="M11.0772517,22.9882273 L11.0772517,21.374694 L5.6933375,20.1495025 C5.31411158,20.0632911 4.92629057,20.0195343 4.53742772,20.0195343 L2.01125176,20.0195343 C1.57967391,20.0195343 1.22987967,20.3693285 1.22987967,20.8009064 L1.22987967,22.9882273 L11.0772517,22.9882273 Z" id="Path" fill="#FFFFFF" fill-rule="nonzero"></path>
                    <path d="M11.0772517,24.8023129 L21.2475908,24.8023129 C21.7484503,24.8023129 22.1545033,24.3962598 22.1545033,23.8954003 L22.1545033,23.8954003 C22.1545033,23.3945408 21.7484503,22.9884878 21.2475908,22.9884878 L11.0772517,22.9884878 L11.0772517,24.8023129 Z" id="Path" fill="#76D5D4"></path>
                    <path d="M11.0772517,22.9882273 L11.0772517,21.374694 L16.4611658,20.1495025 C16.8403917,20.0632911 17.2282127,20.0195343 17.6170756,20.0195343 L20.1432515,20.0195343 C20.5748294,20.0195343 20.9246236,20.3693285 20.9246236,20.8009064 L20.9246236,22.9882273 L11.0772517,22.9882273 Z" id="Path" fill="#FFFFFF" fill-rule="nonzero"></path>
                    <path d="M16.81096,9.43037975 L16.81096,8.89383758 C16.81096,5.75714955 14.2449341,3.21430432 11.0798562,3.21430432 L11.0798562,3.21430432 C7.91451789,3.21430432 5.34875241,5.75714955 5.34875241,8.89383758 L5.34875241,9.43037975 C4.35354482,9.41032453 3.56409856,10.2028963 3.56409856,11.1613794 C3.56409856,12.1847164 4.45746731,12.9939574 5.50007814,12.8837839 C6.09157681,15.3966766 8.36458822,17.2685836 11.0798562,17.2685836 C13.7953847,17.2685836 16.0681356,15.3964161 16.6596343,12.8837839 C17.7009429,12.9939574 18.5956139,12.1860186 18.5956139,11.1613794 C18.5956139,10.2023754 17.8053863,9.41006407 16.81096,9.43037975 Z" id="Path" fill="#FFB9B9" fill-rule="nonzero"></path>
                    <path d="M11.0798562,17.7894984 C8.30025525,17.7894984 5.8985779,16.0064073 5.10157837,13.4046987 C4.61660676,13.3596395 4.1545554,13.1606501 3.78887326,12.8316925 C3.31484086,12.4050633 3.04292337,11.7963744 3.04292337,11.1613794 C3.04292337,10.5537324 3.2828046,9.98385164 3.71854977,9.55670157 C4.02875449,9.25248737 4.4111059,9.04854925 4.82757723,8.95973329 L4.82757723,8.89383758 C4.82757723,5.47481377 7.63218211,2.69338959 11.0795958,2.69338959 C14.5270094,2.69338959 17.3316143,5.47481377 17.3316143,8.89383758 L17.3316143,8.95973329 C17.7480856,9.04854925 18.1301766,9.25274783 18.4406418,9.55670157 C18.8763869,9.98359119 19.1162682,10.5534719 19.1162682,11.1613794 C19.1162682,11.7963744 18.8446111,12.4050633 18.3705787,12.831432 C18.0048966,13.1603896 17.5425848,13.3593791 17.0576132,13.4046987 C16.2608741,16.0064073 13.8594572,17.7894984 11.0798562,17.7894984 Z M5.50033859,12.3626087 C5.73943845,12.3626087 5.95119029,12.5266969 6.00692817,12.764234 C6.55909778,15.1093921 8.64484034,16.7474084 11.0795958,16.7474084 C13.5143512,16.7474084 15.6003542,15.1093921 16.1522634,12.764234 C16.212429,12.5089858 16.4530916,12.3381257 16.7140699,12.3654738 C17.0685524,12.4032401 17.4105329,12.2935875 17.6738553,12.0565713 C17.932229,11.8239829 18.0746992,11.5059645 18.0746992,11.1611189 C18.0746992,10.8355472 17.9457728,10.5300307 17.7116216,10.3005678 C17.4746054,10.0682398 17.1589311,9.94816898 16.8216388,9.95077356 C16.6830755,9.95676408 16.5463354,9.89998437 16.4465802,9.8020524 C16.3465646,9.70412044 16.2903058,9.56998489 16.2903058,9.43011929 L16.2903058,8.89357712 C16.2903058,6.04912226 13.9529614,3.73495859 11.0801167,3.73495859 C8.20727197,3.73495859 5.86992759,6.04912226 5.86992759,8.89357712 L5.86992759,9.43011929 C5.86992759,9.57024535 5.8136688,9.70412044 5.71365317,9.8020524 C5.61363755,9.89998437 5.47637652,9.95624316 5.33859457,9.95077356 C4.99479085,9.9468667 4.68536751,10.0679794 4.4483513,10.3003073 C4.21420014,10.5297703 4.08527374,10.8355472 4.08527374,11.1608585 C4.08527374,11.5059645 4.22748346,11.8239829 4.48611762,12.0565713 C4.74917956,12.2933271 5.08985779,12.4029796 5.44564255,12.3652133 C5.46387456,12.3636506 5.48210658,12.3626087 5.50033859,12.3626087 Z" id="Shape" fill="#FFB9B9" fill-rule="nonzero"></path>
                    <path d="M5.34875241,9.43037975 L5.34875241,8.89383758 C5.34875241,8.86310361 5.35057561,8.83289056 5.35109653,8.80215659 C4.65437308,8.54899203 4.04073553,8.12210241 3.56409856,7.57279783 L3.56409856,8.36745325 C3.56409856,8.98161171 3.70031776,9.56373392 3.94306402,10.0864718 C4.26811481,9.67963744 4.77340209,9.41865917 5.34875241,9.43037975 Z" id="Path" fill="#252525"></path>
                    <path d="M16.59452,7.34854404 C16.7343856,7.84002709 16.81096,8.35781633 16.81096,8.89357712 L16.81096,9.43011929 C17.3251029,9.41970099 17.7832474,9.62728551 18.1072563,9.96171277 C18.5969162,9.08813877 18.8623222,8.0720946 18.8623222,6.90524561 C18.8623222,5.77564203 18.252852,4.78876908 17.3448976,4.25431057 C17.3758921,4.46476012 17.3925613,4.67963744 17.3925613,4.89868209 C17.3925613,5.81497109 17.0961609,6.66145752 16.59452,7.34854404 Z" id="Path" fill="#252525"></path>
                    <path d="M3.94306402,10.6071261 C3.92222743,10.6071261 3.9016513,10.6058238 3.88081471,10.6034797 C3.70162004,10.5818617 3.54664791,10.4693442 3.47059436,10.3055165 C3.1869563,9.69474397 3.04292337,9.04255873 3.04292337,8.36719279 L3.04292337,7.57253738 C3.04292337,7.35505548 3.17810074,7.16049383 3.3817784,7.08444028 C3.5851956,7.00786581 3.814919,7.06672918 3.95738918,7.23107777 C4.38011148,7.7183935 4.92342554,8.09214982 5.5289889,8.31223629 C5.73787571,8.38828984 5.8753972,8.58832109 5.87175079,8.81049122 L5.86966714,8.89357712 L5.86966714,9.43011929 C5.86966714,9.57024535 5.81340835,9.70412044 5.71339272,9.8020524 C5.61337709,9.89972392 5.47689743,9.95259676 5.33833411,9.95077356 C4.94816898,9.94113664 4.59004011,10.1106944 4.35015888,10.4112622 C4.25040371,10.5360213 4.10011981,10.6071261 3.94306402,10.6071261 Z M4.10428713,8.74407459 C4.12069594,8.90008856 4.14726259,9.0537584 4.18398708,9.20534459 C4.30926707,9.13397927 4.4410585,9.07459499 4.57805907,9.02823358 C4.41501276,8.94280356 4.25665469,8.84773663 4.10428713,8.74407459 Z" id="Shape" fill="#252525"></path>
                    <path d="M18.1072563,10.482888 C17.9671303,10.482888 17.8316925,10.4263687 17.7329791,10.3242694 C17.4928374,10.0765745 17.165703,9.94295984 16.8213783,9.95103402 C16.682815,9.95702454 16.5463354,9.90050529 16.4463197,9.80231286 C16.3463041,9.70438089 16.2900453,9.57024535 16.2900453,9.43011929 L16.2900453,8.89357712 C16.2900453,8.42110746 16.2238891,7.94941918 16.0936605,7.49101422 C16.0496432,7.33682346 16.0793353,7.17091212 16.1738813,7.04120435 C16.6304631,6.41558577 16.8719071,5.67484503 16.8719071,4.89868209 C16.8719071,4.71037141 16.8578424,4.51919571 16.8299734,4.33036412 C16.8008022,4.13189561 16.8880554,3.93420847 17.0542272,3.8222118 C17.2206595,3.71021514 17.4365786,3.7037037 17.6095223,3.80554253 C18.7037037,4.44965359 19.3834974,5.63759962 19.3834974,6.90524561 C19.3834974,8.12965568 19.1068917,9.24389227 18.5617544,10.2164401 C18.4812731,10.3599521 18.3377611,10.4571027 18.1744543,10.4781997 C18.152055,10.4815857 18.1293952,10.482888 18.1072563,10.482888 Z M17.3318748,8.95947283 C17.5355524,9.00296921 17.730635,9.07407407 17.9132156,9.17096421 C18.197635,8.48726363 18.3414075,7.72776996 18.3414075,6.90550607 C18.3414075,6.37781945 18.1754962,5.86966714 17.8817003,5.44746575 C17.7988748,6.16163984 17.553524,6.84169401 17.1589311,7.44725738 C17.2735323,7.92207116 17.3318748,8.40756368 17.3318748,8.89357712 L17.3318748,8.95947283 Z" id="Shape" fill="#252525"></path>
                    <path d="M13.014794,0.520914726 C9.43975621,0.520914726 10.2091473,0.520914726 6.67161536,0.520914726 C4.54836693,0.520914726 2.80017711,2.1117883 2.5449289,4.16601552 C2.49283742,4.28843048 2.50950669,4.53404178 2.50950669,4.68328385 L2.50950669,4.68328385 C2.50950669,7.23732875 4.52258165,9.06105121 6.8216388,9.06105121 L6.88727405,9.06105121 C10.4623118,9.06105121 9.69318123,9.06105121 13.2304527,9.06105121 C15.3537011,9.06105121 17.1018909,7.47017763 17.3571391,5.41621087 C17.4113143,5.28884722 17.3925613,4.97473564 17.3925613,4.83330729 C17.3925613,2.54102203 15.5766526,0.520914726 13.014794,0.520914726 Z" id="Path" fill="#252525"></path>
                    <path d="M13.2304527,9.58196593 L6.82137834,9.58196593 C4.11131948,9.58196593 1.98833151,7.4300672 1.98833151,4.68328385 L1.98728968,4.60280252 C1.98416419,4.43428661 1.98051779,4.23008803 2.03495338,4.04724697 C2.34958587,1.73620878 4.33322915,-2.86190824e-14 6.67161536,-2.86190824e-14 L13.014794,-2.86190824e-14 C15.7615773,-2.86190824e-14 17.9134761,2.12298797 17.9134761,4.83304683 L17.9145179,4.91456998 C17.9192061,5.14767932 17.9181643,5.35786842 17.8668542,5.53341668 C17.5532635,7.84549669 15.5693598,9.58196593 13.2304527,9.58196593 Z M3.03354691,4.34625202 C3.02573319,4.3970412 3.02780506,4.51737251 3.02885868,4.58378913 L3.03016096,4.68302339 C3.03016096,6.84586133 4.69552534,8.53987602 6.82137834,8.53987602 L13.2304527,8.53987602 C15.0625098,8.53987602 16.6143147,7.16934938 16.8401313,5.35161744 C16.84508,5.31306975 16.8539355,5.27530343 16.8672188,5.2388394 C16.8778976,5.17320415 16.8745116,5.00729281 16.8732094,4.93488566 L16.8719071,4.83278637 C16.8719071,2.70693338 15.1778924,1.041569 13.0150544,1.041569 L6.67161536,1.041569 C4.83955826,1.041569 3.28775329,2.4123561 3.06193676,4.22982758 C3.05672761,4.26993801 3.04735115,4.30874616 3.03354691,4.34625202 Z" id="Shape" fill="#252525"></path>
                </g>
                <g id="Group-25" transform="translate(87.000000, 74.000000)">
                    <path d="M18.2340991,24.8023129 L3.92535292,24.8023129 L3.92535292,20.684482 C3.92535292,18.9909882 5.29822368,17.6183779 6.991457,17.6183779 L15.167995,17.6183779 C16.8614888,17.6183779 18.2340991,18.9912486 18.2340991,20.684482 L18.2340991,24.8023129 Z" id="Path" fill="#1E496C"></path>
                    <path d="M11.0798562,17.2685836 C10.1182476,17.2685836 9.21263739,17.0328697 8.41694015,16.6179611 L8.41694015,17.6183779 L8.41694015,17.6186383 C8.41694015,19.0878783 9.60801167,20.2789498 11.0772517,20.2789498 C12.5464916,20.2789498 13.7375632,19.0878783 13.7375632,17.6186383 L13.7375632,17.6183779 L13.7375632,16.6205657 C12.9431682,17.0339115 12.0393812,17.2685836 11.0798562,17.2685836 Z" id="Path" fill="#A0616A" fill-rule="nonzero"></path>
                    <path d="M11.0772517,24.8023129 L0.906912538,24.8023129 C0.406053029,24.8023129 -1.47042872e-13,24.3962598 -1.47042872e-13,23.8954003 L-1.47042872e-13,23.8954003 C-1.47042872e-13,23.3945408 0.406053029,22.9884878 0.906912538,22.9884878 L11.0772517,22.9884878 L11.0772517,24.8023129 Z" id="Path" fill="#76D5D4"></path>
                    <path d="M11.0772517,22.9882273 L11.0772517,21.374694 L5.6933375,20.1495025 C5.31411158,20.0632911 4.92629057,20.0195343 4.53742772,20.0195343 L2.01125176,20.0195343 C1.57967391,20.0195343 1.22987967,20.3693285 1.22987967,20.8009064 L1.22987967,22.9882273 L11.0772517,22.9882273 Z" id="Path" fill="#FFFFFF" fill-rule="nonzero"></path>
                    <path d="M11.0772517,24.8023129 L21.2475908,24.8023129 C21.7484503,24.8023129 22.1545033,24.3962598 22.1545033,23.8954003 L22.1545033,23.8954003 C22.1545033,23.3945408 21.7484503,22.9884878 21.2475908,22.9884878 L11.0772517,22.9884878 L11.0772517,24.8023129 Z" id="Path" fill="#76D5D4"></path>
                    <path d="M11.0772517,22.9882273 L11.0772517,21.374694 L16.4611658,20.1495025 C16.8403917,20.0632911 17.2282127,20.0195343 17.6170756,20.0195343 L20.1432515,20.0195343 C20.5748294,20.0195343 20.9246236,20.3693285 20.9246236,20.8009064 L20.9246236,22.9882273 L11.0772517,22.9882273 Z" id="Path" fill="#FFFFFF" fill-rule="nonzero"></path>
                    <path d="M16.81096,9.43037975 L16.81096,8.89383758 C16.81096,5.75714955 14.2449341,3.21430432 11.0798562,3.21430432 L11.0798562,3.21430432 C7.91451789,3.21430432 5.34875241,5.75714955 5.34875241,8.89383758 L5.34875241,9.43037975 C4.35354482,9.41032453 3.56409856,10.2028963 3.56409856,11.1613794 C3.56409856,12.1847164 4.45746731,12.9939574 5.50007814,12.8837839 C6.09157681,15.3966766 8.36458822,17.2685836 11.0798562,17.2685836 C13.7953847,17.2685836 16.0681356,15.3964161 16.6596343,12.8837839 C17.7009429,12.9939574 18.5956139,12.1860186 18.5956139,11.1613794 C18.5956139,10.2023754 17.8056467,9.41006407 16.81096,9.43037975 Z" id="Path" fill="#A0616A" fill-rule="nonzero"></path>
                    <path d="M11.0798562,17.7894984 C8.29999479,17.7894984 5.8985779,16.0064073 5.10157837,13.4046987 C4.61660676,13.3596395 4.15429494,13.1603896 3.78887326,12.8316925 C3.31484086,12.4050633 3.04292337,11.7963744 3.04292337,11.1613794 C3.04292337,10.5537324 3.2828046,9.98385164 3.71854977,9.55670157 C4.02875449,9.25274783 4.4111059,9.04880971 4.82757723,8.95973329 L4.82757723,8.89383758 C4.82757723,5.47481377 7.63244257,2.69338959 11.0795958,2.69338959 C14.526749,2.69338959 17.3316143,5.47481377 17.3316143,8.89383758 L17.3316143,8.95973329 C17.7480856,9.04880971 18.130437,9.25274783 18.4406418,9.55670157 C18.8763869,9.98385164 19.1162682,10.5534719 19.1162682,11.1613794 C19.1162682,11.7963744 18.8446111,12.4050633 18.3705787,12.831432 C18.0048966,13.1603896 17.5425848,13.3593791 17.0576132,13.4046987 C16.2611346,16.0064073 13.8594572,17.7894984 11.0798562,17.7894984 Z M5.50059905,12.3626087 C5.73969891,12.3626087 5.95145075,12.5269573 6.00718862,12.764234 C6.55909778,15.1093921 8.6451008,16.7474084 11.0798562,16.7474084 C13.5146117,16.7474084 15.6006147,15.1093921 16.1525238,12.764234 C16.2126895,12.5089858 16.4515289,12.3381257 16.7143304,12.3654738 C17.0685524,12.4032401 17.4107934,12.2935875 17.6741157,12.0565713 C17.9324895,11.8239829 18.0749596,11.5059645 18.0749596,11.1611189 C18.0749596,10.8355472 17.9460332,10.5300307 17.7118821,10.3005678 C17.4748659,10.0682398 17.1584102,9.94816898 16.8216388,9.95077356 C16.6731781,9.95181539 16.5463354,9.89972392 16.4465802,9.8020524 C16.3465646,9.70412044 16.2903058,9.56998489 16.2903058,9.43011929 L16.2903058,8.89357712 C16.2903058,6.04912226 13.9529614,3.73495859 11.0801167,3.73495859 C8.20727197,3.73495859 5.86992759,6.04912226 5.86992759,8.89357712 L5.86992759,9.43011929 C5.86992759,9.57024535 5.8136688,9.70412044 5.71365317,9.8020524 C5.61363755,9.89998437 5.47689743,9.95624316 5.33859457,9.95077356 C4.99973954,9.94400167 4.68536751,10.0679794 4.44861176,10.3003073 C4.21446059,10.5297703 4.0855342,10.8352868 4.0855342,11.1608585 C4.0855342,11.5059645 4.22774392,11.8239829 4.48637808,12.0565713 C4.74917956,12.2933271 5.08985779,12.4029796 5.44590301,12.3652133 C5.46387456,12.3636506 5.48236704,12.3626087 5.50059905,12.3626087 Z" id="Shape" fill="#A0616A" fill-rule="nonzero"></path>
                    <path d="M5.34875241,9.43037975 L5.34875241,8.89383758 C5.34875241,8.86310361 5.35057561,8.83289056 5.35109653,8.80215659 C4.65437308,8.54899203 4.04073553,8.12210241 3.56409856,7.57279783 L3.56409856,8.36745325 C3.56409856,8.98161171 3.70031776,9.56373392 3.94306402,10.0864718 C4.26811481,9.67963744 4.77340209,9.41865917 5.34875241,9.43037975 Z" id="Path" fill="#252525"></path>
                    <path d="M16.59452,7.34854404 C16.7343856,7.84002709 16.81096,8.35781633 16.81096,8.89357712 L16.81096,9.43011929 C17.3251029,9.41970099 17.7832474,9.62728551 18.1072563,9.96171277 C18.5969162,9.08813877 18.8623222,8.0720946 18.8623222,6.90524561 C18.8623222,5.77564203 18.252852,4.78876908 17.3448976,4.25431057 C17.3758921,4.46476012 17.3925613,4.67963744 17.3925613,4.89868209 C17.3925613,5.81497109 17.0961609,6.66145752 16.59452,7.34854404 Z" id="Path" fill="#252525"></path>
                    <path d="M3.94306402,10.6071261 C3.92222743,10.6071261 3.90139084,10.6058238 3.88055425,10.6034797 C3.70135959,10.5818617 3.54638746,10.4690837 3.47033391,10.3055165 C3.18669584,9.69448351 3.04292337,9.04229828 3.04292337,8.36719279 L3.04292337,7.57253738 C3.04292337,7.35505548 3.17810074,7.16049383 3.3817784,7.08444028 C3.58493515,7.00786581 3.814919,7.06672918 3.95738918,7.23107777 C4.38011148,7.7183935 4.92342554,8.09214982 5.5289889,8.31223629 C5.73787571,8.38828984 5.8753972,8.58832109 5.87175079,8.81049122 L5.86940668,8.89357712 L5.86940668,9.43011929 C5.86940668,9.57024535 5.81314789,9.70412044 5.71313226,9.8020524 C5.61311663,9.89972392 5.47611606,9.95259676 5.33807366,9.95077356 C4.95285722,9.9468667 4.58977965,10.1106944 4.34963796,10.4112622 C4.25040371,10.5360213 4.10011981,10.6071261 3.94306402,10.6071261 Z M4.10454759,8.74407459 C4.12069594,8.90008856 4.14752305,9.0537584 4.18398708,9.20534459 C4.30926707,9.13397927 4.44131896,9.07459499 4.57831953,9.02823358 C4.41501276,8.94280356 4.25691514,8.84773663 4.10454759,8.74407459 Z" id="Shape" fill="#252525"></path>
                    <path d="M18.1072563,10.482888 C17.9671303,10.482888 17.8319529,10.4263687 17.7329791,10.3245299 C17.4928374,10.0765745 17.1654425,9.94217847 16.8213783,9.95103402 C16.6833359,9.95702454 16.5463354,9.90050529 16.4463197,9.80231286 C16.3463041,9.70438089 16.2900453,9.57024535 16.2900453,9.43011929 L16.2900453,8.89357712 C16.2900453,8.42084701 16.2238891,7.94889827 16.0936605,7.49127468 C16.0496432,7.33708392 16.0793353,7.17117258 16.1738813,7.04146481 C16.6304631,6.41584623 16.8719071,5.67484503 16.8719071,4.89894254 C16.8719071,4.71141324 16.8578424,4.51997708 16.829713,4.33062458 C16.8005418,4.13215607 16.887795,3.93446893 17.0539668,3.82247226 C17.220399,3.7104756 17.4360577,3.70396416 17.6092619,3.80580299 C18.7037037,4.45017451 19.3834974,5.63786008 19.3834974,6.90550607 C19.3834974,8.12991613 19.1068917,9.24415273 18.5617544,10.2167005 C18.4812731,10.3602125 18.3377611,10.4573631 18.1744543,10.4784602 C18.152055,10.4815857 18.1293952,10.482888 18.1072563,10.482888 Z M17.3318748,8.95947283 C17.5355524,9.00296921 17.730635,9.07407407 17.9132156,9.17096421 C18.197635,8.48726363 18.3414075,7.72750951 18.3414075,6.90524561 C18.3414075,6.37781945 18.1754962,5.86966714 17.8817003,5.44720529 C17.7986144,6.16137938 17.5532635,6.84143356 17.1589311,7.44699693 C17.2735323,7.92128978 17.3318748,8.40678231 17.3318748,8.89331666 L17.3318748,8.95947283 Z" id="Shape" fill="#252525"></path>
                    <path d="M6.03662031,2.11100693 C5.21722144,3.1270511 4.11678908,3.79147784 2.89289993,3.90738136 C2.67411575,3.92795749 2.50924624,4.11574725 2.50924624,4.33557327 L2.50924624,4.74917956 C2.50924624,7.13080169 4.43975621,9.06131166 6.82137834,9.06131166 L13.2301922,9.06131166 C15.5289889,9.06131166 17.3923009,7.19773923 17.3923009,4.899203 L17.3923009,4.899203 C17.3923009,2.4813773 15.4323592,0.521435553 13.0145335,0.521435553 L9.37985102,0.521435553 C8.08303381,0.521175184 6.85081002,1.10147419 6.03662031,2.11100693 Z" id="Path" fill="#252525"></path>
                    <path d="M13.2304527,9.58196593 L6.8216388,9.58196593 C4.15689952,9.58196593 1.98859197,7.41391884 1.98859197,4.7489191 L1.98859197,4.33531281 C1.98859197,3.84174611 2.35635776,3.43465125 2.84393395,3.38855029 C3.88628432,3.29009741 4.87628275,2.7202167 5.63108819,1.78387248 L5.63108819,1.78387248 C6.54529354,0.650101578 7.91165286,-2.86190824e-14 9.38011148,-2.86190824e-14 L13.014794,-2.86190824e-14 C15.7159973,-2.86190824e-14 17.9137365,2.19773923 17.9137365,4.89868209 C17.9134761,7.48111684 15.812627,9.58196593 13.2304527,9.58196593 Z M3.03042142,4.41657551 L3.03042142,4.7489191 C3.03042142,6.8393499 4.731208,8.54013648 6.8216388,8.54013648 L13.2304527,8.54013648 C15.2383185,8.54013648 16.8716466,6.90680836 16.8716466,4.89894254 C16.8716466,2.77204772 15.1414283,1.04182945 13.0145335,1.04182945 L9.37985102,1.04182945 C8.22836902,1.04182945 7.15736834,1.55076314 6.44189196,2.43788092 L6.44189196,2.43788092 C5.53003073,3.56904725 4.32150857,4.26915664 3.03042142,4.41657551 Z" id="Shape" fill="#252525"></path>
                </g>
                <path d="M59.1772929,57 L59.1772929,55.7975952 C59.1772929,54.995992 59.3491095,54.3480294 59.6927426,53.8537074 C60.0363757,53.3593854 60.8550311,52.6379426 62.1487088,51.6893788 C64.035322,50.3533734 65.3155239,49.1509686 65.9893143,48.0821643 C66.6631048,47.0133601 67,45.744155 67,44.2745491 C67,42.0701403 66.1813446,40.3066132 64.5440338,38.9839679 C62.906723,37.6613226 60.7000593,37 57.9240427,37 C54.5550904,37 51.3680616,37.8350033 48.3629562,39.50501 C47.8790146,40.7207749 47.8790146,41.756179 48.3629562,42.6112224 C48.8468978,43.4662659 49.5813294,43.8937876 50.566251,43.8937876 C53.1536063,42.5845023 55.4579696,41.9298597 57.479341,41.9298597 C58.6382605,41.9298597 59.5411397,42.1569806 60.1879786,42.6112224 C60.8348174,43.0654643 61.1582368,43.7267869 61.1582368,44.5951904 C61.1582368,45.3700735 60.932517,46.0714763 60.4810774,46.6993988 C60.0296378,47.3273213 59.096438,48.1422846 57.6814781,49.1442886 C56.2126149,50.2130929 55.2019293,51.2217769 54.6494211,52.1703407 C54.0969129,53.1189045 53.8206588,54.2344689 53.8206588,55.5170341 L53.8206588,57 C54.1655307,57.7425963 55.0714441,58.1138945 56.5383991,58.1138945 C58.0053541,58.1138945 58.8849854,57.7425963 59.1772929,57 Z M56.720199,68 C57.7926464,68 58.6296786,67.6877451 59.2312954,67.0632353 C59.8329123,66.4387255 60.1337207,65.5843137 60.1337207,64.5 C60.1337207,63.3745098 59.8361819,62.5098039 59.2411044,61.9058824 C58.6460269,61.3019608 57.8057251,61 56.720199,61 C55.5954371,61 54.738787,61.295098 54.1502488,61.8852941 C53.5617105,62.4754902 53.2674414,63.3470588 53.2674414,64.5 C53.2674414,65.6117647 53.5682498,66.4730392 54.1698667,67.0838235 C54.7714835,67.6946078 55.6215943,68 56.720199,68 Z" id="?" fill="#003057" fill-rule="nonzero"></path>
            </g>
        </g>
    </g>
</svg>