<?xml version="1.0" encoding="UTF-8"?>
<svg width="109px" height="100px" viewBox="0 0 109 100" version="1.1" xmlns="http://www.w3.org/2000/svg" xmlns:xlink="http://www.w3.org/1999/xlink">
    <!-- Generator: sketchtool 64 (101010) - https://sketch.com -->
    <title>B067B00D-4EB4-4D70-8C1B-6A029A5EEFD3</title>
    <desc>Created with sketchtool.</desc>
    <g id="Features-Page" stroke="none" stroke-width="1" fill="none" fill-rule="evenodd">
        <g id="UI/Web/Features-Page" transform="translate(-606.000000, -744.000000)">
            <g id="Group-4" transform="translate(606.000000, 744.000000)">
                <path d="M15.5066538,51.3693346 L15.5066538,49.7029894 C15.5066538,49.6077146 15.5124397,49.5135969 15.5139826,49.4183221 C13.3504339,48.6318226 11.4449373,47.3068467 9.96489875,45.6007715 L9.96489875,48.0678881 C9.96489875,49.9753134 10.3884282,51.7828351 11.1417551,53.4055931 C12.1508197,52.1434908 13.7203472,51.3330762 15.5066538,51.3693346 Z" id="Path" fill="#252525"></path>
                <path d="M11.1417551,54.1774349 C11.1108968,54.1774349 11.0800386,54.1755063 11.0491803,54.1720347 C10.7837994,54.1400193 10.5542912,53.972999 10.4416586,53.7307618 C9.61311475,51.9459981 9.19305689,50.0408872 9.19305689,48.0678881 L9.19305689,45.6007715 C9.19305689,45.2786885 9.39324976,44.9905497 9.69450338,44.8779171 C9.99652845,44.7648987 10.3359691,44.8516876 10.5469624,45.095082 C11.9537126,46.716297 13.7620058,47.9606557 15.7770492,48.6927676 C16.0864031,48.8054002 16.2900675,49.1012536 16.2846673,49.4302797 L16.28081,49.5664417 C16.2792671,49.6115718 16.2773385,49.6570878 16.2773385,49.7026037 L16.2773385,51.3689489 C16.2773385,51.5764706 16.1940212,51.7747348 16.0459016,51.9201543 C15.8977821,52.065188 15.6956606,52.148891 15.4904532,52.140405 C14.0192864,52.1126326 12.655352,52.7471553 11.7438766,53.8873674 C11.5969142,54.0717454 11.3743491,54.1774349 11.1417551,54.1774349 Z M10.7359691,47.468081 L10.7359691,48.0678881 C10.7359691,49.4329797 10.963163,50.7610415 11.4121504,52.0300868 C12.3521697,51.243973 13.5016393,50.7575699 14.734812,50.6302797 L14.734812,49.9444552 C13.2744455,49.3473481 11.92054,48.5076181 10.7359691,47.468081 Z" id="Shape" fill="#252525"></path>
                <path d="M50.4273867,44.9053038 C50.8621022,46.431244 51.099325,48.0393443 51.099325,49.7029894 L51.099325,51.3693346 C52.6954677,51.3369335 54.1184185,51.9818708 55.1243973,53.0202507 C56.6449373,50.3081967 57.4692382,47.1525554 57.4692382,43.529026 C57.4692382,40.021215 55.5764706,36.957377 52.7575699,35.2975892 C52.8540019,35.9506268 52.9053038,36.6183221 52.9053038,37.2979749 C52.9053038,40.1427194 51.9845709,42.7710704 50.4273867,44.9053038 Z" id="Path" fill="#252525"></path>
                <path d="M55.1243973,53.7917068 C54.9168756,53.7917068 54.7166827,53.7080039 54.5701061,53.5571842 C53.6594021,52.6167792 52.427001,52.1211186 51.1147541,52.1407907 C50.9076181,52.1500482 50.7074253,52.0659595 50.5593057,51.92054 C50.4111861,51.7755063 50.3278689,51.5768563 50.3278689,51.3693346 L50.3278689,49.7029894 C50.3278689,48.1569913 50.1114754,46.6136933 49.6852459,45.1166827 C49.6200579,44.8883317 49.6640309,44.642623 49.8040501,44.4505304 C51.3284474,42.3621986 52.1338476,39.889296 52.1338476,37.2983607 C52.1338476,36.6730955 52.0867888,36.0378014 51.9942141,35.4102218 C51.9510125,35.116297 52.0802314,34.8235294 52.3263259,34.6576663 C52.5728062,34.4918033 52.892189,34.4821601 53.1486982,34.6329797 C56.2896818,36.4821601 58.2406943,39.8912247 58.2406943,43.5294118 C58.2406943,47.1857281 57.4187078,50.5056895 55.7974928,53.3974928 C55.6783028,53.6100289 55.4657666,53.7539055 55.2239151,53.7851495 C55.1907425,53.7897782 55.1575699,53.7917068 55.1243973,53.7917068 Z M51.8707811,50.6298939 C52.9747348,50.743298 54.0092575,51.143298 54.8945034,51.7967213 C56.0918033,49.340405 56.6977821,46.5639344 56.6977821,43.529026 C56.6977821,40.975892 55.5675988,38.5550627 53.6713597,36.9029894 C53.6748312,37.0349084 53.6767599,37.1668274 53.6767599,37.2979749 C53.6767599,40.092189 52.8451302,42.7652845 51.2675024,45.0530376 C51.6678881,46.5747348 51.8703954,48.1369335 51.8703954,49.7022179 L51.8703954,50.6298939 L51.8707811,50.6298939 Z" id="Shape" fill="#252525"></path>
                <path d="M55.5186114,99.1020251 L11.0873674,99.1020251 L11.0873674,86.3155256 C11.0873674,81.0572806 15.3500482,76.7945998 20.6082932,76.7945998 L45.9976856,76.7945998 C51.2559306,76.7945998 55.5186114,81.0572806 55.5186114,86.3155256 L55.5186114,99.1020251 Z" id="Path" fill="#1E496C"></path>
                <path d="M33.3029894,75.7083896 C30.3166827,75.7083896 27.5047252,74.9762777 25.0341369,73.687946 L25.0341369,76.7945998 L25.0341369,76.7953713 C25.0341369,81.3577628 28.7324976,85.0561234 33.2948891,85.0561234 L33.2948891,85.0561234 C37.8572806,85.0561234 41.5556413,81.3577628 41.5556413,76.7953713 L41.5556413,76.7945998 L41.5556413,73.696432 C39.089296,74.9797493 36.2827387,75.7083896 33.3029894,75.7083896 Z" id="Path" fill="#EE936F"></path>
                <path d="M33.3253616,99.1020251 L1.61388621,99.1020251 C0.72246866,99.1020251 0,98.3795564 0,97.4881389 L0,97.4881389 C0,96.5967213 0.72246866,95.8742527 1.61388621,95.8742527 L33.3253616,95.8742527 L33.3253616,99.1020251 Z" id="Path" fill="#76D5D4"></path>
                <path d="M33.3253616,99.1020251 L65.036837,99.1020251 C65.9282546,99.1020251 66.6507232,98.3795564 66.6507232,97.4881389 L66.6507232,97.4881389 C66.6507232,96.5967213 65.9282546,95.8742527 65.036837,95.8742527 L33.3253616,95.8742527 L33.3253616,99.1020251 Z" id="Path" fill="#76D5D4"></path>
                <path d="M33.3253616,95.8742527 L33.3253616,92.163163 L21.3616201,90.7826422 C15.6281581,90.1211186 9.83182257,90.2349084 4.12844744,91.1209257 L4.12844744,91.1209257 C3.16952748,91.2698168 2.46210222,92.0956606 2.46210222,93.0661524 L2.46210222,95.8742527 L33.3253616,95.8742527 Z" id="Path" fill="#FFFFFF" fill-rule="nonzero"></path>
                <path d="M33.3253616,95.8742527 L33.3253616,92.163163 L45.2891032,90.7826422 C51.0225651,90.1211186 56.8189007,90.2349084 62.5222758,91.1209257 L62.5222758,91.1209257 C63.4811958,91.2698168 64.188621,92.0956606 64.188621,93.0661524 L64.188621,95.8742527 L33.3253616,95.8742527 Z" id="Path" fill="#FFFFFF" fill-rule="nonzero"></path>
                <path d="M51.099325,51.3693346 L51.099325,49.7029894 C51.099325,39.9629701 43.1317261,32.0671167 33.3029894,32.0671167 L33.3029894,32.0671167 C23.4742527,32.0671167 15.5066538,39.9629701 15.5066538,49.7029894 L15.5066538,51.3693346 C12.4165863,51.3068467 9.96489875,53.7685632 9.96489875,56.7440694 C9.96489875,59.9216972 12.739055,62.4351013 15.9768563,62.0925747 C17.8133076,69.8954677 24.8713597,75.7083896 33.3029894,75.7083896 C41.7353905,75.7083896 48.7926712,69.8946962 50.6291225,62.0925747 C53.8626808,62.4343298 56.64108,59.9259402 56.64108,56.7440694 C56.64108,53.7670203 54.1878496,51.3064609 51.099325,51.3693346 Z" id="Path" fill="#EE936F"></path>
                <path d="M17.6428158,28.6414658 C15.0985535,31.7963356 11.6817743,33.8599807 7.88081003,34.2190935 C7.20154291,34.2831244 6.68968177,34.8663452 6.68968177,35.5486982 L6.68968177,36.8327869 C6.68968177,44.2279653 12.6846673,50.2229508 20.0798457,50.2229508 L39.9807136,50.2229508 C47.1186114,50.2229508 52.9053038,44.4362584 52.9053038,37.2983607 L52.9053038,37.2983607 C52.9053038,29.7905497 46.8189007,23.7041466 39.3110897,23.7041466 L28.0246866,23.7041466 C23.9976856,23.7041466 20.1708775,25.5066538 17.6428158,28.6414658 Z" id="Path" fill="#252525"></path>
                <path d="M39.9807136,50.9944069 L20.0798457,50.9944069 C12.2711668,50.9944069 5.91861138,44.6414658 5.91861138,36.8331726 L5.91861138,35.5486982 C5.91861138,34.4547734 6.73095468,33.5529412 7.80829315,33.451109 C11.2740598,33.1236258 14.5535198,31.2435873 17.0422372,28.157377 C19.71919,24.8370299 23.7222758,22.9330762 28.0246866,22.9330762 L39.3110897,22.9330762 C47.2324012,22.9330762 53.6767599,29.3774349 53.6767599,37.2987464 C53.6767599,44.8501446 47.5328833,50.9944069 39.9807136,50.9944069 Z M28.0246866,24.4756027 C24.1913211,24.4756027 20.6264224,26.1704918 18.2433944,29.1255545 C18.2433944,29.1255545 18.2433944,29.1255545 18.2433944,29.1255545 C15.4912247,32.5384764 11.836837,34.6202507 7.95371263,34.9870781 C7.67791707,35.0129219 7.46152363,35.2597878 7.46152363,35.5486982 L7.46152363,36.8331726 C7.46152363,43.7909354 13.1220829,49.4514947 20.0798457,49.4514947 L39.9807136,49.4514947 C46.6819672,49.4514947 52.1338476,43.9996143 52.1338476,37.2983607 C52.1338476,30.2279653 46.3814851,24.4756027 39.3110897,24.4756027 L28.0246866,24.4756027 Z" id="Shape" fill="#252525"></path>
                <g id="Group-2" transform="translate(56.470588, 0.000000)">
                    <path d="M26.0366442,0.991872159 C12.2049869,0.991872159 0.991872159,12.2049869 0.991872159,26.0366442 C0.991872159,30.5729715 2.20443587,34.8241356 4.31365202,38.4940625 L1.35440143,47.0668136 C0.949717592,48.2397024 2.07350875,49.3634936 3.24639758,48.9588098 L11.2022042,46.2128117 C15.3551729,49.2712495 20.4836479,51.0814162 26.0366442,51.0814162 C39.8683014,51.0814162 51.0814162,39.8683014 51.0814162,26.0366442 C51.0814162,12.2049869 39.8683014,0.991872159 26.0366442,0.991872159 Z" id="Path" fill="#D3EAE4"></path>
                    <path d="M44.8782477,21.3470726 L41.0620196,21.3470726 C40.7798319,20.4459567 40.414823,19.567158 39.9749277,18.7305138 C44.5697755,14.1356661 44.5291087,15.1597741 38.7678193,9.3979887 C38.0149883,8.64515774 36.7964733,8.64515774 36.0441383,9.3979887 L33.3437664,12.0988566 C32.5071222,11.6584654 31.6278275,11.2934564 30.7267117,11.0112688 L30.7267117,7.19553658 C30.7267117,6.13373743 29.862791,5.26932084 28.8004959,5.26932084 L23.2737843,5.26932084 C22.2114892,5.26932084 21.3475685,6.13324149 21.3475685,7.19553658 L21.3475685,11.0112688 C20.4469486,11.2929605 19.5676539,11.6584654 18.7305138,12.0988566 C15.9031823,9.271525 15.7003444,8.83410938 14.6683014,8.83410938 C14.1535198,8.83410938 13.6699821,9.03446756 13.3064609,9.3979887 C7.50996005,15.1944896 7.51095192,14.1421132 12.0993525,18.7305138 C11.6589613,19.567158 11.2939523,20.4464527 11.0122606,21.3470726 L7.19603251,21.3470726 C6.13373743,21.3470726 5.26981678,22.2109932 5.26981678,23.2732883 L5.26981678,28.8 C5.26981678,29.8617991 6.13373743,30.7262157 7.19603251,30.7262157 L11.0122606,30.7262157 C11.2944483,31.6273316 11.6594572,32.5061303 12.0993525,33.3427745 C7.50450475,37.9376223 7.54517151,36.9135143 13.3064609,42.6752996 C14.0592919,43.4281306 15.2778069,43.4281306 16.0301419,42.6752996 L18.7305138,39.9744317 C19.567158,40.414823 20.4464527,40.7798319 21.3475685,41.0620196 L21.3475685,44.8777518 C21.3475685,45.9395509 22.2114892,46.8039675 23.2737843,46.8039675 L28.8004959,46.8039675 C29.862791,46.8039675 30.7267117,45.9400468 30.7267117,44.8777518 L30.7267117,41.0620196 C31.6273316,40.7803279 32.5066263,40.414823 33.3437664,39.9744317 L36.0441383,42.6752996 C36.7969693,43.4281306 38.0154842,43.4281306 38.7678193,42.6752996 C42.9897231,38.4533958 43.2401708,38.4390136 43.2401708,37.4054828 C43.2401708,36.3813748 42.8260642,36.193911 39.9754236,33.3427745 C40.4158149,32.5061303 40.7808238,31.6268357 41.0625155,30.7262157 L44.8787436,30.7262157 C45.9410387,30.7262157 46.8049594,29.8622951 46.8049594,28.8 L46.8049594,23.2727924 C46.8039675,22.2109932 45.9400468,21.3470726 44.8782477,21.3470726 Z M35.2848602,26.0366442 C35.2848602,31.1363549 31.1363549,35.2848602 26.0366442,35.2848602 C20.9369335,35.2848602 16.7884282,31.1363549 16.7884282,26.0366442 C16.7884282,20.9369335 20.9369335,16.7884282 26.0366442,16.7884282 C31.1363549,16.7884282 35.2848602,20.9369335 35.2848602,26.0366442 Z" id="Shape" fill="#76D5D4"></path>
                    <path d="M26.0366442,52.0732883 C20.6190384,52.0732883 15.4449373,50.430748 11.0390412,47.3182532 L3.5697479,49.8966249 C2.66615236,50.2080727 1.68370299,49.9824218 1.00724618,49.305965 C0.330789365,48.6295082 0.104642513,47.6475548 0.416586307,46.7434633 L3.23003168,38.5922579 C1.11585618,34.7576801 -2.68692631e-14,30.4266703 -2.68692631e-14,26.0366442 C-2.68692631e-14,11.6797906 11.6797906,-2.68692631e-14 26.0366442,-2.68692631e-14 C40.3934977,-2.68692631e-14 52.0732883,11.6797906 52.0732883,26.0366442 C52.0732883,40.3934977 40.3934977,52.0732883 26.0366442,52.0732883 Z M11.2017082,45.2204436 C11.4104973,45.2204436 11.6173027,45.2864031 11.7898884,45.4138587 C15.9433531,48.4722965 20.8694862,50.089544 26.0366442,50.089544 C39.2994627,50.089544 50.089544,39.2994627 50.089544,26.0366442 C50.089544,12.7738256 39.2994627,1.98374432 26.0366442,1.98374432 C12.7738256,1.98374432 1.98374432,12.7733297 1.98374432,26.0366442 C1.98374432,30.2322634 3.08670616,34.3693622 5.17310924,38.0001102 C5.31593883,38.2485742 5.34420719,38.5471277 5.25097121,38.8179088 L2.29221656,47.3906599 C2.20096432,47.6554897 2.34428985,47.8374983 2.41024935,47.9034578 C2.47620884,47.9694173 2.65821739,48.1137347 2.92304725,48.0214906 L10.8788538,45.2754925 C10.9834963,45.2382973 11.0930982,45.2204436 11.2017082,45.2204436 Z" id="Shape" fill="#76D5D4"></path>
                    <circle id="Oval" fill="#FFFFFF" cx="26.0366442" cy="26.0366442" r="9.24821601"></circle>
                    <path d="M29.7963356,22.0086513 L29.8122055,22.0245213 C30.033393,22.2457088 30.3919548,22.2457088 30.6131423,22.0245213 L31.8539744,20.7836892 C32.0751619,20.5625017 32.0751619,20.2039399 31.8539744,19.9827524 L31.8381044,19.9668825 C31.6169169,19.745695 31.2583551,19.745695 31.0371677,19.9668825 L29.7963356,21.2077146 C29.5751481,21.4289021 29.5751481,21.7874638 29.7963356,22.0086513 Z" id="Path" fill="#F5C54C"></path>
                    <path d="M26.0470588,20.5183634 L26.0262295,20.5183634 C25.7132938,20.5183634 25.4593746,20.2644441 25.4593746,19.9515085 L25.4593746,18.1904395 C25.4593746,17.8775038 25.7132938,17.6235845 26.0262295,17.6235845 L26.0470588,17.6235845 C26.3599945,17.6235845 26.6139138,17.8775038 26.6139138,18.1904395 L26.6139138,19.9515085 C26.6139138,20.2644441 26.3604904,20.5183634 26.0470588,20.5183634 Z" id="Path" fill="#F5C54C"></path>
                    <path d="M22.3364651,22.0086513 L22.3205951,22.0245213 C22.0994076,22.2457088 21.7408458,22.2457088 21.5196584,22.0245213 L20.2788263,20.7836892 C20.0576388,20.5625017 20.0576388,20.2039399 20.2788263,19.9827524 L20.2946962,19.9668825 C20.5158837,19.745695 20.8744455,19.745695 21.095633,19.9668825 L22.3364651,21.2077146 C22.5571566,21.4289021 22.5571566,21.7874638 22.3364651,22.0086513 Z" id="Path" fill="#F5C54C"></path>
                    <path d="M31.4849979,24.3102907 L31.4849979,24.2879736 C31.4849979,23.9750379 31.7384213,23.7216145 32.0513569,23.7216145 L33.8064747,23.7216145 C34.1194104,23.7216145 34.3728337,23.9750379 34.3728337,24.2879736 L34.3728337,24.3102907 C34.3728337,24.6232263 34.1194104,24.8766497 33.8064747,24.8766497 L32.0513569,24.8766497 C31.7384213,24.8766497 31.4849979,24.6227304 31.4849979,24.3102907 Z" id="Path" fill="#F5C54C"></path>
                    <path d="M17.7009505,24.3102907 L17.7009505,24.2879736 C17.7009505,23.9750379 17.9543739,23.7216145 18.2673095,23.7216145 L20.0224273,23.7216145 C20.335363,23.7216145 20.5887863,23.9750379 20.5887863,24.2879736 L20.5887863,24.3102907 C20.5887863,24.6232263 20.335363,24.8766497 20.0224273,24.8766497 L18.2673095,24.8766497 C17.9543739,24.8766497 17.7009505,24.6227304 17.7009505,24.3102907 Z" id="Path" fill="#F5C54C"></path>
                    <path d="M28.3258851,33.6938972 C23.4880287,33.6938972 23.4944758,33.7896129 23.4944758,33.4409698 C23.4944758,32.6454884 23.4205813,32.30726 23.7474032,32.30726 C28.5852597,32.30726 28.5788125,32.2115443 28.5788125,32.5601874 C28.5788125,33.3561648 28.652707,33.6938972 28.3258851,33.6938972 Z" id="Path" fill="#EDC0F2"></path>
                    <path d="M27.9474859,35.0805345 L24.2413556,35.0805345 C23.7359967,35.0805345 23.8411351,34.5483951 23.8411351,33.6938972 L28.3477063,33.6938972 C28.3477063,34.4938421 28.4612757,35.0805345 27.9474859,35.0805345 Z" id="Path" fill="#EDC0F2"></path>
                    <path d="M26.4988566,36.9298801 L25.5744317,36.9298801 C24.8087064,36.9298801 24.1877945,36.3089682 24.1877945,35.5432429 L24.1877945,35.0805345 L27.8854939,35.0805345 L27.8854939,35.5427469 C27.8854939,36.3089682 27.2645819,36.9298801 26.4988566,36.9298801 Z" id="Path" fill="#F9A7A7" fill-rule="nonzero"></path>
                    <path d="M30.6587684,26.5970519 C30.6587684,24.0444689 28.5892272,21.9749277 26.0366442,21.9749277 C23.4840612,21.9749277 21.4145199,24.0444689 21.4145199,26.5970519 C21.4145199,27.7996969 21.8742527,28.8947238 22.6270836,29.7169858 L22.6146852,29.7169858 C23.2241907,30.4385728 23.6363135,31.329274 23.7806309,32.30726 C26.7016944,32.306764 27.8433393,32.2720485 28.2901777,32.3231299 C28.4320154,31.3386968 28.8456261,30.4425403 29.4581072,29.7169858 L29.4462047,29.7169858 C30.1995316,28.8947238 30.6587684,27.7996969 30.6587684,26.5970519 Z" id="Path" fill="#F5C54C"></path>
                    <path d="M26.0366442,13.717096 C19.2443036,13.717096 13.717592,19.2433118 13.717592,26.0361482 C13.717592,32.8294806 19.2438077,38.3556964 26.0366442,38.3556964 C32.8299766,38.3556964 38.3561923,32.8294806 38.3561923,26.0361482 C38.3561923,19.2438077 32.8299766,13.717096 26.0366442,13.717096 Z M26.0366442,35.2848602 C20.9369335,35.2848602 16.7884282,31.1363549 16.7884282,26.0366442 C16.7884282,20.9369335 20.9369335,16.7884282 26.0366442,16.7884282 C31.1363549,16.7884282 35.2848602,20.9369335 35.2848602,26.0366442 C35.2848602,31.1363549 31.1363549,35.2848602 26.0366442,35.2848602 Z" id="Shape" fill="#1E496C"></path>
                </g>
                <path d="M32.255352,17.7866924 L32.255352,17.7866924 C31.3180328,17.7866924 30.5581485,17.0268081 30.5581485,16.0894889 L30.5581485,10.9978785 C30.5581485,10.0605593 31.3180328,9.30067502 32.255352,9.30067502 L32.255352,9.30067502 C33.1926712,9.30067502 33.9525554,10.0605593 33.9525554,10.9978785 L33.9525554,16.0894889 C33.9525554,17.0268081 33.1926712,17.7866924 32.255352,17.7866924 Z" id="Path" fill="#F5C54C"></path>
                <path d="M19.8264224,21.9440694 L19.8264224,21.9440694 C19.1637416,22.6067502 18.0891032,22.6067502 17.4260366,21.9440694 L13.8256509,18.3436837 C13.1629701,17.6810029 13.1629701,16.6063645 13.8256509,15.943298 L13.8256509,15.943298 C14.4883317,15.2806172 15.5629701,15.2806172 16.2260366,15.943298 L19.8264224,19.5436837 C20.4891032,20.2067502 20.4891032,21.2813886 19.8264224,21.9440694 Z" id="Path" fill="#F5C54C"></path>
                <path d="M44.6842816,21.9440694 L44.6842816,21.9440694 C45.3469624,22.6067502 46.4216008,22.6067502 47.0846673,21.9440694 L50.685053,18.3436837 C51.3477338,17.6810029 51.3477338,16.6063645 50.685053,15.943298 L50.685053,15.943298 C50.0223722,15.2806172 48.9477338,15.2806172 48.2846673,15.943298 L44.6842816,19.5436837 C44.021215,20.2067502 44.021215,21.2813886 44.6842816,21.9440694 Z" id="Path" fill="#F5C54C"></path>
            </g>
        </g>
    </g>
</svg>