<?xml version="1.0" encoding="UTF-8"?>
<svg width="100px" height="100px" viewBox="0 0 100 100" version="1.1" xmlns="http://www.w3.org/2000/svg" xmlns:xlink="http://www.w3.org/1999/xlink">
    <!-- Generator: sketchtool 64 (101010) - https://sketch.com -->
    <title>F42D061E-858A-491A-BE6C-C6EF79B58FA8</title>
    <desc>Created with sketchtool.</desc>
    <g id="Features-Page" stroke="none" stroke-width="1" fill="none" fill-rule="evenodd">
        <g id="UI/Web/Features-Page" transform="translate(-427.000000, -1585.000000)">
            <g id="Group-18" transform="translate(427.000000, 1585.000000)">
                <path d="M8.7005233e-14,25.8394222 L8.7005233e-14,74.2747963 C8.7005233e-14,78.5739481 3.48492483,82.0588729 7.78407659,82.0588729 L72.0013437,82.0588729 C76.3004955,82.0588729 79.7854203,78.5739481 79.7854203,74.2747963 L79.7854203,25.8394222 L8.7005233e-14,25.8394222 Z" id="Path" fill="#D3EAE4"></path>
                <path d="M72.0009238,8.11161502 L7.78407659,8.11161502 C3.48492483,8.11161502 3.62521804e-14,11.5965399 3.62521804e-14,15.8956916 L3.62521804e-14,25.8398421 L79.7850004,25.8398421 L79.7850004,15.8956916 C79.7850004,11.5965399 76.3000756,8.11161502 72.0009238,8.11161502 Z" id="Path" fill="#D3EAE4"></path>
                <path d="M52.1999664,42.5724364 L44.7094146,42.5724364 C43.7205005,42.5724364 42.9192912,41.7708071 42.9192912,40.7823129 L42.9192912,33.2913412 C42.9192912,32.3024271 43.7209205,31.5012178 44.7094146,31.5012178 L52.1999664,31.5012178 C53.1888805,31.5012178 53.99009,32.3028471 53.99009,33.2913412 L53.99009,40.781893 C53.9905098,41.7708071 53.1888805,42.5724364 52.1999664,42.5724364 Z" id="Path" fill="#003057"></path>
                <path d="M52.1999664,59.6972369 L44.7094146,59.6972369 C43.7205005,59.6972369 42.9192912,58.8956076 42.9192912,57.9071135 L42.9192912,50.4165617 C42.9192912,49.4276476 43.7209205,48.6264382 44.7094146,48.6264382 L52.1999664,48.6264382 C53.1888805,48.6264382 53.99009,49.4280675 53.99009,50.4165617 L53.99009,57.9071135 C53.9905098,58.8956076 53.1888805,59.6972369 52.1999664,59.6972369 Z" id="Path" fill="#FFFFFF"></path>
                <path d="M52.1999664,76.3970773 L44.7094146,76.3970773 C43.7205005,76.3970773 42.9192912,75.5954481 42.9192912,74.6069539 L42.9192912,67.1164021 C42.9192912,66.127488 43.7209205,65.3262787 44.7094146,65.3262787 L52.1999664,65.3262787 C53.1888805,65.3262787 53.99009,66.127908 53.99009,67.1164021 L53.99009,74.6069539 C53.9905098,75.5954481 53.1888805,76.3970773 52.1999664,76.3970773 Z" id="Path" fill="#FFFFFF"></path>
                <path d="M69.3247669,42.5724364 L61.8342152,42.5724364 C60.8453011,42.5724364 60.0440917,41.7708071 60.0440917,40.7823129 L60.0440917,33.2913412 C60.0440917,32.3024271 60.845721,31.5012178 61.8342152,31.5012178 L69.3247669,31.5012178 C70.313681,31.5012178 71.1148904,32.3028471 71.1148904,33.2913412 L71.1148904,40.781893 C71.1148904,41.7708071 70.3132611,42.5724364 69.3247669,42.5724364 Z" id="Path" fill="#003057"></path>
                <path d="M69.3247669,59.6972369 L61.8342152,59.6972369 C60.8453011,59.6972369 60.0440917,58.8956076 60.0440917,57.9071135 L60.0440917,50.4165617 C60.0440917,49.4276476 60.845721,48.6264382 61.8342152,48.6264382 L69.3247669,48.6264382 C70.313681,48.6264382 71.1148904,49.4280675 71.1148904,50.4165617 L71.1148904,57.9071135 C71.1148904,58.8956076 70.3132611,59.6972369 69.3247669,59.6972369 Z" id="Path" fill="#FFFFFF"></path>
                <path d="M35.0755858,59.6972369 L27.585034,59.6972369 C26.5961199,59.6972369 25.7949106,58.8956076 25.7949106,57.9071135 L25.7949106,50.4165617 C25.7949106,49.4276476 26.5965399,48.6264382 27.585034,48.6264382 L35.0755858,48.6264382 C36.0644999,48.6264382 36.8657092,49.4280675 36.8657092,50.4165617 L36.8657092,57.9071135 C36.8657092,58.8956076 36.06408,59.6972369 35.0755858,59.6972369 Z" id="Path" fill="#003057"></path>
                <path d="M35.0755858,76.3970773 L27.585034,76.3970773 C26.5961199,76.3970773 25.7949106,75.5954481 25.7949106,74.6069539 L25.7949106,67.1164021 C25.7949106,66.127488 26.5965399,65.3262787 27.585034,65.3262787 L35.0755858,65.3262787 C36.0644999,65.3262787 36.8657092,66.127908 36.8657092,67.1164021 L36.8657092,74.6069539 C36.8657092,75.5954481 36.06408,76.3970773 35.0755858,76.3970773 Z" id="Path" fill="#FFFFFF"></path>
                <path d="M17.9507853,59.6972369 L10.4602335,59.6972369 C9.47131939,59.6972369 8.67011002,58.8956076 8.67011002,57.9071135 L8.67011002,50.4165617 C8.67011002,49.4276476 9.47173931,48.6264382 10.4602335,48.6264382 L17.9507853,48.6264382 C18.9396993,48.6264382 19.7409089,49.4280675 19.7409089,50.4165617 L19.7409089,57.9071135 C19.7413286,58.8956076 18.9396993,59.6972369 17.9507853,59.6972369 Z" id="Path" fill="#003057"></path>
                <path d="M17.9507853,76.3970773 L10.4602335,76.3970773 C9.47131939,76.3970773 8.67011002,75.5954481 8.67011002,74.6069539 L8.67011002,67.1164021 C8.67011002,66.127488 9.47173931,65.3262787 10.4602335,65.3262787 L17.9507853,65.3262787 C18.9396993,65.3262787 19.7409089,66.127908 19.7409089,67.1164021 L19.7409089,74.6069539 C19.7413286,75.5954481 18.9396993,76.3970773 17.9507853,76.3970773 Z" id="Path" fill="#FFFFFF"></path>
                <path d="M39.4318468,19.4595616 L39.4318468,19.4595616 C37.2822709,19.4595616 35.5400185,17.7168892 35.5400185,15.5677333 L35.5400185,3.89182834 C35.5400185,1.74225246 37.2826909,-5.98160977e-14 39.4318468,-5.98160977e-14 L39.4318468,-5.98160977e-14 C41.5814227,-5.98160977e-14 43.3236751,1.74267238 43.3236751,3.89182834 L43.3236751,15.5677333 C43.3236751,17.7173091 41.5810028,19.4595616 39.4318468,19.4595616 Z" id="Path" fill="#76D5D4"></path>
                <path d="M15.8956916,19.4595616 L15.8956916,19.4595616 C13.7461157,19.4595616 12.0038633,17.7168892 12.0038633,15.5677333 L12.0038633,3.89182834 C12.0038633,1.74225246 13.7465357,-5.98160977e-14 15.8956916,-5.98160977e-14 L15.8956916,-5.98160977e-14 C18.0452675,-5.98160977e-14 19.7875199,1.74267238 19.7875199,3.89182834 L19.7875199,15.5677333 C19.7875199,17.7173091 18.0452675,19.4595616 15.8956916,19.4595616 Z" id="Path" fill="#76D5D4"></path>
                <path d="M62.9675821,19.4595616 L62.9675821,19.4595616 C60.8180062,19.4595616 59.0757538,17.7168892 59.0757538,15.5677333 L59.0757538,3.89182834 C59.0757538,1.74225246 60.8184261,-5.98160977e-14 62.9675821,-5.98160977e-14 L62.9675821,-5.98160977e-14 C65.117158,-5.98160977e-14 66.8594105,1.74267238 66.8594105,3.89182834 L66.8594105,15.5677333 C66.8598304,17.7173091 65.117158,19.4595616 62.9675821,19.4595616 Z" id="Path" fill="#76D5D4"></path>
                <circle id="Oval" fill="#76D5D4" cx="79.7850004" cy="80.0335937" r="19.9462501"></circle>
                <path d="M79.7850004,94.8290921 C71.6267742,94.8290921 64.989502,88.1918199 64.989502,80.0335937 C64.989502,71.8753674 71.6271941,65.2380952 79.7850004,65.2380952 C87.9428068,65.2380952 94.5800789,71.8753674 94.5800789,80.0335937 C94.5800789,88.1918199 87.9432267,94.8290921 79.7850004,94.8290921 Z" id="Path" fill="#D3EAE4"></path>
                <path d="M85.2439741,57.3162845 L74.3260267,57.3162845 C73.8620139,57.3162845 73.4861846,56.9404552 73.4861846,56.4764424 L73.4861846,53.9569161 C73.4861846,53.4929033 73.8620139,53.117074 74.3260267,53.117074 L85.2439741,53.117074 C85.7079869,53.117074 86.0838162,53.4929033 86.0838162,53.9569161 L86.0838162,56.4764424 C86.0838162,56.9400353 85.707567,57.3162845 85.2439741,57.3162845 Z" id="Path" fill="#1E496C"></path>
                <path d="M79.7850004,80.9406232 C79.1408415,80.9406232 78.6184597,80.4182414 78.6184597,79.7740825 L78.6184597,68.4773663 C78.6184597,67.8332074 79.1408415,67.3108256 79.7850004,67.3108256 C80.4291593,67.3108256 80.9515411,67.8332074 80.9515411,68.4773663 L80.9515411,79.7745024 C80.9515411,80.4186613 80.4291593,80.9406232 79.7850004,80.9406232 Z" id="Path" fill="#1E496C"></path>
                <path d="M76.6355925,57.3158646 L76.6355925,60.3367767 C77.6618796,60.1738473 78.7133619,60.0869237 79.7850004,60.0869237 C80.8570589,60.0869237 81.9081213,60.1738473 82.9344083,60.3367767 L82.9344083,57.3158646 L76.6355925,57.3158646 Z" id="Path" fill="#1E496C"></path>
                <path d="M31.3303099,64.302931 C28.6218191,64.302931 26.0749979,63.2480894 24.159738,61.3324095 C22.244478,59.4171496 21.1892164,56.8703284 21.1892164,54.1614177 C21.1892164,51.4529268 22.2440581,48.9061057 24.159738,46.9908457 C26.4340304,44.7165533 29.5238095,43.7297388 32.5455614,44.0933904 C33.0293105,44.1513395 33.3736458,44.590577 33.3156966,45.074326 C33.2577475,45.5580751 32.8218695,45.90409 32.3347611,45.8440413 C29.8538675,45.5467372 27.297808,46.3471067 25.4069035,48.2375913 C23.824641,49.8198539 22.9533048,51.9236584 22.9533048,54.1609977 C22.9533048,56.398757 23.824641,58.5025615 25.4069035,60.0848241 C26.989586,61.6670866 29.0929705,62.5388427 31.3307298,62.5388427 C33.5684891,62.5388427 35.6718737,61.6675065 37.2545561,60.0848241 C38.8368187,58.5025615 39.7081549,56.398757 39.7081549,54.1614177 C39.7081549,51.9236584 38.8368187,49.8198539 37.2545561,48.2375913 C36.9102209,47.8932561 36.9102209,47.335181 37.2545561,46.9904258 C37.5984715,46.6460905 38.1573864,46.6460905 38.5017217,46.9904258 C40.4169816,48.9056857 41.4722432,51.4525069 41.4722432,54.1614177 C41.4722432,56.8699085 40.4174015,59.4167297 38.5017217,61.3319896 C36.5856219,63.2476694 34.0388007,64.302931 31.3303099,64.302931 Z" id="Path" fill="#EE936F"></path>
            </g>
        </g>
    </g>
</svg>