<?xml version="1.0" encoding="UTF-8"?>
<svg width="97px" height="99px" viewBox="0 0 97 99" version="1.1" xmlns="http://www.w3.org/2000/svg" xmlns:xlink="http://www.w3.org/1999/xlink">
    <!-- Generator: sketchtool 64 (101010) - https://sketch.com -->
    <title>38FB1450-EAC9-472B-B269-228EE7FEA956</title>
    <desc>Created with sketchtool.</desc>
    <g id="Features-Page" stroke="none" stroke-width="1" fill="none" fill-rule="evenodd">
        <g id="UI/Web/Features-Page" transform="translate(-212.000000, -2931.000000)">
            <g id="Group-28" transform="translate(212.000000, 2931.000000)">
                <path d="M69.8995902,93.0114754 L3.38237705,93.0114754 C1.51434426,93.0114754 -1.42108547e-14,91.4971311 -1.42108547e-14,89.6290984 L-1.42108547e-14,3.38237705 C-1.42108547e-14,1.51434426 1.51434426,-1.13686838e-13 3.38237705,-1.13686838e-13 L69.8995902,-1.13686838e-13 C71.767623,-1.13686838e-13 73.2819672,1.51434426 73.2819672,3.38237705 L73.2819672,89.6295082 C73.2819672,91.497541 71.767623,93.0114754 69.8995902,93.0114754 Z" id="Path" fill="#D3EAE4"></path>
                <g id="Group-1192" transform="translate(12.000000, 10.000000)">
                    <polyline id="Stroke-4621" stroke="#003057" stroke-width="4.299986" stroke-linecap="round" stroke-linejoin="round" points="0 29.8998228 17.5635323 9.99609461 30.7361815 21.0537214 47.201993 2.25575586"></polyline>
                    <path d="M33.694387,1.32345637 C32.8689545,0.5925316 33.0932128,0 34.1936291,0 L47.7357535,0 C48.8369099,0 49.7295735,0.90166049 49.7295735,1.99754302 L49.7295735,13.5251535 C49.7295735,14.628366 49.0637916,14.9331432 48.2349956,14.1992401 L33.694387,1.32345637 Z" id="Stroke-4622" fill="#003057"></path>
                </g>
                <path d="M63.3610656,71.2016393 L9.64631148,71.2016393 C8.40655738,71.2016393 7.40122951,70.1967213 7.40122951,68.9565574 L7.40122951,68.9565574 C7.40122951,67.7168033 8.40614754,66.7114754 9.64631148,66.7114754 L63.3610656,66.7114754 C64.6008197,66.7114754 65.6061475,67.7163934 65.6061475,68.9565574 L65.6061475,68.9565574 C65.6061475,70.1967213 64.6012295,71.2016393 63.3610656,71.2016393 Z" id="Path" fill="#003057"></path>
                <path d="M13.2147541,82.5213115 L8.56393443,82.5213115 C7.92172131,82.5213115 7.40122951,82.0008197 7.40122951,81.3586066 L7.40122951,76.7081967 C7.40122951,76.0659836 7.92172131,75.5454918 8.56393443,75.5454918 L13.2143443,75.5454918 C13.8565574,75.5454918 14.3770494,76.0659836 14.3770494,76.7081967 L14.3770494,81.3586066 C14.377459,82.0004098 13.8569672,82.5213115 13.2147541,82.5213115 Z" id="Path" fill="#003057"></path>
                <path d="M63.3610656,81.2782787 L23.5467213,81.2782787 C22.3069672,81.2782787 21.3016393,80.2733607 21.3016393,79.0331967 L21.3016393,79.0331967 C21.3016393,77.7934426 22.3065574,76.7881148 23.5467213,76.7881148 L63.3610656,76.7881148 C64.6008197,76.7881148 65.6061475,77.7930328 65.6061475,79.0331967 L65.6061475,79.0331967 C65.6061475,80.2729508 64.6012295,81.2782787 63.3610656,81.2782787 Z" id="Path" fill="#003057"></path>
                <path d="M63.3610656,58.8004098 L9.64631148,58.8004098 C8.40655738,58.8004098 7.40122951,57.7954918 7.40122951,56.5553279 L7.40122951,56.5553279 C7.40122951,55.3155738 8.40614754,54.3102459 9.64631148,54.3102459 L63.3610656,54.3102459 C64.6008197,54.3102459 65.6061475,55.3151639 65.6061475,56.5553279 L65.6061475,56.5553279 C65.6061475,57.795082 64.6012295,58.8004098 63.3610656,58.8004098 Z" id="Path" fill="#003057"></path>
                <g id="Group" transform="translate(36.704918, 25.639344)">
                    <path d="M3.4807377,0.997540984 L45.2581967,0.997540984 C46.5631148,0.997540984 47.6213115,2.05532787 47.6213115,3.36065574 L47.6213115,70.1778689 C47.6213115,71.4827869 46.5635246,72.5409836 45.2581967,72.5409836 L3.4807377,72.5409836 C2.17581967,72.5409836 1.11762295,71.4831967 1.11762295,70.1778689 L1.11762295,3.36065574 C1.11762295,2.0557377 2.17581967,0.997540984 3.4807377,0.997540984 Z" id="Path" fill="#FFFFFF"></path>
                    <path d="M45.2581967,73.3606557 L3.4807377,73.3606557 C1.72581967,73.3606557 0.29795082,71.9331967 0.29795082,70.1778689 L0.29795082,3.36065574 C0.29795082,1.6057377 1.72581967,0.177868852 3.4807377,0.177868852 L45.2581967,0.177868852 C47.0131148,0.177868852 48.4409836,1.60532787 48.4409836,3.36065574 L48.4409836,70.1778689 C48.4409836,71.9331967 47.0127049,73.3606557 45.2581967,73.3606557 Z M3.4807377,1.81721311 C2.62991803,1.81721311 1.93729508,2.50983607 1.93729508,3.36106557 L1.93729508,70.1782787 C1.93729508,71.0290984 2.6295082,71.7217213 3.4807377,71.7217213 L45.2581967,71.7217213 C46.1090164,71.7217213 46.8016393,71.0295082 46.8016393,70.1782787 L46.8016393,3.36065574 C46.8016393,2.50983607 46.1094262,1.81721311 45.2581967,1.81721311 L3.4807377,1.81721311 L3.4807377,1.81721311 Z" id="Shape" fill="#76D5D4"></path>
                </g>
                <circle id="Oval" fill="#76D5D4" cx="55.9065574" cy="85.2901639" r="2.15696721"></circle>
                <circle id="Oval" fill="#76D5D4" cx="66.2602459" cy="85.2901639" r="2.15696721"></circle>
                <circle id="Oval" fill="#76D5D4" cx="76.6139344" cy="85.2901639" r="2.15696721"></circle>
                <circle id="Oval" fill="#76D5D4" cx="45.5528689" cy="85.2901639" r="2.15696721"></circle>
                <circle id="Oval" fill="#76D5D4" cx="55.9065574" cy="74.9364754" r="2.15696721"></circle>
                <circle id="Oval" fill="#A4C9FF" fill-rule="nonzero" cx="66.2602459" cy="74.9364754" r="2.15696721"></circle>
                <circle id="Oval" fill="#003057" cx="76.6139344" cy="74.9364754" r="2.15696721"></circle>
                <circle id="Oval" fill="#76D5D4" cx="45.5528689" cy="74.9364754" r="2.15696721"></circle>
                <circle id="Oval" fill="#76D5D4" cx="55.9065574" cy="64.5827869" r="2.15696721"></circle>
                <circle id="Oval" fill="#76D5D4" cx="66.2602459" cy="64.5827869" r="2.15696721"></circle>
                <circle id="Oval" fill="#A4C9FF" fill-rule="nonzero" cx="76.6139344" cy="64.5827869" r="2.15696721"></circle>
                <circle id="Oval" fill="#003057" cx="45.5528689" cy="64.5827869" r="2.15696721"></circle>
                <circle id="Oval" fill="#76D5D4" cx="55.9065574" cy="54.2286885" r="2.15696721"></circle>
                <circle id="Oval" fill="#003057" cx="66.2602459" cy="54.2286885" r="2.15696721"></circle>
                <circle id="Oval" fill="#76D5D4" cx="76.6139344" cy="54.2286885" r="2.15696721"></circle>
                <circle id="Oval" fill="#76D5D4" cx="45.5528689" cy="54.2286885" r="2.15696721"></circle>
                <circle id="Oval" fill="#003057" cx="55.9065574" cy="43.875" r="2.15696721"></circle>
                <circle id="Oval" fill="#76D5D4" cx="66.2602459" cy="43.875" r="2.15696721"></circle>
                <circle id="Oval" fill="#76D5D4" cx="76.6139344" cy="43.875" r="2.15696721"></circle>
                <circle id="Oval" fill="#76D5D4" cx="45.5528689" cy="43.875" r="2.15696721"></circle>
                <path d="M71.4372951,92.167623 C70.9848361,92.167623 70.617623,91.8004098 70.617623,91.3479508 L70.617623,31.3643443 C70.617623,30.9118852 70.9848361,30.5446721 71.4372951,30.5446721 C71.8897541,30.5446721 72.2569672,30.9118852 72.2569672,31.3643443 L72.2569672,91.3479508 C72.2569672,91.8008197 71.8897541,92.167623 71.4372951,92.167623 Z" id="Path" fill="#003057"></path>
                <path d="M61.0831967,92.167623 C60.6307377,92.167623 60.2635246,91.8004098 60.2635246,91.3479508 L60.2635246,31.3643443 C60.2635246,30.9118852 60.6307377,30.5446721 61.0831967,30.5446721 C61.5356557,30.5446721 61.9028689,30.9118852 61.9028689,31.3643443 L61.9028689,91.3479508 C61.9028689,91.8008197 61.5360656,92.167623 61.0831967,92.167623 Z" id="Path" fill="#003057"></path>
                <path d="M50.7295082,92.167623 C50.2770492,92.167623 49.9098361,91.8004098 49.9098361,91.3479508 L49.9098361,31.3643443 C49.9098361,30.9118852 50.2770492,30.5446721 50.7295082,30.5446721 C51.1819672,30.5446721 51.5491803,30.9118852 51.5491803,31.3643443 L51.5491803,91.3479508 C51.5491803,91.8008197 51.182377,92.167623 50.7295082,92.167623 Z" id="Path" fill="#003057"></path>
                <path d="M80.2278689,38.879918 L40.7360656,38.879918 C40.2836066,38.879918 39.9163934,38.5127049 39.9163934,38.0602459 C39.9163934,37.6077869 40.2836066,37.2405738 40.7360656,37.2405738 L80.2278689,37.2405738 C80.6803279,37.2405738 81.047541,37.6077869 81.047541,38.0602459 C81.047541,38.5127049 80.6807377,38.879918 80.2278689,38.879918 Z" id="Path" fill="#003057"></path>
                <path d="M82.3782787,52.0020492 L57.2081967,77.1721311 L55.7528689,85.1004098 C55.7028689,85.3721311 55.9897541,85.6586066 56.2614754,85.6090164 L64.1897541,84.1536885 L89.3598361,58.9836066 L82.3782787,52.0020492 Z" id="Path" fill="#F9CFCF" fill-rule="nonzero"></path>
                <path d="M87.5655738,57.1893443 L63.4110656,81.3438525 C64.0385246,81.9713115 63.4495902,83.5815574 64.2008197,84.142623 L89.3594262,58.9840164 L87.5655738,57.1893443 Z" id="Path" fill="#1E496C"></path>
                <path d="M84.172541,53.7963115 L60.0180328,77.9508197 C60.3483607,78.2811475 60.2762295,78.5409836 60.4581967,80.1872951 C60.5946721,81.417623 62.7303279,80.6631148 63.4106557,81.3438525 L87.5651639,57.1893443 L84.172541,53.7963115 Z" id="Path" fill="#1E496C"></path>
                <path d="M82.3782787,52.0020492 L57.2196721,77.1606557 C57.7807377,77.9122951 59.3909836,77.3233607 60.0184426,77.9504098 L84.1729508,53.7959016 L82.3782787,52.0020492 Z" id="Path" fill="#1E496C"></path>
                <rect id="Rectangle" fill="#E0EBFC" fill-rule="nonzero" transform="translate(87.199760, 54.163341) rotate(-135.000000) translate(-87.199760, -54.163341) " x="82.2631274" y="52.2818018" width="9.87326597" height="3.76307867"></rect>
                <path d="M91.8807377,45.4815574 L95.8803279,49.4811475 C96.7036885,50.3045082 96.7036885,51.6397541 95.8803279,52.4631148 L92.0209016,56.322541 L85.0393443,49.3409836 L88.8987705,45.4815574 C89.7221311,44.6581967 91.057377,44.6581967 91.8807377,45.4815574 Z" id="Path" fill="#EDC0F2"></path>
                <path d="M56.5959016,80.5077869 L55.7528689,85.1004098 C55.7028689,85.3721311 55.9897541,85.6586066 56.2614754,85.6090164 L60.8540984,84.7659836 L56.5959016,80.5077869 Z" id="Path" fill="#1E496C"></path>
            </g>
        </g>
    </g>
</svg>