<?xml version="1.0" encoding="UTF-8"?>
<svg width="93px" height="99px" viewBox="0 0 93 99" version="1.1" xmlns="http://www.w3.org/2000/svg" xmlns:xlink="http://www.w3.org/1999/xlink">
    <!-- Generator: sketchtool 64 (101010) - https://sketch.com -->
    <title>95C06618-1B60-4A30-8096-83B7274B25FB</title>
    <desc>Created with sketchtool.</desc>
    <g id="Features-Page" stroke="none" stroke-width="1" fill="none" fill-rule="evenodd">
        <g id="UI/Web/Features-Page" transform="translate(-551.000000, -984.000000)">
            <g id="Group-7" transform="translate(551.000000, 984.000000)">
                <g id="Student">
                    <path d="M45.3945993,20.6618869 C45.7998526,22.0847963 46.0211739,23.5836907 46.0211739,25.1350509 L46.0211739,26.6888234 C47.5095149,26.6586706 48.8362369,27.2599169 49.7739882,28.2281225 C51.1917716,25.6992093 51.9603659,22.7572032 51.9603659,19.3788864 C51.9603659,16.108215 50.195524,13.2515411 47.5674082,11.7041008 C47.6572635,12.3131868 47.7052064,12.9355401 47.7052064,13.5693514 C47.7049049,16.2215894 46.8467569,18.6721053 45.3945993,20.6618869 Z" id="Path" fill="#252525"></path>
                    <path d="M49.7739882,28.831178 C49.6117663,28.831178 49.4549719,28.7657464 49.3406928,28.6478491 C48.4686746,27.7477888 47.2893996,27.2701689 46.0335366,27.2915773 C45.8722192,27.2954972 45.7148218,27.2327794 45.5993366,27.119405 C45.48355,27.0060306 45.4181185,26.8507438 45.4181185,26.6885218 L45.4181185,25.1347494 C45.4181185,23.6834964 45.2148888,22.2340525 44.8144599,20.826521 C44.7638033,20.6480166 44.7978759,20.4559434 44.907632,20.3060842 C46.3432056,18.3386157 47.1018494,16.0090123 47.1018494,13.5690499 C47.1018494,12.9807692 47.0578263,12.3828397 46.9703833,11.7918453 C46.9366122,11.5620812 47.037624,11.3332217 47.2299987,11.2035647 C47.4223734,11.0739078 47.6729429,11.0663696 47.8728558,11.184267 C50.7660145,12.8872956 52.5631198,16.0274055 52.5631198,19.3788864 C52.5631198,22.7677566 51.8017623,25.8442442 50.2995511,28.5230166 C50.206379,28.6891584 50.0402372,28.8016282 49.8514808,28.826052 C49.825851,28.8296703 49.7999196,28.831178 49.7739882,28.831178 Z M46.6242294,26.1053672 C47.7181721,26.1979362 48.7415572,26.5971589 49.6012128,27.2650429 C50.7669191,24.9275998 51.3570088,22.2786786 51.3570088,19.3788864 C51.3570088,16.875 50.2072836,14.5058965 48.2928839,12.9424752 C48.3028344,13.152037 48.3079603,13.3612972 48.3079603,13.5693514 C48.3079603,16.1685205 47.5291142,18.6543152 46.0522313,20.7782766 C46.4321563,22.2045028 46.6242294,23.6687215 46.6242294,25.1350509 L46.6242294,26.1053672 Z" id="Shape" fill="#252525"></path>
                    <path d="M12.8353324,26.6888234 L12.8353324,25.1350509 C12.8353324,25.0461002 12.8407598,24.9583557 12.841966,24.8697065 C10.8247454,24.136391 9.04814393,22.9010319 7.66805146,21.3104731 L7.66805146,23.6108282 C7.66805146,25.3892388 8.06275127,27.0744774 8.76531091,28.5878451 C9.70668051,27.4103793 11.1696931,26.6550523 12.8353324,26.6888234 Z" id="Path" fill="#252525"></path>
                    <path d="M8.76591396,29.190599 C8.74179174,29.190599 8.71766953,29.1890914 8.69354731,29.1863776 C8.48609622,29.1613508 8.30668722,29.0307893 8.21864111,28.8414299 C7.45336371,27.1929778 7.06529751,25.4332619 7.06529751,23.6105267 L7.06529751,21.3101715 C7.06529751,21.0583959 7.2217904,20.8331547 7.45728357,20.7451085 C7.69337979,20.6567609 7.9587242,20.7246047 8.12365988,20.9148687 C9.44827124,22.4415036 11.1509984,23.6129389 13.0479094,24.3022313 C13.2897347,24.3902774 13.4492428,24.6218507 13.4447199,24.8790539 L13.4414031,25.0014741 C13.4398955,25.0454972 13.4380863,25.0898218 13.4380863,25.1344479 L13.4380863,26.6882203 C13.4380863,26.8504422 13.3729563,27.0054275 13.2571697,27.1191035 C13.141383,27.2324779 12.9860962,27.2945926 12.8229697,27.2912758 C11.4139306,27.2641383 10.10922,27.8723198 9.23629724,28.9638502 C9.12141517,29.108282 8.94773519,29.190599 8.76591396,29.190599 Z M8.27140847,22.7912758 L8.27140847,23.6105267 C8.27140847,24.9538328 8.50479094,26.2594479 8.96642991,27.5029483 C9.87312383,26.6978692 11.0101849,26.2093943 12.2325784,26.1053672 L12.2325784,25.2818949 C10.7743902,24.6963281 9.43017958,23.8496382 8.27140847,22.7912758 Z" id="Shape" fill="#252525"></path>
                    <path d="M50.1418521,71.9119539 L8.71495578,71.9119539 L8.71495578,59.9901501 C8.71495578,55.087309 12.6893929,51.1128719 17.592234,51.1128719 L41.2645738,51.1128719 C46.1674149,51.1128719 50.1418521,55.087309 50.1418521,59.9901501 L50.1418521,71.9119539 L50.1418521,71.9119539 Z" id="Path" fill="#FFFFFF" fill-rule="nonzero"></path>
                    <path d="M29.4284039,49.3821027 C26.6440968,49.3821027 24.0223131,48.6997454 21.7186411,47.4981573 L21.7186411,51.1131734 L21.7186411,51.114078 C21.7186411,55.3680314 25.1669124,58.8163026 29.4208657,58.8163026 L29.4208657,58.8163026 C33.6748191,58.8163026 37.1230903,55.3680314 37.1230903,51.114078 L37.1230903,51.1131734 L37.1230903,47.5062986 C34.8230367,48.7024591 32.2066805,49.3821027 29.4284039,49.3821027 Z" id="Path" fill="#FFB9B9" fill-rule="nonzero"></path>
                    <path d="M28.1016819,71.9119539 L34.8800255,71.9119539 L46.070926,52.5285446 C46.4035111,51.9526266 46.2060105,51.2162959 45.6300925,50.8837108 L42.6320021,49.15264 C42.0560842,48.8200549 41.3197534,49.0175556 40.9871683,49.5934736 L28.1016819,71.9119539 Z" id="Path" fill="#D3EAE4"></path>
                    <path d="M33.3621348,71.9119539 L15.7767355,71.9119539 L15.7767355,49.3821027 L32.1665773,49.3821027 C32.8269231,49.3821027 33.3621348,49.9173144 33.3621348,50.5776601 L33.3621348,71.9119539 Z" id="Path" fill="#76D5D4"></path>
                    <path d="M15.7767355,71.9119539 L12.8458858,71.9119539 L12.8458858,50.5776601 C12.8458858,49.9173144 13.3810976,49.3821027 14.0414433,49.3821027 L15.7767355,49.3821027 L15.7767355,71.9119539 Z" id="Path" fill="#D3EAE4"></path>
                    <path d="M30.3293688,57.6581345 L18.8095015,57.6581345 C18.4678705,57.6581345 18.1907666,57.3810306 18.1907666,57.0393996 L18.1907666,53.3794559 C18.1907666,53.037825 18.4678705,52.760721 18.8095015,52.760721 L30.3293688,52.760721 C30.6709997,52.760721 30.9481037,53.037825 30.9481037,53.3794559 L30.9481037,57.0393996 C30.9481037,57.3810306 30.6709997,57.6581345 30.3293688,57.6581345 Z" id="Path" fill="#FFFFFF" fill-rule="nonzero"></path>
                    <path d="M33.3621348,72.5150094 L15.7767355,72.5150094 C15.4438488,72.5150094 15.17368,72.2448405 15.17368,71.9119539 L15.17368,49.3821027 C15.17368,49.049216 15.4438488,48.7790472 15.7767355,48.7790472 L32.1662758,48.7790472 C33.1583021,48.7790472 33.9651903,49.5859354 33.9651903,50.5776601 L33.9651903,71.9119539 C33.9651903,72.2451421 33.6950214,72.5150094 33.3621348,72.5150094 Z M16.3797909,71.3088984 L32.7590793,71.3088984 L32.7590793,50.5776601 C32.7590793,50.2511056 32.4931319,49.9851581 32.1662758,49.9851581 L16.3797909,49.9851581 L16.3797909,71.3088984 Z" id="Shape" fill="#76D5D4"></path>
                    <path d="M15.7767355,72.5150094 L12.8458858,72.5150094 C12.5129992,72.5150094 12.2428303,72.2448405 12.2428303,71.9119539 L12.2428303,50.5776601 C12.2428303,49.5859354 13.0497186,48.7790472 14.0414433,48.7790472 L15.7767355,48.7790472 C16.1096221,48.7790472 16.3797909,49.049216 16.3797909,49.3821027 L16.3797909,71.9119539 C16.3797909,72.2451421 16.1099236,72.5150094 15.7767355,72.5150094 Z M13.4489413,71.3088984 L15.17368,71.3088984 L15.17368,49.9851581 L14.0414433,49.9851581 C13.7148888,49.9851581 13.4489413,50.2511056 13.4489413,50.5776601 L13.4489413,71.3088984 Z" id="Shape" fill="#76D5D4"></path>
                    <path d="M38.4540338,70.7227285 L38.4540338,62.7470182 C38.4540338,62.3091999 38.217033,61.9060574 37.8343943,61.6931788 L35.8096355,60.5663696 C35.3612637,60.3167046 34.8565063,60.1858416 34.3433061,60.1858416 L30.4143996,60.1858416 C28.874799,60.1858416 27.3605267,60.5787322 26.0154114,61.3274256 L26.0145068,61.3280287 C25.7524792,61.4739681 25.4551729,61.5442241 25.1557558,61.5309568 L6.3542951,60.7114044 C3.62818279,60.592301 1.1619874,62.3197534 0.341831949,64.9225409 L0.341831949,64.9225409 C-0.0296502278,66.1015143 -0.0296502278,67.3664232 0.341831949,68.5453967 L0.341831949,68.5453967 C1.16168588,71.1481841 3.62788127,72.875335 6.3542951,72.7565331 L25.1569619,71.9366792 C25.456379,71.9237135 25.7536853,71.9939694 26.0157129,72.1396073 L26.0157129,72.1396073 C27.3611297,72.8883007 28.8751005,73.2811914 30.4147012,73.2811914 L34.3641115,73.2811914 C34.8806285,73.2811914 35.3887028,73.1485192 35.8391852,72.8958389 L37.8383141,71.7744573 C38.2185406,71.5612771 38.4540338,71.1590391 38.4540338,70.7227285 Z" id="Path" fill="#FFB9B9" fill-rule="nonzero"></path>
                    <path d="M46.0211739,26.6888234 L46.0211739,25.1350509 C46.0211739,16.0536384 38.592435,8.69153712 29.4284039,8.69153712 L29.4284039,8.69153712 C20.2643728,8.69153712 12.8356339,16.0536384 12.8356339,25.1350509 L12.8356339,26.6888234 C9.95453632,26.630327 7.66865452,28.9255562 7.66865452,31.7002144 C7.66865452,34.6627245 10.2551595,37.0061981 13.2740552,36.6871817 C14.9864313,43.9621415 21.5669727,49.3824042 29.4287054,49.3824042 C37.2907397,49.3824042 43.8709796,43.96184 45.5833557,36.6871817 C48.5983315,37.0058965 51.1887564,34.6669459 51.1887564,31.7002144 C51.1881533,28.92435 48.9007639,26.630327 46.0211739,26.6888234 Z" id="Path" fill="#FFB9B9" fill-rule="nonzero"></path>
                    <path d="M29.4284039,49.9851581 C21.5666711,49.9851581 14.8049116,44.8018963 12.8103055,37.3179778 C11.3783503,37.3357679 9.98921201,36.820457 8.92481908,35.8631064 C7.74313187,34.7996181 7.06529751,33.2823305 7.06529751,31.7002144 C7.06529751,30.1859421 7.66352854,28.7654449 8.75023452,27.7007505 C9.69853927,26.771442 10.9173144,26.2169325 12.2322769,26.1056687 L12.2322769,25.1353525 C12.2322769,15.7358282 19.9462611,8.08878317 29.4284039,8.08878317 C38.9105468,8.08878317 46.6242294,15.7358282 46.6242294,25.1353525 L46.6242294,26.1056687 C47.9391919,26.2169325 49.1576655,26.771442 50.1062718,27.701052 C51.1929778,28.7657464 51.7912088,30.1859421 51.7912088,31.7005159 C51.7912088,33.282632 51.113676,34.7999196 49.9319887,35.8631064 C48.8678973,36.820457 47.467904,37.3330541 46.0462008,37.3182793 C44.0512932,44.8018963 37.2898352,49.9851581 29.4284039,49.9851581 Z M13.2740552,36.0838247 C13.5508577,36.0838247 13.7959997,36.2737872 13.8605267,36.5487805 C15.5557156,43.749866 21.9571496,48.7793487 29.4281024,48.7793487 C36.8987537,48.7793487 43.3004891,43.7501675 44.9953766,36.549082 C45.0650295,36.2532833 45.3463549,36.054275 45.6457719,36.087443 C46.9149022,36.2216229 48.1837309,35.8130528 49.124799,34.9663629 C50.0525998,34.1314326 50.5847963,32.9410011 50.5847963,31.7002144 C50.5847963,30.5127982 50.1150161,29.3983516 49.2616926,28.5622152 C48.4008309,27.7182391 47.2535178,27.2686612 46.0332351,27.2918789 C45.8719177,27.2957987 45.7145202,27.2330809 45.5990351,27.1197065 C45.4832485,27.0063321 45.4178169,26.8510453 45.4178169,26.6888234 L45.4178169,25.1350509 C45.4178169,16.4006969 38.2447735,9.2945926 29.4281024,9.2945926 C20.6111297,9.2945926 13.4380863,16.4003953 13.4380863,25.1350509 L13.4380863,26.6888234 C13.4380863,26.8510453 13.3729563,27.0060306 13.2571697,27.1197065 C13.141383,27.2327794 12.9860962,27.2951957 12.8229697,27.2918789 C11.609019,27.271375 10.4553739,27.7182391 9.59421067,28.5622152 C8.74118869,29.3980501 8.27140847,30.5124966 8.27140847,31.7002144 C8.27140847,32.9410011 8.80360493,34.1314326 9.73170732,34.9666644 C10.6724739,35.8133543 11.9410011,36.2210198 13.2101313,36.087443 C13.2318413,36.0847293 13.2532498,36.0838247 13.2740552,36.0838247 Z" id="Shape" fill="#FFB9B9" fill-rule="nonzero"></path>
                    <path d="M14.8272246,5.49775529 C12.4551059,8.43945993 9.26916376,10.3635084 5.72560976,10.6985058 C5.0924015,10.7582083 4.61508309,11.3021643 4.61508309,11.9380863 L4.61508309,13.135453 C4.61508309,20.0304878 10.2045028,25.6199075 17.0995377,25.6199075 L35.6546502,25.6199075 C42.3099705,25.6199075 47.7052064,20.2246717 47.7052064,13.5693514 L47.7052064,13.5693514 C47.7052064,6.56938488 42.0304543,0.894632806 35.0304878,0.894632806 L24.5071697,0.894632806 C20.7522447,0.894632806 17.184267,2.5750469 14.8272246,5.49775529 Z" id="Path" fill="#252525"></path>
                    <path d="M35.6543487,26.222963 L17.0995377,26.222963 C9.88307424,26.222963 4.01202761,20.3519164 4.01202761,13.135453 L4.01202761,11.9380863 C4.01202761,10.9783235 4.72423613,10.1874162 5.66892254,10.0978625 C8.93175422,9.78970115 12.0178906,8.02154248 14.3580474,5.11933798 L14.3580474,5.11933798 C16.8320826,2.05129322 20.5312249,0.291577325 24.5071697,0.291577325 L35.0301863,0.291577325 C42.3515813,0.291577325 48.3079603,6.24795631 48.3079603,13.5693514 C48.3079603,20.5467033 42.6317006,26.222963 35.6543487,26.222963 Z M15.2967033,5.87647414 C12.7506031,9.03377111 9.37138167,10.9596288 5.78229697,11.2988475 C5.46599437,11.3286987 5.21813857,11.6097226 5.21813857,11.9380863 L5.21813857,13.135453 C5.21813857,19.6870477 10.5482444,25.0168521 17.0995377,25.0168521 L35.6546502,25.0168521 C41.9668319,25.0168521 47.1021509,19.8815331 47.1021509,13.5693514 C47.1021509,6.91282498 41.6867127,1.49768829 35.0304878,1.49768829 L24.5071697,1.49768829 C20.8978826,1.49768829 17.5406727,3.09367462 15.2967033,5.87647414 C15.2967033,5.87647414 15.2967033,5.87647414 15.2967033,5.87647414 Z" id="Shape" fill="#252525"></path>
                </g>
                <g id="Group-13" transform="translate(23.901099, 55.219780)">
                    <path d="M30.3176143,42.6212186 L1.86078738,42.6212186 C1.17733465,42.6212186 0.623588265,42.0671605 0.623588265,41.3840195 L0.623588265,4.69956903 C0.623588265,4.01611629 1.17764644,3.46236991 1.86078738,3.46236991 L28.1060585,3.46236991 C29.3273561,3.46236991 30.3173025,4.45231628 30.3173025,5.6736139 L30.3173025,42.6212186 L30.3176143,42.6212186 Z" id="Path" fill="#76D5D4"></path>
                    <path d="M30.3176143,42.6212186 L58.7744412,42.6212186 C59.4578939,42.6212186 60.0116403,42.0671605 60.0116403,41.3840195 L60.0116403,4.69956903 C60.0116403,4.01611629 59.4575821,3.46236991 58.7744412,3.46236991 L32.5291701,3.46236991 C31.3078725,3.46236991 30.3179261,4.45231628 30.3179261,5.6736139 L30.3179261,42.6212186 L30.3176143,42.6212186 Z" id="Path" fill="#76D5D4"></path>
                    <path d="M30.3176143,43.2448069 L1.86078738,43.2448069 C0.834672893,43.2448069 -1.87395886e-13,42.410134 -1.87395886e-13,41.3840195 L-1.87395886e-13,4.69925724 C-1.87395886e-13,3.67314275 0.834672893,2.83846985 1.86078738,2.83846985 L28.1063703,2.83846985 C29.6697061,2.83846985 30.9412026,4.11027812 30.9412026,5.6736139 L30.9412026,42.6212186 C30.9412026,42.9654394 30.661835,43.2448069 30.3176143,43.2448069 Z M1.86078738,4.08564638 C1.52249075,4.08564638 1.24717653,4.3609606 1.24717653,4.69925724 L1.24717653,41.3837077 C1.24717653,41.7220044 1.52249075,41.9973186 1.86078738,41.9973186 L29.694026,41.9973186 L29.694026,5.6736139 C29.694026,4.79809598 28.9818882,4.08564638 28.1063703,4.08564638 L1.86078738,4.08564638 Z" id="Shape" fill="#76D5D4"></path>
                    <path d="M58.7744412,43.2448069 L30.3176143,43.2448069 C29.9733936,43.2448069 29.694026,42.9654394 29.694026,42.6212186 L29.694026,5.6736139 C29.694026,4.11027812 30.9658343,2.83846985 32.5288583,2.83846985 L58.7744412,2.83846985 C59.8005557,2.83846985 60.6352286,3.67314275 60.6352286,4.69925724 L60.6352286,41.3837077 C60.6352286,42.410134 59.8005557,43.2448069 58.7744412,43.2448069 Z M30.9412026,41.9976304 L58.7744412,41.9976304 C59.1127378,41.9976304 59.388052,41.7223161 59.388052,41.3840195 L59.388052,4.69925724 C59.388052,4.3609606 59.1127378,4.08564638 58.7744412,4.08564638 L32.5288583,4.08564638 C31.6533404,4.08564638 30.9412026,4.79809598 30.9412026,5.6736139 L30.9412026,41.9976304 L30.9412026,41.9976304 Z" id="Shape" fill="#76D5D4"></path>
                    <path d="M55.062532,1.42074193 L55.062532,3.46205812 L30.3176143,3.46205812 L5.57269653,3.46205812 L5.57269653,1.42074193 C3.67542924,1.62683785 3.56630129,3.46205812 3.56630129,3.46205812 L3.56630129,40.5795906 L30.3176143,40.5795906 L57.0689273,40.5795906 L57.0689273,3.46205812 C57.0689273,3.46205812 56.9597993,1.62683785 55.062532,1.42074193 Z" id="Path" fill="#D3EAE4"></path>
                    <path d="M57.0689273,41.2034907 L3.56630129,41.2034907 C3.22208057,41.2034907 2.94271302,40.9241232 2.94271302,40.5799024 L2.94271302,3.46205812 C2.94271302,3.44958635 2.94271302,3.43742638 2.94364841,3.42495462 C2.99228829,2.60836578 3.59030944,1.00886188 5.50503721,0.800583401 C5.68213627,0.781252165 5.85705278,0.838310492 5.9889417,0.956480468 C6.12083062,1.07465044 6.1962848,1.24364286 6.1962848,1.42074193 L6.1962848,2.83846985 L54.4392556,2.83846985 L54.4392556,1.42074193 C54.4392556,1.24364286 54.5147098,1.07496224 54.6465987,0.956480468 C54.7781758,0.838310492 54.9534041,0.781252165 55.1305032,0.800583401 C57.0455427,1.00886188 57.6432521,2.60805399 57.691892,3.42495462 C57.6928273,3.43742638 57.6928273,3.44989815 57.6928273,3.46205812 L57.6928273,40.5795906 C57.6928273,40.9241232 57.4134598,41.2034907 57.0689273,41.2034907 Z M4.18988956,39.9563142 L56.4456508,39.9563142 L56.4456508,3.48637806 C56.4325555,3.34544711 56.3349639,2.62925599 55.6864321,2.25510303 L55.6864321,3.46205812 C55.6864321,3.80627884 55.4070646,4.08564638 55.0628438,4.08564638 L5.57269653,4.08564638 C5.22847581,4.08564638 4.94910827,3.80627884 4.94910827,3.46205812 L4.94910827,2.25447944 C4.28904009,2.6339329 4.20017876,3.36571373 4.18988956,3.4841955 L4.18988956,39.9563142 Z" id="Shape" fill="#76D5D4"></path>
                    <path d="M30.3176143,40.5799024 L5.57269653,40.5799024 L5.57269653,1.42074193 L28.2844048,1.42074193 C29.4074872,1.42074193 30.3176143,2.3311808 30.3176143,3.45395147 L30.3176143,40.5799024 Z" id="Path" fill="#FFFFFF" fill-rule="nonzero"></path>
                    <path d="M30.3176143,40.5799024 L55.062532,40.5799024 L55.062532,1.42074193 L32.3508238,1.42074193 C31.2277414,1.42074193 30.3176143,2.3311808 30.3176143,3.45395147 L30.3176143,40.5799024 L30.3176143,40.5799024 Z" id="Path" fill="#FFFFFF" fill-rule="nonzero"></path>
                    <path d="M51.8045952,8.68554522 L34.2356194,8.68554522 C33.7573272,8.68554522 33.3694553,8.29767332 33.3694553,7.81938112 L33.3694553,7.81938112 C33.3694553,7.34108892 33.7573272,6.95321702 34.2356194,6.95321702 L51.8045952,6.95321702 C52.2828874,6.95321702 52.6707593,7.34108892 52.6707593,7.81938112 L52.6707593,7.81938112 C52.6707593,8.29798512 52.2828874,8.68554522 51.8045952,8.68554522 Z" id="Path" fill="#1E496C"></path>
                    <path d="M51.8045952,13.6346535 L34.2356194,13.6346535 C33.7573272,13.6346535 33.3694553,13.2467816 33.3694553,12.7684894 L33.3694553,12.7684894 C33.3694553,12.2901972 33.7573272,11.9023253 34.2356194,11.9023253 L51.8045952,11.9023253 C52.2828874,11.9023253 52.6707593,12.2901972 52.6707593,12.7684894 L52.6707593,12.7684894 C52.6707593,13.2467816 52.2828874,13.6346535 51.8045952,13.6346535 Z" id="Path" fill="#1E496C"></path>
                    <path d="M51.8045952,28.4816665 L34.2356194,28.4816665 C33.7573272,28.4816665 33.3694553,28.0937946 33.3694553,27.6155024 L33.3694553,27.6155024 C33.3694553,27.1372102 33.7573272,26.7493383 34.2356194,26.7493383 L51.8045952,26.7493383 C52.2828874,26.7493383 52.6707593,27.1372102 52.6707593,27.6155024 L52.6707593,27.6155024 C52.6707593,28.0937946 52.2828874,28.4816665 51.8045952,28.4816665 Z" id="Path" fill="#1E496C"></path>
                    <path d="M51.8045952,33.4307748 L34.2356194,33.4307748 C33.7573272,33.4307748 33.3694553,33.0429029 33.3694553,32.5646107 L33.3694553,32.5646107 C33.3694553,32.0863185 33.7573272,31.6984466 34.2356194,31.6984466 L51.8045952,31.6984466 C52.2828874,31.6984466 52.6707593,32.0863185 52.6707593,32.5646107 L52.6707593,32.5646107 C52.6707593,33.0429029 52.2828874,33.4307748 51.8045952,33.4307748 Z" id="Path" fill="#1E496C"></path>
                    <path d="M26.7294874,8.68554522 L18.5018638,8.68554522 C18.0235716,8.68554522 17.6356997,8.29767332 17.6356997,7.81938112 L17.6356997,7.81938112 C17.6356997,7.34108892 18.0235716,6.95321702 18.5018638,6.95321702 L26.7294874,6.95321702 C27.2077796,6.95321702 27.5956515,7.34108892 27.5956515,7.81938112 L27.5956515,7.81938112 C27.5956515,8.29798512 27.2077796,8.68554522 26.7294874,8.68554522 Z" id="Path" fill="#1E496C"></path>
                    <path d="M26.7294874,13.6346535 L18.5018638,13.6346535 C18.0235716,13.6346535 17.6356997,13.2467816 17.6356997,12.7684894 L17.6356997,12.7684894 C17.6356997,12.2901972 18.0235716,11.9023253 18.5018638,11.9023253 L26.7294874,11.9023253 C27.2077796,11.9023253 27.5956515,12.2901972 27.5956515,12.7684894 L27.5956515,12.7684894 C27.5956515,13.2467816 27.2077796,13.6346535 26.7294874,13.6346535 Z" id="Path" fill="#1E496C"></path>
                    <path d="M26.7294874,18.5837618 L9.16051162,18.5837618 C8.68221942,18.5837618 8.29434752,18.1958899 8.29434752,17.7175977 L8.29434752,17.7175977 C8.29434752,17.2393055 8.68221942,16.8514336 9.16051162,16.8514336 L26.7294874,16.8514336 C27.2077796,16.8514336 27.5956515,17.2393055 27.5956515,17.7175977 L27.5956515,17.7175977 C27.5956515,18.1958899 27.2077796,18.5837618 26.7294874,18.5837618 Z" id="Path" fill="#1E496C"></path>
                    <path d="M26.7294874,23.5325582 L9.16051162,23.5325582 C8.68221942,23.5325582 8.29434752,23.1446863 8.29434752,22.6663941 L8.29434752,22.6663941 C8.29434752,22.1881019 8.68221942,21.80023 9.16051162,21.80023 L26.7294874,21.80023 C27.2077796,21.80023 27.5956515,22.1881019 27.5956515,22.6663941 L27.5956515,22.6663941 C27.5956515,23.1449981 27.2077796,23.5325582 26.7294874,23.5325582 Z" id="Path" fill="#1E496C"></path>
                    <path d="M27.1008342,33.4307748 L8.7894766,33.4307748 C8.51603315,33.4307748 8.29465931,33.2090891 8.29465931,32.9359575 L8.29465931,27.2444674 C8.29465931,26.9710239 8.51634494,26.7496501 8.7894766,26.7496501 L27.1008342,26.7496501 C27.3742777,26.7496501 27.5956515,26.9713357 27.5956515,27.2444674 L27.5956515,32.9359575 C27.5956515,33.2090891 27.3739659,33.4307748 27.1008342,33.4307748 Z" id="Path" fill="#1E496C"></path>
                    <path d="M30.3176143,41.2034907 L5.57269653,41.2034907 C5.22847581,41.2034907 4.94910827,40.9241232 4.94910827,40.5799024 L4.94910827,1.42074193 C4.94910827,1.07652121 5.22847581,0.797153666 5.57269653,0.797153666 L28.2844048,0.797153666 C29.7495254,0.797153666 30.9412026,1.98914264 30.9412026,3.45395147 L30.9412026,40.5795906 C30.9412026,40.9241232 30.661835,41.2034907 30.3176143,41.2034907 Z M6.1962848,39.9563142 L29.694026,39.9563142 L29.694026,3.45395147 C29.694026,2.6766487 29.0617075,2.0443302 28.2844048,2.0443302 L6.1962848,2.0443302 L6.1962848,39.9563142 Z" id="Shape" fill="#76D5D4"></path>
                    <path d="M55.062532,41.2034907 L30.3176143,41.2034907 C29.9733936,41.2034907 29.694026,40.9241232 29.694026,40.5799024 L29.694026,3.45395147 C29.694026,1.98883084 30.886015,0.797153666 32.3508238,0.797153666 L55.062532,0.797153666 C55.4067528,0.797153666 55.6861203,1.07652121 55.6861203,1.42074193 L55.6861203,40.5799024 C55.6861203,40.9241232 55.4070646,41.2034907 55.062532,41.2034907 Z M30.9412026,39.9563142 L54.4389438,39.9563142 L54.4389438,2.0443302 L32.3508238,2.0443302 C31.5735211,2.0443302 30.9412026,2.6766487 30.9412026,3.45395147 L30.9412026,39.9563142 L30.9412026,39.9563142 Z" id="Shape" fill="#76D5D4"></path>
                    <path d="M28.311219,38.5382745 L5.57269653,38.5382745 C3.67542924,38.7443704 3.56630129,40.5799024 3.56630129,40.5799024 L5.57269653,40.5799024 L30.3176143,40.5799024 C30.3176143,40.5795906 30.2084863,38.7443704 28.311219,38.5382745 Z" id="Path" fill="#FFFFFF" fill-rule="nonzero"></path>
                    <path d="M55.062532,38.5382745 L32.3236977,38.5382745 C30.4264304,38.7443704 30.3173025,40.5799024 30.3173025,40.5799024 L55.0622203,40.5799024 L57.0686162,40.5799024 C57.0689273,40.5795906 56.9597993,38.7443704 55.062532,38.5382745 Z" id="Path" fill="#FFFFFF" fill-rule="nonzero"></path>
                    <path d="M30.3176143,41.2034907 L3.56630129,41.2034907 C3.39450272,41.2034907 3.23018722,41.1324016 3.11232903,41.007684 C2.99447085,40.8826545 2.9333592,40.7145975 2.94364841,40.5427989 C2.99228829,39.7262101 3.59030944,38.1267062 5.50503721,37.9184277 C5.52748638,37.9159334 5.54993556,37.9146862 5.57238474,37.9146862 L28.3109073,37.9146862 C28.3333564,37.9146862 28.3561174,37.9159334 28.3782548,37.9184277 C30.2932943,38.1267062 30.8913155,39.7262101 30.9396436,40.5427989 C30.9499328,40.7142857 30.8888211,40.8823428 30.770963,41.0073722 C30.6531048,41.1324016 30.4894129,41.2034907 30.3176143,41.2034907 Z M4.38787883,39.9563142 L29.494166,39.9563142 C29.3086485,39.6111581 28.953515,39.2454236 28.2750509,39.1618627 L5.60855286,39.1618627 C4.92790627,39.2457353 4.57277275,39.6120935 4.38787883,39.9563142 Z" id="Shape" fill="#76D5D4"></path>
                    <path d="M57.0689273,41.2034907 L30.3176143,41.2034907 C30.1458157,41.2034907 29.9815002,41.1324016 29.863642,41.007684 C29.7457839,40.8829663 29.6846722,40.7145975 29.6949614,40.5431107 C29.7436013,39.7262101 30.3413106,38.1267062 32.2563502,37.9187395 C32.2787994,37.9162452 32.3012486,37.914998 32.3236977,37.914998 L55.0622203,37.914998 C55.0846694,37.914998 55.1074304,37.9162452 55.1295678,37.9187395 C57.0446073,38.127018 57.6423167,39.7265219 57.6909566,40.5431107 C57.7012458,40.7145975 57.6401341,40.8826545 57.522276,41.0079958 C57.4050414,41.1324016 57.2410377,41.2034907 57.0689273,41.2034907 Z M31.1410626,39.9563142 L56.2457908,39.9563142 C56.0602733,39.6111581 55.7051398,39.2454236 55.0266757,39.1618627 L32.3598659,39.1618627 C31.6817136,39.2454236 31.3268919,39.6105345 31.1410626,39.9563142 Z" id="Shape" fill="#76D5D4"></path>
                    <path d="M15.9654186,13.6346535 L8.7894766,13.6346535 C8.51603315,13.6346535 8.29465931,13.4129679 8.29465931,13.1398362 L8.29465931,7.44834611 C8.29465931,7.17490265 8.51634494,6.95352882 8.7894766,6.95352882 L15.9654186,6.95352882 C16.238862,6.95352882 16.4602359,7.17521445 16.4602359,7.44834611 L16.4602359,13.1398362 C16.4602359,13.4129679 16.238862,13.6346535 15.9654186,13.6346535 Z" id="Path" fill="#1E496C"></path>
                    <path d="M52.1756302,23.5325582 L33.8642725,23.5325582 C33.5908291,23.5325582 33.3694553,23.3108726 33.3694553,23.0377409 L33.3694553,17.3462508 C33.3694553,17.0728074 33.5911409,16.8514336 33.8642725,16.8514336 L52.1756302,16.8514336 C52.4490736,16.8514336 52.6704478,17.0731192 52.6704478,17.3462508 L52.6704478,23.0377409 C52.6707593,23.3111844 52.4490736,23.5325582 52.1756302,23.5325582 Z" id="Path" fill="#1E496C"></path>
                    <g id="Group-9" transform="translate(62.122253, 5.487317)">
                        <path d="M6.49311281,25.8302731 L6.49311281,4.66942893 L3.77208542,0.724921359 C3.67885897,0.589914499 3.43784211,0.589914499 3.34461566,0.724921359 L0.623588265,4.66942893 L0.623588265,25.8302731 L6.49311281,25.8302731 Z" id="Path" fill="#F9CFCF" fill-rule="nonzero"></path>
                        <path d="M2.13204828,25.8302731 L2.13204828,5.52343306 C1.60449261,5.52343306 1.17515209,4.59896346 0.623588265,4.67909455 L0.623588265,25.8302731 L2.13204828,25.8302731 L2.13204828,25.8302731 Z" id="Path" fill="#76D5D4"></path>
                        <path d="M4.9846528,25.8302731 L4.9846528,5.52343306 C4.70715602,5.52343306 4.62796031,5.38374929 3.85969957,4.76857947 C3.28506298,4.30868312 2.70450231,5.52343306 2.13236007,5.52343306 L2.13236007,25.8302731 L4.9846528,25.8302731 L4.9846528,25.8302731 Z" id="Path" fill="#76D5D4"></path>
                        <path d="M6.49311281,25.8302731 L6.49311281,4.67909455 C5.94154899,4.59896346 5.51189668,5.52343306 4.9846528,5.52343306 L4.9846528,25.8302731 L6.49311281,25.8302731 L6.49311281,25.8302731 Z" id="Path" fill="#76D5D4"></path>
                        <rect id="Rectangle" fill="#1E496C" x="0.623588265" y="25.8302731" width="5.86921275" height="2.2371229"></rect>
                        <path d="M5.23938861,32.56565 L1.87700068,32.56565 C1.1848177,32.56565 0.623588265,32.0044205 0.623588265,31.3122376 L0.623588265,28.067396 L6.49280115,28.067396 L6.49280115,31.3122376 C6.49311281,32.0044205 5.93188338,32.56565 5.23938861,32.56565 Z" id="Path" fill="#EDC0F2"></path>
                        <path d="M5.34820476,3.01006056 L3.77208542,0.725233153 C3.67885897,0.590226293 3.43784211,0.590226293 3.34461566,0.725233153 L1.76849632,3.01006056 L5.34820476,3.01006056 Z" id="Path" fill="#1E496C"></path>
                    </g>
                </g>
            </g>
        </g>
    </g>
</svg>