<?xml version="1.0" encoding="UTF-8"?>
<svg width="199px" height="191px" viewBox="0 0 199 191" version="1.1" xmlns="http://www.w3.org/2000/svg" xmlns:xlink="http://www.w3.org/1999/xlink">
    <!-- Generator: sketchtool 64 (101010) - https://sketch.com -->
    <title>69A122FF-57EC-430C-B8F6-C2258D1B822B</title>
    <desc>Created with sketchtool.</desc>
    <g id="Features-Page" stroke="none" stroke-width="1" fill="none" fill-rule="evenodd">
        <g id="UI/Web/Features-Page" transform="translate(-155.000000, -2268.000000)">
            <g id="Group-36" transform="translate(155.000000, 2268.000000)">
                <rect id="Rectangle-Copy-5" fill="#007FA3" opacity="0.245372954" x="0" y="18.5185185" width="168.518519" height="172.222222" rx="13.093902"></rect>
                <g id="Group-10-Copy" transform="translate(102.537037, 86.500000) rotate(90.000000) translate(-102.537037, -86.500000) translate(16.037037, 2.000000)">
                    <rect id="Rectangle" fill="#FFFFFF" x="0" y="0" width="172.091283" height="168.350168" rx="13.093902"></rect>
                    <rect id="Rectangle" fill="#FFB81C" opacity="0.49983724" x="14.9644594" y="102.880658" width="37.4111485" height="37.4111485" rx="5.43046203"></rect>
                    <rect id="Rectangle" fill="#FFB81C" opacity="0.49983724" x="67.3400673" y="102.880658" width="37.4111485" height="37.4111485" rx="5.43046203"></rect>
                    <rect id="Rectangle" fill="#D3EAE4" x="14.9644594" y="52.3756079" width="7.4822297" height="35.5405911" rx="3.74111485"></rect>
                    <rect id="Rectangle" fill="#FFB81C" opacity="0.49983724" x="27.1230827" y="18.7055743" width="7.4822297" height="69.2106248" rx="3.74111485"></rect>
                    <rect id="Rectangle-Copy-2" fill="#FFB81C" opacity="0.49983724" x="40.2169847" y="18.7055743" width="7.4822297" height="69.2106248" rx="3.74111485"></rect>
                    <rect id="Rectangle-Copy-3" fill="#FFB81C" opacity="0.49983724" x="94.46315" y="18.7055743" width="7.4822297" height="69.2106248" rx="3.74111485"></rect>
                    <rect id="Rectangle" fill="#D3EAE4" x="68.2753461" y="48.6344931" width="7.4822297" height="39.2817059" rx="3.74111485"></rect>
                    <rect id="Rectangle" fill="#FFB81C" opacity="0.49983724" x="81.369248" y="59.8578376" width="7.4822297" height="28.0583614" rx="3.74111485"></rect>
                    <rect id="Rectangle-Copy-4" fill="#FFB81C" opacity="0.49983724" x="144.968201" y="59.8578376" width="7.4822297" height="28.0583614" rx="3.74111485"></rect>
                    <rect id="Rectangle" fill="#D3EAE4" x="119.715675" y="41.1522634" width="7.4822297" height="46.7639357" rx="3.74111485"></rect>
                    <rect id="Rectangle" fill="#FFB81C" opacity="0.49983724" x="131.874299" y="18.7055743" width="7.4822297" height="69.2106248" rx="3.74111485"></rect>
                    <rect id="Rectangle" fill="#D3EAE4" x="119.715675" y="102.880658" width="37.4111485" height="37.4111485" rx="5.43046203"></rect>
                </g>
                <g id="Group-11-Copy-2" transform="translate(142.592593, 46.296296)">
                    <path d="M28.0583614,0 C43.5545665,0 56.1167228,12.5307509 56.1167228,27.9882155 C56.1167228,38.5908159 50.2063829,47.8164335 41.492861,52.5656783 L48.1000481,105.259215 L38.747261,98.5953543 L32.0666987,106.591987 L25.3861365,55.946645 L25.6711078,55.8765526 C25.3681476,55.8510908 25.0665577,55.8208273 24.7664148,55.7858387 L17.3694618,85.2974186 L12.025012,75.9680135 L1.33611245,81.2991021 L11.588123,50.6495931 C4.56598183,45.5626086 0,37.3073001 0,27.9882155 C0,12.5307509 12.5621563,0 28.0583614,0 Z" id="Combined-Shape" fill="#FFFFFF"></path>
                    <path d="M28.0583614,0 C43.5545665,0 56.1167228,12.5307509 56.1167228,27.9882155 C56.1167228,38.5908159 50.2063829,47.8164335 41.492861,52.5656783 L48.1000481,105.259215 L38.747261,98.5953543 L32.0666987,106.591987 L25.3861365,55.946645 L25.6711078,55.8765526 C25.3681476,55.8510908 25.0665577,55.8208273 24.7664148,55.7858387 L17.3694618,85.2974186 L12.025012,75.9680135 L1.33611245,81.2991021 L11.588123,50.6495931 C4.56598183,45.5626086 0,37.3073001 0,27.9882155 C0,12.5307509 12.5621563,0 28.0583614,0 Z" id="Combined-Shape" fill="#1E496C"></path>
                    <ellipse id="Oval" fill="#EA7600" cx="28.0583614" cy="27.9882155" rx="14.6972369" ry="14.6604938"></ellipse>
                </g>
            </g>
        </g>
    </g>
</svg>