<?xml version="1.0" encoding="UTF-8"?>
<svg width="101px" height="93px" viewBox="0 0 101 93" version="1.1" xmlns="http://www.w3.org/2000/svg" xmlns:xlink="http://www.w3.org/1999/xlink">
    <!-- Generator: sketchtool 64 (101010) - https://sketch.com -->
    <title>A2A0EBEA-A3F4-44B7-B215-85F1AF8D8CFE</title>
    <desc>Created with sketchtool.</desc>
    <g id="Features-Page" stroke="none" stroke-width="1" fill="none" fill-rule="evenodd">
        <g id="UI/Web/Features-Page" transform="translate(-811.000000, -2323.000000)">
            <g id="Group-27" transform="translate(811.000000, 2323.000000)">
                <path d="M97.3272358,61.1691057 L12.0203252,61.1691057 C10.3378049,61.1691057 8.97357724,59.804878 8.97357724,58.1223577 L8.97357724,3.04674797 C8.97357724,1.36422764 10.3378049,-7.46069873e-14 12.0203252,-7.46069873e-14 L97.3276423,-7.46069873e-14 C99.0101626,-7.46069873e-14 100.37439,1.36422764 100.37439,3.04674797 L100.37439,58.1227642 C100.37439,59.8052846 99.0097561,61.1691057 97.3272358,61.1691057 Z" id="Path" fill="#1E496C"></path>
                <path d="M12.7150407,56.4743902 L12.7150407,4.69471545 C12.7150407,4.05406504 13.2341463,3.53495935 13.8747967,3.53495935 L95.4727642,3.53495935 C96.1134146,3.53495935 96.6325203,4.05406504 96.6325203,4.69471545 L96.6325203,56.4747967 C96.6325203,57.1154472 96.1134146,57.6345528 95.4727642,57.6345528 L13.8747967,57.6345528 C13.2341463,57.6345528 12.7150407,57.1150407 12.7150407,56.4743902 Z" id="Path" fill="#FFFFFF" fill-rule="nonzero"></path>
                <path d="M13.4882114,51.6845528 C7.59227642,51.6845528 2.81300813,54.7097302 2.81300813,58.4411596 C2.81300813,61.1066501 2.81300813,63.1474484 2.81300813,65.6845528 L24.1634146,65.6845528 C24.1634146,63.1729198 24.1634146,61.0693435 24.1634146,58.4411596 C24.1634146,54.7097302 19.3837398,51.6845528 13.4882114,51.6845528 Z" id="Path" fill="#1E496C"></path>
                <g id="Group-26" transform="translate(0.000000, 27.813008)">
                    <path d="M13.4353659,25.5200743 C12.0142695,25.5200743 10.6759292,25.1717286 9.50002194,24.5585633 L9.50002194,26.0370116 L9.50002194,26.0373965 C9.50002194,28.2086872 11.2602262,29.9688914 13.4315168,29.9688914 C15.6028074,29.9688914 17.3630116,28.2086872 17.3630116,26.0373965 L17.3630116,26.0370116 L17.3630116,24.5624124 C16.1890289,25.1732683 14.853383,25.5200743 13.4353659,25.5200743 Z" id="Path" fill="#A0616A" fill-rule="nonzero"></path>
                    <path d="M21.9049775,13.9365218 L21.9049775,13.1436023 C21.9049775,8.50810279 18.1128209,4.75020343 13.4353659,4.75020343 L13.4353659,4.75020343 C8.757526,4.75020343 4.96575435,8.50810279 4.96575435,13.1436023 L4.96575435,13.9365218 C3.49500422,13.9068835 2.32833486,15.0781719 2.32833486,16.4946493 C2.32833486,18.00697 3.64858425,19.2028927 5.18938843,19.0400748 C6.0635244,22.7537092 9.42265456,25.5200743 13.4353659,25.5200743 C17.4484622,25.5200743 20.8072074,22.7533243 21.6813434,19.0400748 C23.220223,19.2028927 24.5423969,18.0088946 24.5423969,16.4946493 C24.5423969,15.077402 23.3749578,13.9064986 21.9049775,13.9365218 Z" id="Path" fill="#A0616A" fill-rule="nonzero"></path>
                    <path d="M13.4353659,26.2898991 C9.32719629,26.2898991 5.77830434,23.654789 4.60047252,19.8098995 C3.88376571,19.7433096 3.20054627,19.4488517 2.66051423,18.9630923 C1.95997373,18.3326058 1.55812523,17.4330657 1.55812523,16.4946493 C1.55812523,15.5966488 1.91262951,14.7544606 2.55658789,14.1232043 C3.01501851,13.6740116 3.58006985,13.3726252 4.19554472,13.2409852 L4.19554472,13.1436023 C4.19554472,8.09085779 8.34066591,3.98037871 13.434981,3.98037871 C18.5292961,3.98037871 22.6744173,8.09085779 22.6744173,13.1436023 L22.6744173,13.2409852 C23.2898921,13.3726252 23.8549435,13.6740116 24.3133741,14.1232043 C24.9573325,14.7544606 25.3118367,15.5962639 25.3118367,16.4946493 C25.3118367,17.4330657 24.9103732,18.3326058 24.2098327,18.9627074 C23.6694157,19.4488517 22.9861963,19.7429247 22.2694895,19.8098995 C21.0924275,23.654789 17.5431506,26.2898991 13.4353659,26.2898991 Z M5.19015825,18.2698651 C5.5435078,18.2698651 5.85644155,18.5127448 5.93881279,18.8634 C6.75444208,22.3291509 9.83720517,24.7498647 13.4353659,24.7498647 C17.0335266,24.7498647 20.1162897,22.3291509 20.931919,18.8634 C21.0208338,18.4861859 21.3737984,18.2336834 21.762175,18.2740992 C22.2856558,18.3299115 22.7914306,18.1678634 23.180577,17.8175931 C23.5624101,17.4738664 23.7729571,17.0038884 23.7729571,16.4942644 C23.7729571,16.013124 23.5824255,15.5616218 23.2363893,15.222514 C22.8861191,14.8791722 22.4184505,14.7017276 21.9207589,14.7055767 C21.7013588,14.7071163 21.5139065,14.6301339 21.3664851,14.4857917 C21.2186787,14.3410647 21.1355376,14.1428348 21.1355376,13.9361369 L21.1355376,13.1432174 C21.1355376,8.93958954 17.6813341,5.51964323 13.4357508,5.51964323 C9.19016749,5.51964323 5.73596398,8.93958954 5.73596398,13.1432174 L5.73596398,13.9361369 C5.73596398,14.1432197 5.65282291,14.3410647 5.50501656,14.4857917 C5.35721022,14.6305188 5.15513123,14.7136598 4.95074277,14.7055767 C4.44997179,14.695569 3.98538257,14.8787872 3.63549723,15.2221291 C3.28946102,15.5612369 3.0989294,16.0127391 3.0989294,16.4938795 C3.0989294,17.0038884 3.30909155,17.4738664 3.69130953,17.8175931 C4.0796861,18.1674784 4.58315146,18.3295266 5.10932666,18.2737143 C5.13588561,18.2714048 5.16321439,18.2698651 5.19015825,18.2698651 Z" id="Shape" fill="#A0616A" fill-rule="nonzero"></path>
                    <path d="M4.96575435,13.9365218 L4.96575435,13.1436023 C4.96575435,13.0981827 4.96844873,13.0535328 4.96921856,13.0081132 C3.939578,12.6339784 3.03272448,12.003107 2.32833486,11.1913268 L2.32833486,12.3656945 C2.32833486,13.2733178 2.52964403,14.1335969 2.88838234,14.906116 C3.36875297,14.3048829 4.11548295,13.9192007 4.96575435,13.9365218 Z" id="Path" fill="#252525"></path>
                    <path d="M21.5851153,10.8599173 C21.7918132,11.5862469 21.9049775,12.3514527 21.9049775,13.1432174 L21.9049775,13.9361369 C22.6647945,13.9207404 23.3418553,14.2275155 23.8206863,14.721743 C24.5443215,13.430747 24.9365472,11.9292038 24.9365472,10.2047965 C24.9365472,8.53543157 24.0358523,7.07699864 22.6940478,6.28715848 C22.7398524,6.59816766 22.7644868,6.91572036 22.7644868,7.23943165 C22.7644868,8.59355333 22.3264565,9.8445185 21.5851153,10.8599173 Z" id="Path" fill="#252525"></path>
                    <path d="M2.88838234,15.6755558 C2.85758936,15.6755558 2.82679637,15.6736313 2.79600338,15.6701671 C2.53118367,15.6382193 2.30216082,15.4715523 2.18976641,15.2298273 C1.77059685,14.3268229 1.55812523,13.3630024 1.55812523,12.3653095 L1.55812523,11.1909419 C1.55812523,10.8695401 1.75789474,10.5820106 2.05889621,10.4696162 C2.35912785,10.3564519 2.69900546,10.4434421 2.90955252,10.6863218 C3.53426528,11.4064929 4.33719246,11.9588421 5.2321137,12.284093 C5.54081341,12.3964874 5.74404714,12.6921001 5.73865836,13.0204304 L5.73519415,13.1432174 L5.73519415,13.9361369 C5.73519415,14.1432197 5.65205308,14.3410647 5.50424674,14.4857917 C5.35644039,14.6301339 5.15397649,14.7082711 4.94997294,14.7055767 C4.38068756,14.699803 3.84411973,14.9419129 3.48923054,15.3861017 C3.34257893,15.5704748 3.1204845,15.6755558 2.88838234,15.6755558 Z M3.12702801,12.9222777 C3.15089257,13.1528402 3.19053855,13.3799385 3.24442628,13.6039575 C3.42956912,13.4984915 3.62471969,13.4107315 3.82718359,13.3422171 C3.58584354,13.2159659 3.35220174,13.0754728 3.12702801,12.9222777 Z" id="Shape" fill="#252525"></path>
                    <path d="M23.8206863,15.4919526 C23.6136034,15.4919526 23.4138339,15.4084267 23.2675672,15.2579259 C22.912678,14.8914894 22.4288432,14.6928746 21.920374,14.7059616 C21.7163704,14.7148146 21.5139065,14.6312886 21.3661002,14.4861766 C21.2182938,14.3414496 21.1351527,14.1432197 21.1351527,13.9361369 L21.1351527,13.1432174 C21.1351527,12.4446015 21.037385,11.7471403 20.8449288,11.0708493 C20.7798786,10.8429812 20.8237586,10.597792 20.9634818,10.4061056 C21.6382332,9.48154615 21.9950469,8.38647048 21.9950469,7.23981657 C21.9950469,6.96267967 21.9742617,6.67976908 21.9326911,6.3999378 C21.889581,6.10663458 22.0185266,5.8144861 22.2641007,5.64897379 C22.5100597,5.48346147 22.8287671,5.47383866 23.0847338,5.62433939 C24.7021356,6.57661257 25.7067568,8.33181293 25.7067568,10.2051814 C25.7067568,12.0146544 25.2979799,13.6613095 24.4923583,15.0985722 C24.3734204,15.3106589 24.1613337,15.4542312 23.9199937,15.4854091 C23.8868912,15.4900281 23.8534038,15.4919526 23.8206863,15.4919526 Z M22.6748022,13.2406002 C22.9758036,13.3048806 23.264103,13.4099617 23.5339266,13.5531491 C23.9542509,12.5427541 24.1667225,11.4199648 24.1667225,10.2047965 C24.1667225,9.42534894 23.9215333,8.67438493 23.4873522,8.05005708 C23.3645651,9.10548677 23.0019777,10.1104929 22.4192204,11.0054142 C22.5885818,11.7063396 22.6748022,12.4238162 22.6748022,13.1428325 L22.6748022,13.2406002 Z" id="Shape" fill="#252525"></path>
                    <path d="M5.98230789,3.11971467 C4.77137361,4.62125779 3.14511889,5.60316921 1.33641571,5.77445521 C1.01308933,5.80486329 0.769439806,6.0823851 0.769439806,6.40725113 L0.769439806,7.01849196 C0.769439806,10.5381306 3.62241021,13.391101 7.14204883,13.391101 L16.6132023,13.391101 C20.0104388,13.391101 22.7641018,10.637053 22.7641018,7.24020148 L22.7641018,7.24020148 C22.7641018,3.66706005 19.8676363,0.770594414 16.2944949,0.770594414 L10.9230429,0.770594414 C9.0065643,0.770209631 7.18554392,1.62779437 5.98230789,3.11971467 Z" id="Path" fill="#252525"></path>
                    <path d="M16.6135873,14.1605408 L7.14243374,14.1605408 C3.20439539,14.1605408 5.77534736e-14,10.9565303 5.77534736e-14,7.01810705 L5.77534736e-14,6.40686622 C5.77534736e-14,5.6774573 0.543496251,5.07583928 1.26405219,5.00770979 C2.80447145,4.86221292 4.26752333,4.02002468 5.38299934,2.63626475 L5.38299934,2.63626475 C6.73404173,0.960741249 8.75329196,-4.7252842e-14 10.9234278,-4.7252842e-14 L16.2948798,-4.7252842e-14 C20.2868059,-4.7252842e-14 23.5346964,3.24789049 23.5346964,7.23943165 C23.5343115,11.0558377 20.4296084,14.1605408 16.6135873,14.1605408 Z M1.53964944,6.52695888 L1.53964944,7.01810705 C1.53964944,10.1074136 4.05312714,12.6208913 7.14243374,12.6208913 L16.6135873,12.6208913 C19.5808766,12.6208913 21.994662,10.2071059 21.994662,7.23981657 C21.994662,4.09662224 19.4376892,1.53964944 16.2944949,1.53964944 L10.9230429,1.53964944 C9.22134539,1.53964944 7.63858577,2.29176819 6.58123152,3.60277968 L6.58123152,3.60277968 C5.23365335,5.27445406 3.44766,6.30909848 1.53964944,6.52695888 Z" id="Shape" fill="#252525"></path>
                </g>
                <g id="Group-20" transform="translate(16.000000, 67.813008)">
                    <g id="Group-12" transform="translate(1.229880, 0.000000)">
                        <path d="M2.54649164,24.8023129 L16.8552378,24.8023129 L16.8552378,20.684482 C16.8552378,18.9909882 15.482367,17.6183779 13.7891337,17.6183779 L5.61259572,17.6183779 C3.91910194,17.6183779 2.54649164,18.9912486 2.54649164,20.684482 L2.54649164,24.8023129 L2.54649164,24.8023129 Z" id="Path-Copy" fill="#1E496C"></path>
                        <path d="M15.5782153,9.43037975 L15.5782153,8.89383758 C15.5782153,5.75714955 13.0121894,3.21430432 9.84711153,3.21430432 L9.84711153,3.21430432 C6.68177319,3.21430432 4.11600771,5.75714955 4.11600771,8.89383758 L4.11600771,9.43037975 C3.12080013,9.41006407 2.33135386,10.2028963 2.33135386,11.1613794 C2.33135386,12.1847164 3.22472261,12.9939574 4.26733344,12.8837839 C4.85883211,15.3964161 7.13184352,17.2685836 9.84711153,17.2685836 C12.56264,17.2685836 14.8353909,15.3964161 15.4268896,12.8837839 C16.4681982,12.9939574 17.3628693,12.1860186 17.3628693,11.1613794 C17.3631297,10.2023754 16.572902,9.41006407 15.5782153,9.43037975 Z" id="Path" fill="#252525"></path>
                        <path d="M9.84711153,17.7894984 C7.06725009,17.7894984 4.6658332,16.0064073 3.86883367,13.4046987 C3.38386206,13.3596395 2.92155024,13.1603896 2.55612856,12.8316925 C2.08209616,12.4050633 1.81017867,11.7963744 1.81017867,11.1613794 C1.81017867,10.5537324 2.05005991,9.98385164 2.48580507,9.55670157 C2.79600979,9.25274783 3.1783612,9.04880971 3.59483253,8.95973329 L3.59483253,8.89383758 C3.59483253,5.47481377 6.39969787,2.69338959 9.84685107,2.69338959 C13.2940043,2.69338959 16.0988696,5.47481377 16.0988696,8.89383758 L16.0988696,8.95973329 C16.5153409,9.04880971 16.8976923,9.25274783 17.2078971,9.55670157 C17.6436422,9.98385164 17.8835235,10.5534719 17.8835235,11.1613794 C17.8835235,11.7963744 17.6118664,12.4050633 17.137834,12.831432 C16.7721519,13.1603896 16.3098401,13.3593791 15.8248685,13.4046987 C15.0283899,16.0064073 12.626973,17.7894984 9.84711153,17.7894984 Z M4.26785435,12.3626087 C4.50695421,12.3626087 4.71870605,12.5269573 4.77444392,12.764234 C5.32635308,15.1093921 7.4123561,16.7474084 9.84711153,16.7474084 C12.281867,16.7474084 14.36787,15.1093921 14.9197791,12.764234 C14.9799448,12.5089858 15.219826,12.3376048 15.4815857,12.3654738 C15.8360681,12.4032401 16.1780487,12.2935875 16.441371,12.0565713 C16.6997448,11.8239829 16.8422149,11.5059645 16.8422149,11.1611189 C16.8422149,10.8355472 16.7132885,10.5300307 16.4791374,10.3005678 C16.2421212,10.0682398 15.9261864,9.9468667 15.5888941,9.95077356 C15.439652,9.95207585 15.3135907,9.89972392 15.2138355,9.8020524 C15.1138199,9.70412044 15.0575611,9.56998489 15.0575611,9.43011929 L15.0575611,8.89357712 C15.0575611,6.04912226 12.7202167,3.73495859 9.84737199,3.73495859 C6.97452727,3.73495859 4.63718289,6.04912226 4.63718289,8.89357712 L4.63718289,9.43011929 C4.63718289,9.57024535 4.5809241,9.70412044 4.48090848,9.8020524 C4.38089285,9.89998437 4.24571548,9.95546179 4.10584987,9.95077356 C3.76751576,9.94243892 3.45262281,10.0679794 3.21586706,10.3003073 C2.98171589,10.5297703 2.8527895,10.8352868 2.8527895,11.1608585 C2.8527895,11.5059645 2.99499922,11.8239829 3.25363338,12.0565713 C3.51669532,12.2933271 3.85737355,12.4027192 4.21315831,12.3652133 C4.23112986,12.3636506 4.24962234,12.3626087 4.26785435,12.3626087 Z" id="Shape" fill="#252525"></path>
                        <path d="M4.80413606,2.11100693 C3.9847372,3.1270511 2.88430484,3.79147784 1.66041569,3.90738136 C1.4416315,3.92795749 1.27676199,4.11574725 1.27676199,4.33557327 L1.27676199,4.74917956 C1.27676199,7.13080169 3.20727197,9.06131166 5.5888941,9.06131166 L11.997708,9.06131166 C14.2965047,9.06131166 16.1598166,7.19773923 16.1598166,4.899203 L16.1598166,4.899203 C16.1598166,2.4813773 14.199875,0.521435553 11.7820493,0.521435553 L8.14736678,0.521435553 C6.85054957,0.521175184 5.61806532,1.10147419 4.80413606,2.11100693 Z" id="Path" fill="#252525"></path>
                        <path d="M4.11600771,9.43037975 L4.11600771,8.89383758 C4.11600771,8.86310361 4.11783091,8.83289056 4.11835183,8.80215659 C3.42162838,8.54899203 2.80799083,8.12210241 2.33135386,7.57279783 L2.33135386,8.36745325 C2.33135386,8.98161171 2.46757306,9.56373392 2.71031932,10.0864718 C3.03537011,9.67963744 3.54065739,9.41865917 4.11600771,9.43037975 Z" id="Path" fill="#252525"></path>
                        <path d="M15.3617753,7.34854404 C15.5016409,7.84002709 15.5782153,8.35781633 15.5782153,8.89357712 L15.5782153,9.43011929 C16.0923582,9.41970099 16.5505027,9.62728551 16.8745116,9.96171277 C17.3641715,9.08813877 17.6295775,8.0720946 17.6295775,6.90524561 C17.6295775,5.77564203 17.0201073,4.78876908 16.1121529,4.25431057 C16.1431474,4.46476012 16.1598166,4.67963744 16.1598166,4.89868209 C16.1598166,5.81497109 15.8634162,6.66145752 15.3617753,7.34854404 Z" id="Path" fill="#252525"></path>
                        <path d="M11.997708,9.58196593 L5.5888941,9.58196593 C2.92415482,9.58196593 0.755847268,7.41391884 0.755847268,4.7489191 L0.755847268,4.33531281 C0.755847268,3.84174611 1.12361306,3.43465125 1.61118925,3.38855029 C2.65353962,3.29009741 3.64353805,2.7202167 4.39834349,1.78387248 L4.39834349,1.78387248 C5.31254884,0.650101578 6.67890816,-2.86190824e-14 8.14736678,-2.86190824e-14 L11.7820493,-2.86190824e-14 C14.4832526,-2.86190824e-14 16.6809918,2.19773923 16.6809918,4.89868209 C16.6809918,7.48111684 14.5801427,9.58196593 11.997708,9.58196593 Z M1.79767672,4.41657551 L1.79767672,4.7489191 C1.79767672,6.8393499 3.4984633,8.54013648 5.5888941,8.54013648 L11.997708,8.54013648 C14.0055738,8.54013648 15.6389019,6.90680836 15.6389019,4.89894254 C15.6389019,2.77204772 13.9086836,1.04182945 11.7817888,1.04182945 L8.14736678,1.04182945 C6.99588477,1.04182945 5.9248841,1.55076314 5.20940772,2.43788092 L5.20940772,2.43788092 C4.29754649,3.56904725 3.08902433,4.26915664 1.79767672,4.41657551 Z" id="Shape" fill="#252525"></path>
                        <path d="M2.71031932,10.6071261 C2.68948273,10.6071261 2.66864614,10.6058238 2.64780955,10.6034797 C2.46861489,10.5818617 2.31364276,10.4690837 2.23758921,10.3055165 C1.95395114,9.69448351 1.81017867,9.04229828 1.81017867,8.36719279 L1.81017867,7.57253738 C1.81017867,7.35505548 1.94535605,7.16049383 2.1490337,7.08444028 C2.3524509,7.00786581 2.5821743,7.06672918 2.72464448,7.23107777 C3.14736678,7.7183935 3.69068084,8.09214982 4.2962442,8.31223629 C4.50513101,8.38828984 4.6426525,8.58832109 4.63900609,8.81049122 L4.63666198,8.89357712 L4.63666198,9.43011929 C4.63666198,9.57024535 4.58040319,9.70412044 4.48038756,9.8020524 C4.38037193,9.89972392 4.24285045,9.95285722 4.10532896,9.95077356 C3.72089389,9.94712716 3.35703495,10.1106944 3.11689326,10.4112622 C3.01765901,10.5360213 2.86737511,10.6071261 2.71031932,10.6071261 Z M2.87180289,8.74407459 C2.88795124,8.90008856 2.91477835,9.0537584 2.95124238,9.20534459 C3.07652237,9.13397927 3.20857426,9.07459499 3.34557483,9.02823358 C3.18226806,8.94280356 3.02417044,8.84773663 2.87180289,8.74407459 Z" id="Shape" fill="#252525"></path>
                        <path d="M16.8745116,10.482888 C16.7343856,10.482888 16.5992082,10.4263687 16.5002344,10.3245299 C16.2600927,10.0768349 15.9337396,9.94582487 15.5886336,9.95103402 C15.4472053,9.95650362 15.3135907,9.90050529 15.213575,9.80231286 C15.1135594,9.70438089 15.0573006,9.57024535 15.0573006,9.43011929 L15.0573006,8.89357712 C15.0573006,8.42084701 14.9911444,7.94889827 14.8609158,7.49127468 C14.8168985,7.33708392 14.8465906,7.17117258 14.9411366,7.04146481 C15.3977184,6.41584623 15.6391624,5.67484503 15.6391624,4.89894254 C15.6391624,4.71141324 15.6250977,4.51997708 15.5969683,4.33062458 C15.5677971,4.13215607 15.6550503,3.93446893 15.8212221,3.82247226 C15.9876543,3.7104756 16.2035735,3.70396416 16.3765172,3.80580299 C17.470959,4.45017451 18.1507527,5.63786008 18.1507527,6.90550607 C18.1507527,8.12991613 17.874147,9.24415273 17.3290097,10.2167005 C17.2485284,10.3602125 17.1050164,10.4573631 16.9417096,10.4784602 C16.9193103,10.4815857 16.896911,10.482888 16.8745116,10.482888 Z M16.0991301,8.95947283 C16.3028077,9.00296921 16.4978903,9.07407407 16.6804709,9.17096421 C16.9648903,8.48726363 17.1086628,7.72750951 17.1086628,6.90524561 C17.1086628,6.37781945 16.9427515,5.86966714 16.6489556,5.44720529 C16.5658697,6.16137938 16.3205188,6.84143356 15.9261864,7.44699693 C16.0407876,7.92128978 16.0991301,8.40678231 16.0991301,8.89331666 L16.0991301,8.95947283 Z" id="Shape" fill="#252525"></path>
                    </g>
                    <path d="M11.0769912,24.8023129 L0.906912538,24.8023129 C0.406053029,24.8023129 3.94745964e-14,24.3962598 3.94745964e-14,23.8954003 L3.94745964e-14,23.8954003 C3.94745964e-14,23.3945408 0.406053029,22.9884878 0.906912538,22.9884878 L11.0769912,22.9884878 L11.0769912,24.8023129 Z" id="Path" fill="#76D5D4"></path>
                    <path d="M11.0769912,24.8023129 L21.2473303,24.8023129 C21.7481898,24.8023129 22.1542429,24.3962598 22.1542429,23.8954003 L22.1542429,23.8954003 C22.1542429,23.3945408 21.7481898,22.9884878 21.2473303,22.9884878 L11.0769912,22.9884878 L11.0769912,24.8023129 Z" id="Path" fill="#76D5D4"></path>
                </g>
                <g id="Group-22" transform="translate(74.000000, 67.813008)">
                    <path d="M20.0864718,13.9084232 L18.5904048,7.22508725 L11.0746471,7.22508725 L3.55888941,7.22508725 L2.06282232,13.9084232 C2.02531646,14.0764182 2.00630307,14.2483201 2.00630307,14.4204824 L2.00630307,14.4361098 C2.00630307,15.8084597 3.11897692,16.9211335 4.49132677,16.9211335 L11.0749075,16.9211335 L17.6584883,16.9211335 C19.0308382,16.9211335 20.143512,15.8087201 20.143512,14.4361098 L20.143512,14.4204824 C20.1432515,14.2483201 20.1242382,14.0764182 20.0864718,13.9084232 Z" id="Path" fill="#252525"></path>
                    <path d="M17.6582278,17.4420482 L4.49106631,17.4420482 C2.83377611,17.4420482 1.48512788,16.0936605 1.48512788,14.4361098 C1.48512788,14.2100328 1.50830859,13.9995833 1.55440954,13.7946033 L3.05047664,7.11126739 C3.1038704,6.87320936 3.31510132,6.70417253 3.55888941,6.70417253 L18.5904048,6.70417253 C18.8341928,6.70417253 19.0454238,6.87320936 19.0988175,7.11126739 L20.5948846,13.7946033 C20.6407251,13.9995833 20.6641663,14.2100328 20.6641663,14.4204824 C20.6639058,16.0934 19.315518,17.4420482 17.6582278,17.4420482 Z M3.97588165,7.74600198 L2.57097463,14.0222431 C2.54180341,14.1524717 2.52695734,14.2866073 2.52695734,14.4204824 C2.52695734,15.5190915 3.4080846,16.4002188 4.49106631,16.4002188 L17.6582278,16.4002188 C18.7412096,16.4002188 19.6223368,15.5190915 19.6223368,14.4361098 C19.6223368,14.2866073 19.6074908,14.1527322 19.5783195,14.0225035 C19.5783195,14.0225035 19.5783195,14.0225035 19.5783195,14.0225035 L18.1734125,7.74626244 L3.97588165,7.74626244 L3.97588165,7.74600198 Z" id="Shape" fill="#252525"></path>
                    <path d="M3.92014377,24.4548627 L18.2288899,24.4548627 L18.2288899,20.3370318 C18.2288899,18.6435381 16.8560192,17.2709277 15.1627859,17.2709277 L6.98624785,17.2709277 C5.29275408,17.2709277 3.92014377,18.6437985 3.92014377,20.3370318 L3.92014377,24.4548627 L3.92014377,24.4548627 Z" id="Path" fill="#1E496C"></path>
                    <path d="M9.74214721,0.520914726 L11.0746471,0.520914726 C11.0746471,0.604261082 11.0746471,6.78100745 11.0746471,6.70417253 C11.0746471,7.62853571 10.3253112,8.37787154 9.40094806,8.37787154 L3.55888941,8.37787154 L3.55888941,6.70417253 C3.55862895,3.28931604 6.32703027,0.520914726 9.74214721,0.520914726 Z" id="Path" fill="#252525"></path>
                    <path d="M12.407147,0.520914726 L11.0746471,0.520914726 C11.0746471,0.604261082 11.0746471,6.78100745 11.0746471,6.70417253 C11.0746471,7.62853571 11.8239829,8.37787154 12.7483461,8.37787154 L18.5904048,8.37787154 L18.5904048,6.70417253 C18.5904048,3.28931604 15.8220034,0.520914726 12.407147,0.520914726 Z" id="Path" fill="#252525"></path>
                    <path d="M18.5904048,8.89878627 L12.7483461,8.89878627 C12.0784498,8.89878627 11.4775746,8.59691618 11.0746471,8.12210241 C10.6717195,8.59691618 10.0708444,8.89878627 9.40094806,8.89878627 L3.55888941,8.89878627 C3.27134448,8.89878627 3.03797468,8.66541647 3.03797468,8.37787154 L3.03797468,6.70417253 C3.03797468,3.00750117 6.04547586,-4.63826508e-14 9.74214721,-4.63826508e-14 L12.407147,-4.63826508e-14 C16.1038183,-4.63826508e-14 19.1113195,3.00750117 19.1113195,6.70417253 L19.1113195,8.37787154 C19.1113195,8.66567693 18.8779497,8.89878627 18.5904048,8.89878627 Z M11.5955618,6.70417253 C11.5955618,7.33968849 12.1128301,7.85695682 12.7483461,7.85695682 L18.06949,7.85695682 L18.06949,6.70417253 C18.06949,3.58180966 15.5295098,1.04182945 12.407147,1.04182945 L9.74214721,1.04182945 C6.61978434,1.04182945 4.07980414,3.58180966 4.07980414,6.70417253 L4.07980414,7.85695682 L9.40094806,7.85695682 C10.036464,7.85695682 10.5537324,7.33968849 10.5537324,6.70417253 C10.5537324,6.4166276 10.7871022,6.1832578 11.0746471,6.1832578 C11.362192,6.1832578 11.5955618,6.4166276 11.5955618,6.70417253 Z" id="Shape" fill="#252525"></path>
                    <path d="M11.0772517,24.4548627 L0.906912538,24.4548627 C0.406053029,24.4548627 -1.47042872e-13,24.0488097 -1.47042872e-13,23.5479502 L-1.47042872e-13,23.5479502 C-1.47042872e-13,23.0470907 0.406053029,22.6410377 0.906912538,22.6410377 L11.0772517,22.6410377 L11.0772517,24.4548627 Z" id="Path" fill="#76D5D4"></path>
                    <path d="M11.0772517,24.4548627 L21.2475908,24.4548627 C21.7484503,24.4548627 22.1545033,24.0488097 22.1545033,23.5479502 L22.1545033,23.5479502 C22.1545033,23.0470907 21.7484503,22.6410377 21.2475908,22.6410377 L11.0772517,22.6410377 L11.0772517,24.4548627 Z" id="Path" fill="#76D5D4"></path>
                </g>
                <g id="Group-23" transform="translate(45.000000, 67.813008)">
                    <path d="M18.2340991,23.8023129 L3.92535292,23.8023129 L3.92535292,19.684482 C3.92535292,17.9909882 5.29822368,16.6183779 6.991457,16.6183779 L15.167995,16.6183779 C16.8614888,16.6183779 18.2340991,17.9912486 18.2340991,19.684482 L18.2340991,23.8023129 L18.2340991,23.8023129 Z" id="Path" fill="#1E496C"></path>
                    <path d="M11.0772517,24.8023129 L0.906912538,24.8023129 C0.406053029,24.8023129 -2.07241631e-14,24.3962598 -2.07241631e-14,23.8954003 L-2.07241631e-14,23.8954003 C-2.07241631e-14,23.3945408 0.406053029,22.9884878 0.906912538,22.9884878 L11.0772517,22.9884878 L11.0772517,24.8023129 Z" id="Path" fill="#76D5D4"></path>
                    <path d="M11.0772517,24.8023129 L21.2475908,24.8023129 C21.7484503,24.8023129 22.1545033,24.3962598 22.1545033,23.8954003 L22.1545033,23.8954003 C22.1545033,23.3945408 21.7484503,22.9884878 21.2475908,22.9884878 L11.0772517,22.9884878 L11.0772517,24.8023129 Z" id="Path" fill="#76D5D4"></path>
                    <path d="M16.81096,9.43037975 L16.81096,8.89383758 C16.81096,5.75714955 14.2449341,3.21430432 11.0798562,3.21430432 L11.0798562,3.21430432 C7.91451789,3.21430432 5.34875241,5.75714955 5.34875241,8.89383758 L5.34875241,9.43037975 C4.35354482,9.41032453 3.56409856,10.2028963 3.56409856,11.1613794 C3.56409856,12.1847164 4.45746731,12.9939574 5.50007814,12.8837839 C6.09157681,15.3966766 8.36458822,17.2685836 11.0798562,17.2685836 C13.7953847,17.2685836 16.0681356,15.3964161 16.6596343,12.8837839 C17.7009429,12.9939574 18.5956139,12.1860186 18.5956139,11.1613794 C18.5956139,10.2023754 17.8053863,9.41006407 16.81096,9.43037975 Z" id="Path" fill="#252525"></path>
                    <path d="M5.34875241,9.43037975 L5.34875241,8.89383758 C5.34875241,8.86310361 5.35057561,8.83289056 5.35109653,8.80215659 C4.65437308,8.54899203 4.04073553,8.12210241 3.56409856,7.57279783 L3.56409856,8.36745325 C3.56409856,8.98161171 3.70031776,9.56373392 3.94306402,10.0864718 C4.26811481,9.67963744 4.77340209,9.41865917 5.34875241,9.43037975 Z" id="Path" fill="#252525"></path>
                    <path d="M16.59452,7.34854404 C16.7343856,7.84002709 16.81096,8.35781633 16.81096,8.89357712 L16.81096,9.43011929 C17.3251029,9.41970099 17.7832474,9.62728551 18.1072563,9.96171277 C18.5969162,9.08813877 18.8623222,8.0720946 18.8623222,6.90524561 C18.8623222,5.77564203 18.252852,4.78876908 17.3448976,4.25431057 C17.3758921,4.46476012 17.3925613,4.67963744 17.3925613,4.89868209 C17.3925613,5.81497109 17.0961609,6.66145752 16.59452,7.34854404 Z" id="Path" fill="#252525"></path>
                    <path d="M3.94306402,10.6071261 C3.92222743,10.6071261 3.9016513,10.6058238 3.88081471,10.6034797 C3.70162004,10.5818617 3.54664791,10.4693442 3.47059436,10.3055165 C3.1869563,9.69474397 3.04292337,9.04255873 3.04292337,8.36719279 L3.04292337,7.57253738 C3.04292337,7.35505548 3.17810074,7.16049383 3.3817784,7.08444028 C3.5851956,7.00786581 3.814919,7.06672918 3.95738918,7.23107777 C4.38011148,7.7183935 4.92342554,8.09214982 5.5289889,8.31223629 C5.73787571,8.38828984 5.8753972,8.58832109 5.87175079,8.81049122 L5.86966714,8.89357712 L5.86966714,9.43011929 C5.86966714,9.57024535 5.81340835,9.70412044 5.71339272,9.8020524 C5.61337709,9.89972392 5.47689743,9.95259676 5.33833411,9.95077356 C4.94816898,9.94113664 4.59004011,10.1106944 4.35015888,10.4112622 C4.25040371,10.5360213 4.10011981,10.6071261 3.94306402,10.6071261 Z M4.10428713,8.74407459 C4.12069594,8.90008856 4.14726259,9.0537584 4.18398708,9.20534459 C4.30926707,9.13397927 4.4410585,9.07459499 4.57805907,9.02823358 C4.41501276,8.94280356 4.25665469,8.84773663 4.10428713,8.74407459 Z" id="Shape" fill="#252525"></path>
                    <path d="M18.1072563,10.482888 C17.9671303,10.482888 17.8316925,10.4263687 17.7329791,10.3242694 C17.4928374,10.0765745 17.165703,9.94295984 16.8213783,9.95103402 C16.682815,9.95702454 16.5463354,9.90050529 16.4463197,9.80231286 C16.3463041,9.70438089 16.2900453,9.57024535 16.2900453,9.43011929 L16.2900453,8.89357712 C16.2900453,8.42110746 16.2238891,7.94941918 16.0936605,7.49101422 C16.0496432,7.33682346 16.0793353,7.17091212 16.1738813,7.04120435 C16.6304631,6.41558577 16.8719071,5.67484503 16.8719071,4.89868209 C16.8719071,4.71037141 16.8578424,4.51919571 16.8299734,4.33036412 C16.8008022,4.13189561 16.8880554,3.93420847 17.0542272,3.8222118 C17.2206595,3.71021514 17.4365786,3.7037037 17.6095223,3.80554253 C18.7037037,4.44965359 19.3834974,5.63759962 19.3834974,6.90524561 C19.3834974,8.12965568 19.1068917,9.24389227 18.5617544,10.2164401 C18.4812731,10.3599521 18.3377611,10.4571027 18.1744543,10.4781997 C18.152055,10.4815857 18.1293952,10.482888 18.1072563,10.482888 Z M17.3318748,8.95947283 C17.5355524,9.00296921 17.730635,9.07407407 17.9132156,9.17096421 C18.197635,8.48726363 18.3414075,7.72776996 18.3414075,6.90550607 C18.3414075,6.37781945 18.1754962,5.86966714 17.8817003,5.44746575 C17.7988748,6.16163984 17.553524,6.84169401 17.1589311,7.44725738 C17.2735323,7.92207116 17.3318748,8.40756368 17.3318748,8.89357712 L17.3318748,8.95947283 Z" id="Shape" fill="#252525"></path>
                    <path d="M13.014794,0.520914726 C9.43975621,0.520914726 10.2091473,0.520914726 6.67161536,0.520914726 C4.54836693,0.520914726 2.80017711,2.1117883 2.5449289,4.16601552 C2.49283742,4.28843048 2.50950669,4.53404178 2.50950669,4.68328385 L2.50950669,4.68328385 C2.50950669,7.23732875 4.52258165,9.06105121 6.8216388,9.06105121 L6.88727405,9.06105121 C10.4623118,9.06105121 9.69318123,9.06105121 13.2304527,9.06105121 C15.3537011,9.06105121 17.1018909,7.47017763 17.3571391,5.41621087 C17.4113143,5.28884722 17.3925613,4.97473564 17.3925613,4.83330729 C17.3925613,2.54102203 15.5766526,0.520914726 13.014794,0.520914726 Z" id="Path" fill="#252525"></path>
                    <path d="M13.2304527,9.58196593 L6.82137834,9.58196593 C4.11131948,9.58196593 1.98833151,7.4300672 1.98833151,4.68328385 L1.98728968,4.60280252 C1.98416419,4.43428661 1.98051779,4.23008803 2.03495338,4.04724697 C2.34958587,1.73620878 4.33322915,-2.86190824e-14 6.67161536,-2.86190824e-14 L13.014794,-2.86190824e-14 C15.7615773,-2.86190824e-14 17.9134761,2.12298797 17.9134761,4.83304683 L17.9145179,4.91456998 C17.9192061,5.14767932 17.9181643,5.35786842 17.8668542,5.53341668 C17.5532635,7.84549669 15.5693598,9.58196593 13.2304527,9.58196593 Z M3.03354691,4.34625202 C3.02573319,4.3970412 3.02780506,4.51737251 3.02885868,4.58378913 L3.03016096,4.68302339 C3.03016096,6.84586133 4.69552534,8.53987602 6.82137834,8.53987602 L13.2304527,8.53987602 C15.0625098,8.53987602 16.6143147,7.16934938 16.8401313,5.35161744 C16.84508,5.31306975 16.8539355,5.27530343 16.8672188,5.2388394 C16.8778976,5.17320415 16.8745116,5.00729281 16.8732094,4.93488566 L16.8719071,4.83278637 C16.8719071,2.70693338 15.1778924,1.041569 13.0150544,1.041569 L6.67161536,1.041569 C4.83955826,1.041569 3.28775329,2.4123561 3.06193676,4.22982758 C3.05672761,4.26993801 3.04735115,4.30874616 3.03354691,4.34625202 Z" id="Shape" fill="#252525"></path>
                </g>
            </g>
        </g>
    </g>
</svg>