<?xml version="1.0" encoding="UTF-8"?>
<svg width="100px" height="100px" viewBox="0 0 100 100" version="1.1" xmlns="http://www.w3.org/2000/svg" xmlns:xlink="http://www.w3.org/1999/xlink">
    <!-- Generator: sketchtool 64 (101010) - https://sketch.com -->
    <title>85F273D4-F1E6-4051-A362-1A9C0BC24428</title>
    <desc>Created with sketchtool.</desc>
    <g id="Features-Page" stroke="none" stroke-width="1" fill="none" fill-rule="evenodd">
        <g id="UI/Web/Features-Page" transform="translate(-345.000000, -3337.000000)">
            <g id="Online-Exam" transform="translate(345.000000, 3337.000000)">
                <path d="M95.0819672,76.5709016 L4.91803279,76.5709016 C2.6545082,76.5709016 0.819672131,74.7360656 0.819672131,72.472541 L0.819672131,12.4315574 C0.819672131,10.1680328 2.6545082,8.33319672 4.91803279,8.33319672 L95.0819672,8.33319672 C97.3454918,8.33319672 99.1803279,10.1680328 99.1803279,12.4315574 L99.1803279,72.472541 C99.1803279,74.7360656 97.3454918,76.5709016 95.0819672,76.5709016 Z" id="Path" fill="#D3EAE4"></path>
                <path d="M4.30327869,58.6065574 L4.30327869,13.5245902 C4.30327869,12.6192623 5.03729508,11.8852459 5.94262295,11.8852459 L94.057377,11.8852459 C94.9627049,11.8852459 95.6967213,12.6192623 95.6967213,13.5245902 L95.6967213,58.6065574 C95.6967213,59.5118852 94.9627049,60.2459016 94.057377,60.2459016 L5.94262295,60.2459016 C5.03729508,60.2459016 4.30327869,59.5118852 4.30327869,58.6065574 Z" id="Path" fill="#FFFFFF"></path>
                <path d="M71.5860656,99.1803279 L28.4139344,99.1803279 C26.754918,99.1803279 25.4098361,97.8352459 25.4098361,96.1762295 L25.4098361,96.1733607 C25.4098361,94.5143443 26.754918,93.1692623 28.4139344,93.1692623 L71.5860656,93.1692623 C73.245082,93.1692623 74.5901639,94.5143443 74.5901639,96.1733607 L74.5901639,96.1762295 C74.5901639,97.8352459 73.245082,99.1803279 71.5860656,99.1803279 Z" id="Path" fill="#76D5D4"></path>
                <path d="M64.617623,76.5709016 C61.2963115,76.5709016 39.0836066,76.5709016 35.3827869,76.5709016 L30.7377049,93.1692623 C35.05,93.1692623 64.9508197,93.1692623 69.2622951,93.1692623 L64.617623,76.5709016 Z" id="Path" fill="#D3EAE4"></path>
                <path d="M0.819672131,72.472541 C0.819672131,74.7360656 2.6545082,76.5709016 4.91803279,76.5709016 L95.0819672,76.5709016 C97.3454918,76.5709016 99.1803279,74.7360656 99.1803279,72.472541 L99.1803279,63.6610656 L0.819672131,63.6610656 L0.819672131,72.472541 Z" id="Path" fill="#76D5D4"></path>
                <circle id="Oval" fill="#FFFFFF" fill-rule="nonzero" cx="50" cy="70.1159836" r="4.23483607"></circle>
                <path d="M95.0819672,77.3909836 L4.91803279,77.3909836 C2.20614754,77.3909836 0,75.1848361 0,72.4729508 L0,12.4315574 C0,9.71967213 2.20614754,7.51352459 4.91803279,7.51352459 L95.0819672,7.51352459 C97.7938525,7.51352459 100,9.71967213 100,12.4315574 L100,72.4729508 C100,75.1848361 97.7938525,77.3909836 95.0819672,77.3909836 Z M4.91803279,9.15286885 C3.1102459,9.15286885 1.63934426,10.6237705 1.63934426,12.4315574 L1.63934426,72.4729508 C1.63934426,74.2807377 3.1102459,75.7516393 4.91803279,75.7516393 L95.0819672,75.7516393 C96.8897541,75.7516393 98.3606557,74.2807377 98.3606557,72.4729508 L98.3606557,12.4315574 C98.3606557,10.6237705 96.8897541,9.15286885 95.0819672,9.15286885 L4.91803279,9.15286885 Z" id="Shape" fill="#76D5D4"></path>
                <path d="M94.057377,61.0655738 L5.94262295,61.0655738 C4.58647541,61.0655738 3.48360656,59.9627049 3.48360656,58.6065574 L3.48360656,13.5245902 C3.48360656,12.1684426 4.58647541,11.0655738 5.94262295,11.0655738 L94.057377,11.0655738 C95.4135246,11.0655738 96.5163934,12.1684426 96.5163934,13.5245902 L96.5163934,58.6065574 C96.5163934,59.9627049 95.4135246,61.0655738 94.057377,61.0655738 Z M5.94262295,12.704918 C5.49057377,12.704918 5.12295082,13.072541 5.12295082,13.5245902 L5.12295082,58.6065574 C5.12295082,59.0586066 5.49057377,59.4262295 5.94262295,59.4262295 L94.057377,59.4262295 C94.5094262,59.4262295 94.8770492,59.0586066 94.8770492,58.6065574 L94.8770492,13.5245902 C94.8770492,13.072541 94.5094262,12.704918 94.057377,12.704918 L5.94262295,12.704918 Z" id="Shape" fill="#76D5D4"></path>
                <path d="M71.5860656,100 L28.4139344,100 C26.3053279,100 24.5901639,98.2844262 24.5901639,96.1762295 C24.5901639,94.0651639 26.3057377,92.35 28.4139344,92.35 L71.5860656,92.35 C73.6946721,92.35 75.4098361,94.0651639 75.4098361,96.1733607 C75.4098361,98.2844262 73.6942623,100 71.5860656,100 Z M28.4139344,93.9893443 C27.2094262,93.9893443 26.2295082,94.9692623 26.2295082,96.1733607 C26.2295082,97.3807377 27.2094262,98.3606557 28.4139344,98.3606557 L71.5860656,98.3606557 C72.7905738,98.3606557 73.7704918,97.3807377 73.7704918,96.1762295 C73.7704918,94.9692623 72.7905738,93.9893443 71.5860656,93.9893443 L28.4139344,93.9893443 L28.4139344,93.9893443 Z" id="Shape" fill="#76D5D4"></path>
                <rect id="Rectangle" fill="#D3EAE4" x="22.3360656" y="11.8852459" width="55.3278689" height="48.3606557"></rect>
                <path d="M22.3360656,2.86885246 L22.3360656,11.8852459 L77.6639344,11.8852459 L77.6639344,2.86885246 C77.6639344,1.73729508 76.7463115,0.819672131 75.6147541,0.819672131 L24.3852459,0.819672131 C23.2536885,0.819672131 22.3360656,1.73729508 22.3360656,2.86885246 Z" id="Path" fill="#76D5D4"></path>
                <path d="M65.8196721,8.07377049 L62.8688525,8.07377049 C62.5971311,8.07377049 62.3770492,7.85368852 62.3770492,7.58196721 L62.3770492,5.12295082 C62.3770492,4.85122951 62.5971311,4.63114754 62.8688525,4.63114754 L65.8196721,4.63114754 C66.0913934,4.63114754 66.3114754,4.85122951 66.3114754,5.12295082 L66.3114754,7.58196721 C66.3114754,7.85368852 66.0913934,8.07377049 65.8196721,8.07377049 Z" id="Path" fill="#003057"></path>
                <path d="M73.6885246,8.07377049 L70.7377049,8.07377049 C70.4659836,8.07377049 70.2459016,7.85368852 70.2459016,7.58196721 L70.2459016,5.12295082 C70.2459016,4.85122951 70.4659836,4.63114754 70.7377049,4.63114754 L73.6885246,4.63114754 C73.9602459,4.63114754 74.1803279,4.85122951 74.1803279,5.12295082 L74.1803279,7.58196721 C74.1803279,7.85368852 73.9602459,8.07377049 73.6885246,8.07377049 Z" id="Path" fill="#003057"></path>
                <path d="M57.9508197,8.07377049 L55,8.07377049 C54.7282787,8.07377049 54.5081967,7.85368852 54.5081967,7.58196721 L54.5081967,5.12295082 C54.5081967,4.85122951 54.7282787,4.63114754 55,4.63114754 L57.9508197,4.63114754 C58.222541,4.63114754 58.442623,4.85122951 58.442623,5.12295082 L58.442623,7.58196721 C58.442623,7.85368852 58.222541,8.07377049 57.9508197,8.07377049 Z" id="Path" fill="#003057"></path>
                <path d="M72.3405738,20.7971311 L27.6594262,20.7971311 C26.6282787,20.7971311 25.7922131,19.9610656 25.7922131,18.929918 L25.7922131,18.929918 C25.7922131,17.8987705 26.6282787,17.0627049 27.6594262,17.0627049 L72.3409836,17.0627049 C73.3721311,17.0627049 74.2081967,17.8987705 74.2081967,18.929918 L74.2081967,18.929918 C74.2081967,19.9610656 73.3721311,20.7971311 72.3405738,20.7971311 Z" id="Path" fill="#003057"></path>
                <path d="M32.5618852,30.2131148 L28.6934426,30.2131148 C28.1594262,30.2131148 27.7262295,29.779918 27.7262295,29.2459016 L27.7262295,25.377459 C27.7262295,24.8434426 28.1594262,24.4102459 28.6934426,24.4102459 L32.5618852,24.4102459 C33.0959016,24.4102459 33.5290984,24.8434426 33.5290984,25.377459 L33.5290984,29.2459016 C33.5286885,29.779918 33.0959016,30.2131148 32.5618852,30.2131148 Z" id="Path" fill="#003057"></path>
                <path d="M72.3405738,38.6754098 L27.6594262,38.6754098 C26.6282787,38.6754098 25.7922131,37.8393443 25.7922131,36.8081967 L25.7922131,36.8081967 C25.7922131,35.7770492 26.6282787,34.9409836 27.6594262,34.9409836 L72.3409836,34.9409836 C73.3721311,34.9409836 74.2081967,35.7770492 74.2081967,36.8081967 L74.2081967,36.8081967 C74.2081967,37.8393443 73.3721311,38.6754098 72.3405738,38.6754098 Z" id="Path" fill="#003057"></path>
                <path d="M51.9040984,30.2131148 L48.0356557,30.2131148 C47.5016393,30.2131148 47.0684426,29.779918 47.0684426,29.2459016 L47.0684426,25.377459 C47.0684426,24.8434426 47.5016393,24.4102459 48.0356557,24.4102459 L51.9040984,24.4102459 C52.4381148,24.4102459 52.8713115,24.8434426 52.8713115,25.377459 L52.8713115,29.2459016 C52.8713115,29.779918 52.4381148,30.2131148 51.9040984,30.2131148 Z" id="Path" fill="#003057"></path>
                <path d="M71.2463115,30.2668033 L67.3778689,30.2668033 C66.8438525,30.2668033 66.4106557,29.8336066 66.4106557,29.2995902 L66.4106557,25.4311475 C66.4106557,24.8971311 66.8438525,24.4639344 67.3778689,24.4639344 L71.2463115,24.4639344 C71.7803279,24.4639344 72.2135246,24.8971311 72.2135246,25.4311475 L72.2135246,29.2995902 C72.2135246,29.8336066 71.7807377,30.2668033 71.2463115,30.2668033 Z" id="Path" fill="#003057"></path>
                <path d="M32.5618852,48.0909836 L28.6934426,48.0909836 C28.1594262,48.0909836 27.7262295,47.6577869 27.7262295,47.1237705 L27.7262295,43.2553279 C27.7262295,42.7213115 28.1594262,42.2881148 28.6934426,42.2881148 L32.5618852,42.2881148 C33.0959016,42.2881148 33.5290984,42.7213115 33.5290984,43.2553279 L33.5290984,47.1237705 C33.5286885,47.6577869 33.0959016,48.0909836 32.5618852,48.0909836 Z" id="Path" fill="#003057"></path>
                <path d="M51.9040984,48.0909836 L48.0356557,48.0909836 C47.5016393,48.0909836 47.0684426,47.6577869 47.0684426,47.1237705 L47.0684426,43.2553279 C47.0684426,42.7213115 47.5016393,42.2881148 48.0356557,42.2881148 L51.9040984,42.2881148 C52.4381148,42.2881148 52.8713115,42.7213115 52.8713115,43.2553279 L52.8713115,47.1237705 C52.8713115,47.6577869 52.4381148,48.0909836 51.9040984,48.0909836 Z" id="Path" fill="#003057"></path>
                <path d="M71.2463115,48.0909836 L67.3778689,48.0909836 C66.8438525,48.0909836 66.4106557,47.6577869 66.4106557,47.1237705 L66.4106557,43.2553279 C66.4106557,42.7213115 66.8438525,42.2881148 67.3778689,42.2881148 L71.2463115,42.2881148 C71.7803279,42.2881148 72.2135246,42.7213115 72.2135246,43.2553279 L72.2135246,47.1237705 C72.2135246,47.6577869 71.7807377,48.0909836 71.2463115,48.0909836 Z" id="Path" fill="#003057"></path>
                <path d="M49.6528689,29.427459 C49.6512295,29.427459 49.65,29.427459 49.6487705,29.427459 C49.2221311,29.4262295 48.820082,29.217623 48.5733607,28.8696721 L46.7590164,26.3139344 C46.4770492,25.9163934 46.570082,25.3655738 46.9680328,25.0831967 C47.3659836,24.8008197 47.9168033,24.8946721 48.1987705,25.2918033 L49.6557377,27.3438525 L53.4668033,22.0454918 C53.7516393,21.6495902 54.3032787,21.5598361 54.6987705,21.8442623 C55.0942623,22.1290984 55.1844262,22.6803279 54.9,23.0762295 L50.7282787,28.8762295 C50.4795082,29.2217213 50.0778689,29.427459 49.6528689,29.427459 Z" id="Path" fill="#EE936F"></path>
                <path d="M72.3405738,55.0684426 L27.6594262,55.0684426 C26.6282787,55.0684426 25.7922131,54.232377 25.7922131,53.2012295 L25.7922131,53.2012295 C25.7922131,52.170082 26.6282787,51.3340164 27.6594262,51.3340164 L72.3409836,51.3340164 C73.3721311,51.3340164 74.2081967,52.170082 74.2081967,53.2012295 L74.2081967,53.2012295 C74.2081967,54.2327869 73.3721311,55.0684426 72.3405738,55.0684426 Z" id="Path" fill="#003057"></path>
                <path d="M30.6618852,45.532377 L34.8180328,55.2565574 C34.9733607,55.620082 35.5028689,55.5745902 35.5938525,55.1893443 L36.5397541,51.1770492 C36.5754098,51.0258197 36.6934426,50.9077869 36.8446721,50.8721311 L40.8569672,49.9262295 C41.2418033,49.8356557 41.2877049,49.3057377 40.9241803,49.1504098 L31.2,44.9942623 C30.8598361,44.8491803 30.5163934,45.192623 30.6618852,45.532377 Z" id="Path" fill="#EE936F"></path>
                <path d="M77.6639344,61.0655738 L22.3360656,61.0655738 C21.8836066,61.0655738 21.5163934,60.6983607 21.5163934,60.2459016 L21.5163934,11.8852459 C21.5163934,11.4327869 21.8836066,11.0655738 22.3360656,11.0655738 L77.6639344,11.0655738 C78.1163934,11.0655738 78.4836066,11.4327869 78.4836066,11.8852459 L78.4836066,60.2459016 C78.4836066,60.6983607 78.1163934,61.0655738 77.6639344,61.0655738 Z M23.1557377,59.4262295 L76.8442623,59.4262295 L76.8442623,12.704918 L23.1557377,12.704918 L23.1557377,59.4262295 Z" id="Shape" fill="#76D5D4"></path>
                <path d="M77.6639344,12.704918 L22.3360656,12.704918 C21.8836066,12.704918 21.5163934,12.3377049 21.5163934,11.8852459 L21.5163934,2.86885246 C21.5163934,1.28729508 22.8032787,0 24.3852459,0 L75.6147541,0 C77.1967213,0 78.4836066,1.28729508 78.4836066,2.86885246 L78.4836066,11.8852459 C78.4836066,12.3377049 78.1163934,12.704918 77.6639344,12.704918 Z M23.1557377,11.0655738 L76.8442623,11.0655738 L76.8442623,2.86885246 C76.8442623,2.19098361 76.292623,1.63934426 75.6147541,1.63934426 L24.3852459,1.63934426 C23.707377,1.63934426 23.1557377,2.19098361 23.1557377,2.86885246 L23.1557377,11.0655738 Z" id="Shape" fill="#76D5D4"></path>
            </g>
        </g>
    </g>
</svg>