<?xml version="1.0" encoding="UTF-8"?>
<svg width="109px" height="59px" viewBox="0 0 109 59" version="1.1" xmlns="http://www.w3.org/2000/svg" xmlns:xlink="http://www.w3.org/1999/xlink">
    <!-- Generator: sketchtool 64 (101010) - https://sketch.com -->
    <title>BF781738-09E5-4D0F-A781-71168EDE6609</title>
    <desc>Created with sketchtool.</desc>
    <g id="Features-Page" stroke="none" stroke-width="1" fill="none" fill-rule="evenodd">
        <g id="UI/Web/Features-Page" transform="translate(-683.000000, -2311.000000)" fill="#005A70" fill-rule="nonzero">
            <path id="Path-10-Copy-3" d="M782.327933,2359.84471 L790.702601,2363.6017 L791.513619,2363.96553 L790.781536,2364.46969 L783.221956,2369.67572 L782.654775,2368.85213 L788.642,2364.729 L785.207633,2365.04106 L785.117068,2364.04517 L788.551,2363.733 L781.918621,2360.75711 L782.327933,2359.84471 Z M780.144679,2364.4015 L780.185684,2365.40066 C778.921138,2365.45256 777.663679,2365.48412 776.413308,2365.49535 L775.165299,2365.4998 L775.167167,2364.4998 C776.813675,2364.50288 778.472844,2364.47011 780.144679,2364.4015 Z M765.207462,2364.02968 C766.438491,2364.1454 767.677056,2364.23977 768.923159,2364.31279 L770.171775,2364.37868 L770.124848,2365.37758 C768.862071,2365.31826 767.606817,2365.23737 766.359087,2365.13492 L765.113866,2365.02529 L765.207462,2364.02968 Z M755.347922,2362.61497 C756.563983,2362.85169 757.787897,2363.06611 759.019667,2363.25824 L760.254056,2363.44294 L760.112202,2364.43283 C758.862865,2364.2538 757.621401,2364.05223 756.387812,2363.82814 L755.156848,2363.59655 L755.347922,2362.61497 Z M745.751248,2360.23483 C746.939248,2360.59513 748.135271,2360.9326 749.339319,2361.24724 L750.546042,2361.55427 L750.305717,2362.52496 C749.083767,2362.22243 747.869897,2361.89683 746.664111,2361.54815 L745.461021,2361.19178 L745.751248,2360.23483 Z M736.367712,2356.84411 C737.515111,2357.32784 738.670546,2357.78865 739.834021,2358.22653 L741.000177,2358.65676 L740.660167,2359.59718 C739.479087,2359.17016 738.30614,2358.71998 737.14133,2358.24663 L735.979233,2357.76557 L736.367712,2356.84411 Z M727.394513,2352.50404 C728.488952,2353.10395 729.591263,2353.68135 730.701448,2354.23625 L731.814257,2354.78363 L731.378592,2355.68374 C730.251741,2355.13833 729.132886,2354.5702 728.022031,2353.97936 L726.913842,2353.38094 L727.394513,2352.50404 Z M718.903169,2347.29022 C719.937309,2347.996 720.979031,2348.68006 722.028336,2349.3424 L723.080169,2349.99749 L722.556648,2350.8495 C721.492056,2350.19536 720.435184,2349.51933 719.386034,2348.82141 L718.339458,2348.1162 L718.903169,2347.29022 Z M710.958834,2341.31836 C711.927196,2342.116 712.90274,2342.89304 713.885467,2343.64949 L714.870588,2344.39906 L714.269515,2345.19826 C713.273137,2344.44888 712.28408,2343.67878 711.302342,2342.88795 L710.323045,2342.09022 L710.958834,2341.31836 Z M703.529673,2334.65787 C704.430269,2335.53352 705.337585,2336.38987 706.251623,2337.22694 L707.1679,2338.05758 L706.500036,2338.80186 C705.574039,2337.97094 704.65489,2337.12064 703.742588,2336.25097 L702.832568,2335.37484 L703.529673,2334.65787 Z M696.657212,2327.45453 C697.491806,2328.39517 698.332648,2329.31787 699.179737,2330.22265 L700.028909,2331.12145 L699.305153,2331.81151 C698.447688,2330.91217 697.596581,2329.99484 696.751831,2329.05953 L695.9092,2328.11822 L696.657212,2327.45453 Z M690.290153,2319.77462 C690.975822,2320.65813 691.666057,2321.52854 692.360858,2322.38584 L693.406484,2323.66197 L692.63641,2324.29993 C691.844516,2323.34403 691.058494,2322.37152 690.278343,2321.38239 L689.50015,2320.38773 L690.290153,2319.77462 Z M684.412193,2311.71699 C685.045846,2312.63986 685.683723,2313.55063 686.325823,2314.44929 L687.292139,2315.78819 L686.484081,2316.37729 C685.834039,2315.48564 685.188281,2314.58187 684.546806,2313.66597 L683.587807,2312.28301 L684.412193,2311.71699 Z"></path>
        </g>
    </g>
</svg>