<?xml version="1.0" encoding="UTF-8"?>
<svg width="109px" height="59px" viewBox="0 0 109 59" version="1.1" xmlns="http://www.w3.org/2000/svg" xmlns:xlink="http://www.w3.org/1999/xlink">
    <!-- Generator: sketchtool 64 (101010) - https://sketch.com -->
    <title>81EB349B-FEAF-49E8-88FE-9352A774A3AD</title>
    <desc>Created with sketchtool.</desc>
    <g id="Features-Page" stroke="none" stroke-width="1" fill="none" fill-rule="evenodd">
        <g id="UI/Web/Features-Page" transform="translate(-683.000000, -855.000000)" fill="#005A70" fill-rule="nonzero">
            <path id="Path-10-Copy" d="M782.327933,903.844715 L790.702601,907.601699 L791.513619,907.965532 L790.781536,908.469693 L783.221956,913.675723 L782.654775,912.85213 L788.642,908.729 L785.207633,909.041056 L785.117068,908.045165 L788.551,907.733 L781.918621,904.757109 L782.327933,903.844715 Z M780.144679,908.4015 L780.185684,909.400659 C778.921138,909.452556 777.663679,909.484119 776.413308,909.495349 L775.165299,909.4998 L775.167167,908.499802 C776.813675,908.502878 778.472844,908.470112 780.144679,908.4015 Z M765.207462,908.029675 C766.438491,908.145403 767.677056,908.239774 768.923159,908.312789 L770.171775,908.378685 L770.124848,909.377583 C768.862071,909.318259 767.606817,909.237373 766.359087,909.134923 L765.113866,909.025286 L765.207462,908.029675 Z M755.347922,906.61497 C756.563983,906.851689 757.787897,907.066113 759.019667,907.258243 L760.254056,907.442942 L760.112202,908.432829 C758.862865,908.253796 757.621401,908.052234 756.387812,907.828145 L755.156848,907.596546 L755.347922,906.61497 Z M745.751248,904.234826 C746.939248,904.595125 748.135271,904.932596 749.339319,905.247239 L750.546042,905.554272 L750.305717,906.524965 C749.083767,906.222433 747.869897,905.896828 746.664111,905.548151 L745.461021,905.191784 L745.751248,904.234826 Z M736.367712,900.84411 C737.515111,901.327844 738.670546,901.788648 739.834021,902.226526 L741.000177,902.656761 L740.660167,903.597183 C739.479087,903.170163 738.30614,902.71998 737.14133,902.246634 L735.979233,901.765567 L736.367712,900.84411 Z M727.394513,896.504039 C728.488952,897.103952 729.591263,897.681354 730.701448,898.236246 L731.814257,898.783634 L731.378592,899.683743 C730.251741,899.138332 729.132886,898.570202 728.022031,897.979357 L726.913842,897.38094 L727.394513,896.504039 Z M718.903169,891.290224 C719.937309,891.996005 720.979031,892.680061 722.028336,893.342396 L723.080169,893.997491 L722.556648,894.849504 C721.492056,894.195363 720.435184,893.519331 719.386034,892.821412 L718.339458,892.116196 L718.903169,891.290224 Z M710.958834,885.318357 C711.927196,886.116002 712.90274,886.893045 713.885467,887.649486 L714.870588,888.399061 L714.269515,889.198256 C713.273137,888.448882 712.28408,887.678781 711.302342,886.887955 L710.323045,886.09022 L710.958834,885.318357 Z M703.529673,878.657873 C704.430269,879.533517 705.337585,880.389873 706.251623,881.22694 L707.1679,882.057579 L706.500036,882.801862 C705.574039,881.970941 704.65489,881.120644 703.742588,880.250972 L702.832568,879.374842 L703.529673,878.657873 Z M696.657212,871.454532 C697.491806,872.395168 698.332648,873.317874 699.179737,874.22265 L700.028909,875.121449 L699.305153,875.811506 C698.447688,874.912168 697.596581,873.994841 696.751831,873.059527 L695.9092,872.118217 L696.657212,871.454532 Z M690.290153,863.774625 C690.975822,864.658132 691.666057,865.528537 692.360858,866.385842 L693.406484,867.661973 L692.63641,868.299928 C691.844516,867.344035 691.058494,866.371523 690.278343,865.382395 L689.50015,864.387728 L690.290153,863.774625 Z M684.412193,855.716986 C685.045846,856.639865 685.683723,857.550632 686.325823,858.449288 L687.292139,859.788189 L686.484081,860.377291 C685.834039,859.485644 685.188281,858.581869 684.546806,857.665965 L683.587807,856.283014 L684.412193,855.716986 Z"></path>
        </g>
    </g>
</svg>