<?xml version="1.0" encoding="UTF-8"?>
<svg width="133px" height="101px" viewBox="0 0 133 101" version="1.1" xmlns="http://www.w3.org/2000/svg" xmlns:xlink="http://www.w3.org/1999/xlink">
    <!-- Generator: sketchtool 64 (101010) - https://sketch.com -->
    <title>133C7DE5-6972-48AD-B952-608DD540651B</title>
    <desc>Created with sketchtool.</desc>
    <g id="Features-Page" stroke="none" stroke-width="1" fill="none" fill-rule="evenodd">
        <g id="UI/Web/Features-Page" transform="translate(-594.000000, -2551.000000)" fill="#005A70" fill-rule="nonzero">
            <path id="Path-6-Copy-6" d="M717.910253,2641.82983 L725.75897,2646.58879 L726.519053,2647.04965 L725.730496,2647.4599 L717.587753,2651.69614 L717.126228,2650.80901 L724.48,2646.982 L717.39178,2642.68493 L717.910253,2641.82983 Z M715.876053,2646.17525 L716.713194,2646.21698 L716.713194,2646.21698 L717.548471,2646.25617 L720.86033,2646.36442 L720.82766,2647.36389 L717.509469,2647.25538 L716.665688,2647.21584 L716.665688,2647.21584 L715.824788,2647.17393 L715.876053,2646.17525 Z M706.059672,2645.49145 C707.153053,2645.58851 708.254482,2645.679 709.36396,2645.76292 L711.034213,2645.88387 L710.965169,2646.88148 C709.843353,2646.80384 708.729574,2646.7196 707.623831,2646.62875 L705.971245,2646.48753 L706.059672,2645.49145 Z M696.121013,2644.39892 C697.208563,2644.54258 698.304859,2644.67909 699.409899,2644.80846 L701.074019,2644.99717 L700.964929,2645.9912 C699.846304,2645.86844 698.736412,2645.73849 697.635252,2645.60137 L695.990061,2645.39031 L696.121013,2644.39892 Z M686.232369,2642.85229 C687.310935,2643.04858 688.399034,2643.23711 689.496666,2643.41785 L691.150263,2643.68312 L690.995916,2644.67114 C689.883278,2644.49732 688.780161,2644.31568 687.686564,2644.12621 L686.05331,2643.83612 L686.232369,2642.85229 Z M676.45957,2640.79837 C677.524799,2641.05399 678.600441,2641.30111 679.686494,2641.53975 L681.323384,2641.89133 L681.117967,2642.87 C680.01531,2642.63856 678.923056,2642.39857 677.841203,2642.15001 L676.226226,2641.77076 L676.45957,2640.79837 Z M666.818569,2638.16561 C667.995858,2638.52861 669.187567,2638.87985 670.393697,2639.21933 L671.604633,2639.55489 L671.341461,2640.51963 C670.117857,2640.18585 668.908667,2639.8402 667.713894,2639.48269 L666.523925,2639.12122 L666.818569,2638.16561 Z M657.391329,2634.8879 C658.538621,2635.33522 659.701668,2635.7697 660.880471,2636.19133 L662.064526,2636.60869 L661.736429,2637.55333 C660.53832,2637.1372 659.355975,2636.70809 658.189395,2636.266 L657.028071,2635.81959 L657.391329,2634.8879 Z M648.254182,2630.89182 C649.361419,2631.43291 650.485831,2631.96 651.62742,2632.47308 L652.774735,2632.98151 L652.374383,2633.89787 C651.211621,2633.38986 650.066068,2632.86769 648.937726,2632.33135 L647.815122,2631.79028 L648.254182,2630.89182 Z M639.506425,2626.10865 C640.558801,2626.75093 641.629714,2627.37809 642.719167,2627.99013 L643.814799,2628.59714 L643.335344,2629.47471 C642.223062,2628.86702 641.12939,2628.24401 640.05433,2627.60568 L638.985474,2626.96224 L639.506425,2626.10865 Z M631.284869,2620.49759 C632.266855,2621.2462 633.268592,2621.9787 634.290083,2622.69507 L635.318159,2623.40608 L634.754723,2624.23224 C633.709191,2623.51919 632.683534,2622.7898 631.677757,2622.04405 L630.678605,2621.29286 L631.284869,2620.49759 Z M623.762884,2614.0816 C624.658006,2614.9361 625.57376,2615.77373 626.510149,2616.59451 L627.453417,2617.40967 L626.804879,2618.17085 C625.843998,2617.35217 624.903933,2616.51639 623.984687,2615.66351 L623.072381,2614.80493 L623.762884,2614.0816 Z M616.964042,2606.79199 C617.75703,2607.74869 618.571117,2608.68811 619.406307,2609.61025 L620.24853,2610.52664 L619.517209,2611.20868 C618.657992,2610.28737 617.82011,2609.34856 617.003567,2608.39227 L616.194137,2607.43014 L616.964042,2606.79199 Z M611.06654,2598.76413 C611.745046,2599.81013 612.444516,2600.83892 613.16495,2601.85051 L613.892374,2602.85638 L613.086347,2603.44826 C612.343349,2602.43643 611.621582,2601.40724 610.921046,2600.36068 L610.227587,2599.30833 L611.06654,2598.76413 Z M606.148896,2590.1558 C606.707727,2591.27341 607.28682,2592.37436 607.886176,2593.45866 L608.492286,2594.53741 L607.623906,2595.03331 C607.004178,2593.94809 606.404978,2592.84611 605.826307,2591.72736 L605.254477,2590.60303 L606.148896,2590.1558 Z M602.164321,2581.00319 C602.605308,2582.178 603.065549,2583.33697 603.545042,2584.4801 L604.030951,2585.61795 L603.113854,2586.01661 C602.616427,2584.87231 602.138492,2583.71211 601.68005,2582.53601 L601.228105,2581.35462 L602.164321,2581.00319 Z M599.120003,2571.53641 C599.448889,2572.74865 599.795681,2573.94614 600.160378,2575.12889 L600.531043,2576.30672 L599.578925,2576.61246 C599.198775,2575.42858 598.836733,2574.22995 598.492795,2573.01656 L598.154891,2571.79825 L599.120003,2571.53641 Z M596.922676,2561.80826 C597.149197,2563.04518 597.392218,2564.26851 597.651737,2565.47826 L597.916755,2566.68348 L596.941208,2566.90327 C596.668454,2565.69265 596.412359,2564.46846 596.172921,2563.23069 L595.939035,2561.98839 L596.922676,2561.80826 Z M595.497107,2551.94629 C595.632434,2553.19883 595.782915,2554.4389 595.948549,2555.66649 L596.119234,2556.88992 L595.129462,2557.03258 C594.952452,2555.80446 594.790718,2554.5639 594.64426,2553.31088 L594.502893,2552.05371 L595.497107,2551.94629 Z"></path>
        </g>
    </g>
</svg>