<?xml version="1.0" encoding="UTF-8"?>
<svg width="133px" height="69px" viewBox="0 0 133 69" version="1.1" xmlns="http://www.w3.org/2000/svg" xmlns:xlink="http://www.w3.org/1999/xlink">
    <!-- Generator: sketchtool 64 (101010) - https://sketch.com -->
    <title>9014F3D0-DC0B-4C1E-BCAF-CC00C6F3942C</title>
    <desc>Created with sketchtool.</desc>
    <g id="Features-Page" stroke="none" stroke-width="1" fill="none" fill-rule="evenodd">
        <g id="UI/Web/Features-Page" transform="translate(-878.000000, -970.000000)" fill="#005A70" fill-rule="nonzero">
            <path id="Path-6-Copy-2" d="M1002.85386,1028.90806 L1010.7544,1033.58047 L1011.51951,1034.03296 L1010.73551,1034.45184 L1002.63981,1038.77731 L1002.16856,1037.89531 L1009.479,1033.988 L1002.34482,1029.7688 L1002.85386,1028.90806 Z M1003.27321,1033.35399 L1008.27204,1033.4624 L1008.25035,1034.46217 L1003.25153,1034.35375 L1003.27321,1033.35399 Z M993.2862,1032.95599 C994.382785,1033.01403 995.487294,1033.06777 996.599727,1033.11721 L998.27432,1033.18815 L998.234056,1034.18734 C997.110915,1034.14208 995.995689,1034.09252 994.888379,1034.03864 L993.23335,1033.95459 L993.2862,1032.95599 Z M983.302214,1032.29125 C984.395902,1032.3797 985.498232,1032.46347 986.609205,1032.54256 L988.282146,1032.65768 L988.215838,1033.65548 C987.093059,1033.58087 985.978912,1033.50155 984.873397,1033.41754 L983.221598,1033.28799 L983.302214,1032.29125 Z M973.344586,1031.32955 C974.433691,1031.45272 975.532278,1031.57075 976.640347,1031.68364 L978.309563,1031.84913 L978.213587,1032.84451 C977.09241,1032.7364 975.980703,1032.62314 974.878466,1032.50472 L973.232212,1032.32322 L973.344586,1031.32955 Z M963.435288,1030.02788 C964.517697,1030.19097 965.610582,1030.34839 966.713943,1030.50014 L968.37684,1030.72351 L968.246807,1031.71502 C967.128779,1031.56839 966.021212,1031.41606 964.924107,1031.25803 L963.286294,1031.01671 L963.435288,1030.02788 Z M953.578263,1028.32953 C954.651062,1028.53906 955.735527,1028.74228 956.831656,1028.93919 L958.484599,1029.22982 L958.31504,1030.21534 C957.202351,1030.0239 956.101312,1029.82611 955.011921,1029.62197 L953.386571,1029.31098 L953.578263,1028.32953 Z M943.831293,1026.17248 C945.022616,1026.46935 946.230511,1026.75726 947.454981,1027.03621 L948.684975,1027.31217 L948.469238,1028.28863 C947.227232,1028.01422 946.001778,1027.73078 944.792877,1027.4383 L943.589493,1027.14281 L943.831293,1026.17248 Z M934.214618,1023.46823 C935.38349,1023.8375 936.571136,1024.19662 937.777555,1024.54561 L938.990232,1024.89121 L938.719927,1025.85399 C937.493283,1025.5096 936.285395,1025.15496 935.096261,1024.79008 L933.913378,1024.42178 L934.214618,1023.46823 Z M924.820611,1020.12117 C925.957185,1020.57656 927.115208,1021.02039 928.294681,1021.45265 L929.481305,1021.88105 L929.146233,1022.82324 C927.943255,1022.39543 926.761719,1021.95588 925.601625,1021.50461 L924.448679,1021.04943 L924.820611,1020.12117 Z M915.838189,1016.0546 C916.926501,1016.61058 918.039369,1017.15334 919.176793,1017.68286 L920.322403,1018.20798 L919.911057,1019.11945 C918.746333,1018.59382 917.606187,1018.05473 916.490621,1017.50217 L915.383249,1016.94512 L915.838189,1016.0546 Z M907.207319,1011.02916 C908.293266,1011.7503 909.411318,1012.45416 910.561479,1013.14074 L911.43012,1013.65243 L910.927554,1014.51697 C909.747702,1013.83111 908.600063,1013.12759 907.484643,1012.40641 L906.654118,1011.86221 L907.207319,1011.02916 Z M899.296847,1004.97344 C900.273717,1005.83863 901.286994,1006.68421 902.336693,1007.51019 L903.130795,1008.12599 L902.523563,1008.92052 C901.440451,1008.09272 900.394013,1007.24483 899.384263,1006.37682 L898.63383,1005.72205 L899.296847,1004.97344 Z M892.443761,997.862297 C893.272373,998.878089 894.141123,999.872209 895.050029,1000.84467 L895.739239,1001.56995 L895.020032,1002.26474 C894.075578,1001.28711 893.171767,1000.28724 892.308614,999.265138 L891.668874,998.494396 L892.443761,997.862297 Z M886.858946,989.616894 C887.497012,990.771537 888.177123,991.903359 888.899295,993.01238 L889.448811,993.839871 L888.62077,994.40054 C887.864073,993.282988 887.150152,992.142142 886.479021,990.97802 L885.983696,990.100565 L886.858946,989.616894 Z M882.869437,980.552174 C883.295393,981.813397 883.762855,983.051965 884.271827,984.267901 L884.661338,985.175609 L883.745937,985.578152 C883.206673,984.351841 882.709715,983.102622 882.255065,981.830519 L881.922011,980.87215 L882.869437,980.552174 Z M880.493494,970.9196 C880.708838,972.241379 880.962708,973.542053 881.255097,974.821638 L881.481612,975.777372 L880.510467,976.015864 C880.193743,974.726155 879.916223,973.415308 879.677899,972.083338 L879.506506,971.0804 L880.493494,970.9196 Z"></path>
        </g>
    </g>
</svg>