<?xml version="1.0" encoding="UTF-8"?>
<svg width="133px" height="69px" viewBox="0 0 133 69" version="1.1" xmlns="http://www.w3.org/2000/svg" xmlns:xlink="http://www.w3.org/1999/xlink">
    <!-- Generator: sketchtool 64 (101010) - https://sketch.com -->
    <title>0453755C-9069-4849-A7C2-0B1F952BFBA2</title>
    <desc>Created with sketchtool.</desc>
    <g id="Features-Page" stroke="none" stroke-width="1" fill="none" fill-rule="evenodd">
        <g id="UI/Web/Features-Page" transform="translate(-878.000000, -2426.000000)" fill="#005A70" fill-rule="nonzero">
            <path id="Path-6-Copy-5" d="M1002.85386,2484.90806 L1010.7544,2489.58047 L1011.51951,2490.03296 L1010.73551,2490.45184 L1002.63981,2494.77731 L1002.16856,2493.89531 L1009.479,2489.988 L1002.34482,2485.7688 L1002.85386,2484.90806 Z M1003.27321,2489.35399 L1008.27204,2489.4624 L1008.25035,2490.46217 L1003.25153,2490.35375 L1003.27321,2489.35399 Z M993.2862,2488.95599 C994.382785,2489.01403 995.487294,2489.06777 996.599727,2489.11721 L998.27432,2489.18815 L998.234056,2490.18734 C997.110915,2490.14208 995.995689,2490.09252 994.888379,2490.03864 L993.23335,2489.95459 L993.2862,2488.95599 Z M983.302214,2488.29125 C984.395902,2488.3797 985.498232,2488.46347 986.609205,2488.54256 L988.282146,2488.65768 L988.215838,2489.65548 C987.093059,2489.58087 985.978912,2489.50155 984.873397,2489.41754 L983.221598,2489.28799 L983.302214,2488.29125 Z M973.344586,2487.32955 C974.433691,2487.45272 975.532278,2487.57075 976.640347,2487.68364 L978.309563,2487.84913 L978.213587,2488.84451 C977.09241,2488.7364 975.980703,2488.62314 974.878466,2488.50472 L973.232212,2488.32322 L973.344586,2487.32955 Z M963.435288,2486.02788 C964.517697,2486.19097 965.610582,2486.34839 966.713943,2486.50014 L968.37684,2486.72351 L968.246807,2487.71502 C967.128779,2487.56839 966.021212,2487.41606 964.924107,2487.25803 L963.286294,2487.01671 L963.435288,2486.02788 Z M953.578263,2484.32953 C954.651062,2484.53906 955.735527,2484.74228 956.831656,2484.93919 L958.484599,2485.22982 L958.31504,2486.21534 C957.202351,2486.0239 956.101312,2485.82611 955.011921,2485.62197 L953.386571,2485.31098 L953.578263,2484.32953 Z M943.831293,2482.17248 C945.022616,2482.46935 946.230511,2482.75726 947.454981,2483.03621 L948.684975,2483.31217 L948.469238,2484.28863 C947.227232,2484.01422 946.001778,2483.73078 944.792877,2483.4383 L943.589493,2483.14281 L943.831293,2482.17248 Z M934.214618,2479.46823 C935.38349,2479.8375 936.571136,2480.19662 937.777555,2480.54561 L938.990232,2480.89121 L938.719927,2481.85399 C937.493283,2481.5096 936.285395,2481.15496 935.096261,2480.79008 L933.913378,2480.42178 L934.214618,2479.46823 Z M924.820611,2476.12117 C925.957185,2476.57656 927.115208,2477.02039 928.294681,2477.45265 L929.481305,2477.88105 L929.146233,2478.82324 C927.943255,2478.39543 926.761719,2477.95588 925.601625,2477.50461 L924.448679,2477.04943 L924.820611,2476.12117 Z M915.838189,2472.0546 C916.926501,2472.61058 918.039369,2473.15334 919.176793,2473.68286 L920.322403,2474.20798 L919.911057,2475.11945 C918.746333,2474.59382 917.606187,2474.05473 916.490621,2473.50217 L915.383249,2472.94512 L915.838189,2472.0546 Z M907.207319,2467.02916 C908.293266,2467.7503 909.411318,2468.45416 910.561479,2469.14074 L911.43012,2469.65243 L910.927554,2470.51697 C909.747702,2469.83111 908.600063,2469.12759 907.484643,2468.40641 L906.654118,2467.86221 L907.207319,2467.02916 Z M899.296847,2460.97344 C900.273717,2461.83863 901.286994,2462.68421 902.336693,2463.51019 L903.130795,2464.12599 L902.523563,2464.92052 C901.440451,2464.09272 900.394013,2463.24483 899.384263,2462.37682 L898.63383,2461.72205 L899.296847,2460.97344 Z M892.443761,2453.8623 C893.272373,2454.87809 894.141123,2455.87221 895.050029,2456.84467 L895.739239,2457.56995 L895.020032,2458.26474 C894.075578,2457.28711 893.171767,2456.28724 892.308614,2455.26514 L891.668874,2454.4944 L892.443761,2453.8623 Z M886.858946,2445.61689 C887.497012,2446.77154 888.177123,2447.90336 888.899295,2449.01238 L889.448811,2449.83987 L888.62077,2450.40054 C887.864073,2449.28299 887.150152,2448.14214 886.479021,2446.97802 L885.983696,2446.10057 L886.858946,2445.61689 Z M882.869437,2436.55217 C883.295393,2437.8134 883.762855,2439.05197 884.271827,2440.2679 L884.661338,2441.17561 L883.745937,2441.57815 C883.206673,2440.35184 882.709715,2439.10262 882.255065,2437.83052 L881.922011,2436.87215 L882.869437,2436.55217 Z M880.493494,2426.9196 C880.708838,2428.24138 880.962708,2429.54205 881.255097,2430.82164 L881.481612,2431.77737 L880.510467,2432.01586 C880.193743,2430.72615 879.916223,2429.41531 879.677899,2428.08334 L879.506506,2427.0804 L880.493494,2426.9196 Z"></path>
        </g>
    </g>
</svg>