<?xml version="1.0" encoding="UTF-8"?>
<svg width="110px" height="100px" viewBox="0 0 110 100" version="1.1" xmlns="http://www.w3.org/2000/svg" xmlns:xlink="http://www.w3.org/1999/xlink">
    <!-- Generator: sketchtool 64 (101010) - https://sketch.com -->
    <title>0EE65694-C009-40D6-BEB6-D5095749B1A6</title>
    <desc>Created with sketchtool.</desc>
    <g id="Features-Page" stroke="none" stroke-width="1" fill="none" fill-rule="evenodd">
        <g id="UI/Web/Features-Page" transform="translate(-202.000000, -1461.000000)">
            <g id="Research" transform="translate(202.000000, 1461.000000)">
                <path d="M97.1828829,91.4144144 L6.64279279,91.4144144 L6.64279279,35.0513514 C6.64279279,33.172973 8.16531532,31.6504505 10.0436937,31.6504505 L93.781982,31.6504505 C95.6603604,31.6504505 97.1828829,33.172973 97.1828829,35.0513514 L97.1828829,91.4144144 Z" id="Path" fill="#D3EAE4"></path>
                <path d="M98.6738739,99.0662162 L5.1518018,99.0662162 C2.80405405,99.0662162 0.900900901,97.1630631 0.900900901,94.8153153 L0.900900901,92.6896396 C0.900900901,91.9851351 1.47207207,91.4144144 2.17612613,91.4144144 L101.649099,91.4144144 C102.353604,91.4144144 102.924324,91.9855856 102.924324,92.6896396 L102.924324,94.8153153 C102.924324,97.1630631 101.021622,99.0662162 98.6738739,99.0662162 Z" id="Path" fill="#76D5D4"></path>
                <path d="M97.1828829,92.3153153 L6.64279279,92.3153153 C6.1454955,92.3153153 5.74189189,91.9117117 5.74189189,91.4144144 L5.74189189,35.0513514 C5.74189189,32.6792793 7.67162162,30.7495495 10.0436937,30.7495495 L93.781982,30.7495495 C96.1540541,30.7495495 98.0837838,32.6792793 98.0837838,35.0513514 L98.0837838,91.4144144 C98.0837838,91.9117117 97.6806306,92.3153153 97.1828829,92.3153153 Z M7.54369369,90.5135135 L96.281982,90.5135135 L96.281982,35.0513514 C96.281982,33.672973 95.1608108,32.5513514 93.781982,32.5513514 L10.0436937,32.5513514 C8.66531532,32.5513514 7.54369369,33.672973 7.54369369,35.0513514 L7.54369369,90.5135135 Z" id="Shape" fill="#76D5D4"></path>
                <path d="M10.4689189,86.6878378 L10.4689189,38.5031532 C10.4689189,38.0054054 10.8720721,37.6022523 11.3698198,37.6022523 L92.4563063,37.6022523 C92.9540541,37.6022523 93.3572072,38.0054054 93.3572072,38.5031532 L93.3572072,86.6878378 C93.3572072,87.1855856 92.9540541,87.5887387 92.4563063,87.5887387 L11.3698198,87.5887387 C10.8720721,87.5887387 10.4689189,87.1851351 10.4689189,86.6878378 Z" id="Path" fill="#FFFFFF" fill-rule="nonzero"></path>
                <path d="M22.7477477,79.7626126 L17.5675676,79.7626126 C17.0698198,79.7626126 16.6666667,79.3594595 16.6666667,78.8617117 L16.6666667,50.136036 C16.6666667,49.6382883 17.0698198,49.2351351 17.5675676,49.2351351 L22.7477477,49.2351351 C23.2454955,49.2351351 23.6486486,49.6382883 23.6486486,50.136036 L23.6486486,78.8617117 C23.6486486,79.359009 23.2454955,79.7626126 22.7477477,79.7626126 Z" id="Path" fill="#003057"></path>
                <path d="M34.4594595,79.7626126 L29.2792793,79.7626126 C28.7815315,79.7626126 28.3783784,79.3594595 28.3783784,78.8617117 L28.3783784,54.6405405 C28.3783784,54.1427928 28.7815315,53.7396396 29.2792793,53.7396396 L34.4594595,53.7396396 C34.9572072,53.7396396 35.3603604,54.1427928 35.3603604,54.6405405 L35.3603604,78.8617117 C35.3603604,79.359009 34.9572072,79.7626126 34.4594595,79.7626126 Z" id="Path" fill="#003057"></path>
                <path d="M47.0720721,79.7626126 L41.8918919,79.7626126 C41.3941441,79.7626126 40.990991,79.3594595 40.990991,78.8617117 L40.990991,59.3702703 C40.990991,58.8725225 41.3941441,58.4693694 41.8918919,58.4693694 L47.0720721,58.4693694 C47.5698198,58.4693694 47.972973,58.8725225 47.972973,59.3702703 L47.972973,78.8617117 C47.972973,79.359009 47.5698198,79.7626126 47.0720721,79.7626126 Z" id="Path" fill="#003057"></path>
                <path d="M60.2463964,96.1414414 L43.5797297,96.1414414 C43.0824324,96.1414414 42.6788288,95.7378378 42.6788288,95.2405405 L42.6788288,91.4144144 C42.6788288,90.9171171 43.0824324,90.5135135 43.5797297,90.5135135 L60.2463964,90.5135135 C60.7436937,90.5135135 61.1472973,90.9171171 61.1472973,91.4144144 L61.1472973,95.2405405 C61.1472973,95.7378378 60.7441441,96.1414414 60.2463964,96.1414414 Z M44.4806306,94.3396396 L59.3454955,94.3396396 L59.3454955,92.3153153 L44.4806306,92.3153153 L44.4806306,94.3396396 L44.4806306,94.3396396 Z" id="Shape" fill="#FFFFFF" fill-rule="nonzero"></path>
                <path d="M92.4563063,88.4896396 L11.3698198,88.4896396 C10.3761261,88.4896396 9.56801802,87.6815315 9.56801802,86.6878378 L9.56801802,38.5031532 C9.56801802,37.5094595 10.3761261,36.7013514 11.3698198,36.7013514 L92.4563063,36.7013514 C93.45,36.7013514 94.2581081,37.5094595 94.2581081,38.5031532 L94.2581081,86.6878378 C94.2581081,87.6810811 93.45,88.4896396 92.4563063,88.4896396 Z M11.3698198,38.5031532 L11.3698198,86.6891892 L92.4563063,86.6882883 L92.4563063,38.5031532 L11.3698198,38.5031532 L11.3698198,38.5031532 Z" id="Shape" fill="#76D5D4"></path>
                <path d="M101.267568,75.2581081 L48.1144144,75.2581081 C46.6216216,75.2581081 45.4117117,74.0481982 45.4117117,72.5554054 L45.4117117,3.63648649 C45.4117117,2.14369369 46.6216216,0.933783784 48.1144144,0.933783784 L101.267568,0.933783784 C102.76036,0.933783784 103.97027,2.14369369 103.97027,3.63648649 L103.97027,72.5554054 C103.97027,74.0481982 102.76036,75.2581081 101.267568,75.2581081 Z" id="Path" fill="#D3EAE4"></path>
                <path d="M96.6216216,14.8810811 L53.7148649,14.8810811 C52.7198198,14.8810811 51.9130631,14.0743243 51.9130631,13.0792793 L51.9130631,13.0792793 C51.9130631,12.0842342 52.7198198,11.2774775 53.7148649,11.2774775 L96.6216216,11.2774775 C97.6166667,11.2774775 98.4234234,12.0842342 98.4234234,13.0792793 L98.4234234,13.0792793 C98.4234234,14.0743243 97.6166667,14.8810811 96.6216216,14.8810811 Z" id="Path" fill="#003057"></path>
                <path d="M96.6216216,24.790991 L53.7148649,24.790991 C52.7198198,24.790991 51.9130631,23.9842342 51.9130631,22.9891892 L51.9130631,22.9891892 C51.9130631,21.9941441 52.7198198,21.1873874 53.7148649,21.1873874 L96.6216216,21.1873874 C97.6166667,21.1873874 98.4234234,21.9941441 98.4234234,22.9891892 L98.4234234,22.9891892 C98.4234234,23.9842342 97.6166667,24.790991 96.6216216,24.790991 Z" id="Path" fill="#003057"></path>
                <path d="M96.6216216,34.7009009 L53.7148649,34.7009009 C52.7198198,34.7009009 51.9130631,33.8941441 51.9130631,32.8990991 L51.9130631,32.8990991 C51.9130631,31.9040541 52.7198198,31.0972973 53.7148649,31.0972973 L96.6216216,31.0972973 C97.6166667,31.0972973 98.4234234,31.9040541 98.4234234,32.8990991 L98.4234234,32.8990991 C98.4234234,33.8941441 97.6166667,34.7009009 96.6216216,34.7009009 Z" id="Path" fill="#003057"></path>
                <path d="M96.6216216,44.6108108 L53.7148649,44.6108108 C52.7198198,44.6108108 51.9130631,43.8040541 51.9130631,42.809009 L51.9130631,42.809009 C51.9130631,41.813964 52.7198198,41.0072072 53.7148649,41.0072072 L96.6216216,41.0072072 C97.6166667,41.0072072 98.4234234,41.813964 98.4234234,42.809009 L98.4234234,42.809009 C98.4234234,43.8040541 97.6166667,44.6108108 96.6216216,44.6108108 Z" id="Path" fill="#003057"></path>
                <path d="M96.6216216,54.5207207 L53.7148649,54.5207207 C52.7198198,54.5207207 51.9130631,53.713964 51.9130631,52.7189189 L51.9130631,52.7189189 C51.9130631,51.7238739 52.7198198,50.9171171 53.7148649,50.9171171 L96.6216216,50.9171171 C97.6166667,50.9171171 98.4234234,51.7238739 98.4234234,52.7189189 L98.4234234,52.7189189 C98.4234234,53.713964 97.6166667,54.5207207 96.6216216,54.5207207 Z" id="Path" fill="#003057"></path>
                <path d="M96.6216216,64.4306306 L53.7148649,64.4306306 C52.7198198,64.4306306 51.9130631,63.6238739 51.9130631,62.6288288 L51.9130631,62.6288288 C51.9130631,61.6337838 52.7198198,60.827027 53.7148649,60.827027 L96.6216216,60.827027 C97.6166667,60.827027 98.4234234,61.6337838 98.4234234,62.6288288 L98.4234234,62.6288288 C98.4234234,63.6238739 97.6166667,64.4306306 96.6216216,64.4306306 Z" id="Path" fill="#003057"></path>
                <path d="M90.7045045,33.7981982 C83.0666667,26.1599099 70.6666667,26.1324324 63.0630631,33.736036 C55.4594595,41.3400901 55.4869369,53.7400901 63.1247748,61.3779279 C70.7626126,69.0157658 83.1626126,69.0432432 90.7662162,61.4396396 C98.3702703,53.8355856 98.3423423,41.4355856 90.7045045,33.7981982 Z M86.9436937,57.6166667 C84.2810811,60.2792793 80.7288288,61.7405405 76.940991,61.7311267 C73.1563063,61.7220721 69.6004505,60.2454955 66.9288288,57.5734234 C61.3986486,52.0436937 61.3792793,43.0648649 66.8855856,37.5585586 C69.5477477,34.8959459 73.1,33.4346847 76.8878378,33.4440985 C80.6725225,33.4531532 84.2283784,34.9301802 86.9004505,37.6018018 C89.572973,40.2743243 91.0495495,43.8310811 91.0581455,47.6171171 C91.0666667,51.4040541 89.6054054,54.954955 86.9436937,57.6166667 Z" id="Shape" fill="#D3EAE4"></path>
                <path d="M77.0031532,68.0252252 C76.9873874,68.0252252 76.9725225,68.0252252 76.9563063,68.0252252 C71.4896396,68.0130631 66.3513514,65.8783784 62.4878378,62.0148649 C54.4986486,54.0256757 54.4711712,41.0540541 62.4261261,33.0990991 C66.2630631,29.2621622 71.3756757,27.1504505 76.8256757,27.1504505 C76.8418919,27.1504505 76.8567568,27.1504505 76.872973,27.1504505 C82.3396396,27.1626126 87.4779279,29.2972973 91.3414414,33.1612613 L91.3414414,33.1612613 L91.3414414,33.1612613 C95.204955,37.0247748 97.3396396,42.1630631 97.351854,47.6297297 C97.363964,53.0977477 95.2513514,58.2288288 91.4031532,62.077027 C87.5662162,65.9135135 82.4536036,68.0252252 77.0031532,68.0252252 Z M76.8261261,28.9522523 C71.8567568,28.9522523 67.1968468,30.8761261 63.7,34.372973 C56.4472973,41.6256757 56.4752252,53.4540541 63.7617117,60.740991 C67.286036,64.2653153 71.9734234,66.2121622 76.9603604,66.2234234 C76.9747748,66.2234234 76.9891892,66.2234234 77.0036036,66.2234234 C81.972973,66.2234234 86.6328829,64.2995495 90.1297297,60.8027027 C93.6364865,57.2954955 95.5621622,52.6189189 95.5505036,47.6333333 C95.5396396,42.6468468 93.5923423,37.9594595 90.068018,34.4351351 L90.068018,34.4351351 C86.5436937,30.9108108 81.8563063,28.9635135 76.8693694,28.9522523 C76.8545045,28.9522523 76.8400901,28.9522523 76.8261261,28.9522523 Z M76.977027,62.631982 C76.9644144,62.631982 76.9518018,62.631982 76.9391892,62.631982 C72.9144144,62.6220721 69.1333333,61.0518018 66.2918919,58.2108108 C60.4103604,52.3292793 60.390991,42.7792793 66.2486486,36.9220721 C69.0725225,34.0977477 72.8369369,32.5436937 76.8522523,32.5436937 C76.8648649,32.5436937 76.8774775,32.5436937 76.8900901,32.5436937 C80.9144144,32.5536036 84.6954955,34.1238739 87.5378378,36.9648649 C90.3801802,39.8076577 91.9504505,43.5900901 91.9590479,47.6153153 C91.968018,51.6432432 90.4130631,55.4211712 87.5806306,58.2536036 L87.5806306,58.2536036 C84.7567568,61.0779279 80.9918919,62.631982 76.977027,62.631982 Z M76.8522523,34.3454955 C73.318018,34.3454955 70.0063063,35.7121622 67.5225225,38.1959459 C62.368018,43.3509009 62.3873874,51.7581081 67.5657658,56.9369369 C70.0684685,59.4391892 73.3986486,60.8220721 76.9432432,60.8306306 C76.9540541,60.8306306 76.9657658,60.8306306 76.9765766,60.8306306 C80.5108108,60.8306306 83.8225225,59.463964 86.3067568,56.9801802 L86.3067568,56.9801802 C88.7972973,54.4891892 90.1648649,51.1648649 90.1572392,47.6198198 C90.1490991,44.0738739 88.7666667,40.7427928 86.2635135,38.2396396 C83.7603604,35.7373874 80.4301802,34.3545045 76.8855856,34.3459459 C76.8747748,34.3454955 76.8635135,34.3454955 76.8522523,34.3454955 Z" id="Shape" fill="#76D5D4"></path>
                <path d="M107.922523,78.5959459 L107.922523,78.5959459 C106.473874,80.0445946 104.125676,80.0445946 102.677027,78.5959459 L92.3189189,68.2378378 C91.8896396,67.8085586 91.8896396,67.1121622 92.3189189,66.6828829 L96.0094595,62.9923423 C96.4387387,62.5630631 97.1351351,62.5630631 97.5644144,62.9923423 L107.922523,73.3504505 C109.371171,74.7990991 109.371171,77.1472973 107.922523,78.5959459 Z" id="Path" fill="#76D5D4"></path>
                <path d="M105.3,80.5833333 C104.068919,80.5833333 102.910811,80.1040541 102.040541,79.2333333 L91.6824324,68.8747748 C90.9027027,68.095045 90.9027027,66.8256757 91.6824324,66.0459459 L95.372973,62.3558559 C95.7504505,61.9779279 96.2527027,61.7698198 96.7873874,61.7698198 C97.3220721,61.7698198 97.8243243,61.9779279 98.2022523,62.3558559 L108.55991,72.713964 C109.431081,73.5846847 109.91036,74.7418919 109.91036,75.9734234 C109.91036,77.2045045 109.431081,78.3621622 108.55991,79.2328829 L108.55991,79.2328829 L108.55991,79.2328829 C107.688739,80.1036036 106.531532,80.5833333 105.3,80.5833333 Z M96.7869369,63.5711712 C96.7495495,63.5711712 96.695045,63.5810811 96.6468468,63.6292793 L92.9558559,67.3193694 C92.8783784,67.3968468 92.8783784,67.522973 92.9558559,67.6004505 L103.313964,77.9585586 C103.844595,78.4887387 104.54955,78.7810811 105.29955,78.7810811 C106.05,78.7810811 106.754505,78.4891892 107.285135,77.9585586 L107.285135,77.9585586 C107.815766,77.4279279 108.107658,76.722973 108.107658,75.972973 C108.107658,75.222973 107.815766,74.518018 107.285135,73.9873874 L96.927027,63.6288288 C96.8788288,63.5810811 96.8243243,63.5711712 96.7869369,63.5711712 Z" id="Shape" fill="#76D5D4"></path>
                <path d="M95.9076577,63.0941441 L92.395045,59.5815315 C91.8963964,60.2261261 91.3572072,60.8486486 90.7662162,61.4396396 C90.1752252,62.0306306 89.5522523,62.5698198 88.9081081,63.0684685 L92.4207207,66.5810811 L95.9076577,63.0941441 Z" id="Path" fill="#D3EAE4"></path>
                <path d="M92.4207207,67.481982 C92.1900901,67.481982 91.9599099,67.3941441 91.7837838,67.218018 L88.2711712,63.7054054 C88.0882883,63.5225225 87.9927928,63.2698198 88.009009,63.0112613 C88.0252252,62.7527027 88.1518018,62.513964 88.3563063,62.3558559 C88.9995495,61.8581081 89.5959459,61.3351351 90.1292793,60.8022523 C90.6630631,60.2684685 91.1855856,59.6720721 91.6824324,59.0297297 C91.840991,58.8247748 92.0797297,58.6981982 92.3378378,58.681982 C92.5963964,58.6662162 92.8490991,58.7612613 93.031982,58.9441441 L96.5445946,62.4567568 C96.8963964,62.8085586 96.8963964,63.3788288 96.5445946,63.7306306 L93.0576577,67.2175676 C92.8815315,67.3941441 92.6513514,67.481982 92.4207207,67.481982 Z M90.2513514,63.1378378 L92.4202703,65.3067568 L94.6333333,63.0936937 L92.4644144,60.9247748 C92.118018,61.3310811 91.7630631,61.7162162 91.4031532,62.0765766 C91.0432432,62.4364865 90.6581081,62.7914414 90.2513514,63.1378378 Z" id="Shape" fill="#76D5D4"></path>
            </g>
        </g>
    </g>
</svg>