<?xml version="1.0" encoding="UTF-8"?>
<svg width="100px" height="100px" viewBox="0 0 100 100" version="1.1" xmlns="http://www.w3.org/2000/svg" xmlns:xlink="http://www.w3.org/1999/xlink">
    <!-- Generator: sketchtool 64 (101010) - https://sketch.com -->
    <title>C021C31F-A026-4444-B05F-D788B9D89822</title>
    <desc>Created with sketchtool.</desc>
    <g id="Features-Page" stroke="none" stroke-width="1" fill="none" fill-rule="evenodd">
        <g id="UI/Web/Features-Page" transform="translate(-157.000000, -1705.000000)">
            <g id="Thesis" transform="translate(157.000000, 1705.000000)">
                <path d="M96.2487705,87.8131148 L45.5016393,87.8131148 L45.5016393,87.8131148 L35.9610656,87.8131148 C34.1672131,87.8131148 32.7131148,89.2672131 32.7131148,91.0610656 L32.7131148,91.0610656 L32.7131148,95.9327869 C32.7131148,97.7266393 34.1672131,99.1807377 35.9610656,99.1807377 L96.2487705,99.1807377 C97.3696721,99.1807377 98.2786885,98.2717213 98.2786885,97.1508197 C98.2786885,92.3311475 98.2786885,90.9905738 98.2786885,85.7836066 C98.2786885,86.9040984 97.3696721,87.8131148 96.2487705,87.8131148 Z" id="Path" fill="#76D5D4"></path>
                <path d="M96.2487705,100 L35.9610656,100 C33.7180328,100 31.8934426,98.1754098 31.8934426,95.932377 L31.8934426,91.0606557 C31.8934426,88.817623 33.7180328,86.9930328 35.9610656,86.9930328 L96.2491803,86.9930328 C96.9163934,86.9930328 97.4594262,86.45 97.4594262,85.7827869 C97.4594262,85.3303279 97.8266393,84.9631148 98.2790984,84.9631148 C98.7315574,84.9631148 99.0987705,85.3303279 99.0987705,85.7827869 L99.0987705,97.15 C99.0987705,98.7217213 97.820082,100 96.2487705,100 Z M35.9610656,88.6327869 C34.6221311,88.6327869 33.5327869,89.7221311 33.5327869,91.0610656 L33.5327869,95.9327869 C33.5327869,97.2717213 34.6221311,98.3610656 35.9610656,98.3610656 L96.2491803,98.3610656 C96.9163934,98.3610656 97.4594262,97.8180328 97.4594262,97.1508197 L97.4594262,88.3631148 C97.0922131,88.5364754 96.6815574,88.6331967 96.2491803,88.6331967 L35.9610656,88.6331967 L35.9610656,88.6327869 Z" id="Shape" fill="#76D5D4"></path>
                <path d="M45.5016393,87.8131148 L35.9610656,87.8131148 C34.1672131,87.8131148 32.7131148,89.2672131 32.7131148,91.0610656 L32.7131148,92.6848361 C32.7131148,94.4786885 34.1672131,95.9327869 35.9610656,95.9327869 L94.8278689,95.9327869 L94.8278689,87.8131148 L45.5016393,87.8131148 Z" id="Path" fill="#FFFFFF" fill-rule="nonzero"></path>
                <path d="M94.8278689,96.7520492 L35.9610656,96.7520492 C33.7180328,96.7520492 31.8934426,94.927459 31.8934426,92.6844262 L31.8934426,91.0606557 C31.8934426,88.817623 33.7180328,86.9930328 35.9610656,86.9930328 L94.8278689,86.9930328 C95.2803279,86.9930328 95.647541,87.3602459 95.647541,87.8127049 L95.647541,95.932377 C95.647541,96.3852459 95.2807377,96.7520492 94.8278689,96.7520492 Z M35.9610656,88.6327869 C34.6221311,88.6327869 33.5327869,89.7221311 33.5327869,91.0610656 L33.5327869,92.6848361 C33.5327869,94.0237705 34.6221311,95.1131148 35.9610656,95.1131148 L94.0081967,95.1131148 L94.0081967,88.6327869 L35.9610656,88.6327869 Z" id="Shape" fill="#76D5D4"></path>
                <path d="M65.5635246,87.8131148 L3.35040984,87.8131148 C1.60327869,87.8131148 0.186885246,86.3967213 0.186885246,84.6495902 L0.186885246,3.98319672 C0.186885246,2.23606557 1.60327869,0.819672131 3.35040984,0.819672131 L65.5639344,0.819672131 C67.3110656,0.819672131 68.727459,2.23606557 68.727459,3.98319672 L68.727459,84.6495902 C68.727459,86.3967213 67.3106557,87.8131148 65.5635246,87.8131148 Z" id="Path" fill="#D3EAE4"></path>
                <path d="M59.5766393,36.9217213 L9.33729508,36.9217213 C8.17786885,36.9217213 7.23770492,35.9815574 7.23770492,34.8221311 L7.23770492,34.8221311 C7.23770492,33.6627049 8.17786885,32.722541 9.33729508,32.722541 L59.5766393,32.722541 C60.7360656,32.722541 61.6762295,33.6627049 61.6762295,34.8221311 L61.6762295,34.8221311 C61.6762295,35.9815574 60.7360656,36.9217213 59.5766393,36.9217213 Z" id="Path" fill="#1E496C"></path>
                <path d="M59.5766393,53.7405738 L9.33729508,53.7405738 C8.17786885,53.7405738 7.23770492,52.8004098 7.23770492,51.6409836 L7.23770492,51.6409836 C7.23770492,50.4815574 8.17786885,49.5413934 9.33729508,49.5413934 L59.5766393,49.5413934 C60.7360656,49.5413934 61.6762295,50.4815574 61.6762295,51.6409836 L61.6762295,51.6409836 C61.6762295,52.8004098 60.7360656,53.7405738 59.5766393,53.7405738 Z" id="Path" fill="#1E496C"></path>
                <path d="M31.4151639,12.6077869 L9.10163934,12.6077869 C8.07213115,12.6077869 7.23770492,11.7733607 7.23770492,10.7438525 L7.23770492,10.7438525 C7.23770492,9.71434426 8.07213115,8.87991803 9.10163934,8.87991803 L31.4151639,8.87991803 C32.4446721,8.87991803 33.2790984,9.71434426 33.2790984,10.7438525 L33.2790984,10.7438525 C33.2790984,11.7729508 32.4446721,12.6077869 31.4151639,12.6077869 Z" id="Path" fill="#FFFFFF" fill-rule="nonzero"></path>
                <path d="M31.4151639,20.6844262 L9.10163934,20.6844262 C8.07213115,20.6844262 7.23770492,19.85 7.23770492,18.8204918 L7.23770492,18.8204918 C7.23770492,17.7909836 8.07213115,16.9565574 9.10163934,16.9565574 L31.4151639,16.9565574 C32.4446721,16.9565574 33.2790984,17.7909836 33.2790984,18.8204918 L33.2790984,18.8204918 C33.2790984,19.85 32.4446721,20.6844262 31.4151639,20.6844262 Z" id="Path" fill="#FFFFFF" fill-rule="nonzero"></path>
                <path d="M59.5766393,45.5336066 L9.33729508,45.5336066 C8.17786885,45.5336066 7.23770492,44.5934426 7.23770492,43.4340164 L7.23770492,43.4340164 C7.23770492,42.2745902 8.17786885,41.3344262 9.33729508,41.3344262 L59.5766393,41.3344262 C60.7360656,41.3344262 61.6762295,42.2745902 61.6762295,43.4340164 L61.6762295,43.4340164 C61.6762295,44.5934426 60.7360656,45.5336066 59.5766393,45.5336066 Z" id="Path" fill="#1E496C"></path>
                <path d="M59.5766393,62.2147541 L9.33729508,62.2147541 C8.17786885,62.2147541 7.23770492,61.2745902 7.23770492,60.1151639 L7.23770492,60.1151639 C7.23770492,58.9557377 8.17786885,58.0155738 9.33729508,58.0155738 L59.5766393,58.0155738 C60.7360656,58.0155738 61.6762295,58.9557377 61.6762295,60.1151639 L61.6762295,60.1151639 C61.6762295,61.2745902 60.7360656,62.2147541 59.5766393,62.2147541 Z" id="Path" fill="#1E496C"></path>
                <path d="M59.5766393,70.6885246 L9.33729508,70.6885246 C8.17786885,70.6885246 7.23770492,69.7483607 7.23770492,68.5889344 L7.23770492,68.5889344 C7.23770492,67.4295082 8.17786885,66.4893443 9.33729508,66.4893443 L59.5766393,66.4893443 C60.7360656,66.4893443 61.6762295,67.4295082 61.6762295,68.5889344 L61.6762295,68.5889344 C61.6762295,69.7487705 60.7360656,70.6885246 59.5766393,70.6885246 Z" id="Path" fill="#1E496C"></path>
                <path d="M96.2487705,87.8131148 L45.5016393,87.8131148 L45.5016393,12.3008197 L96.2487705,12.3008197 C97.3696721,12.3008197 98.2786885,13.2098361 98.2786885,14.3307377 L98.2786885,85.7827869 C98.2786885,86.9040984 97.3696721,87.8131148 96.2487705,87.8131148 Z" id="Path" fill="#D3EAE4"></path>
                <path d="M35.9610656,87.8131148 L45.5016393,87.8131148 L45.5016393,12.3008197 L35.9610656,12.3008197 C34.1672131,12.3008197 32.7131148,13.754918 32.7131148,15.5487705 L32.7131148,91.0606557 C32.7131148,89.2668033 34.1672131,87.8131148 35.9610656,87.8131148 Z" id="Path" fill="#76D5D4"></path>
                <path d="M90.1590164,55.7405738 L53.4180328,55.7405738 C52.072541,55.7405738 50.9819672,54.65 50.9819672,53.3045082 L50.9819672,20.217623 C50.9819672,18.8721311 52.072541,17.7815574 53.4180328,17.7815574 L90.1590164,17.7815574 C91.5045082,17.7815574 92.595082,18.8721311 92.595082,20.217623 L92.595082,53.304918 C92.595082,54.65 91.5045082,55.7405738 90.1590164,55.7405738 Z" id="Path" fill="#FFFFFF" fill-rule="nonzero"></path>
                <path d="M88.6057377,44.902459 C88.6057377,42.0967213 88.6057377,38.3495902 88.6057377,35.0663934 L87.5508197,35.4717213 C87.5508197,38.0286885 87.5508197,44.1184426 87.5508197,44.902459 C87.1754098,45.0946721 86.9180328,45.4848361 86.9180328,45.9352459 L86.9180328,48.7127049 L89.2385246,48.7127049 L89.2385246,45.9352459 C89.2385246,45.4844262 88.9807377,45.0946721 88.6057377,44.902459 Z" id="Path" fill="#F5C54C"></path>
                <path d="M70.7196721,27.4557377 L54.5901639,33.6520492 C53.9885246,33.8831967 53.9885246,34.7344262 54.5901639,34.9655738 L70.720082,41.1618852 C71.3696721,41.4114754 72.0889344,41.4114754 72.7385246,41.1618852 L88.8684426,34.9655738 C89.470082,34.7344262 89.470082,33.8831967 88.8684426,33.6520492 L72.7385246,27.4557377 C72.0885246,27.2061475 71.3692623,27.2061475 70.7196721,27.4557377 Z" id="Path" fill="#1E496C"></path>
                <path d="M82.1672131,35.2020492 L61.3577869,35.2020492 C61.167623,35.2020492 61.0131148,35.3561475 61.0131148,35.5467213 L61.0131148,40.6844262 L61.0131148,40.6844262 C61.0131148,41.8184426 65.8258197,42.7377049 71.7622951,42.7377049 C77.6987705,42.7377049 82.5114754,41.8184426 82.5114754,40.6844262 L82.5118852,40.6844262 L82.5118852,35.5463115 C82.5114754,35.3561475 82.357377,35.2020492 82.1672131,35.2020492 Z" id="Path" fill="#1E496C"></path>
                <path d="M90.1590164,66.3639344 L53.4180328,66.3639344 C52.072541,66.3639344 50.9819672,65.2733607 50.9819672,63.9278689 L50.9819672,63.9278689 C50.9819672,62.582377 52.072541,61.4918033 53.4180328,61.4918033 L90.1590164,61.4918033 C91.5045082,61.4918033 92.595082,62.582377 92.595082,63.9278689 L92.595082,63.9278689 C92.595082,65.2729508 91.5045082,66.3639344 90.1590164,66.3639344 Z" id="Path" fill="#1E496C"></path>
                <path d="M85.9979508,75.7012295 L57.5795082,75.7012295 C56.4586066,75.7012295 55.5495902,74.792623 55.5495902,73.6713115 L55.5495902,73.6713115 C55.5495902,72.5504098 56.4581967,71.6413934 57.5795082,71.6413934 L85.9979508,71.6413934 C87.1188525,71.6413934 88.0278689,72.55 88.0278689,73.6713115 L88.0278689,73.6713115 C88.0278689,74.792623 87.1188525,75.7012295 85.9979508,75.7012295 Z" id="Path" fill="#1E496C"></path>
                <path d="M18.6094262,67.8934426 L18.6094262,26.8954918 L13.3377049,19.2536885 C13.1569672,18.9918033 12.6901639,18.9918033 12.5094262,19.2536885 L7.23770492,26.8959016 L7.23770492,67.8934426 L18.6094262,67.8934426 L18.6094262,67.8934426 Z" id="Path" fill="#F9CFCF" fill-rule="nonzero"></path>
                <path d="M10.1602459,67.8934426 L10.1602459,28.5504098 C9.13852459,28.5504098 8.30655738,26.7594262 7.23770492,26.9143443 L7.23770492,67.8934426 L10.1602459,67.8934426 Z" id="Path" fill="#6BDDDD" fill-rule="nonzero"></path>
                <path d="M15.6868852,67.8934426 L15.6868852,28.5504098 C15.1487705,28.5504098 14.9959016,28.279918 13.5069672,27.0877049 C12.3938525,26.1967213 11.2688525,28.5504098 10.1602459,28.5504098 L10.1602459,67.8934426 L15.6868852,67.8934426 Z" id="Path" fill="#6BDDDD" fill-rule="nonzero"></path>
                <path d="M18.6094262,67.8934426 L18.6094262,26.9143443 C17.5405738,26.7590164 16.7086066,28.5504098 15.6868852,28.5504098 L15.6868852,67.8934426 L18.6094262,67.8934426 L18.6094262,67.8934426 Z" id="Path" fill="#6BDDDD" fill-rule="nonzero"></path>
                <rect id="Rectangle" fill="#1E496C" x="7.23770492" y="67.8934426" width="11.3713115" height="4.33401639"></rect>
                <path d="M16.1807377,80.942623 L9.66639344,80.942623 C8.325,80.942623 7.23770492,79.8553279 7.23770492,78.5139344 L7.23770492,72.227459 L18.6090165,72.227459 L18.6090165,78.5139344 C18.6094262,79.8553279 17.5221311,80.942623 16.1807377,80.942623 Z" id="Path" fill="#EDC0F2"></path>
                <path d="M16.3913934,23.6807377 L13.3377049,19.2536885 C13.1569672,18.9918033 12.6901639,18.9918033 12.5094262,19.2536885 L9.4557377,23.6807377 L16.3913934,23.6807377 Z" id="Path" fill="#1E496C"></path>
                <path d="M96.2487705,88.6327869 L45.5016393,88.6327869 C45.0491803,88.6327869 44.6819672,88.2655738 44.6819672,87.8131148 L44.6819672,12.3012295 C44.6819672,11.8487705 45.0491803,11.4815574 45.5016393,11.4815574 L96.2487705,11.4815574 C97.820082,11.4815574 99.0983607,12.7598361 99.0983607,14.3307377 L99.0983607,85.7831967 C99.0983607,87.3545082 97.820082,88.6327869 96.2487705,88.6327869 Z M46.3213115,86.9934426 L96.2487705,86.9934426 C96.9159836,86.9934426 97.4590164,86.4504098 97.4590164,85.7831967 L97.4590164,14.3307377 C97.4590164,13.6635246 96.9159836,13.1209016 96.2487705,13.1209016 L46.3213115,13.1209016 L46.3213115,86.9934426 Z" id="Shape" fill="#76D5D4"></path>
                <path d="M32.7131148,91.8803279 C32.2606557,91.8803279 31.8934426,91.5131148 31.8934426,91.0606557 L31.8934426,15.5487705 C31.8934426,13.3057377 33.7180328,11.4811475 35.9610656,11.4811475 L45.5016393,11.4811475 C45.9540984,11.4811475 46.3213115,11.8483607 46.3213115,12.3008197 L46.3213115,87.8127049 C46.3213115,88.2651639 45.9540984,88.632377 45.5016393,88.632377 L35.9610656,88.632377 C34.6221311,88.632377 33.5327869,89.7217213 33.5327869,91.0606557 C33.5327869,91.5135246 33.1655738,91.8803279 32.7131148,91.8803279 Z M35.9610656,13.1209016 C34.6221311,13.1209016 33.5327869,14.2102459 33.5327869,15.5491803 L33.5327869,87.7991803 C34.2106557,87.2934426 35.0516393,86.9930328 35.9610656,86.9930328 L44.6819672,86.9930328 L44.6819672,13.1209016 L35.9610656,13.1209016 Z" id="Shape" fill="#76D5D4"></path>
            </g>
        </g>
    </g>
</svg>